G04 MADE WITH FRITZING*
G04 WWW.FRITZING.ORG*
G04 DOUBLE SIDED*
G04 HOLES PLATED*
G04 CONTOUR ON CENTER OF CONTOUR VECTOR*
%ASAXBY*%
%FSLAX23Y23*%
%MOIN*%
%OFA0B0*%
%SFA1.0B1.0*%
%ADD10C,0.084472*%
%ADD11C,0.085000*%
%ADD12C,0.109055*%
%ADD13C,0.090000*%
%ADD14C,0.084000*%
%ADD15C,0.092000*%
%ADD16C,0.088000*%
%ADD17C,0.049370*%
%ADD18C,0.096614*%
%ADD19R,0.084108X0.084472*%
%ADD20R,0.085000X0.085000*%
%ADD21R,0.109055X0.109055*%
%ADD22R,0.090000X0.090000*%
%ADD23R,0.092000X0.092000*%
%ADD24R,0.088000X0.088000*%
%ADD25R,0.001000X0.001000*%
%LNMASK0*%
G90*
G70*
G54D10*
X3455Y3506D03*
X3555Y3506D03*
X3455Y3606D03*
X3555Y3606D03*
X3455Y3707D03*
X3555Y3707D03*
X3455Y3808D03*
X3555Y3808D03*
X3455Y1506D03*
X3555Y1506D03*
X3455Y1606D03*
X3555Y1606D03*
X3455Y1707D03*
X3555Y1707D03*
X3455Y1808D03*
X3555Y1808D03*
G54D11*
X2955Y1707D03*
X2955Y1407D03*
X2855Y1707D03*
X2855Y1407D03*
X2755Y1707D03*
X2755Y1407D03*
X2655Y1707D03*
X2655Y1407D03*
X2555Y1707D03*
X2555Y1407D03*
X2455Y1707D03*
X2455Y1407D03*
X2355Y1707D03*
X2355Y1407D03*
X2255Y1707D03*
X2255Y1407D03*
X2955Y3707D03*
X2955Y3407D03*
X2855Y3707D03*
X2855Y3407D03*
X2755Y3707D03*
X2755Y3407D03*
X2655Y3707D03*
X2655Y3407D03*
X2555Y3707D03*
X2555Y3407D03*
X2455Y3707D03*
X2455Y3407D03*
X2355Y3707D03*
X2355Y3407D03*
X2255Y3707D03*
X2255Y3407D03*
X1855Y1707D03*
X1855Y1407D03*
X1755Y1707D03*
X1755Y1407D03*
X1655Y1707D03*
X1655Y1407D03*
X1555Y1707D03*
X1555Y1407D03*
X1455Y1707D03*
X1455Y1407D03*
X1355Y1707D03*
X1355Y1407D03*
X1255Y1707D03*
X1255Y1407D03*
X1155Y1707D03*
X1155Y1407D03*
X1855Y3707D03*
X1855Y3407D03*
X1755Y3707D03*
X1755Y3407D03*
X1655Y3707D03*
X1655Y3407D03*
X1555Y3707D03*
X1555Y3407D03*
X1455Y3707D03*
X1455Y3407D03*
X1355Y3707D03*
X1355Y3407D03*
X1255Y3707D03*
X1255Y3407D03*
X1155Y3707D03*
X1155Y3407D03*
G54D12*
X2862Y207D03*
X3059Y207D03*
X3255Y207D03*
X1862Y207D03*
X2059Y207D03*
X2255Y207D03*
X862Y207D03*
X1059Y207D03*
X1255Y207D03*
X1862Y2207D03*
X2059Y2207D03*
X2255Y2207D03*
X862Y2207D03*
X1059Y2207D03*
X1255Y2207D03*
X2862Y2207D03*
X3059Y2207D03*
X3255Y2207D03*
G54D13*
X355Y1807D03*
X355Y1610D03*
X355Y3807D03*
X355Y3610D03*
G54D14*
X455Y2207D03*
X355Y2207D03*
X255Y2207D03*
X455Y207D03*
X355Y207D03*
X255Y207D03*
G54D11*
X355Y707D03*
X355Y407D03*
X455Y707D03*
X455Y407D03*
X455Y2707D03*
X455Y2407D03*
X355Y2707D03*
X355Y2407D03*
G54D15*
X155Y1007D03*
X453Y1007D03*
X155Y855D03*
X453Y855D03*
X155Y2855D03*
X453Y2855D03*
X155Y3007D03*
X453Y3007D03*
G54D16*
X355Y1422D03*
X355Y1322D03*
X355Y1222D03*
X355Y3422D03*
X355Y3322D03*
X355Y3222D03*
X155Y1307D03*
X155Y1207D03*
X155Y3307D03*
X155Y3207D03*
X3305Y3407D03*
X3205Y3407D03*
X3105Y3407D03*
X3305Y1407D03*
X3205Y1407D03*
X3105Y1407D03*
G54D17*
X3155Y3707D03*
X3155Y1707D03*
G54D18*
X255Y1940D03*
X155Y1940D03*
X355Y1940D03*
X455Y1940D03*
X555Y1940D03*
X655Y1940D03*
X755Y1940D03*
X855Y1940D03*
X955Y1940D03*
X1055Y1940D03*
X1155Y1940D03*
X1255Y1940D03*
X1355Y1940D03*
X1455Y1940D03*
X1555Y1940D03*
X1655Y1940D03*
X1755Y1940D03*
X1855Y1940D03*
X2055Y1940D03*
X1955Y1940D03*
X2155Y1940D03*
X2255Y1940D03*
X2355Y1940D03*
X2455Y1940D03*
X2555Y1940D03*
X2655Y1940D03*
X2755Y1940D03*
X2855Y1940D03*
X2955Y1940D03*
X3055Y1940D03*
X3255Y1940D03*
X3555Y1940D03*
X3455Y1940D03*
X3655Y1940D03*
X3355Y1940D03*
X3155Y1940D03*
X55Y1940D03*
G54D19*
X3455Y3506D03*
X3455Y3808D03*
X3455Y1506D03*
X3455Y1808D03*
G54D20*
X2955Y1707D03*
X2955Y3707D03*
X1855Y1707D03*
X1855Y3707D03*
G54D21*
X2862Y207D03*
X1862Y207D03*
X862Y207D03*
X1862Y2207D03*
X862Y2207D03*
X2862Y2207D03*
G54D22*
X355Y1807D03*
X355Y3807D03*
G54D23*
X154Y1007D03*
X154Y855D03*
X154Y2855D03*
X154Y3007D03*
G54D24*
X355Y1422D03*
X355Y3422D03*
X3305Y3407D03*
X3305Y1407D03*
G54D25*
X788Y3213D02*
X804Y3213D01*
X1266Y3213D02*
X1282Y3213D01*
X1788Y3213D02*
X1804Y3213D01*
X2266Y3213D02*
X2282Y3213D01*
X2788Y3213D02*
X2804Y3213D01*
X3266Y3213D02*
X3282Y3213D01*
X782Y3212D02*
X810Y3212D01*
X1260Y3212D02*
X1288Y3212D01*
X1782Y3212D02*
X1810Y3212D01*
X2260Y3212D02*
X2288Y3212D01*
X2782Y3212D02*
X2810Y3212D01*
X3260Y3212D02*
X3288Y3212D01*
X778Y3211D02*
X814Y3211D01*
X1256Y3211D02*
X1292Y3211D01*
X1778Y3211D02*
X1814Y3211D01*
X2256Y3211D02*
X2292Y3211D01*
X2778Y3211D02*
X2814Y3211D01*
X3256Y3211D02*
X3292Y3211D01*
X774Y3210D02*
X817Y3210D01*
X1253Y3210D02*
X1296Y3210D01*
X1774Y3210D02*
X1817Y3210D01*
X2252Y3210D02*
X2296Y3210D01*
X2774Y3210D02*
X2817Y3210D01*
X3252Y3210D02*
X3296Y3210D01*
X771Y3209D02*
X820Y3209D01*
X1250Y3209D02*
X1298Y3209D01*
X1771Y3209D02*
X1820Y3209D01*
X2250Y3209D02*
X2298Y3209D01*
X2771Y3209D02*
X2820Y3209D01*
X3250Y3209D02*
X3298Y3209D01*
X769Y3208D02*
X823Y3208D01*
X1247Y3208D02*
X1301Y3208D01*
X1769Y3208D02*
X1823Y3208D01*
X2247Y3208D02*
X2301Y3208D01*
X2769Y3208D02*
X2823Y3208D01*
X3247Y3208D02*
X3301Y3208D01*
X767Y3207D02*
X825Y3207D01*
X1245Y3207D02*
X1303Y3207D01*
X1767Y3207D02*
X1825Y3207D01*
X2245Y3207D02*
X2303Y3207D01*
X2767Y3207D02*
X2825Y3207D01*
X3245Y3207D02*
X3303Y3207D01*
X765Y3206D02*
X827Y3206D01*
X1243Y3206D02*
X1305Y3206D01*
X1765Y3206D02*
X1827Y3206D01*
X2243Y3206D02*
X2305Y3206D01*
X2765Y3206D02*
X2827Y3206D01*
X3243Y3206D02*
X3305Y3206D01*
X763Y3205D02*
X829Y3205D01*
X1241Y3205D02*
X1307Y3205D01*
X1763Y3205D02*
X1829Y3205D01*
X2241Y3205D02*
X2307Y3205D01*
X2763Y3205D02*
X2829Y3205D01*
X3241Y3205D02*
X3307Y3205D01*
X761Y3204D02*
X830Y3204D01*
X1239Y3204D02*
X1309Y3204D01*
X1761Y3204D02*
X1830Y3204D01*
X2239Y3204D02*
X2309Y3204D01*
X2761Y3204D02*
X2830Y3204D01*
X3239Y3204D02*
X3309Y3204D01*
X759Y3203D02*
X832Y3203D01*
X1238Y3203D02*
X1310Y3203D01*
X1759Y3203D02*
X1832Y3203D01*
X2238Y3203D02*
X2310Y3203D01*
X2759Y3203D02*
X2832Y3203D01*
X3238Y3203D02*
X3310Y3203D01*
X758Y3202D02*
X834Y3202D01*
X1236Y3202D02*
X1312Y3202D01*
X1758Y3202D02*
X1834Y3202D01*
X2236Y3202D02*
X2312Y3202D01*
X2758Y3202D02*
X2834Y3202D01*
X3236Y3202D02*
X3312Y3202D01*
X756Y3201D02*
X835Y3201D01*
X1235Y3201D02*
X1313Y3201D01*
X1756Y3201D02*
X1835Y3201D01*
X2235Y3201D02*
X2313Y3201D01*
X2756Y3201D02*
X2835Y3201D01*
X3235Y3201D02*
X3313Y3201D01*
X755Y3200D02*
X837Y3200D01*
X1233Y3200D02*
X1315Y3200D01*
X1755Y3200D02*
X1836Y3200D01*
X2233Y3200D02*
X2315Y3200D01*
X2755Y3200D02*
X2836Y3200D01*
X3233Y3200D02*
X3315Y3200D01*
X754Y3199D02*
X838Y3199D01*
X1232Y3199D02*
X1316Y3199D01*
X1754Y3199D02*
X1838Y3199D01*
X2232Y3199D02*
X2316Y3199D01*
X2754Y3199D02*
X2838Y3199D01*
X3232Y3199D02*
X3316Y3199D01*
X752Y3198D02*
X839Y3198D01*
X1231Y3198D02*
X1318Y3198D01*
X1752Y3198D02*
X1839Y3198D01*
X2231Y3198D02*
X2317Y3198D01*
X2752Y3198D02*
X2839Y3198D01*
X3231Y3198D02*
X3317Y3198D01*
X751Y3197D02*
X840Y3197D01*
X1229Y3197D02*
X1319Y3197D01*
X1751Y3197D02*
X1840Y3197D01*
X2229Y3197D02*
X2319Y3197D01*
X2751Y3197D02*
X2840Y3197D01*
X3229Y3197D02*
X3319Y3197D01*
X750Y3196D02*
X842Y3196D01*
X1228Y3196D02*
X1320Y3196D01*
X1750Y3196D02*
X1842Y3196D01*
X2228Y3196D02*
X2320Y3196D01*
X2750Y3196D02*
X2841Y3196D01*
X3228Y3196D02*
X3320Y3196D01*
X749Y3195D02*
X843Y3195D01*
X1227Y3195D02*
X1321Y3195D01*
X1749Y3195D02*
X1843Y3195D01*
X2227Y3195D02*
X2321Y3195D01*
X2749Y3195D02*
X2843Y3195D01*
X3227Y3195D02*
X3321Y3195D01*
X748Y3194D02*
X844Y3194D01*
X1226Y3194D02*
X1322Y3194D01*
X1748Y3194D02*
X1844Y3194D01*
X2226Y3194D02*
X2322Y3194D01*
X2748Y3194D02*
X2844Y3194D01*
X3226Y3194D02*
X3322Y3194D01*
X747Y3193D02*
X845Y3193D01*
X1225Y3193D02*
X1323Y3193D01*
X1747Y3193D02*
X1845Y3193D01*
X2225Y3193D02*
X2323Y3193D01*
X2747Y3193D02*
X2845Y3193D01*
X3225Y3193D02*
X3323Y3193D01*
X746Y3192D02*
X846Y3192D01*
X1224Y3192D02*
X1324Y3192D01*
X1746Y3192D02*
X1846Y3192D01*
X2224Y3192D02*
X2324Y3192D01*
X2746Y3192D02*
X2846Y3192D01*
X3224Y3192D02*
X3324Y3192D01*
X745Y3191D02*
X847Y3191D01*
X1223Y3191D02*
X1325Y3191D01*
X1745Y3191D02*
X1847Y3191D01*
X2223Y3191D02*
X2325Y3191D01*
X2745Y3191D02*
X2847Y3191D01*
X3223Y3191D02*
X3325Y3191D01*
X744Y3190D02*
X848Y3190D01*
X1222Y3190D02*
X1326Y3190D01*
X1744Y3190D02*
X1848Y3190D01*
X2222Y3190D02*
X2326Y3190D01*
X2744Y3190D02*
X2847Y3190D01*
X3222Y3190D02*
X3326Y3190D01*
X743Y3189D02*
X848Y3189D01*
X1221Y3189D02*
X1327Y3189D01*
X1743Y3189D02*
X1848Y3189D01*
X2221Y3189D02*
X2327Y3189D01*
X2743Y3189D02*
X2848Y3189D01*
X3221Y3189D02*
X3327Y3189D01*
X742Y3188D02*
X849Y3188D01*
X1221Y3188D02*
X1328Y3188D01*
X1742Y3188D02*
X1849Y3188D01*
X2221Y3188D02*
X2328Y3188D01*
X2742Y3188D02*
X2849Y3188D01*
X3220Y3188D02*
X3328Y3188D01*
X741Y3187D02*
X850Y3187D01*
X1220Y3187D02*
X1328Y3187D01*
X1741Y3187D02*
X1850Y3187D01*
X2220Y3187D02*
X2328Y3187D01*
X2741Y3187D02*
X2850Y3187D01*
X3220Y3187D02*
X3328Y3187D01*
X741Y3186D02*
X851Y3186D01*
X1219Y3186D02*
X1329Y3186D01*
X1741Y3186D02*
X1851Y3186D01*
X2219Y3186D02*
X2329Y3186D01*
X2741Y3186D02*
X2851Y3186D01*
X3219Y3186D02*
X3329Y3186D01*
X740Y3185D02*
X852Y3185D01*
X1218Y3185D02*
X1330Y3185D01*
X1740Y3185D02*
X1851Y3185D01*
X2218Y3185D02*
X2330Y3185D01*
X2740Y3185D02*
X2851Y3185D01*
X3218Y3185D02*
X3330Y3185D01*
X739Y3184D02*
X852Y3184D01*
X1218Y3184D02*
X1331Y3184D01*
X1739Y3184D02*
X1852Y3184D01*
X2218Y3184D02*
X2331Y3184D01*
X2739Y3184D02*
X2852Y3184D01*
X3218Y3184D02*
X3330Y3184D01*
X739Y3183D02*
X853Y3183D01*
X1217Y3183D02*
X1331Y3183D01*
X1739Y3183D02*
X1853Y3183D01*
X2217Y3183D02*
X2331Y3183D01*
X2738Y3183D02*
X2853Y3183D01*
X3217Y3183D02*
X3331Y3183D01*
X738Y3182D02*
X854Y3182D01*
X1216Y3182D02*
X1332Y3182D01*
X1738Y3182D02*
X1854Y3182D01*
X2216Y3182D02*
X2332Y3182D01*
X2738Y3182D02*
X2854Y3182D01*
X3216Y3182D02*
X3332Y3182D01*
X737Y3181D02*
X854Y3181D01*
X1216Y3181D02*
X1333Y3181D01*
X1737Y3181D02*
X1854Y3181D01*
X2216Y3181D02*
X2333Y3181D01*
X2737Y3181D02*
X2854Y3181D01*
X3216Y3181D02*
X3332Y3181D01*
X737Y3180D02*
X855Y3180D01*
X1215Y3180D02*
X1333Y3180D01*
X1737Y3180D02*
X1855Y3180D01*
X2215Y3180D02*
X2333Y3180D01*
X2737Y3180D02*
X2855Y3180D01*
X3215Y3180D02*
X3333Y3180D01*
X736Y3179D02*
X855Y3179D01*
X1214Y3179D02*
X1334Y3179D01*
X1736Y3179D02*
X1855Y3179D01*
X2214Y3179D02*
X2334Y3179D01*
X2736Y3179D02*
X2855Y3179D01*
X3214Y3179D02*
X3334Y3179D01*
X735Y3178D02*
X856Y3178D01*
X1214Y3178D02*
X1334Y3178D01*
X1735Y3178D02*
X1856Y3178D01*
X2214Y3178D02*
X2334Y3178D01*
X2735Y3178D02*
X2856Y3178D01*
X3214Y3178D02*
X3334Y3178D01*
X735Y3177D02*
X857Y3177D01*
X1213Y3177D02*
X1335Y3177D01*
X1735Y3177D02*
X1857Y3177D01*
X2213Y3177D02*
X2335Y3177D01*
X2735Y3177D02*
X2857Y3177D01*
X3213Y3177D02*
X3335Y3177D01*
X734Y3176D02*
X857Y3176D01*
X1213Y3176D02*
X1336Y3176D01*
X1734Y3176D02*
X1857Y3176D01*
X2213Y3176D02*
X2335Y3176D01*
X2734Y3176D02*
X2857Y3176D01*
X3213Y3176D02*
X3335Y3176D01*
X734Y3175D02*
X858Y3175D01*
X1212Y3175D02*
X1336Y3175D01*
X1734Y3175D02*
X1858Y3175D01*
X2212Y3175D02*
X2336Y3175D01*
X2734Y3175D02*
X2858Y3175D01*
X3212Y3175D02*
X3336Y3175D01*
X733Y3174D02*
X858Y3174D01*
X1212Y3174D02*
X1337Y3174D01*
X1733Y3174D02*
X1858Y3174D01*
X2212Y3174D02*
X2336Y3174D01*
X2733Y3174D02*
X2858Y3174D01*
X3212Y3174D02*
X3336Y3174D01*
X733Y3173D02*
X859Y3173D01*
X1211Y3173D02*
X1337Y3173D01*
X1733Y3173D02*
X1859Y3173D01*
X2211Y3173D02*
X2337Y3173D01*
X2733Y3173D02*
X2859Y3173D01*
X3211Y3173D02*
X3337Y3173D01*
X732Y3172D02*
X859Y3172D01*
X1211Y3172D02*
X1338Y3172D01*
X1732Y3172D02*
X1859Y3172D01*
X2211Y3172D02*
X2337Y3172D01*
X2732Y3172D02*
X2859Y3172D01*
X3211Y3172D02*
X3337Y3172D01*
X732Y3171D02*
X860Y3171D01*
X1210Y3171D02*
X1338Y3171D01*
X1732Y3171D02*
X1860Y3171D01*
X2210Y3171D02*
X2338Y3171D01*
X2732Y3171D02*
X2860Y3171D01*
X3210Y3171D02*
X3338Y3171D01*
X731Y3170D02*
X860Y3170D01*
X1210Y3170D02*
X1338Y3170D01*
X1731Y3170D02*
X1860Y3170D01*
X2210Y3170D02*
X2338Y3170D01*
X2731Y3170D02*
X2860Y3170D01*
X3210Y3170D02*
X3338Y3170D01*
X731Y3169D02*
X860Y3169D01*
X1209Y3169D02*
X1339Y3169D01*
X1731Y3169D02*
X1860Y3169D01*
X2209Y3169D02*
X2339Y3169D01*
X2731Y3169D02*
X2860Y3169D01*
X3209Y3169D02*
X3339Y3169D01*
X731Y3168D02*
X861Y3168D01*
X1209Y3168D02*
X1339Y3168D01*
X1731Y3168D02*
X1861Y3168D01*
X2209Y3168D02*
X2339Y3168D01*
X2731Y3168D02*
X2861Y3168D01*
X3209Y3168D02*
X3339Y3168D01*
X730Y3167D02*
X861Y3167D01*
X1209Y3167D02*
X1339Y3167D01*
X1730Y3167D02*
X1861Y3167D01*
X2209Y3167D02*
X2339Y3167D01*
X2730Y3167D02*
X2861Y3167D01*
X3209Y3167D02*
X3339Y3167D01*
X730Y3166D02*
X861Y3166D01*
X1208Y3166D02*
X1340Y3166D01*
X1730Y3166D02*
X1861Y3166D01*
X2208Y3166D02*
X2340Y3166D01*
X2730Y3166D02*
X2861Y3166D01*
X3208Y3166D02*
X3340Y3166D01*
X730Y3165D02*
X862Y3165D01*
X1208Y3165D02*
X1340Y3165D01*
X1730Y3165D02*
X1862Y3165D01*
X2208Y3165D02*
X2340Y3165D01*
X2730Y3165D02*
X2862Y3165D01*
X3208Y3165D02*
X3340Y3165D01*
X729Y3164D02*
X862Y3164D01*
X1208Y3164D02*
X1340Y3164D01*
X1729Y3164D02*
X1862Y3164D01*
X2208Y3164D02*
X2340Y3164D01*
X2729Y3164D02*
X2862Y3164D01*
X3208Y3164D02*
X3340Y3164D01*
X729Y3163D02*
X862Y3163D01*
X1207Y3163D02*
X1341Y3163D01*
X1729Y3163D02*
X1862Y3163D01*
X2207Y3163D02*
X2341Y3163D01*
X2729Y3163D02*
X2862Y3163D01*
X3207Y3163D02*
X3341Y3163D01*
X729Y3162D02*
X863Y3162D01*
X1207Y3162D02*
X1341Y3162D01*
X1729Y3162D02*
X1863Y3162D01*
X2207Y3162D02*
X2341Y3162D01*
X2729Y3162D02*
X2863Y3162D01*
X3207Y3162D02*
X3341Y3162D01*
X729Y3161D02*
X863Y3161D01*
X1207Y3161D02*
X1341Y3161D01*
X1729Y3161D02*
X1863Y3161D01*
X2207Y3161D02*
X2341Y3161D01*
X2729Y3161D02*
X2863Y3161D01*
X3207Y3161D02*
X3341Y3161D01*
X728Y3160D02*
X863Y3160D01*
X1207Y3160D02*
X1341Y3160D01*
X1728Y3160D02*
X1863Y3160D01*
X2207Y3160D02*
X2341Y3160D01*
X2728Y3160D02*
X2863Y3160D01*
X3207Y3160D02*
X3341Y3160D01*
X728Y3159D02*
X863Y3159D01*
X1206Y3159D02*
X1342Y3159D01*
X1728Y3159D02*
X1863Y3159D01*
X2206Y3159D02*
X2342Y3159D01*
X2728Y3159D02*
X2863Y3159D01*
X3206Y3159D02*
X3342Y3159D01*
X728Y3158D02*
X864Y3158D01*
X1206Y3158D02*
X1342Y3158D01*
X1728Y3158D02*
X1864Y3158D01*
X2206Y3158D02*
X2342Y3158D01*
X2728Y3158D02*
X2864Y3158D01*
X3206Y3158D02*
X3342Y3158D01*
X728Y3157D02*
X864Y3157D01*
X1206Y3157D02*
X1342Y3157D01*
X1728Y3157D02*
X1864Y3157D01*
X2206Y3157D02*
X2342Y3157D01*
X2728Y3157D02*
X2864Y3157D01*
X3206Y3157D02*
X3342Y3157D01*
X728Y3156D02*
X864Y3156D01*
X1206Y3156D02*
X1342Y3156D01*
X1728Y3156D02*
X1864Y3156D01*
X2206Y3156D02*
X2342Y3156D01*
X2728Y3156D02*
X2864Y3156D01*
X3206Y3156D02*
X3342Y3156D01*
X727Y3155D02*
X864Y3155D01*
X1206Y3155D02*
X1342Y3155D01*
X1727Y3155D02*
X1864Y3155D01*
X2206Y3155D02*
X2342Y3155D01*
X2727Y3155D02*
X2864Y3155D01*
X3206Y3155D02*
X3342Y3155D01*
X727Y3154D02*
X864Y3154D01*
X1206Y3154D02*
X1343Y3154D01*
X1727Y3154D02*
X1864Y3154D01*
X2206Y3154D02*
X2343Y3154D01*
X2727Y3154D02*
X2864Y3154D01*
X3205Y3154D02*
X3343Y3154D01*
X727Y3153D02*
X864Y3153D01*
X1205Y3153D02*
X1343Y3153D01*
X1727Y3153D02*
X1864Y3153D01*
X2205Y3153D02*
X2343Y3153D01*
X2727Y3153D02*
X2864Y3153D01*
X3205Y3153D02*
X3343Y3153D01*
X727Y3152D02*
X865Y3152D01*
X1205Y3152D02*
X1343Y3152D01*
X1727Y3152D02*
X1865Y3152D01*
X2205Y3152D02*
X2343Y3152D01*
X2727Y3152D02*
X2865Y3152D01*
X3205Y3152D02*
X3343Y3152D01*
X727Y3151D02*
X865Y3151D01*
X1205Y3151D02*
X1343Y3151D01*
X1727Y3151D02*
X1865Y3151D01*
X2205Y3151D02*
X2343Y3151D01*
X2727Y3151D02*
X2865Y3151D01*
X3205Y3151D02*
X3343Y3151D01*
X727Y3150D02*
X865Y3150D01*
X1205Y3150D02*
X1343Y3150D01*
X1727Y3150D02*
X1865Y3150D01*
X2205Y3150D02*
X2343Y3150D01*
X2727Y3150D02*
X2865Y3150D01*
X3205Y3150D02*
X3343Y3150D01*
X727Y3149D02*
X865Y3149D01*
X1205Y3149D02*
X1343Y3149D01*
X1727Y3149D02*
X1865Y3149D01*
X2205Y3149D02*
X2343Y3149D01*
X2727Y3149D02*
X2865Y3149D01*
X3205Y3149D02*
X3343Y3149D01*
X727Y3148D02*
X865Y3148D01*
X1205Y3148D02*
X1343Y3148D01*
X1727Y3148D02*
X1865Y3148D01*
X2205Y3148D02*
X2343Y3148D01*
X2726Y3148D02*
X2865Y3148D01*
X3205Y3148D02*
X3343Y3148D01*
X727Y3147D02*
X865Y3147D01*
X1205Y3147D02*
X1343Y3147D01*
X1726Y3147D02*
X1865Y3147D01*
X2205Y3147D02*
X2343Y3147D01*
X2726Y3147D02*
X2865Y3147D01*
X3205Y3147D02*
X3343Y3147D01*
X726Y3146D02*
X865Y3146D01*
X1205Y3146D02*
X1343Y3146D01*
X1726Y3146D02*
X1865Y3146D01*
X2205Y3146D02*
X2343Y3146D01*
X2726Y3146D02*
X2865Y3146D01*
X3205Y3146D02*
X3343Y3146D01*
X726Y3145D02*
X865Y3145D01*
X1205Y3145D02*
X1343Y3145D01*
X1726Y3145D02*
X1865Y3145D01*
X2205Y3145D02*
X2343Y3145D01*
X2726Y3145D02*
X2865Y3145D01*
X3205Y3145D02*
X3343Y3145D01*
X726Y3144D02*
X865Y3144D01*
X1205Y3144D02*
X1344Y3144D01*
X1726Y3144D02*
X1865Y3144D01*
X2205Y3144D02*
X2343Y3144D01*
X2726Y3144D02*
X2865Y3144D01*
X3205Y3144D02*
X3343Y3144D01*
X726Y3143D02*
X865Y3143D01*
X1205Y3143D02*
X1343Y3143D01*
X1726Y3143D02*
X1865Y3143D01*
X2205Y3143D02*
X2343Y3143D01*
X2726Y3143D02*
X2865Y3143D01*
X3205Y3143D02*
X3343Y3143D01*
X726Y3142D02*
X865Y3142D01*
X1205Y3142D02*
X1343Y3142D01*
X1726Y3142D02*
X1865Y3142D01*
X2205Y3142D02*
X2343Y3142D01*
X2726Y3142D02*
X2865Y3142D01*
X3205Y3142D02*
X3343Y3142D01*
X726Y3141D02*
X865Y3141D01*
X1205Y3141D02*
X1343Y3141D01*
X1726Y3141D02*
X1865Y3141D01*
X2205Y3141D02*
X2343Y3141D01*
X2726Y3141D02*
X2865Y3141D01*
X3205Y3141D02*
X3343Y3141D01*
X727Y3140D02*
X865Y3140D01*
X1205Y3140D02*
X1343Y3140D01*
X1726Y3140D02*
X1865Y3140D01*
X2205Y3140D02*
X2343Y3140D01*
X2726Y3140D02*
X2865Y3140D01*
X3205Y3140D02*
X3343Y3140D01*
X727Y3139D02*
X865Y3139D01*
X1205Y3139D02*
X1343Y3139D01*
X1727Y3139D02*
X1865Y3139D01*
X2205Y3139D02*
X2343Y3139D01*
X2727Y3139D02*
X2865Y3139D01*
X3205Y3139D02*
X3343Y3139D01*
X727Y3138D02*
X865Y3138D01*
X1205Y3138D02*
X1343Y3138D01*
X1727Y3138D02*
X1865Y3138D01*
X2205Y3138D02*
X2343Y3138D01*
X2727Y3138D02*
X2865Y3138D01*
X3205Y3138D02*
X3343Y3138D01*
X727Y3137D02*
X865Y3137D01*
X1205Y3137D02*
X1343Y3137D01*
X1727Y3137D02*
X1865Y3137D01*
X2205Y3137D02*
X2343Y3137D01*
X2727Y3137D02*
X2865Y3137D01*
X3205Y3137D02*
X3343Y3137D01*
X727Y3136D02*
X865Y3136D01*
X1205Y3136D02*
X1343Y3136D01*
X1727Y3136D02*
X1865Y3136D01*
X2205Y3136D02*
X2343Y3136D01*
X2727Y3136D02*
X2865Y3136D01*
X3205Y3136D02*
X3343Y3136D01*
X727Y3135D02*
X865Y3135D01*
X1205Y3135D02*
X1343Y3135D01*
X1727Y3135D02*
X1864Y3135D01*
X2205Y3135D02*
X2343Y3135D01*
X2727Y3135D02*
X2864Y3135D01*
X3205Y3135D02*
X3343Y3135D01*
X727Y3134D02*
X864Y3134D01*
X1205Y3134D02*
X1343Y3134D01*
X1727Y3134D02*
X1864Y3134D01*
X2205Y3134D02*
X2343Y3134D01*
X2727Y3134D02*
X2864Y3134D01*
X3205Y3134D02*
X3343Y3134D01*
X727Y3133D02*
X864Y3133D01*
X1206Y3133D02*
X1343Y3133D01*
X1727Y3133D02*
X1864Y3133D01*
X2206Y3133D02*
X2342Y3133D01*
X2727Y3133D02*
X2864Y3133D01*
X3206Y3133D02*
X3342Y3133D01*
X727Y3132D02*
X864Y3132D01*
X1206Y3132D02*
X1342Y3132D01*
X1727Y3132D02*
X1864Y3132D01*
X2206Y3132D02*
X2342Y3132D01*
X2727Y3132D02*
X2864Y3132D01*
X3206Y3132D02*
X3342Y3132D01*
X728Y3131D02*
X864Y3131D01*
X1206Y3131D02*
X1342Y3131D01*
X1728Y3131D02*
X1864Y3131D01*
X2206Y3131D02*
X2342Y3131D01*
X2728Y3131D02*
X2864Y3131D01*
X3206Y3131D02*
X3342Y3131D01*
X728Y3130D02*
X864Y3130D01*
X1206Y3130D02*
X1342Y3130D01*
X1728Y3130D02*
X1864Y3130D01*
X2206Y3130D02*
X2342Y3130D01*
X2728Y3130D02*
X2864Y3130D01*
X3206Y3130D02*
X3342Y3130D01*
X728Y3129D02*
X864Y3129D01*
X1206Y3129D02*
X1342Y3129D01*
X1728Y3129D02*
X1863Y3129D01*
X2206Y3129D02*
X2342Y3129D01*
X2728Y3129D02*
X2863Y3129D01*
X3206Y3129D02*
X3342Y3129D01*
X728Y3128D02*
X863Y3128D01*
X1207Y3128D02*
X1342Y3128D01*
X1728Y3128D02*
X1863Y3128D01*
X2207Y3128D02*
X2342Y3128D01*
X2728Y3128D02*
X2863Y3128D01*
X3207Y3128D02*
X3342Y3128D01*
X729Y3127D02*
X863Y3127D01*
X1207Y3127D02*
X1341Y3127D01*
X1728Y3127D02*
X1863Y3127D01*
X2207Y3127D02*
X2341Y3127D01*
X2728Y3127D02*
X2863Y3127D01*
X3207Y3127D02*
X3341Y3127D01*
X729Y3126D02*
X863Y3126D01*
X1207Y3126D02*
X1341Y3126D01*
X1729Y3126D02*
X1863Y3126D01*
X2207Y3126D02*
X2341Y3126D01*
X2729Y3126D02*
X2863Y3126D01*
X3207Y3126D02*
X3341Y3126D01*
X729Y3125D02*
X863Y3125D01*
X1207Y3125D02*
X1341Y3125D01*
X1729Y3125D02*
X1862Y3125D01*
X2207Y3125D02*
X2341Y3125D01*
X2729Y3125D02*
X2862Y3125D01*
X3207Y3125D02*
X3341Y3125D01*
X729Y3124D02*
X862Y3124D01*
X1208Y3124D02*
X1341Y3124D01*
X1729Y3124D02*
X1862Y3124D01*
X2208Y3124D02*
X2341Y3124D01*
X2729Y3124D02*
X2862Y3124D01*
X3208Y3124D02*
X3340Y3124D01*
X730Y3123D02*
X862Y3123D01*
X1208Y3123D02*
X1340Y3123D01*
X1729Y3123D02*
X1862Y3123D01*
X2208Y3123D02*
X2340Y3123D01*
X2729Y3123D02*
X2862Y3123D01*
X3208Y3123D02*
X3340Y3123D01*
X730Y3122D02*
X862Y3122D01*
X1208Y3122D02*
X1340Y3122D01*
X1730Y3122D02*
X1862Y3122D01*
X2208Y3122D02*
X2340Y3122D01*
X2730Y3122D02*
X2862Y3122D01*
X3208Y3122D02*
X3340Y3122D01*
X730Y3121D02*
X861Y3121D01*
X1209Y3121D02*
X1340Y3121D01*
X1730Y3121D02*
X1861Y3121D01*
X2208Y3121D02*
X2340Y3121D01*
X2730Y3121D02*
X2861Y3121D01*
X3208Y3121D02*
X3340Y3121D01*
X731Y3120D02*
X861Y3120D01*
X1209Y3120D02*
X1339Y3120D01*
X1731Y3120D02*
X1861Y3120D01*
X2209Y3120D02*
X2339Y3120D01*
X2730Y3120D02*
X2861Y3120D01*
X3209Y3120D02*
X3339Y3120D01*
X731Y3119D02*
X861Y3119D01*
X1209Y3119D02*
X1339Y3119D01*
X1731Y3119D02*
X1861Y3119D01*
X2209Y3119D02*
X2339Y3119D01*
X2731Y3119D02*
X2861Y3119D01*
X3209Y3119D02*
X3339Y3119D01*
X731Y3118D02*
X860Y3118D01*
X1210Y3118D02*
X1339Y3118D01*
X1731Y3118D02*
X1860Y3118D01*
X2210Y3118D02*
X2339Y3118D01*
X2731Y3118D02*
X2860Y3118D01*
X3210Y3118D02*
X3338Y3118D01*
X732Y3117D02*
X860Y3117D01*
X1210Y3117D02*
X1338Y3117D01*
X1732Y3117D02*
X1860Y3117D01*
X2210Y3117D02*
X2338Y3117D01*
X2732Y3117D02*
X2860Y3117D01*
X3210Y3117D02*
X3338Y3117D01*
X732Y3116D02*
X859Y3116D01*
X1210Y3116D02*
X1338Y3116D01*
X1732Y3116D02*
X1859Y3116D01*
X2210Y3116D02*
X2338Y3116D01*
X2732Y3116D02*
X2859Y3116D01*
X3210Y3116D02*
X3338Y3116D01*
X733Y3115D02*
X859Y3115D01*
X1211Y3115D02*
X1337Y3115D01*
X1733Y3115D02*
X1859Y3115D01*
X2211Y3115D02*
X2337Y3115D01*
X2732Y3115D02*
X2859Y3115D01*
X3211Y3115D02*
X3337Y3115D01*
X733Y3114D02*
X858Y3114D01*
X1211Y3114D02*
X1337Y3114D01*
X1733Y3114D02*
X1858Y3114D01*
X2211Y3114D02*
X2337Y3114D01*
X2733Y3114D02*
X2858Y3114D01*
X3211Y3114D02*
X3337Y3114D01*
X734Y3113D02*
X858Y3113D01*
X1212Y3113D02*
X1336Y3113D01*
X1733Y3113D02*
X1858Y3113D01*
X2212Y3113D02*
X2336Y3113D01*
X2733Y3113D02*
X2858Y3113D01*
X3212Y3113D02*
X3336Y3113D01*
X734Y3112D02*
X858Y3112D01*
X1212Y3112D02*
X1336Y3112D01*
X1734Y3112D02*
X1857Y3112D01*
X2212Y3112D02*
X2336Y3112D01*
X2734Y3112D02*
X2857Y3112D01*
X3212Y3112D02*
X3336Y3112D01*
X735Y3111D02*
X857Y3111D01*
X1213Y3111D02*
X1335Y3111D01*
X1734Y3111D02*
X1857Y3111D01*
X2213Y3111D02*
X2335Y3111D01*
X2734Y3111D02*
X2857Y3111D01*
X3213Y3111D02*
X3335Y3111D01*
X735Y3110D02*
X856Y3110D01*
X1213Y3110D02*
X1335Y3110D01*
X1735Y3110D02*
X1856Y3110D01*
X2213Y3110D02*
X2335Y3110D01*
X2735Y3110D02*
X2856Y3110D01*
X3213Y3110D02*
X3335Y3110D01*
X736Y3109D02*
X856Y3109D01*
X1214Y3109D02*
X1334Y3109D01*
X1736Y3109D02*
X1856Y3109D01*
X2214Y3109D02*
X2334Y3109D01*
X2736Y3109D02*
X2856Y3109D01*
X3214Y3109D02*
X3334Y3109D01*
X736Y3108D02*
X855Y3108D01*
X1215Y3108D02*
X1334Y3108D01*
X1736Y3108D02*
X1855Y3108D01*
X2215Y3108D02*
X2334Y3108D01*
X2736Y3108D02*
X2855Y3108D01*
X3215Y3108D02*
X3333Y3108D01*
X737Y3107D02*
X855Y3107D01*
X1215Y3107D02*
X1333Y3107D01*
X1737Y3107D02*
X1855Y3107D01*
X2215Y3107D02*
X2333Y3107D01*
X2737Y3107D02*
X2855Y3107D01*
X3215Y3107D02*
X3333Y3107D01*
X738Y3106D02*
X854Y3106D01*
X1216Y3106D02*
X1332Y3106D01*
X1737Y3106D02*
X1854Y3106D01*
X2216Y3106D02*
X2332Y3106D01*
X2737Y3106D02*
X2854Y3106D01*
X3216Y3106D02*
X3332Y3106D01*
X738Y3105D02*
X853Y3105D01*
X1216Y3105D02*
X1332Y3105D01*
X1738Y3105D02*
X1853Y3105D01*
X2216Y3105D02*
X2332Y3105D01*
X2738Y3105D02*
X2853Y3105D01*
X3216Y3105D02*
X3332Y3105D01*
X739Y3104D02*
X853Y3104D01*
X1217Y3104D02*
X1331Y3104D01*
X1739Y3104D02*
X1853Y3104D01*
X2217Y3104D02*
X2331Y3104D01*
X2739Y3104D02*
X2853Y3104D01*
X3217Y3104D02*
X3331Y3104D01*
X740Y3103D02*
X852Y3103D01*
X1218Y3103D02*
X1330Y3103D01*
X1740Y3103D02*
X1852Y3103D01*
X2218Y3103D02*
X2330Y3103D01*
X2739Y3103D02*
X2852Y3103D01*
X3218Y3103D02*
X3330Y3103D01*
X740Y3102D02*
X851Y3102D01*
X1219Y3102D02*
X1330Y3102D01*
X1740Y3102D02*
X1851Y3102D01*
X2219Y3102D02*
X2329Y3102D01*
X2740Y3102D02*
X2851Y3102D01*
X3219Y3102D02*
X3329Y3102D01*
X741Y3101D02*
X850Y3101D01*
X1219Y3101D02*
X1329Y3101D01*
X1741Y3101D02*
X1850Y3101D01*
X2219Y3101D02*
X2329Y3101D01*
X2741Y3101D02*
X2850Y3101D01*
X3219Y3101D02*
X3329Y3101D01*
X742Y3100D02*
X850Y3100D01*
X1220Y3100D02*
X1328Y3100D01*
X1742Y3100D02*
X1850Y3100D01*
X2220Y3100D02*
X2328Y3100D01*
X2742Y3100D02*
X2850Y3100D01*
X3220Y3100D02*
X3328Y3100D01*
X743Y3099D02*
X849Y3099D01*
X1221Y3099D02*
X1327Y3099D01*
X1743Y3099D02*
X1849Y3099D01*
X2221Y3099D02*
X2327Y3099D01*
X2742Y3099D02*
X2849Y3099D01*
X3221Y3099D02*
X3327Y3099D01*
X743Y3098D02*
X848Y3098D01*
X1222Y3098D02*
X1326Y3098D01*
X1743Y3098D02*
X1848Y3098D01*
X2222Y3098D02*
X2326Y3098D01*
X2743Y3098D02*
X2848Y3098D01*
X3222Y3098D02*
X3326Y3098D01*
X744Y3097D02*
X847Y3097D01*
X1223Y3097D02*
X1326Y3097D01*
X1744Y3097D02*
X1847Y3097D01*
X2223Y3097D02*
X2325Y3097D01*
X2744Y3097D02*
X2847Y3097D01*
X3223Y3097D02*
X3325Y3097D01*
X745Y3096D02*
X846Y3096D01*
X1224Y3096D02*
X1325Y3096D01*
X1745Y3096D02*
X1846Y3096D01*
X2224Y3096D02*
X2325Y3096D01*
X2745Y3096D02*
X2846Y3096D01*
X3223Y3096D02*
X3325Y3096D01*
X746Y3095D02*
X845Y3095D01*
X1224Y3095D02*
X1324Y3095D01*
X1746Y3095D02*
X1845Y3095D01*
X2224Y3095D02*
X2324Y3095D01*
X2746Y3095D02*
X2845Y3095D01*
X3224Y3095D02*
X3324Y3095D01*
X747Y3094D02*
X844Y3094D01*
X1225Y3094D02*
X1323Y3094D01*
X1747Y3094D02*
X1844Y3094D01*
X2225Y3094D02*
X2323Y3094D01*
X2747Y3094D02*
X2844Y3094D01*
X3225Y3094D02*
X3323Y3094D01*
X748Y3093D02*
X843Y3093D01*
X1227Y3093D02*
X1322Y3093D01*
X1748Y3093D02*
X1843Y3093D01*
X2226Y3093D02*
X2322Y3093D01*
X2748Y3093D02*
X2843Y3093D01*
X3226Y3093D02*
X3322Y3093D01*
X749Y3092D02*
X842Y3092D01*
X1228Y3092D02*
X1321Y3092D01*
X1749Y3092D02*
X1842Y3092D01*
X2228Y3092D02*
X2321Y3092D01*
X2749Y3092D02*
X2842Y3092D01*
X3228Y3092D02*
X3320Y3092D01*
X750Y3091D02*
X841Y3091D01*
X1229Y3091D02*
X1319Y3091D01*
X1750Y3091D02*
X1841Y3091D01*
X2229Y3091D02*
X2319Y3091D01*
X2750Y3091D02*
X2841Y3091D01*
X3229Y3091D02*
X3319Y3091D01*
X752Y3090D02*
X840Y3090D01*
X1230Y3090D02*
X1318Y3090D01*
X1752Y3090D02*
X1840Y3090D01*
X2230Y3090D02*
X2318Y3090D01*
X2751Y3090D02*
X2840Y3090D01*
X3230Y3090D02*
X3318Y3090D01*
X753Y3089D02*
X839Y3089D01*
X1231Y3089D02*
X1317Y3089D01*
X1753Y3089D02*
X1839Y3089D01*
X2231Y3089D02*
X2317Y3089D01*
X2753Y3089D02*
X2839Y3089D01*
X3231Y3089D02*
X3317Y3089D01*
X754Y3088D02*
X837Y3088D01*
X1233Y3088D02*
X1316Y3088D01*
X1754Y3088D02*
X1837Y3088D01*
X2233Y3088D02*
X2316Y3088D01*
X2754Y3088D02*
X2837Y3088D01*
X3232Y3088D02*
X3316Y3088D01*
X756Y3087D02*
X836Y3087D01*
X1234Y3087D02*
X1314Y3087D01*
X1756Y3087D02*
X1836Y3087D01*
X2234Y3087D02*
X2314Y3087D01*
X2755Y3087D02*
X2836Y3087D01*
X3234Y3087D02*
X3314Y3087D01*
X757Y3086D02*
X835Y3086D01*
X1235Y3086D02*
X1313Y3086D01*
X1757Y3086D02*
X1835Y3086D01*
X2235Y3086D02*
X2313Y3086D01*
X2757Y3086D02*
X2835Y3086D01*
X3235Y3086D02*
X3313Y3086D01*
X759Y3085D02*
X833Y3085D01*
X1237Y3085D02*
X1311Y3085D01*
X1758Y3085D02*
X1833Y3085D01*
X2237Y3085D02*
X2311Y3085D01*
X2758Y3085D02*
X2833Y3085D01*
X3237Y3085D02*
X3311Y3085D01*
X760Y3084D02*
X831Y3084D01*
X1238Y3084D02*
X1310Y3084D01*
X1760Y3084D02*
X1831Y3084D01*
X2238Y3084D02*
X2310Y3084D01*
X2760Y3084D02*
X2831Y3084D01*
X3238Y3084D02*
X3310Y3084D01*
X762Y3083D02*
X830Y3083D01*
X1240Y3083D02*
X1308Y3083D01*
X1762Y3083D02*
X1830Y3083D01*
X2240Y3083D02*
X2308Y3083D01*
X2762Y3083D02*
X2830Y3083D01*
X3240Y3083D02*
X3308Y3083D01*
X763Y3082D02*
X828Y3082D01*
X1242Y3082D02*
X1306Y3082D01*
X1763Y3082D02*
X1828Y3082D01*
X2242Y3082D02*
X2306Y3082D01*
X2763Y3082D02*
X2828Y3082D01*
X3242Y3082D02*
X3306Y3082D01*
X765Y3081D02*
X826Y3081D01*
X1244Y3081D02*
X1304Y3081D01*
X1765Y3081D02*
X1826Y3081D01*
X2244Y3081D02*
X2304Y3081D01*
X2765Y3081D02*
X2826Y3081D01*
X3244Y3081D02*
X3304Y3081D01*
X768Y3080D02*
X824Y3080D01*
X1246Y3080D02*
X1302Y3080D01*
X1767Y3080D02*
X1824Y3080D01*
X2246Y3080D02*
X2302Y3080D01*
X2767Y3080D02*
X2824Y3080D01*
X3246Y3080D02*
X3302Y3080D01*
X770Y3079D02*
X822Y3079D01*
X1248Y3079D02*
X1300Y3079D01*
X1770Y3079D02*
X1822Y3079D01*
X2248Y3079D02*
X2300Y3079D01*
X2770Y3079D02*
X2822Y3079D01*
X3248Y3079D02*
X3300Y3079D01*
X773Y3078D02*
X819Y3078D01*
X1251Y3078D02*
X1297Y3078D01*
X1773Y3078D02*
X1819Y3078D01*
X2251Y3078D02*
X2297Y3078D01*
X2772Y3078D02*
X2819Y3078D01*
X3251Y3078D02*
X3297Y3078D01*
X775Y3077D02*
X816Y3077D01*
X1254Y3077D02*
X1294Y3077D01*
X1775Y3077D02*
X1816Y3077D01*
X2254Y3077D02*
X2294Y3077D01*
X2775Y3077D02*
X2816Y3077D01*
X3254Y3077D02*
X3294Y3077D01*
X779Y3076D02*
X812Y3076D01*
X1258Y3076D02*
X1290Y3076D01*
X1779Y3076D02*
X1812Y3076D01*
X2258Y3076D02*
X2290Y3076D01*
X2779Y3076D02*
X2812Y3076D01*
X3258Y3076D02*
X3290Y3076D01*
X784Y3075D02*
X807Y3075D01*
X1262Y3075D02*
X1286Y3075D01*
X1784Y3075D02*
X1807Y3075D01*
X2262Y3075D02*
X2286Y3075D01*
X2784Y3075D02*
X2807Y3075D01*
X3262Y3075D02*
X3286Y3075D01*
X792Y3074D02*
X799Y3074D01*
X1271Y3074D02*
X1278Y3074D01*
X1792Y3074D02*
X1799Y3074D01*
X2270Y3074D02*
X2278Y3074D01*
X2792Y3074D02*
X2799Y3074D01*
X3270Y3074D02*
X3278Y3074D01*
X1348Y2977D02*
X1362Y2977D01*
X2348Y2977D02*
X2362Y2977D01*
X3348Y2977D02*
X3361Y2977D01*
X1342Y2976D02*
X1368Y2976D01*
X2342Y2976D02*
X2368Y2976D01*
X3342Y2976D02*
X3368Y2976D01*
X1338Y2975D02*
X1372Y2975D01*
X2338Y2975D02*
X2372Y2975D01*
X3337Y2975D02*
X3372Y2975D01*
X1334Y2974D02*
X1376Y2974D01*
X2334Y2974D02*
X2376Y2974D01*
X3334Y2974D02*
X3376Y2974D01*
X1331Y2973D02*
X1379Y2973D01*
X2331Y2973D02*
X2379Y2973D01*
X3331Y2973D02*
X3378Y2973D01*
X1328Y2972D02*
X1381Y2972D01*
X2328Y2972D02*
X2381Y2972D01*
X3328Y2972D02*
X3381Y2972D01*
X1326Y2971D02*
X1383Y2971D01*
X2326Y2971D02*
X2383Y2971D01*
X3326Y2971D02*
X3383Y2971D01*
X1324Y2970D02*
X1386Y2970D01*
X2324Y2970D02*
X2385Y2970D01*
X3324Y2970D02*
X3385Y2970D01*
X1322Y2969D02*
X1388Y2969D01*
X2322Y2969D02*
X2387Y2969D01*
X3322Y2969D02*
X3387Y2969D01*
X1320Y2968D02*
X1389Y2968D01*
X2320Y2968D02*
X2389Y2968D01*
X3320Y2968D02*
X3389Y2968D01*
X1319Y2967D02*
X1391Y2967D01*
X2319Y2967D02*
X2391Y2967D01*
X3319Y2967D02*
X3391Y2967D01*
X1317Y2966D02*
X1392Y2966D01*
X2317Y2966D02*
X2392Y2966D01*
X3317Y2966D02*
X3392Y2966D01*
X1316Y2965D02*
X1394Y2965D01*
X2316Y2965D02*
X2394Y2965D01*
X3316Y2965D02*
X3394Y2965D01*
X1314Y2964D02*
X1395Y2964D01*
X2314Y2964D02*
X2395Y2964D01*
X3314Y2964D02*
X3395Y2964D01*
X1313Y2963D02*
X1397Y2963D01*
X2313Y2963D02*
X2397Y2963D01*
X3313Y2963D02*
X3397Y2963D01*
X1312Y2962D02*
X1398Y2962D01*
X2312Y2962D02*
X2398Y2962D01*
X3312Y2962D02*
X3398Y2962D01*
X1310Y2961D02*
X1399Y2961D01*
X2310Y2961D02*
X2399Y2961D01*
X3310Y2961D02*
X3399Y2961D01*
X1309Y2960D02*
X1400Y2960D01*
X2309Y2960D02*
X2400Y2960D01*
X3309Y2960D02*
X3400Y2960D01*
X1308Y2959D02*
X1401Y2959D01*
X2308Y2959D02*
X2401Y2959D01*
X3308Y2959D02*
X3401Y2959D01*
X1307Y2958D02*
X1403Y2958D01*
X2307Y2958D02*
X2403Y2958D01*
X3307Y2958D02*
X3403Y2958D01*
X1306Y2957D02*
X1404Y2957D01*
X2306Y2957D02*
X2404Y2957D01*
X3306Y2957D02*
X3404Y2957D01*
X1305Y2956D02*
X1405Y2956D01*
X2305Y2956D02*
X2405Y2956D01*
X3305Y2956D02*
X3405Y2956D01*
X1304Y2955D02*
X1406Y2955D01*
X2304Y2955D02*
X2405Y2955D01*
X3304Y2955D02*
X3405Y2955D01*
X1303Y2954D02*
X1406Y2954D01*
X2303Y2954D02*
X2406Y2954D01*
X3303Y2954D02*
X3406Y2954D01*
X1302Y2953D02*
X1407Y2953D01*
X2302Y2953D02*
X2407Y2953D01*
X3302Y2953D02*
X3407Y2953D01*
X1301Y2952D02*
X1408Y2952D01*
X2301Y2952D02*
X2408Y2952D01*
X3301Y2952D02*
X3408Y2952D01*
X1301Y2951D02*
X1409Y2951D01*
X2301Y2951D02*
X2409Y2951D01*
X3301Y2951D02*
X3409Y2951D01*
X1300Y2950D02*
X1410Y2950D01*
X2300Y2950D02*
X2410Y2950D01*
X3300Y2950D02*
X3410Y2950D01*
X1299Y2949D02*
X1410Y2949D01*
X2299Y2949D02*
X2410Y2949D01*
X3299Y2949D02*
X3410Y2949D01*
X1298Y2948D02*
X1411Y2948D01*
X2298Y2948D02*
X2411Y2948D01*
X3298Y2948D02*
X3411Y2948D01*
X1298Y2947D02*
X1412Y2947D01*
X2298Y2947D02*
X2412Y2947D01*
X3298Y2947D02*
X3412Y2947D01*
X1297Y2946D02*
X1413Y2946D01*
X2297Y2946D02*
X2413Y2946D01*
X3297Y2946D02*
X3412Y2946D01*
X1296Y2945D02*
X1413Y2945D01*
X2296Y2945D02*
X2413Y2945D01*
X3296Y2945D02*
X3413Y2945D01*
X1296Y2944D02*
X1414Y2944D01*
X2296Y2944D02*
X2414Y2944D01*
X3296Y2944D02*
X3414Y2944D01*
X1295Y2943D02*
X1414Y2943D01*
X2295Y2943D02*
X2414Y2943D01*
X3295Y2943D02*
X3414Y2943D01*
X1295Y2942D02*
X1415Y2942D01*
X2295Y2942D02*
X2415Y2942D01*
X3295Y2942D02*
X3415Y2942D01*
X1294Y2941D02*
X1416Y2941D01*
X2294Y2941D02*
X2416Y2941D01*
X3294Y2941D02*
X3416Y2941D01*
X1293Y2940D02*
X1416Y2940D01*
X2293Y2940D02*
X2416Y2940D01*
X3293Y2940D02*
X3416Y2940D01*
X1293Y2939D02*
X1417Y2939D01*
X2293Y2939D02*
X2417Y2939D01*
X3293Y2939D02*
X3417Y2939D01*
X1292Y2938D02*
X1417Y2938D01*
X2292Y2938D02*
X2417Y2938D01*
X3292Y2938D02*
X3417Y2938D01*
X1292Y2937D02*
X1418Y2937D01*
X2292Y2937D02*
X2418Y2937D01*
X3292Y2937D02*
X3418Y2937D01*
X1291Y2936D02*
X1418Y2936D01*
X2291Y2936D02*
X2418Y2936D01*
X3291Y2936D02*
X3418Y2936D01*
X1291Y2935D02*
X1419Y2935D01*
X2291Y2935D02*
X2419Y2935D01*
X3291Y2935D02*
X3419Y2935D01*
X1291Y2934D02*
X1419Y2934D01*
X2291Y2934D02*
X2419Y2934D01*
X3291Y2934D02*
X3419Y2934D01*
X1290Y2933D02*
X1419Y2933D01*
X2290Y2933D02*
X2419Y2933D01*
X3290Y2933D02*
X3419Y2933D01*
X1290Y2932D02*
X1420Y2932D01*
X2290Y2932D02*
X2420Y2932D01*
X3290Y2932D02*
X3420Y2932D01*
X1290Y2931D02*
X1420Y2931D01*
X2289Y2931D02*
X2420Y2931D01*
X3289Y2931D02*
X3420Y2931D01*
X1289Y2930D02*
X1420Y2930D01*
X2289Y2930D02*
X2420Y2930D01*
X3289Y2930D02*
X3420Y2930D01*
X1289Y2929D02*
X1421Y2929D01*
X2289Y2929D02*
X2421Y2929D01*
X3289Y2929D02*
X3421Y2929D01*
X1289Y2928D02*
X1421Y2928D01*
X2288Y2928D02*
X2421Y2928D01*
X3288Y2928D02*
X3421Y2928D01*
X1288Y2927D02*
X1421Y2927D01*
X2288Y2927D02*
X2421Y2927D01*
X3288Y2927D02*
X3421Y2927D01*
X1288Y2926D02*
X1422Y2926D01*
X2288Y2926D02*
X2422Y2926D01*
X3288Y2926D02*
X3422Y2926D01*
X1288Y2925D02*
X1422Y2925D01*
X2288Y2925D02*
X2422Y2925D01*
X3288Y2925D02*
X3422Y2925D01*
X1288Y2924D02*
X1422Y2924D01*
X2287Y2924D02*
X2422Y2924D01*
X3287Y2924D02*
X3422Y2924D01*
X1287Y2923D02*
X1422Y2923D01*
X2287Y2923D02*
X2422Y2923D01*
X3287Y2923D02*
X3422Y2923D01*
X1287Y2922D02*
X1423Y2922D01*
X2287Y2922D02*
X2423Y2922D01*
X3287Y2922D02*
X3423Y2922D01*
X1287Y2921D02*
X1423Y2921D01*
X2287Y2921D02*
X2423Y2921D01*
X3287Y2921D02*
X3423Y2921D01*
X1287Y2920D02*
X1423Y2920D01*
X2287Y2920D02*
X2423Y2920D01*
X3287Y2920D02*
X3423Y2920D01*
X1286Y2919D02*
X1423Y2919D01*
X2286Y2919D02*
X2423Y2919D01*
X3286Y2919D02*
X3423Y2919D01*
X1286Y2918D02*
X1423Y2918D01*
X2286Y2918D02*
X2423Y2918D01*
X3286Y2918D02*
X3423Y2918D01*
X1286Y2917D02*
X1423Y2917D01*
X2286Y2917D02*
X2423Y2917D01*
X3286Y2917D02*
X3423Y2917D01*
X1286Y2916D02*
X1424Y2916D01*
X2286Y2916D02*
X2424Y2916D01*
X3286Y2916D02*
X3424Y2916D01*
X1286Y2915D02*
X1424Y2915D01*
X2286Y2915D02*
X2424Y2915D01*
X3286Y2915D02*
X3424Y2915D01*
X1286Y2914D02*
X1424Y2914D01*
X2286Y2914D02*
X2424Y2914D01*
X3286Y2914D02*
X3424Y2914D01*
X1286Y2913D02*
X1424Y2913D01*
X2286Y2913D02*
X2424Y2913D01*
X3286Y2913D02*
X3424Y2913D01*
X1286Y2912D02*
X1424Y2912D01*
X2286Y2912D02*
X2424Y2912D01*
X3286Y2912D02*
X3424Y2912D01*
X1286Y2911D02*
X1424Y2911D01*
X2286Y2911D02*
X2424Y2911D01*
X3285Y2911D02*
X3424Y2911D01*
X1285Y2910D02*
X1424Y2910D01*
X2285Y2910D02*
X2424Y2910D01*
X3285Y2910D02*
X3424Y2910D01*
X1285Y2909D02*
X1424Y2909D01*
X2285Y2909D02*
X2424Y2909D01*
X3285Y2909D02*
X3424Y2909D01*
X1285Y2908D02*
X1424Y2908D01*
X2285Y2908D02*
X2424Y2908D01*
X3285Y2908D02*
X3424Y2908D01*
X1285Y2907D02*
X1424Y2907D01*
X2285Y2907D02*
X2424Y2907D01*
X3285Y2907D02*
X3424Y2907D01*
X1285Y2906D02*
X1424Y2906D01*
X2285Y2906D02*
X2424Y2906D01*
X3285Y2906D02*
X3424Y2906D01*
X1285Y2905D02*
X1424Y2905D01*
X2285Y2905D02*
X2424Y2905D01*
X3285Y2905D02*
X3424Y2905D01*
X1286Y2904D02*
X1424Y2904D01*
X2286Y2904D02*
X2424Y2904D01*
X3285Y2904D02*
X3424Y2904D01*
X1286Y2903D02*
X1424Y2903D01*
X2286Y2903D02*
X2424Y2903D01*
X3286Y2903D02*
X3424Y2903D01*
X1286Y2902D02*
X1424Y2902D01*
X2286Y2902D02*
X2424Y2902D01*
X3286Y2902D02*
X3424Y2902D01*
X1286Y2901D02*
X1424Y2901D01*
X2286Y2901D02*
X2424Y2901D01*
X3286Y2901D02*
X3424Y2901D01*
X1286Y2900D02*
X1424Y2900D01*
X2286Y2900D02*
X2424Y2900D01*
X3286Y2900D02*
X3424Y2900D01*
X1286Y2899D02*
X1424Y2899D01*
X2286Y2899D02*
X2424Y2899D01*
X3286Y2899D02*
X3424Y2899D01*
X1286Y2898D02*
X1423Y2898D01*
X2286Y2898D02*
X2423Y2898D01*
X3286Y2898D02*
X3423Y2898D01*
X1286Y2897D02*
X1423Y2897D01*
X2286Y2897D02*
X2423Y2897D01*
X3286Y2897D02*
X3423Y2897D01*
X1286Y2896D02*
X1423Y2896D01*
X2286Y2896D02*
X2423Y2896D01*
X3286Y2896D02*
X3423Y2896D01*
X1287Y2895D02*
X1423Y2895D01*
X2287Y2895D02*
X2423Y2895D01*
X3287Y2895D02*
X3423Y2895D01*
X1287Y2894D02*
X1423Y2894D01*
X2287Y2894D02*
X2423Y2894D01*
X3287Y2894D02*
X3423Y2894D01*
X1287Y2893D02*
X1423Y2893D01*
X2287Y2893D02*
X2423Y2893D01*
X3287Y2893D02*
X3423Y2893D01*
X1287Y2892D02*
X1422Y2892D01*
X2287Y2892D02*
X2422Y2892D01*
X3287Y2892D02*
X3422Y2892D01*
X1288Y2891D02*
X1422Y2891D01*
X2287Y2891D02*
X2422Y2891D01*
X3287Y2891D02*
X3422Y2891D01*
X1288Y2890D02*
X1422Y2890D01*
X2288Y2890D02*
X2422Y2890D01*
X3288Y2890D02*
X3422Y2890D01*
X1288Y2889D02*
X1422Y2889D01*
X2288Y2889D02*
X2422Y2889D01*
X3288Y2889D02*
X3422Y2889D01*
X1288Y2888D02*
X1421Y2888D01*
X2288Y2888D02*
X2421Y2888D01*
X3288Y2888D02*
X3421Y2888D01*
X1289Y2887D02*
X1421Y2887D01*
X2288Y2887D02*
X2421Y2887D01*
X3288Y2887D02*
X3421Y2887D01*
X1289Y2886D02*
X1421Y2886D01*
X2289Y2886D02*
X2421Y2886D01*
X3289Y2886D02*
X3421Y2886D01*
X1289Y2885D02*
X1420Y2885D01*
X2289Y2885D02*
X2420Y2885D01*
X3289Y2885D02*
X3420Y2885D01*
X1290Y2884D02*
X1420Y2884D01*
X2289Y2884D02*
X2420Y2884D01*
X3289Y2884D02*
X3420Y2884D01*
X1290Y2883D02*
X1420Y2883D01*
X2290Y2883D02*
X2420Y2883D01*
X3290Y2883D02*
X3420Y2883D01*
X1290Y2882D02*
X1419Y2882D01*
X2290Y2882D02*
X2419Y2882D01*
X3290Y2882D02*
X3419Y2882D01*
X1291Y2881D02*
X1419Y2881D01*
X2291Y2881D02*
X2419Y2881D01*
X3291Y2881D02*
X3419Y2881D01*
X1291Y2880D02*
X1419Y2880D01*
X2291Y2880D02*
X2419Y2880D01*
X3291Y2880D02*
X3419Y2880D01*
X1291Y2879D02*
X1418Y2879D01*
X2291Y2879D02*
X2418Y2879D01*
X3291Y2879D02*
X3418Y2879D01*
X1292Y2878D02*
X1418Y2878D01*
X2292Y2878D02*
X2418Y2878D01*
X3292Y2878D02*
X3418Y2878D01*
X1292Y2877D02*
X1417Y2877D01*
X2292Y2877D02*
X2417Y2877D01*
X3292Y2877D02*
X3417Y2877D01*
X1293Y2876D02*
X1417Y2876D01*
X2293Y2876D02*
X2417Y2876D01*
X3293Y2876D02*
X3417Y2876D01*
X1293Y2875D02*
X1416Y2875D01*
X2293Y2875D02*
X2416Y2875D01*
X3293Y2875D02*
X3416Y2875D01*
X1294Y2874D02*
X1416Y2874D01*
X2294Y2874D02*
X2416Y2874D01*
X3294Y2874D02*
X3416Y2874D01*
X1295Y2873D02*
X1415Y2873D01*
X2295Y2873D02*
X2415Y2873D01*
X3295Y2873D02*
X3415Y2873D01*
X1295Y2872D02*
X1414Y2872D01*
X2295Y2872D02*
X2414Y2872D01*
X3295Y2872D02*
X3414Y2872D01*
X1296Y2871D02*
X1414Y2871D01*
X2296Y2871D02*
X2414Y2871D01*
X3296Y2871D02*
X3414Y2871D01*
X1296Y2870D02*
X1413Y2870D01*
X2296Y2870D02*
X2413Y2870D01*
X3296Y2870D02*
X3413Y2870D01*
X1297Y2869D02*
X1413Y2869D01*
X2297Y2869D02*
X2412Y2869D01*
X3297Y2869D02*
X3412Y2869D01*
X1298Y2868D02*
X1412Y2868D01*
X2298Y2868D02*
X2412Y2868D01*
X3298Y2868D02*
X3412Y2868D01*
X1298Y2867D02*
X1411Y2867D01*
X2298Y2867D02*
X2411Y2867D01*
X3298Y2867D02*
X3411Y2867D01*
X1299Y2866D02*
X1410Y2866D01*
X2299Y2866D02*
X2410Y2866D01*
X3299Y2866D02*
X3410Y2866D01*
X1300Y2865D02*
X1410Y2865D01*
X2300Y2865D02*
X2410Y2865D01*
X3300Y2865D02*
X3410Y2865D01*
X1301Y2864D02*
X1409Y2864D01*
X2301Y2864D02*
X2409Y2864D01*
X3301Y2864D02*
X3409Y2864D01*
X1301Y2863D02*
X1408Y2863D01*
X2301Y2863D02*
X2408Y2863D01*
X3301Y2863D02*
X3408Y2863D01*
X1302Y2862D02*
X1407Y2862D01*
X2302Y2862D02*
X2407Y2862D01*
X3302Y2862D02*
X3407Y2862D01*
X1303Y2861D02*
X1406Y2861D01*
X2303Y2861D02*
X2406Y2861D01*
X3303Y2861D02*
X3406Y2861D01*
X1304Y2860D02*
X1406Y2860D01*
X2304Y2860D02*
X2405Y2860D01*
X3304Y2860D02*
X3405Y2860D01*
X1305Y2859D02*
X1405Y2859D01*
X2305Y2859D02*
X2405Y2859D01*
X3305Y2859D02*
X3405Y2859D01*
X1306Y2858D02*
X1404Y2858D01*
X2306Y2858D02*
X2404Y2858D01*
X3306Y2858D02*
X3404Y2858D01*
X1307Y2857D02*
X1403Y2857D01*
X2307Y2857D02*
X2403Y2857D01*
X3307Y2857D02*
X3403Y2857D01*
X1308Y2856D02*
X1401Y2856D01*
X2308Y2856D02*
X2401Y2856D01*
X3308Y2856D02*
X3401Y2856D01*
X1309Y2855D02*
X1400Y2855D01*
X2309Y2855D02*
X2400Y2855D01*
X3309Y2855D02*
X3400Y2855D01*
X1310Y2854D02*
X1399Y2854D01*
X2310Y2854D02*
X2399Y2854D01*
X3310Y2854D02*
X3399Y2854D01*
X1312Y2853D02*
X1398Y2853D01*
X2312Y2853D02*
X2398Y2853D01*
X3312Y2853D02*
X3398Y2853D01*
X1313Y2852D02*
X1397Y2852D01*
X2313Y2852D02*
X2397Y2852D01*
X3313Y2852D02*
X3397Y2852D01*
X1314Y2851D02*
X1395Y2851D01*
X2314Y2851D02*
X2395Y2851D01*
X3314Y2851D02*
X3395Y2851D01*
X1316Y2850D02*
X1394Y2850D01*
X2316Y2850D02*
X2394Y2850D01*
X3316Y2850D02*
X3394Y2850D01*
X1317Y2849D02*
X1392Y2849D01*
X2317Y2849D02*
X2392Y2849D01*
X3317Y2849D02*
X3392Y2849D01*
X1319Y2848D02*
X1391Y2848D01*
X2319Y2848D02*
X2391Y2848D01*
X3319Y2848D02*
X3391Y2848D01*
X1320Y2847D02*
X1389Y2847D01*
X2320Y2847D02*
X2389Y2847D01*
X3320Y2847D02*
X3389Y2847D01*
X1322Y2846D02*
X1387Y2846D01*
X2322Y2846D02*
X2387Y2846D01*
X3322Y2846D02*
X3387Y2846D01*
X1324Y2845D02*
X1385Y2845D01*
X2324Y2845D02*
X2385Y2845D01*
X3324Y2845D02*
X3385Y2845D01*
X1326Y2844D02*
X1383Y2844D01*
X2326Y2844D02*
X2383Y2844D01*
X3326Y2844D02*
X3383Y2844D01*
X1328Y2843D02*
X1381Y2843D01*
X2328Y2843D02*
X2381Y2843D01*
X3328Y2843D02*
X3381Y2843D01*
X1331Y2842D02*
X1379Y2842D01*
X2331Y2842D02*
X2379Y2842D01*
X3331Y2842D02*
X3378Y2842D01*
X1334Y2841D02*
X1376Y2841D01*
X2334Y2841D02*
X2376Y2841D01*
X3334Y2841D02*
X3376Y2841D01*
X1338Y2840D02*
X1372Y2840D01*
X2338Y2840D02*
X2372Y2840D01*
X3338Y2840D02*
X3372Y2840D01*
X1342Y2839D02*
X1368Y2839D01*
X2342Y2839D02*
X2368Y2839D01*
X3342Y2839D02*
X3368Y2839D01*
X1348Y2838D02*
X1361Y2838D01*
X2348Y2838D02*
X2361Y2838D01*
X3348Y2838D02*
X3361Y2838D01*
X792Y2741D02*
X799Y2741D01*
X1270Y2741D02*
X1278Y2741D01*
X1792Y2741D02*
X1799Y2741D01*
X2270Y2741D02*
X2278Y2741D01*
X2792Y2741D02*
X2799Y2741D01*
X3270Y2741D02*
X3278Y2741D01*
X784Y2740D02*
X807Y2740D01*
X1262Y2740D02*
X1286Y2740D01*
X1784Y2740D02*
X1807Y2740D01*
X2262Y2740D02*
X2286Y2740D01*
X2784Y2740D02*
X2807Y2740D01*
X3262Y2740D02*
X3286Y2740D01*
X779Y2739D02*
X812Y2739D01*
X1258Y2739D02*
X1290Y2739D01*
X1779Y2739D02*
X1812Y2739D01*
X2258Y2739D02*
X2290Y2739D01*
X2779Y2739D02*
X2812Y2739D01*
X3258Y2739D02*
X3290Y2739D01*
X775Y2738D02*
X816Y2738D01*
X1254Y2738D02*
X1294Y2738D01*
X1775Y2738D02*
X1816Y2738D01*
X2254Y2738D02*
X2294Y2738D01*
X2775Y2738D02*
X2816Y2738D01*
X3254Y2738D02*
X3294Y2738D01*
X773Y2737D02*
X819Y2737D01*
X1251Y2737D02*
X1297Y2737D01*
X1773Y2737D02*
X1819Y2737D01*
X2251Y2737D02*
X2297Y2737D01*
X2772Y2737D02*
X2819Y2737D01*
X3251Y2737D02*
X3297Y2737D01*
X770Y2736D02*
X822Y2736D01*
X1248Y2736D02*
X1300Y2736D01*
X1770Y2736D02*
X1822Y2736D01*
X2248Y2736D02*
X2300Y2736D01*
X2770Y2736D02*
X2822Y2736D01*
X3248Y2736D02*
X3300Y2736D01*
X768Y2735D02*
X824Y2735D01*
X1246Y2735D02*
X1302Y2735D01*
X1767Y2735D02*
X1824Y2735D01*
X2246Y2735D02*
X2302Y2735D01*
X2767Y2735D02*
X2824Y2735D01*
X3246Y2735D02*
X3302Y2735D01*
X765Y2734D02*
X826Y2734D01*
X1244Y2734D02*
X1304Y2734D01*
X1765Y2734D02*
X1826Y2734D01*
X2244Y2734D02*
X2304Y2734D01*
X2765Y2734D02*
X2826Y2734D01*
X3244Y2734D02*
X3304Y2734D01*
X763Y2733D02*
X828Y2733D01*
X1242Y2733D02*
X1306Y2733D01*
X1763Y2733D02*
X1828Y2733D01*
X2242Y2733D02*
X2306Y2733D01*
X2763Y2733D02*
X2828Y2733D01*
X3242Y2733D02*
X3306Y2733D01*
X762Y2732D02*
X830Y2732D01*
X1240Y2732D02*
X1308Y2732D01*
X1762Y2732D02*
X1830Y2732D01*
X2240Y2732D02*
X2308Y2732D01*
X2762Y2732D02*
X2830Y2732D01*
X3240Y2732D02*
X3308Y2732D01*
X760Y2731D02*
X831Y2731D01*
X1238Y2731D02*
X1310Y2731D01*
X1760Y2731D02*
X1831Y2731D01*
X2238Y2731D02*
X2310Y2731D01*
X2760Y2731D02*
X2831Y2731D01*
X3238Y2731D02*
X3310Y2731D01*
X759Y2730D02*
X833Y2730D01*
X1237Y2730D02*
X1311Y2730D01*
X1758Y2730D02*
X1833Y2730D01*
X2237Y2730D02*
X2311Y2730D01*
X2758Y2730D02*
X2833Y2730D01*
X3237Y2730D02*
X3311Y2730D01*
X757Y2729D02*
X835Y2729D01*
X1235Y2729D02*
X1313Y2729D01*
X1757Y2729D02*
X1835Y2729D01*
X2235Y2729D02*
X2313Y2729D01*
X2757Y2729D02*
X2835Y2729D01*
X3235Y2729D02*
X3313Y2729D01*
X756Y2728D02*
X836Y2728D01*
X1234Y2728D02*
X1314Y2728D01*
X1756Y2728D02*
X1836Y2728D01*
X2234Y2728D02*
X2314Y2728D01*
X2755Y2728D02*
X2836Y2728D01*
X3234Y2728D02*
X3314Y2728D01*
X754Y2727D02*
X837Y2727D01*
X1233Y2727D02*
X1316Y2727D01*
X1754Y2727D02*
X1837Y2727D01*
X2233Y2727D02*
X2316Y2727D01*
X2754Y2727D02*
X2837Y2727D01*
X3232Y2727D02*
X3316Y2727D01*
X753Y2726D02*
X839Y2726D01*
X1231Y2726D02*
X1317Y2726D01*
X1753Y2726D02*
X1839Y2726D01*
X2231Y2726D02*
X2317Y2726D01*
X2753Y2726D02*
X2839Y2726D01*
X3231Y2726D02*
X3317Y2726D01*
X752Y2725D02*
X840Y2725D01*
X1230Y2725D02*
X1318Y2725D01*
X1752Y2725D02*
X1840Y2725D01*
X2230Y2725D02*
X2318Y2725D01*
X2751Y2725D02*
X2840Y2725D01*
X3230Y2725D02*
X3318Y2725D01*
X750Y2724D02*
X841Y2724D01*
X1229Y2724D02*
X1319Y2724D01*
X1750Y2724D02*
X1841Y2724D01*
X2229Y2724D02*
X2319Y2724D01*
X2750Y2724D02*
X2841Y2724D01*
X3229Y2724D02*
X3319Y2724D01*
X749Y2723D02*
X842Y2723D01*
X1228Y2723D02*
X1321Y2723D01*
X1749Y2723D02*
X1842Y2723D01*
X2228Y2723D02*
X2321Y2723D01*
X2749Y2723D02*
X2842Y2723D01*
X3228Y2723D02*
X3320Y2723D01*
X748Y2722D02*
X843Y2722D01*
X1227Y2722D02*
X1322Y2722D01*
X1748Y2722D02*
X1843Y2722D01*
X2226Y2722D02*
X2322Y2722D01*
X2748Y2722D02*
X2843Y2722D01*
X3226Y2722D02*
X3322Y2722D01*
X747Y2721D02*
X844Y2721D01*
X1225Y2721D02*
X1323Y2721D01*
X1747Y2721D02*
X1844Y2721D01*
X2225Y2721D02*
X2323Y2721D01*
X2747Y2721D02*
X2844Y2721D01*
X3225Y2721D02*
X3323Y2721D01*
X746Y2720D02*
X845Y2720D01*
X1224Y2720D02*
X1324Y2720D01*
X1746Y2720D02*
X1845Y2720D01*
X2224Y2720D02*
X2324Y2720D01*
X2746Y2720D02*
X2845Y2720D01*
X3224Y2720D02*
X3324Y2720D01*
X745Y2719D02*
X846Y2719D01*
X1224Y2719D02*
X1325Y2719D01*
X1745Y2719D02*
X1846Y2719D01*
X2224Y2719D02*
X2325Y2719D01*
X2745Y2719D02*
X2846Y2719D01*
X3223Y2719D02*
X3325Y2719D01*
X744Y2718D02*
X847Y2718D01*
X1223Y2718D02*
X1326Y2718D01*
X1744Y2718D02*
X1847Y2718D01*
X2223Y2718D02*
X2325Y2718D01*
X2744Y2718D02*
X2847Y2718D01*
X3223Y2718D02*
X3325Y2718D01*
X743Y2717D02*
X848Y2717D01*
X1222Y2717D02*
X1326Y2717D01*
X1743Y2717D02*
X1848Y2717D01*
X2222Y2717D02*
X2326Y2717D01*
X2743Y2717D02*
X2848Y2717D01*
X3222Y2717D02*
X3326Y2717D01*
X743Y2716D02*
X849Y2716D01*
X1221Y2716D02*
X1327Y2716D01*
X1743Y2716D02*
X1849Y2716D01*
X2221Y2716D02*
X2327Y2716D01*
X2742Y2716D02*
X2849Y2716D01*
X3221Y2716D02*
X3327Y2716D01*
X742Y2715D02*
X850Y2715D01*
X1220Y2715D02*
X1328Y2715D01*
X1742Y2715D02*
X1850Y2715D01*
X2220Y2715D02*
X2328Y2715D01*
X2742Y2715D02*
X2850Y2715D01*
X3220Y2715D02*
X3328Y2715D01*
X741Y2714D02*
X850Y2714D01*
X1219Y2714D02*
X1329Y2714D01*
X1741Y2714D02*
X1850Y2714D01*
X2219Y2714D02*
X2329Y2714D01*
X2741Y2714D02*
X2850Y2714D01*
X3219Y2714D02*
X3329Y2714D01*
X740Y2713D02*
X851Y2713D01*
X1219Y2713D02*
X1330Y2713D01*
X1740Y2713D02*
X1851Y2713D01*
X2219Y2713D02*
X2329Y2713D01*
X2740Y2713D02*
X2851Y2713D01*
X3219Y2713D02*
X3329Y2713D01*
X740Y2712D02*
X852Y2712D01*
X1218Y2712D02*
X1330Y2712D01*
X1740Y2712D02*
X1852Y2712D01*
X2218Y2712D02*
X2330Y2712D01*
X2739Y2712D02*
X2852Y2712D01*
X3218Y2712D02*
X3330Y2712D01*
X739Y2711D02*
X853Y2711D01*
X1217Y2711D02*
X1331Y2711D01*
X1739Y2711D02*
X1853Y2711D01*
X2217Y2711D02*
X2331Y2711D01*
X2739Y2711D02*
X2853Y2711D01*
X3217Y2711D02*
X3331Y2711D01*
X738Y2710D02*
X853Y2710D01*
X1216Y2710D02*
X1332Y2710D01*
X1738Y2710D02*
X1853Y2710D01*
X2216Y2710D02*
X2332Y2710D01*
X2738Y2710D02*
X2853Y2710D01*
X3216Y2710D02*
X3332Y2710D01*
X738Y2709D02*
X854Y2709D01*
X1216Y2709D02*
X1332Y2709D01*
X1737Y2709D02*
X1854Y2709D01*
X2216Y2709D02*
X2332Y2709D01*
X2737Y2709D02*
X2854Y2709D01*
X3216Y2709D02*
X3332Y2709D01*
X737Y2708D02*
X855Y2708D01*
X1215Y2708D02*
X1333Y2708D01*
X1737Y2708D02*
X1855Y2708D01*
X2215Y2708D02*
X2333Y2708D01*
X2737Y2708D02*
X2855Y2708D01*
X3215Y2708D02*
X3333Y2708D01*
X736Y2707D02*
X855Y2707D01*
X1215Y2707D02*
X1334Y2707D01*
X1736Y2707D02*
X1855Y2707D01*
X2215Y2707D02*
X2334Y2707D01*
X2736Y2707D02*
X2855Y2707D01*
X3215Y2707D02*
X3333Y2707D01*
X736Y2706D02*
X856Y2706D01*
X1214Y2706D02*
X1334Y2706D01*
X1736Y2706D02*
X1856Y2706D01*
X2214Y2706D02*
X2334Y2706D01*
X2736Y2706D02*
X2856Y2706D01*
X3214Y2706D02*
X3334Y2706D01*
X735Y2705D02*
X856Y2705D01*
X1213Y2705D02*
X1335Y2705D01*
X1735Y2705D02*
X1856Y2705D01*
X2213Y2705D02*
X2335Y2705D01*
X2735Y2705D02*
X2856Y2705D01*
X3213Y2705D02*
X3335Y2705D01*
X735Y2704D02*
X857Y2704D01*
X1213Y2704D02*
X1335Y2704D01*
X1734Y2704D02*
X1857Y2704D01*
X2213Y2704D02*
X2335Y2704D01*
X2734Y2704D02*
X2857Y2704D01*
X3213Y2704D02*
X3335Y2704D01*
X734Y2703D02*
X858Y2703D01*
X1212Y2703D02*
X1336Y2703D01*
X1734Y2703D02*
X1857Y2703D01*
X2212Y2703D02*
X2336Y2703D01*
X2734Y2703D02*
X2857Y2703D01*
X3212Y2703D02*
X3336Y2703D01*
X734Y2702D02*
X858Y2702D01*
X1212Y2702D02*
X1336Y2702D01*
X1733Y2702D02*
X1858Y2702D01*
X2212Y2702D02*
X2336Y2702D01*
X2733Y2702D02*
X2858Y2702D01*
X3212Y2702D02*
X3336Y2702D01*
X733Y2701D02*
X858Y2701D01*
X1211Y2701D02*
X1337Y2701D01*
X1733Y2701D02*
X1858Y2701D01*
X2211Y2701D02*
X2337Y2701D01*
X2733Y2701D02*
X2858Y2701D01*
X3211Y2701D02*
X3337Y2701D01*
X733Y2700D02*
X859Y2700D01*
X1211Y2700D02*
X1337Y2700D01*
X1733Y2700D02*
X1859Y2700D01*
X2211Y2700D02*
X2337Y2700D01*
X2732Y2700D02*
X2859Y2700D01*
X3211Y2700D02*
X3337Y2700D01*
X732Y2699D02*
X859Y2699D01*
X1210Y2699D02*
X1338Y2699D01*
X1732Y2699D02*
X1859Y2699D01*
X2210Y2699D02*
X2338Y2699D01*
X2732Y2699D02*
X2859Y2699D01*
X3210Y2699D02*
X3338Y2699D01*
X732Y2698D02*
X860Y2698D01*
X1210Y2698D02*
X1338Y2698D01*
X1732Y2698D02*
X1860Y2698D01*
X2210Y2698D02*
X2338Y2698D01*
X2732Y2698D02*
X2860Y2698D01*
X3210Y2698D02*
X3338Y2698D01*
X731Y2697D02*
X860Y2697D01*
X1210Y2697D02*
X1339Y2697D01*
X1731Y2697D02*
X1860Y2697D01*
X2210Y2697D02*
X2339Y2697D01*
X2731Y2697D02*
X2860Y2697D01*
X3210Y2697D02*
X3338Y2697D01*
X731Y2696D02*
X861Y2696D01*
X1209Y2696D02*
X1339Y2696D01*
X1731Y2696D02*
X1861Y2696D01*
X2209Y2696D02*
X2339Y2696D01*
X2731Y2696D02*
X2861Y2696D01*
X3209Y2696D02*
X3339Y2696D01*
X731Y2695D02*
X861Y2695D01*
X1209Y2695D02*
X1339Y2695D01*
X1731Y2695D02*
X1861Y2695D01*
X2209Y2695D02*
X2339Y2695D01*
X2730Y2695D02*
X2861Y2695D01*
X3209Y2695D02*
X3339Y2695D01*
X730Y2694D02*
X861Y2694D01*
X1209Y2694D02*
X1340Y2694D01*
X1730Y2694D02*
X1861Y2694D01*
X2208Y2694D02*
X2340Y2694D01*
X2730Y2694D02*
X2861Y2694D01*
X3208Y2694D02*
X3340Y2694D01*
X730Y2693D02*
X862Y2693D01*
X1208Y2693D02*
X1340Y2693D01*
X1730Y2693D02*
X1862Y2693D01*
X2208Y2693D02*
X2340Y2693D01*
X2730Y2693D02*
X2862Y2693D01*
X3208Y2693D02*
X3340Y2693D01*
X730Y2692D02*
X862Y2692D01*
X1208Y2692D02*
X1340Y2692D01*
X1729Y2692D02*
X1862Y2692D01*
X2208Y2692D02*
X2340Y2692D01*
X2729Y2692D02*
X2862Y2692D01*
X3208Y2692D02*
X3340Y2692D01*
X729Y2691D02*
X862Y2691D01*
X1208Y2691D02*
X1341Y2691D01*
X1729Y2691D02*
X1862Y2691D01*
X2208Y2691D02*
X2341Y2691D01*
X2729Y2691D02*
X2862Y2691D01*
X3208Y2691D02*
X3340Y2691D01*
X729Y2690D02*
X863Y2690D01*
X1207Y2690D02*
X1341Y2690D01*
X1729Y2690D02*
X1862Y2690D01*
X2207Y2690D02*
X2341Y2690D01*
X2729Y2690D02*
X2862Y2690D01*
X3207Y2690D02*
X3341Y2690D01*
X729Y2689D02*
X863Y2689D01*
X1207Y2689D02*
X1341Y2689D01*
X1729Y2689D02*
X1863Y2689D01*
X2207Y2689D02*
X2341Y2689D01*
X2729Y2689D02*
X2863Y2689D01*
X3207Y2689D02*
X3341Y2689D01*
X729Y2688D02*
X863Y2688D01*
X1207Y2688D02*
X1341Y2688D01*
X1728Y2688D02*
X1863Y2688D01*
X2207Y2688D02*
X2341Y2688D01*
X2728Y2688D02*
X2863Y2688D01*
X3207Y2688D02*
X3341Y2688D01*
X728Y2687D02*
X863Y2687D01*
X1207Y2687D02*
X1342Y2687D01*
X1728Y2687D02*
X1863Y2687D01*
X2207Y2687D02*
X2342Y2687D01*
X2728Y2687D02*
X2863Y2687D01*
X3207Y2687D02*
X3342Y2687D01*
X728Y2686D02*
X864Y2686D01*
X1206Y2686D02*
X1342Y2686D01*
X1728Y2686D02*
X1863Y2686D01*
X2206Y2686D02*
X2342Y2686D01*
X2728Y2686D02*
X2863Y2686D01*
X3206Y2686D02*
X3342Y2686D01*
X728Y2685D02*
X864Y2685D01*
X1206Y2685D02*
X1342Y2685D01*
X1728Y2685D02*
X1864Y2685D01*
X2206Y2685D02*
X2342Y2685D01*
X2728Y2685D02*
X2864Y2685D01*
X3206Y2685D02*
X3342Y2685D01*
X728Y2684D02*
X864Y2684D01*
X1206Y2684D02*
X1342Y2684D01*
X1728Y2684D02*
X1864Y2684D01*
X2206Y2684D02*
X2342Y2684D01*
X2728Y2684D02*
X2864Y2684D01*
X3206Y2684D02*
X3342Y2684D01*
X727Y2683D02*
X864Y2683D01*
X1206Y2683D02*
X1342Y2683D01*
X1727Y2683D02*
X1864Y2683D01*
X2206Y2683D02*
X2342Y2683D01*
X2727Y2683D02*
X2864Y2683D01*
X3206Y2683D02*
X3342Y2683D01*
X727Y2682D02*
X864Y2682D01*
X1206Y2682D02*
X1343Y2682D01*
X1727Y2682D02*
X1864Y2682D01*
X2206Y2682D02*
X2342Y2682D01*
X2727Y2682D02*
X2864Y2682D01*
X3206Y2682D02*
X3342Y2682D01*
X727Y2681D02*
X864Y2681D01*
X1205Y2681D02*
X1343Y2681D01*
X1727Y2681D02*
X1864Y2681D01*
X2205Y2681D02*
X2343Y2681D01*
X2727Y2681D02*
X2864Y2681D01*
X3205Y2681D02*
X3343Y2681D01*
X727Y2680D02*
X865Y2680D01*
X1205Y2680D02*
X1343Y2680D01*
X1727Y2680D02*
X1864Y2680D01*
X2205Y2680D02*
X2343Y2680D01*
X2727Y2680D02*
X2864Y2680D01*
X3205Y2680D02*
X3343Y2680D01*
X727Y2679D02*
X865Y2679D01*
X1205Y2679D02*
X1343Y2679D01*
X1727Y2679D02*
X1865Y2679D01*
X2205Y2679D02*
X2343Y2679D01*
X2727Y2679D02*
X2865Y2679D01*
X3205Y2679D02*
X3343Y2679D01*
X727Y2678D02*
X865Y2678D01*
X1205Y2678D02*
X1343Y2678D01*
X1727Y2678D02*
X1865Y2678D01*
X2205Y2678D02*
X2343Y2678D01*
X2727Y2678D02*
X2865Y2678D01*
X3205Y2678D02*
X3343Y2678D01*
X727Y2677D02*
X865Y2677D01*
X1205Y2677D02*
X1343Y2677D01*
X1727Y2677D02*
X1865Y2677D01*
X2205Y2677D02*
X2343Y2677D01*
X2727Y2677D02*
X2865Y2677D01*
X3205Y2677D02*
X3343Y2677D01*
X727Y2676D02*
X865Y2676D01*
X1205Y2676D02*
X1343Y2676D01*
X1727Y2676D02*
X1865Y2676D01*
X2205Y2676D02*
X2343Y2676D01*
X2727Y2676D02*
X2865Y2676D01*
X3205Y2676D02*
X3343Y2676D01*
X727Y2675D02*
X865Y2675D01*
X1205Y2675D02*
X1343Y2675D01*
X1726Y2675D02*
X1865Y2675D01*
X2205Y2675D02*
X2343Y2675D01*
X2726Y2675D02*
X2865Y2675D01*
X3205Y2675D02*
X3343Y2675D01*
X726Y2674D02*
X865Y2674D01*
X1205Y2674D02*
X1343Y2674D01*
X1726Y2674D02*
X1865Y2674D01*
X2205Y2674D02*
X2343Y2674D01*
X2726Y2674D02*
X2865Y2674D01*
X3205Y2674D02*
X3343Y2674D01*
X726Y2673D02*
X865Y2673D01*
X1205Y2673D02*
X1343Y2673D01*
X1726Y2673D02*
X1865Y2673D01*
X2205Y2673D02*
X2343Y2673D01*
X2726Y2673D02*
X2865Y2673D01*
X3205Y2673D02*
X3343Y2673D01*
X726Y2672D02*
X865Y2672D01*
X1205Y2672D02*
X1343Y2672D01*
X1726Y2672D02*
X1865Y2672D01*
X2205Y2672D02*
X2343Y2672D01*
X2726Y2672D02*
X2865Y2672D01*
X3205Y2672D02*
X3343Y2672D01*
X726Y2671D02*
X865Y2671D01*
X1205Y2671D02*
X1344Y2671D01*
X1726Y2671D02*
X1865Y2671D01*
X2205Y2671D02*
X2343Y2671D01*
X2726Y2671D02*
X2865Y2671D01*
X3205Y2671D02*
X3343Y2671D01*
X726Y2670D02*
X865Y2670D01*
X1205Y2670D02*
X1343Y2670D01*
X1726Y2670D02*
X1865Y2670D01*
X2205Y2670D02*
X2343Y2670D01*
X2726Y2670D02*
X2865Y2670D01*
X3205Y2670D02*
X3343Y2670D01*
X726Y2669D02*
X865Y2669D01*
X1205Y2669D02*
X1343Y2669D01*
X1726Y2669D02*
X1865Y2669D01*
X2205Y2669D02*
X2343Y2669D01*
X2726Y2669D02*
X2865Y2669D01*
X3205Y2669D02*
X3343Y2669D01*
X727Y2668D02*
X865Y2668D01*
X1205Y2668D02*
X1343Y2668D01*
X1726Y2668D02*
X1865Y2668D01*
X2205Y2668D02*
X2343Y2668D01*
X2726Y2668D02*
X2865Y2668D01*
X3205Y2668D02*
X3343Y2668D01*
X727Y2667D02*
X865Y2667D01*
X1205Y2667D02*
X1343Y2667D01*
X1727Y2667D02*
X1865Y2667D01*
X2205Y2667D02*
X2343Y2667D01*
X2726Y2667D02*
X2865Y2667D01*
X3205Y2667D02*
X3343Y2667D01*
X727Y2666D02*
X865Y2666D01*
X1205Y2666D02*
X1343Y2666D01*
X1727Y2666D02*
X1865Y2666D01*
X2205Y2666D02*
X2343Y2666D01*
X2727Y2666D02*
X2865Y2666D01*
X3205Y2666D02*
X3343Y2666D01*
X727Y2665D02*
X865Y2665D01*
X1205Y2665D02*
X1343Y2665D01*
X1727Y2665D02*
X1865Y2665D01*
X2205Y2665D02*
X2343Y2665D01*
X2727Y2665D02*
X2865Y2665D01*
X3205Y2665D02*
X3343Y2665D01*
X727Y2664D02*
X865Y2664D01*
X1205Y2664D02*
X1343Y2664D01*
X1727Y2664D02*
X1865Y2664D01*
X2205Y2664D02*
X2343Y2664D01*
X2727Y2664D02*
X2865Y2664D01*
X3205Y2664D02*
X3343Y2664D01*
X727Y2663D02*
X865Y2663D01*
X1205Y2663D02*
X1343Y2663D01*
X1727Y2663D02*
X1865Y2663D01*
X2205Y2663D02*
X2343Y2663D01*
X2727Y2663D02*
X2865Y2663D01*
X3205Y2663D02*
X3343Y2663D01*
X727Y2662D02*
X864Y2662D01*
X1205Y2662D02*
X1343Y2662D01*
X1727Y2662D02*
X1864Y2662D01*
X2205Y2662D02*
X2343Y2662D01*
X2727Y2662D02*
X2864Y2662D01*
X3205Y2662D02*
X3343Y2662D01*
X727Y2661D02*
X864Y2661D01*
X1206Y2661D02*
X1343Y2661D01*
X1727Y2661D02*
X1864Y2661D01*
X2206Y2661D02*
X2343Y2661D01*
X2727Y2661D02*
X2864Y2661D01*
X3205Y2661D02*
X3343Y2661D01*
X727Y2660D02*
X864Y2660D01*
X1206Y2660D02*
X1342Y2660D01*
X1727Y2660D02*
X1864Y2660D01*
X2206Y2660D02*
X2342Y2660D01*
X2727Y2660D02*
X2864Y2660D01*
X3206Y2660D02*
X3342Y2660D01*
X728Y2659D02*
X864Y2659D01*
X1206Y2659D02*
X1342Y2659D01*
X1728Y2659D02*
X1864Y2659D01*
X2206Y2659D02*
X2342Y2659D01*
X2728Y2659D02*
X2864Y2659D01*
X3206Y2659D02*
X3342Y2659D01*
X728Y2658D02*
X864Y2658D01*
X1206Y2658D02*
X1342Y2658D01*
X1728Y2658D02*
X1864Y2658D01*
X2206Y2658D02*
X2342Y2658D01*
X2728Y2658D02*
X2864Y2658D01*
X3206Y2658D02*
X3342Y2658D01*
X728Y2657D02*
X864Y2657D01*
X1206Y2657D02*
X1342Y2657D01*
X1728Y2657D02*
X1864Y2657D01*
X2206Y2657D02*
X2342Y2657D01*
X2728Y2657D02*
X2864Y2657D01*
X3206Y2657D02*
X3342Y2657D01*
X728Y2656D02*
X863Y2656D01*
X1206Y2656D02*
X1342Y2656D01*
X1728Y2656D02*
X1863Y2656D01*
X2206Y2656D02*
X2342Y2656D01*
X2728Y2656D02*
X2863Y2656D01*
X3206Y2656D02*
X3342Y2656D01*
X728Y2655D02*
X863Y2655D01*
X1207Y2655D02*
X1341Y2655D01*
X1728Y2655D02*
X1863Y2655D01*
X2207Y2655D02*
X2341Y2655D01*
X2728Y2655D02*
X2863Y2655D01*
X3207Y2655D02*
X3341Y2655D01*
X729Y2654D02*
X863Y2654D01*
X1207Y2654D02*
X1341Y2654D01*
X1729Y2654D02*
X1863Y2654D01*
X2207Y2654D02*
X2341Y2654D01*
X2729Y2654D02*
X2863Y2654D01*
X3207Y2654D02*
X3341Y2654D01*
X729Y2653D02*
X863Y2653D01*
X1207Y2653D02*
X1341Y2653D01*
X1729Y2653D02*
X1863Y2653D01*
X2207Y2653D02*
X2341Y2653D01*
X2729Y2653D02*
X2863Y2653D01*
X3207Y2653D02*
X3341Y2653D01*
X729Y2652D02*
X862Y2652D01*
X1207Y2652D02*
X1341Y2652D01*
X1729Y2652D02*
X1862Y2652D01*
X2207Y2652D02*
X2341Y2652D01*
X2729Y2652D02*
X2862Y2652D01*
X3207Y2652D02*
X3341Y2652D01*
X729Y2651D02*
X862Y2651D01*
X1208Y2651D02*
X1340Y2651D01*
X1729Y2651D02*
X1862Y2651D01*
X2208Y2651D02*
X2340Y2651D01*
X2729Y2651D02*
X2862Y2651D01*
X3208Y2651D02*
X3340Y2651D01*
X730Y2650D02*
X862Y2650D01*
X1208Y2650D02*
X1340Y2650D01*
X1730Y2650D02*
X1862Y2650D01*
X2208Y2650D02*
X2340Y2650D01*
X2730Y2650D02*
X2862Y2650D01*
X3208Y2650D02*
X3340Y2650D01*
X730Y2649D02*
X861Y2649D01*
X1208Y2649D02*
X1340Y2649D01*
X1730Y2649D02*
X1861Y2649D01*
X2208Y2649D02*
X2340Y2649D01*
X2730Y2649D02*
X2861Y2649D01*
X3208Y2649D02*
X3340Y2649D01*
X730Y2648D02*
X861Y2648D01*
X1209Y2648D02*
X1339Y2648D01*
X1730Y2648D02*
X1861Y2648D01*
X2209Y2648D02*
X2339Y2648D01*
X2730Y2648D02*
X2861Y2648D01*
X3209Y2648D02*
X3339Y2648D01*
X731Y2647D02*
X861Y2647D01*
X1209Y2647D02*
X1339Y2647D01*
X1731Y2647D02*
X1861Y2647D01*
X2209Y2647D02*
X2339Y2647D01*
X2731Y2647D02*
X2861Y2647D01*
X3209Y2647D02*
X3339Y2647D01*
X731Y2646D02*
X860Y2646D01*
X1209Y2646D02*
X1339Y2646D01*
X1731Y2646D02*
X1860Y2646D01*
X2209Y2646D02*
X2339Y2646D01*
X2731Y2646D02*
X2860Y2646D01*
X3209Y2646D02*
X3339Y2646D01*
X731Y2645D02*
X860Y2645D01*
X1210Y2645D02*
X1338Y2645D01*
X1731Y2645D02*
X1860Y2645D01*
X2210Y2645D02*
X2338Y2645D01*
X2731Y2645D02*
X2860Y2645D01*
X3210Y2645D02*
X3338Y2645D01*
X732Y2644D02*
X860Y2644D01*
X1210Y2644D02*
X1338Y2644D01*
X1732Y2644D02*
X1860Y2644D01*
X2210Y2644D02*
X2338Y2644D01*
X2732Y2644D02*
X2860Y2644D01*
X3210Y2644D02*
X3338Y2644D01*
X732Y2643D02*
X859Y2643D01*
X1211Y2643D02*
X1338Y2643D01*
X1732Y2643D02*
X1859Y2643D01*
X2211Y2643D02*
X2337Y2643D01*
X2732Y2643D02*
X2859Y2643D01*
X3211Y2643D02*
X3337Y2643D01*
X733Y2642D02*
X859Y2642D01*
X1211Y2642D02*
X1337Y2642D01*
X1733Y2642D02*
X1859Y2642D01*
X2211Y2642D02*
X2337Y2642D01*
X2733Y2642D02*
X2859Y2642D01*
X3211Y2642D02*
X3337Y2642D01*
X733Y2641D02*
X858Y2641D01*
X1212Y2641D02*
X1337Y2641D01*
X1733Y2641D02*
X1858Y2641D01*
X2212Y2641D02*
X2336Y2641D01*
X2733Y2641D02*
X2858Y2641D01*
X3212Y2641D02*
X3336Y2641D01*
X734Y2640D02*
X858Y2640D01*
X1212Y2640D02*
X1336Y2640D01*
X1734Y2640D02*
X1858Y2640D01*
X2212Y2640D02*
X2336Y2640D01*
X2734Y2640D02*
X2858Y2640D01*
X3212Y2640D02*
X3336Y2640D01*
X734Y2639D02*
X857Y2639D01*
X1213Y2639D02*
X1336Y2639D01*
X1734Y2639D02*
X1857Y2639D01*
X2213Y2639D02*
X2335Y2639D01*
X2734Y2639D02*
X2857Y2639D01*
X3213Y2639D02*
X3335Y2639D01*
X735Y2638D02*
X857Y2638D01*
X1213Y2638D02*
X1335Y2638D01*
X1735Y2638D02*
X1857Y2638D01*
X2213Y2638D02*
X2335Y2638D01*
X2735Y2638D02*
X2857Y2638D01*
X3213Y2638D02*
X3335Y2638D01*
X735Y2637D02*
X856Y2637D01*
X1214Y2637D02*
X1334Y2637D01*
X1735Y2637D02*
X1856Y2637D01*
X2214Y2637D02*
X2334Y2637D01*
X2735Y2637D02*
X2856Y2637D01*
X3214Y2637D02*
X3334Y2637D01*
X736Y2636D02*
X855Y2636D01*
X1214Y2636D02*
X1334Y2636D01*
X1736Y2636D02*
X1855Y2636D01*
X2214Y2636D02*
X2334Y2636D01*
X2736Y2636D02*
X2855Y2636D01*
X3214Y2636D02*
X3334Y2636D01*
X737Y2635D02*
X855Y2635D01*
X1215Y2635D02*
X1333Y2635D01*
X1737Y2635D02*
X1855Y2635D01*
X2215Y2635D02*
X2333Y2635D01*
X2737Y2635D02*
X2855Y2635D01*
X3215Y2635D02*
X3333Y2635D01*
X737Y2634D02*
X854Y2634D01*
X1216Y2634D02*
X1333Y2634D01*
X1737Y2634D02*
X1854Y2634D01*
X2216Y2634D02*
X2333Y2634D01*
X2737Y2634D02*
X2854Y2634D01*
X3216Y2634D02*
X3332Y2634D01*
X738Y2633D02*
X854Y2633D01*
X1216Y2633D02*
X1332Y2633D01*
X1738Y2633D02*
X1854Y2633D01*
X2216Y2633D02*
X2332Y2633D01*
X2738Y2633D02*
X2854Y2633D01*
X3216Y2633D02*
X3332Y2633D01*
X739Y2632D02*
X853Y2632D01*
X1217Y2632D02*
X1331Y2632D01*
X1739Y2632D02*
X1853Y2632D01*
X2217Y2632D02*
X2331Y2632D01*
X2738Y2632D02*
X2853Y2632D01*
X3217Y2632D02*
X3331Y2632D01*
X739Y2631D02*
X852Y2631D01*
X1218Y2631D02*
X1331Y2631D01*
X1739Y2631D02*
X1852Y2631D01*
X2218Y2631D02*
X2331Y2631D01*
X2739Y2631D02*
X2852Y2631D01*
X3218Y2631D02*
X3330Y2631D01*
X740Y2630D02*
X852Y2630D01*
X1218Y2630D02*
X1330Y2630D01*
X1740Y2630D02*
X1851Y2630D01*
X2218Y2630D02*
X2330Y2630D01*
X2740Y2630D02*
X2851Y2630D01*
X3218Y2630D02*
X3330Y2630D01*
X741Y2629D02*
X851Y2629D01*
X1219Y2629D02*
X1329Y2629D01*
X1741Y2629D02*
X1851Y2629D01*
X2219Y2629D02*
X2329Y2629D01*
X2741Y2629D02*
X2851Y2629D01*
X3219Y2629D02*
X3329Y2629D01*
X742Y2628D02*
X850Y2628D01*
X1220Y2628D02*
X1328Y2628D01*
X1741Y2628D02*
X1850Y2628D01*
X2220Y2628D02*
X2328Y2628D01*
X2741Y2628D02*
X2850Y2628D01*
X3220Y2628D02*
X3328Y2628D01*
X742Y2627D02*
X849Y2627D01*
X1221Y2627D02*
X1328Y2627D01*
X1742Y2627D02*
X1849Y2627D01*
X2221Y2627D02*
X2328Y2627D01*
X2742Y2627D02*
X2849Y2627D01*
X3220Y2627D02*
X3328Y2627D01*
X743Y2626D02*
X848Y2626D01*
X1221Y2626D02*
X1327Y2626D01*
X1743Y2626D02*
X1848Y2626D01*
X2221Y2626D02*
X2327Y2626D01*
X2743Y2626D02*
X2848Y2626D01*
X3221Y2626D02*
X3327Y2626D01*
X744Y2625D02*
X848Y2625D01*
X1222Y2625D02*
X1326Y2625D01*
X1744Y2625D02*
X1848Y2625D01*
X2222Y2625D02*
X2326Y2625D01*
X2744Y2625D02*
X2847Y2625D01*
X3222Y2625D02*
X3326Y2625D01*
X745Y2624D02*
X847Y2624D01*
X1223Y2624D02*
X1325Y2624D01*
X1745Y2624D02*
X1847Y2624D01*
X2223Y2624D02*
X2325Y2624D01*
X2745Y2624D02*
X2847Y2624D01*
X3223Y2624D02*
X3325Y2624D01*
X746Y2623D02*
X846Y2623D01*
X1224Y2623D02*
X1324Y2623D01*
X1746Y2623D02*
X1846Y2623D01*
X2224Y2623D02*
X2324Y2623D01*
X2746Y2623D02*
X2846Y2623D01*
X3224Y2623D02*
X3324Y2623D01*
X747Y2622D02*
X845Y2622D01*
X1225Y2622D02*
X1323Y2622D01*
X1747Y2622D02*
X1845Y2622D01*
X2225Y2622D02*
X2323Y2622D01*
X2747Y2622D02*
X2845Y2622D01*
X3225Y2622D02*
X3323Y2622D01*
X748Y2621D02*
X844Y2621D01*
X1226Y2621D02*
X1322Y2621D01*
X1748Y2621D02*
X1844Y2621D01*
X2226Y2621D02*
X2322Y2621D01*
X2748Y2621D02*
X2844Y2621D01*
X3226Y2621D02*
X3322Y2621D01*
X749Y2620D02*
X843Y2620D01*
X1227Y2620D02*
X1321Y2620D01*
X1749Y2620D02*
X1843Y2620D01*
X2227Y2620D02*
X2321Y2620D01*
X2749Y2620D02*
X2843Y2620D01*
X3227Y2620D02*
X3321Y2620D01*
X750Y2619D02*
X842Y2619D01*
X1228Y2619D02*
X1320Y2619D01*
X1750Y2619D02*
X1842Y2619D01*
X2228Y2619D02*
X2320Y2619D01*
X2750Y2619D02*
X2841Y2619D01*
X3228Y2619D02*
X3320Y2619D01*
X751Y2618D02*
X840Y2618D01*
X1229Y2618D02*
X1319Y2618D01*
X1751Y2618D02*
X1840Y2618D01*
X2229Y2618D02*
X2319Y2618D01*
X2751Y2618D02*
X2840Y2618D01*
X3229Y2618D02*
X3319Y2618D01*
X752Y2617D02*
X839Y2617D01*
X1231Y2617D02*
X1318Y2617D01*
X1752Y2617D02*
X1839Y2617D01*
X2231Y2617D02*
X2317Y2617D01*
X2752Y2617D02*
X2839Y2617D01*
X3231Y2617D02*
X3317Y2617D01*
X754Y2616D02*
X838Y2616D01*
X1232Y2616D02*
X1316Y2616D01*
X1754Y2616D02*
X1838Y2616D01*
X2232Y2616D02*
X2316Y2616D01*
X2754Y2616D02*
X2838Y2616D01*
X3232Y2616D02*
X3316Y2616D01*
X755Y2615D02*
X836Y2615D01*
X1233Y2615D02*
X1315Y2615D01*
X1755Y2615D02*
X1836Y2615D01*
X2233Y2615D02*
X2315Y2615D01*
X2755Y2615D02*
X2836Y2615D01*
X3233Y2615D02*
X3315Y2615D01*
X756Y2614D02*
X835Y2614D01*
X1235Y2614D02*
X1313Y2614D01*
X1756Y2614D02*
X1835Y2614D01*
X2235Y2614D02*
X2313Y2614D01*
X2756Y2614D02*
X2835Y2614D01*
X3235Y2614D02*
X3313Y2614D01*
X758Y2613D02*
X834Y2613D01*
X1236Y2613D02*
X1312Y2613D01*
X1758Y2613D02*
X1834Y2613D01*
X2236Y2613D02*
X2312Y2613D01*
X2758Y2613D02*
X2834Y2613D01*
X3236Y2613D02*
X3312Y2613D01*
X759Y2612D02*
X832Y2612D01*
X1238Y2612D02*
X1310Y2612D01*
X1759Y2612D02*
X1832Y2612D01*
X2238Y2612D02*
X2310Y2612D01*
X2759Y2612D02*
X2832Y2612D01*
X3238Y2612D02*
X3310Y2612D01*
X761Y2611D02*
X830Y2611D01*
X1239Y2611D02*
X1309Y2611D01*
X1761Y2611D02*
X1830Y2611D01*
X2239Y2611D02*
X2309Y2611D01*
X2761Y2611D02*
X2830Y2611D01*
X3239Y2611D02*
X3309Y2611D01*
X763Y2610D02*
X829Y2610D01*
X1241Y2610D02*
X1307Y2610D01*
X1763Y2610D02*
X1829Y2610D01*
X2241Y2610D02*
X2307Y2610D01*
X2763Y2610D02*
X2829Y2610D01*
X3241Y2610D02*
X3307Y2610D01*
X765Y2609D02*
X827Y2609D01*
X1243Y2609D02*
X1305Y2609D01*
X1765Y2609D02*
X1827Y2609D01*
X2243Y2609D02*
X2305Y2609D01*
X2765Y2609D02*
X2827Y2609D01*
X3243Y2609D02*
X3305Y2609D01*
X767Y2608D02*
X825Y2608D01*
X1245Y2608D02*
X1303Y2608D01*
X1767Y2608D02*
X1825Y2608D01*
X2245Y2608D02*
X2303Y2608D01*
X2767Y2608D02*
X2825Y2608D01*
X3245Y2608D02*
X3303Y2608D01*
X769Y2607D02*
X823Y2607D01*
X1247Y2607D02*
X1301Y2607D01*
X1769Y2607D02*
X1823Y2607D01*
X2247Y2607D02*
X2301Y2607D01*
X2769Y2607D02*
X2823Y2607D01*
X3247Y2607D02*
X3301Y2607D01*
X771Y2606D02*
X820Y2606D01*
X1250Y2606D02*
X1298Y2606D01*
X1771Y2606D02*
X1820Y2606D01*
X2250Y2606D02*
X2298Y2606D01*
X2771Y2606D02*
X2820Y2606D01*
X3250Y2606D02*
X3298Y2606D01*
X774Y2605D02*
X817Y2605D01*
X1253Y2605D02*
X1296Y2605D01*
X1774Y2605D02*
X1817Y2605D01*
X2253Y2605D02*
X2296Y2605D01*
X2774Y2605D02*
X2817Y2605D01*
X3253Y2605D02*
X3296Y2605D01*
X778Y2604D02*
X814Y2604D01*
X1256Y2604D02*
X1292Y2604D01*
X1778Y2604D02*
X1814Y2604D01*
X2256Y2604D02*
X2292Y2604D01*
X2778Y2604D02*
X2814Y2604D01*
X3256Y2604D02*
X3292Y2604D01*
X782Y2603D02*
X810Y2603D01*
X1260Y2603D02*
X1288Y2603D01*
X1782Y2603D02*
X1810Y2603D01*
X2260Y2603D02*
X2288Y2603D01*
X2782Y2603D02*
X2810Y2603D01*
X3260Y2603D02*
X3288Y2603D01*
X788Y2602D02*
X804Y2602D01*
X1266Y2602D02*
X1282Y2602D01*
X1788Y2602D02*
X1804Y2602D01*
X2266Y2602D02*
X2282Y2602D01*
X2788Y2602D02*
X2804Y2602D01*
X3266Y2602D02*
X3282Y2602D01*
X413Y2249D02*
X496Y2249D01*
X413Y2248D02*
X496Y2248D01*
X413Y2247D02*
X496Y2247D01*
X413Y2246D02*
X496Y2246D01*
X413Y2245D02*
X496Y2245D01*
X413Y2244D02*
X496Y2244D01*
X413Y2243D02*
X496Y2243D01*
X413Y2242D02*
X496Y2242D01*
X413Y2241D02*
X496Y2241D01*
X413Y2240D02*
X496Y2240D01*
X413Y2239D02*
X496Y2239D01*
X413Y2238D02*
X496Y2238D01*
X413Y2237D02*
X496Y2237D01*
X413Y2236D02*
X496Y2236D01*
X413Y2235D02*
X496Y2235D01*
X413Y2234D02*
X496Y2234D01*
X413Y2233D02*
X496Y2233D01*
X413Y2232D02*
X496Y2232D01*
X413Y2231D02*
X496Y2231D01*
X413Y2230D02*
X496Y2230D01*
X413Y2229D02*
X496Y2229D01*
X413Y2228D02*
X496Y2228D01*
X413Y2227D02*
X496Y2227D01*
X413Y2226D02*
X496Y2226D01*
X413Y2225D02*
X496Y2225D01*
X413Y2224D02*
X496Y2224D01*
X413Y2223D02*
X496Y2223D01*
X413Y2222D02*
X452Y2222D01*
X457Y2222D02*
X496Y2222D01*
X413Y2221D02*
X448Y2221D01*
X461Y2221D02*
X496Y2221D01*
X413Y2220D02*
X447Y2220D01*
X463Y2220D02*
X496Y2220D01*
X413Y2219D02*
X445Y2219D01*
X464Y2219D02*
X496Y2219D01*
X413Y2218D02*
X444Y2218D01*
X466Y2218D02*
X496Y2218D01*
X413Y2217D02*
X443Y2217D01*
X466Y2217D02*
X496Y2217D01*
X413Y2216D02*
X442Y2216D01*
X467Y2216D02*
X496Y2216D01*
X413Y2215D02*
X442Y2215D01*
X468Y2215D02*
X496Y2215D01*
X413Y2214D02*
X441Y2214D01*
X469Y2214D02*
X496Y2214D01*
X413Y2213D02*
X441Y2213D01*
X469Y2213D02*
X496Y2213D01*
X413Y2212D02*
X440Y2212D01*
X469Y2212D02*
X496Y2212D01*
X413Y2211D02*
X440Y2211D01*
X470Y2211D02*
X496Y2211D01*
X413Y2210D02*
X440Y2210D01*
X470Y2210D02*
X496Y2210D01*
X413Y2209D02*
X440Y2209D01*
X470Y2209D02*
X496Y2209D01*
X413Y2208D02*
X440Y2208D01*
X470Y2208D02*
X496Y2208D01*
X413Y2207D02*
X440Y2207D01*
X470Y2207D02*
X496Y2207D01*
X413Y2206D02*
X440Y2206D01*
X470Y2206D02*
X496Y2206D01*
X413Y2205D02*
X440Y2205D01*
X470Y2205D02*
X496Y2205D01*
X413Y2204D02*
X440Y2204D01*
X470Y2204D02*
X496Y2204D01*
X413Y2203D02*
X440Y2203D01*
X469Y2203D02*
X496Y2203D01*
X413Y2202D02*
X441Y2202D01*
X469Y2202D02*
X496Y2202D01*
X413Y2201D02*
X441Y2201D01*
X469Y2201D02*
X496Y2201D01*
X413Y2200D02*
X442Y2200D01*
X468Y2200D02*
X496Y2200D01*
X413Y2199D02*
X442Y2199D01*
X467Y2199D02*
X496Y2199D01*
X413Y2198D02*
X443Y2198D01*
X466Y2198D02*
X496Y2198D01*
X413Y2197D02*
X444Y2197D01*
X466Y2197D02*
X496Y2197D01*
X413Y2196D02*
X445Y2196D01*
X464Y2196D02*
X496Y2196D01*
X413Y2195D02*
X447Y2195D01*
X463Y2195D02*
X496Y2195D01*
X413Y2194D02*
X448Y2194D01*
X461Y2194D02*
X496Y2194D01*
X413Y2193D02*
X452Y2193D01*
X457Y2193D02*
X496Y2193D01*
X413Y2192D02*
X496Y2192D01*
X413Y2191D02*
X496Y2191D01*
X413Y2190D02*
X496Y2190D01*
X413Y2189D02*
X496Y2189D01*
X413Y2188D02*
X496Y2188D01*
X413Y2187D02*
X496Y2187D01*
X413Y2186D02*
X496Y2186D01*
X413Y2185D02*
X496Y2185D01*
X413Y2184D02*
X496Y2184D01*
X413Y2183D02*
X496Y2183D01*
X413Y2182D02*
X496Y2182D01*
X413Y2181D02*
X496Y2181D01*
X413Y2180D02*
X496Y2180D01*
X413Y2179D02*
X496Y2179D01*
X413Y2178D02*
X496Y2178D01*
X413Y2177D02*
X496Y2177D01*
X413Y2176D02*
X496Y2176D01*
X413Y2175D02*
X496Y2175D01*
X413Y2174D02*
X496Y2174D01*
X413Y2173D02*
X496Y2173D01*
X413Y2172D02*
X496Y2172D01*
X413Y2171D02*
X496Y2171D01*
X413Y2170D02*
X496Y2170D01*
X413Y2169D02*
X496Y2169D01*
X413Y2168D02*
X496Y2168D01*
X413Y2167D02*
X496Y2167D01*
X413Y2166D02*
X496Y2166D01*
X788Y1213D02*
X804Y1213D01*
X1266Y1213D02*
X1282Y1213D01*
X1788Y1213D02*
X1804Y1213D01*
X2266Y1213D02*
X2282Y1213D01*
X2788Y1213D02*
X2804Y1213D01*
X3266Y1213D02*
X3282Y1213D01*
X782Y1212D02*
X810Y1212D01*
X1260Y1212D02*
X1288Y1212D01*
X1782Y1212D02*
X1810Y1212D01*
X2260Y1212D02*
X2288Y1212D01*
X2782Y1212D02*
X2810Y1212D01*
X3260Y1212D02*
X3288Y1212D01*
X778Y1211D02*
X814Y1211D01*
X1256Y1211D02*
X1292Y1211D01*
X1778Y1211D02*
X1814Y1211D01*
X2256Y1211D02*
X2292Y1211D01*
X2778Y1211D02*
X2814Y1211D01*
X3256Y1211D02*
X3292Y1211D01*
X774Y1210D02*
X817Y1210D01*
X1253Y1210D02*
X1296Y1210D01*
X1774Y1210D02*
X1817Y1210D01*
X2252Y1210D02*
X2296Y1210D01*
X2774Y1210D02*
X2817Y1210D01*
X3252Y1210D02*
X3296Y1210D01*
X771Y1209D02*
X820Y1209D01*
X1250Y1209D02*
X1298Y1209D01*
X1771Y1209D02*
X1820Y1209D01*
X2250Y1209D02*
X2298Y1209D01*
X2771Y1209D02*
X2820Y1209D01*
X3250Y1209D02*
X3298Y1209D01*
X769Y1208D02*
X823Y1208D01*
X1247Y1208D02*
X1301Y1208D01*
X1769Y1208D02*
X1823Y1208D01*
X2247Y1208D02*
X2301Y1208D01*
X2769Y1208D02*
X2823Y1208D01*
X3247Y1208D02*
X3301Y1208D01*
X767Y1207D02*
X825Y1207D01*
X1245Y1207D02*
X1303Y1207D01*
X1767Y1207D02*
X1825Y1207D01*
X2245Y1207D02*
X2303Y1207D01*
X2767Y1207D02*
X2825Y1207D01*
X3245Y1207D02*
X3303Y1207D01*
X765Y1206D02*
X827Y1206D01*
X1243Y1206D02*
X1305Y1206D01*
X1765Y1206D02*
X1827Y1206D01*
X2243Y1206D02*
X2305Y1206D01*
X2765Y1206D02*
X2827Y1206D01*
X3243Y1206D02*
X3305Y1206D01*
X763Y1205D02*
X829Y1205D01*
X1241Y1205D02*
X1307Y1205D01*
X1763Y1205D02*
X1829Y1205D01*
X2241Y1205D02*
X2307Y1205D01*
X2763Y1205D02*
X2829Y1205D01*
X3241Y1205D02*
X3307Y1205D01*
X761Y1204D02*
X830Y1204D01*
X1239Y1204D02*
X1309Y1204D01*
X1761Y1204D02*
X1830Y1204D01*
X2239Y1204D02*
X2309Y1204D01*
X2761Y1204D02*
X2830Y1204D01*
X3239Y1204D02*
X3309Y1204D01*
X759Y1203D02*
X832Y1203D01*
X1238Y1203D02*
X1310Y1203D01*
X1759Y1203D02*
X1832Y1203D01*
X2238Y1203D02*
X2310Y1203D01*
X2759Y1203D02*
X2832Y1203D01*
X3238Y1203D02*
X3310Y1203D01*
X758Y1202D02*
X834Y1202D01*
X1236Y1202D02*
X1312Y1202D01*
X1758Y1202D02*
X1834Y1202D01*
X2236Y1202D02*
X2312Y1202D01*
X2758Y1202D02*
X2834Y1202D01*
X3236Y1202D02*
X3312Y1202D01*
X756Y1201D02*
X835Y1201D01*
X1235Y1201D02*
X1313Y1201D01*
X1756Y1201D02*
X1835Y1201D01*
X2235Y1201D02*
X2313Y1201D01*
X2756Y1201D02*
X2835Y1201D01*
X3235Y1201D02*
X3313Y1201D01*
X755Y1200D02*
X837Y1200D01*
X1233Y1200D02*
X1315Y1200D01*
X1755Y1200D02*
X1836Y1200D01*
X2233Y1200D02*
X2315Y1200D01*
X2755Y1200D02*
X2836Y1200D01*
X3233Y1200D02*
X3315Y1200D01*
X754Y1199D02*
X838Y1199D01*
X1232Y1199D02*
X1316Y1199D01*
X1754Y1199D02*
X1838Y1199D01*
X2232Y1199D02*
X2316Y1199D01*
X2754Y1199D02*
X2838Y1199D01*
X3232Y1199D02*
X3316Y1199D01*
X752Y1198D02*
X839Y1198D01*
X1231Y1198D02*
X1318Y1198D01*
X1752Y1198D02*
X1839Y1198D01*
X2231Y1198D02*
X2317Y1198D01*
X2752Y1198D02*
X2839Y1198D01*
X3231Y1198D02*
X3317Y1198D01*
X751Y1197D02*
X840Y1197D01*
X1229Y1197D02*
X1319Y1197D01*
X1751Y1197D02*
X1840Y1197D01*
X2229Y1197D02*
X2319Y1197D01*
X2751Y1197D02*
X2840Y1197D01*
X3229Y1197D02*
X3319Y1197D01*
X750Y1196D02*
X842Y1196D01*
X1228Y1196D02*
X1320Y1196D01*
X1750Y1196D02*
X1842Y1196D01*
X2228Y1196D02*
X2320Y1196D01*
X2750Y1196D02*
X2841Y1196D01*
X3228Y1196D02*
X3320Y1196D01*
X749Y1195D02*
X843Y1195D01*
X1227Y1195D02*
X1321Y1195D01*
X1749Y1195D02*
X1843Y1195D01*
X2227Y1195D02*
X2321Y1195D01*
X2749Y1195D02*
X2843Y1195D01*
X3227Y1195D02*
X3321Y1195D01*
X748Y1194D02*
X844Y1194D01*
X1226Y1194D02*
X1322Y1194D01*
X1748Y1194D02*
X1844Y1194D01*
X2226Y1194D02*
X2322Y1194D01*
X2748Y1194D02*
X2844Y1194D01*
X3226Y1194D02*
X3322Y1194D01*
X747Y1193D02*
X845Y1193D01*
X1225Y1193D02*
X1323Y1193D01*
X1747Y1193D02*
X1845Y1193D01*
X2225Y1193D02*
X2323Y1193D01*
X2747Y1193D02*
X2845Y1193D01*
X3225Y1193D02*
X3323Y1193D01*
X746Y1192D02*
X846Y1192D01*
X1224Y1192D02*
X1324Y1192D01*
X1746Y1192D02*
X1846Y1192D01*
X2224Y1192D02*
X2324Y1192D01*
X2746Y1192D02*
X2846Y1192D01*
X3224Y1192D02*
X3324Y1192D01*
X745Y1191D02*
X847Y1191D01*
X1223Y1191D02*
X1325Y1191D01*
X1745Y1191D02*
X1847Y1191D01*
X2223Y1191D02*
X2325Y1191D01*
X2745Y1191D02*
X2847Y1191D01*
X3223Y1191D02*
X3325Y1191D01*
X744Y1190D02*
X848Y1190D01*
X1222Y1190D02*
X1326Y1190D01*
X1744Y1190D02*
X1848Y1190D01*
X2222Y1190D02*
X2326Y1190D01*
X2744Y1190D02*
X2847Y1190D01*
X3222Y1190D02*
X3326Y1190D01*
X743Y1189D02*
X848Y1189D01*
X1221Y1189D02*
X1327Y1189D01*
X1743Y1189D02*
X1848Y1189D01*
X2221Y1189D02*
X2327Y1189D01*
X2743Y1189D02*
X2848Y1189D01*
X3221Y1189D02*
X3327Y1189D01*
X742Y1188D02*
X849Y1188D01*
X1221Y1188D02*
X1328Y1188D01*
X1742Y1188D02*
X1849Y1188D01*
X2221Y1188D02*
X2328Y1188D01*
X2742Y1188D02*
X2849Y1188D01*
X3220Y1188D02*
X3328Y1188D01*
X741Y1187D02*
X850Y1187D01*
X1220Y1187D02*
X1328Y1187D01*
X1741Y1187D02*
X1850Y1187D01*
X2220Y1187D02*
X2328Y1187D01*
X2741Y1187D02*
X2850Y1187D01*
X3220Y1187D02*
X3328Y1187D01*
X741Y1186D02*
X851Y1186D01*
X1219Y1186D02*
X1329Y1186D01*
X1741Y1186D02*
X1851Y1186D01*
X2219Y1186D02*
X2329Y1186D01*
X2741Y1186D02*
X2851Y1186D01*
X3219Y1186D02*
X3329Y1186D01*
X740Y1185D02*
X852Y1185D01*
X1218Y1185D02*
X1330Y1185D01*
X1740Y1185D02*
X1851Y1185D01*
X2218Y1185D02*
X2330Y1185D01*
X2740Y1185D02*
X2851Y1185D01*
X3218Y1185D02*
X3330Y1185D01*
X739Y1184D02*
X852Y1184D01*
X1218Y1184D02*
X1331Y1184D01*
X1739Y1184D02*
X1852Y1184D01*
X2218Y1184D02*
X2331Y1184D01*
X2739Y1184D02*
X2852Y1184D01*
X3218Y1184D02*
X3330Y1184D01*
X739Y1183D02*
X853Y1183D01*
X1217Y1183D02*
X1331Y1183D01*
X1739Y1183D02*
X1853Y1183D01*
X2217Y1183D02*
X2331Y1183D01*
X2738Y1183D02*
X2853Y1183D01*
X3217Y1183D02*
X3331Y1183D01*
X738Y1182D02*
X854Y1182D01*
X1216Y1182D02*
X1332Y1182D01*
X1738Y1182D02*
X1854Y1182D01*
X2216Y1182D02*
X2332Y1182D01*
X2738Y1182D02*
X2854Y1182D01*
X3216Y1182D02*
X3332Y1182D01*
X737Y1181D02*
X854Y1181D01*
X1216Y1181D02*
X1333Y1181D01*
X1737Y1181D02*
X1854Y1181D01*
X2216Y1181D02*
X2333Y1181D01*
X2737Y1181D02*
X2854Y1181D01*
X3216Y1181D02*
X3332Y1181D01*
X737Y1180D02*
X855Y1180D01*
X1215Y1180D02*
X1333Y1180D01*
X1737Y1180D02*
X1855Y1180D01*
X2215Y1180D02*
X2333Y1180D01*
X2737Y1180D02*
X2855Y1180D01*
X3215Y1180D02*
X3333Y1180D01*
X736Y1179D02*
X855Y1179D01*
X1214Y1179D02*
X1334Y1179D01*
X1736Y1179D02*
X1855Y1179D01*
X2214Y1179D02*
X2334Y1179D01*
X2736Y1179D02*
X2855Y1179D01*
X3214Y1179D02*
X3334Y1179D01*
X735Y1178D02*
X856Y1178D01*
X1214Y1178D02*
X1334Y1178D01*
X1735Y1178D02*
X1856Y1178D01*
X2214Y1178D02*
X2334Y1178D01*
X2735Y1178D02*
X2856Y1178D01*
X3214Y1178D02*
X3334Y1178D01*
X735Y1177D02*
X857Y1177D01*
X1213Y1177D02*
X1335Y1177D01*
X1735Y1177D02*
X1857Y1177D01*
X2213Y1177D02*
X2335Y1177D01*
X2735Y1177D02*
X2857Y1177D01*
X3213Y1177D02*
X3335Y1177D01*
X734Y1176D02*
X857Y1176D01*
X1213Y1176D02*
X1336Y1176D01*
X1734Y1176D02*
X1857Y1176D01*
X2213Y1176D02*
X2335Y1176D01*
X2734Y1176D02*
X2857Y1176D01*
X3213Y1176D02*
X3335Y1176D01*
X734Y1175D02*
X858Y1175D01*
X1212Y1175D02*
X1336Y1175D01*
X1734Y1175D02*
X1858Y1175D01*
X2212Y1175D02*
X2336Y1175D01*
X2734Y1175D02*
X2858Y1175D01*
X3212Y1175D02*
X3336Y1175D01*
X733Y1174D02*
X858Y1174D01*
X1212Y1174D02*
X1337Y1174D01*
X1733Y1174D02*
X1858Y1174D01*
X2212Y1174D02*
X2336Y1174D01*
X2733Y1174D02*
X2858Y1174D01*
X3212Y1174D02*
X3336Y1174D01*
X733Y1173D02*
X859Y1173D01*
X1211Y1173D02*
X1337Y1173D01*
X1733Y1173D02*
X1859Y1173D01*
X2211Y1173D02*
X2337Y1173D01*
X2733Y1173D02*
X2859Y1173D01*
X3211Y1173D02*
X3337Y1173D01*
X732Y1172D02*
X859Y1172D01*
X1211Y1172D02*
X1338Y1172D01*
X1732Y1172D02*
X1859Y1172D01*
X2211Y1172D02*
X2337Y1172D01*
X2732Y1172D02*
X2859Y1172D01*
X3211Y1172D02*
X3337Y1172D01*
X732Y1171D02*
X860Y1171D01*
X1210Y1171D02*
X1338Y1171D01*
X1732Y1171D02*
X1860Y1171D01*
X2210Y1171D02*
X2338Y1171D01*
X2732Y1171D02*
X2860Y1171D01*
X3210Y1171D02*
X3338Y1171D01*
X731Y1170D02*
X860Y1170D01*
X1210Y1170D02*
X1338Y1170D01*
X1731Y1170D02*
X1860Y1170D01*
X2210Y1170D02*
X2338Y1170D01*
X2731Y1170D02*
X2860Y1170D01*
X3210Y1170D02*
X3338Y1170D01*
X731Y1169D02*
X860Y1169D01*
X1209Y1169D02*
X1339Y1169D01*
X1731Y1169D02*
X1860Y1169D01*
X2209Y1169D02*
X2339Y1169D01*
X2731Y1169D02*
X2860Y1169D01*
X3209Y1169D02*
X3339Y1169D01*
X731Y1168D02*
X861Y1168D01*
X1209Y1168D02*
X1339Y1168D01*
X1731Y1168D02*
X1861Y1168D01*
X2209Y1168D02*
X2339Y1168D01*
X2731Y1168D02*
X2861Y1168D01*
X3209Y1168D02*
X3339Y1168D01*
X730Y1167D02*
X861Y1167D01*
X1209Y1167D02*
X1339Y1167D01*
X1730Y1167D02*
X1861Y1167D01*
X2209Y1167D02*
X2339Y1167D01*
X2730Y1167D02*
X2861Y1167D01*
X3209Y1167D02*
X3339Y1167D01*
X730Y1166D02*
X861Y1166D01*
X1208Y1166D02*
X1340Y1166D01*
X1730Y1166D02*
X1861Y1166D01*
X2208Y1166D02*
X2340Y1166D01*
X2730Y1166D02*
X2861Y1166D01*
X3208Y1166D02*
X3340Y1166D01*
X730Y1165D02*
X862Y1165D01*
X1208Y1165D02*
X1340Y1165D01*
X1730Y1165D02*
X1862Y1165D01*
X2208Y1165D02*
X2340Y1165D01*
X2730Y1165D02*
X2862Y1165D01*
X3208Y1165D02*
X3340Y1165D01*
X729Y1164D02*
X862Y1164D01*
X1208Y1164D02*
X1340Y1164D01*
X1729Y1164D02*
X1862Y1164D01*
X2208Y1164D02*
X2340Y1164D01*
X2729Y1164D02*
X2862Y1164D01*
X3208Y1164D02*
X3340Y1164D01*
X729Y1163D02*
X862Y1163D01*
X1207Y1163D02*
X1341Y1163D01*
X1729Y1163D02*
X1862Y1163D01*
X2207Y1163D02*
X2341Y1163D01*
X2729Y1163D02*
X2862Y1163D01*
X3207Y1163D02*
X3341Y1163D01*
X729Y1162D02*
X863Y1162D01*
X1207Y1162D02*
X1341Y1162D01*
X1729Y1162D02*
X1863Y1162D01*
X2207Y1162D02*
X2341Y1162D01*
X2729Y1162D02*
X2863Y1162D01*
X3207Y1162D02*
X3341Y1162D01*
X729Y1161D02*
X863Y1161D01*
X1207Y1161D02*
X1341Y1161D01*
X1729Y1161D02*
X1863Y1161D01*
X2207Y1161D02*
X2341Y1161D01*
X2729Y1161D02*
X2863Y1161D01*
X3207Y1161D02*
X3341Y1161D01*
X728Y1160D02*
X863Y1160D01*
X1207Y1160D02*
X1341Y1160D01*
X1728Y1160D02*
X1863Y1160D01*
X2207Y1160D02*
X2341Y1160D01*
X2728Y1160D02*
X2863Y1160D01*
X3207Y1160D02*
X3341Y1160D01*
X728Y1159D02*
X863Y1159D01*
X1206Y1159D02*
X1342Y1159D01*
X1728Y1159D02*
X1863Y1159D01*
X2206Y1159D02*
X2342Y1159D01*
X2728Y1159D02*
X2863Y1159D01*
X3206Y1159D02*
X3342Y1159D01*
X728Y1158D02*
X864Y1158D01*
X1206Y1158D02*
X1342Y1158D01*
X1728Y1158D02*
X1864Y1158D01*
X2206Y1158D02*
X2342Y1158D01*
X2728Y1158D02*
X2864Y1158D01*
X3206Y1158D02*
X3342Y1158D01*
X728Y1157D02*
X864Y1157D01*
X1206Y1157D02*
X1342Y1157D01*
X1728Y1157D02*
X1864Y1157D01*
X2206Y1157D02*
X2342Y1157D01*
X2728Y1157D02*
X2864Y1157D01*
X3206Y1157D02*
X3342Y1157D01*
X728Y1156D02*
X864Y1156D01*
X1206Y1156D02*
X1342Y1156D01*
X1728Y1156D02*
X1864Y1156D01*
X2206Y1156D02*
X2342Y1156D01*
X2728Y1156D02*
X2864Y1156D01*
X3206Y1156D02*
X3342Y1156D01*
X727Y1155D02*
X864Y1155D01*
X1206Y1155D02*
X1342Y1155D01*
X1727Y1155D02*
X1864Y1155D01*
X2206Y1155D02*
X2342Y1155D01*
X2727Y1155D02*
X2864Y1155D01*
X3206Y1155D02*
X3342Y1155D01*
X727Y1154D02*
X864Y1154D01*
X1206Y1154D02*
X1343Y1154D01*
X1727Y1154D02*
X1864Y1154D01*
X2206Y1154D02*
X2343Y1154D01*
X2727Y1154D02*
X2864Y1154D01*
X3205Y1154D02*
X3343Y1154D01*
X727Y1153D02*
X864Y1153D01*
X1205Y1153D02*
X1343Y1153D01*
X1727Y1153D02*
X1864Y1153D01*
X2205Y1153D02*
X2343Y1153D01*
X2727Y1153D02*
X2864Y1153D01*
X3205Y1153D02*
X3343Y1153D01*
X727Y1152D02*
X865Y1152D01*
X1205Y1152D02*
X1343Y1152D01*
X1727Y1152D02*
X1865Y1152D01*
X2205Y1152D02*
X2343Y1152D01*
X2727Y1152D02*
X2865Y1152D01*
X3205Y1152D02*
X3343Y1152D01*
X727Y1151D02*
X865Y1151D01*
X1205Y1151D02*
X1343Y1151D01*
X1727Y1151D02*
X1865Y1151D01*
X2205Y1151D02*
X2343Y1151D01*
X2727Y1151D02*
X2865Y1151D01*
X3205Y1151D02*
X3343Y1151D01*
X727Y1150D02*
X865Y1150D01*
X1205Y1150D02*
X1343Y1150D01*
X1727Y1150D02*
X1865Y1150D01*
X2205Y1150D02*
X2343Y1150D01*
X2727Y1150D02*
X2865Y1150D01*
X3205Y1150D02*
X3343Y1150D01*
X727Y1149D02*
X865Y1149D01*
X1205Y1149D02*
X1343Y1149D01*
X1727Y1149D02*
X1865Y1149D01*
X2205Y1149D02*
X2343Y1149D01*
X2727Y1149D02*
X2865Y1149D01*
X3205Y1149D02*
X3343Y1149D01*
X727Y1148D02*
X865Y1148D01*
X1205Y1148D02*
X1343Y1148D01*
X1727Y1148D02*
X1865Y1148D01*
X2205Y1148D02*
X2343Y1148D01*
X2726Y1148D02*
X2865Y1148D01*
X3205Y1148D02*
X3343Y1148D01*
X727Y1147D02*
X865Y1147D01*
X1205Y1147D02*
X1343Y1147D01*
X1726Y1147D02*
X1865Y1147D01*
X2205Y1147D02*
X2343Y1147D01*
X2726Y1147D02*
X2865Y1147D01*
X3205Y1147D02*
X3343Y1147D01*
X726Y1146D02*
X865Y1146D01*
X1205Y1146D02*
X1343Y1146D01*
X1726Y1146D02*
X1865Y1146D01*
X2205Y1146D02*
X2343Y1146D01*
X2726Y1146D02*
X2865Y1146D01*
X3205Y1146D02*
X3343Y1146D01*
X726Y1145D02*
X865Y1145D01*
X1205Y1145D02*
X1343Y1145D01*
X1726Y1145D02*
X1865Y1145D01*
X2205Y1145D02*
X2343Y1145D01*
X2726Y1145D02*
X2865Y1145D01*
X3205Y1145D02*
X3343Y1145D01*
X726Y1144D02*
X865Y1144D01*
X1205Y1144D02*
X1344Y1144D01*
X1726Y1144D02*
X1865Y1144D01*
X2205Y1144D02*
X2343Y1144D01*
X2726Y1144D02*
X2865Y1144D01*
X3205Y1144D02*
X3343Y1144D01*
X726Y1143D02*
X865Y1143D01*
X1205Y1143D02*
X1343Y1143D01*
X1726Y1143D02*
X1865Y1143D01*
X2205Y1143D02*
X2343Y1143D01*
X2726Y1143D02*
X2865Y1143D01*
X3205Y1143D02*
X3343Y1143D01*
X726Y1142D02*
X865Y1142D01*
X1205Y1142D02*
X1343Y1142D01*
X1726Y1142D02*
X1865Y1142D01*
X2205Y1142D02*
X2343Y1142D01*
X2726Y1142D02*
X2865Y1142D01*
X3205Y1142D02*
X3343Y1142D01*
X726Y1141D02*
X865Y1141D01*
X1205Y1141D02*
X1343Y1141D01*
X1726Y1141D02*
X1865Y1141D01*
X2205Y1141D02*
X2343Y1141D01*
X2726Y1141D02*
X2865Y1141D01*
X3205Y1141D02*
X3343Y1141D01*
X727Y1140D02*
X865Y1140D01*
X1205Y1140D02*
X1343Y1140D01*
X1726Y1140D02*
X1865Y1140D01*
X2205Y1140D02*
X2343Y1140D01*
X2726Y1140D02*
X2865Y1140D01*
X3205Y1140D02*
X3343Y1140D01*
X727Y1139D02*
X865Y1139D01*
X1205Y1139D02*
X1343Y1139D01*
X1727Y1139D02*
X1865Y1139D01*
X2205Y1139D02*
X2343Y1139D01*
X2727Y1139D02*
X2865Y1139D01*
X3205Y1139D02*
X3343Y1139D01*
X727Y1138D02*
X865Y1138D01*
X1205Y1138D02*
X1343Y1138D01*
X1727Y1138D02*
X1865Y1138D01*
X2205Y1138D02*
X2343Y1138D01*
X2727Y1138D02*
X2865Y1138D01*
X3205Y1138D02*
X3343Y1138D01*
X727Y1137D02*
X865Y1137D01*
X1205Y1137D02*
X1343Y1137D01*
X1727Y1137D02*
X1865Y1137D01*
X2205Y1137D02*
X2343Y1137D01*
X2727Y1137D02*
X2865Y1137D01*
X3205Y1137D02*
X3343Y1137D01*
X727Y1136D02*
X865Y1136D01*
X1205Y1136D02*
X1343Y1136D01*
X1727Y1136D02*
X1865Y1136D01*
X2205Y1136D02*
X2343Y1136D01*
X2727Y1136D02*
X2865Y1136D01*
X3205Y1136D02*
X3343Y1136D01*
X727Y1135D02*
X865Y1135D01*
X1205Y1135D02*
X1343Y1135D01*
X1727Y1135D02*
X1864Y1135D01*
X2205Y1135D02*
X2343Y1135D01*
X2727Y1135D02*
X2864Y1135D01*
X3205Y1135D02*
X3343Y1135D01*
X727Y1134D02*
X864Y1134D01*
X1205Y1134D02*
X1343Y1134D01*
X1727Y1134D02*
X1864Y1134D01*
X2205Y1134D02*
X2343Y1134D01*
X2727Y1134D02*
X2864Y1134D01*
X3205Y1134D02*
X3343Y1134D01*
X727Y1133D02*
X864Y1133D01*
X1206Y1133D02*
X1343Y1133D01*
X1727Y1133D02*
X1864Y1133D01*
X2206Y1133D02*
X2342Y1133D01*
X2727Y1133D02*
X2864Y1133D01*
X3206Y1133D02*
X3342Y1133D01*
X727Y1132D02*
X864Y1132D01*
X1206Y1132D02*
X1342Y1132D01*
X1727Y1132D02*
X1864Y1132D01*
X2206Y1132D02*
X2342Y1132D01*
X2727Y1132D02*
X2864Y1132D01*
X3206Y1132D02*
X3342Y1132D01*
X728Y1131D02*
X864Y1131D01*
X1206Y1131D02*
X1342Y1131D01*
X1728Y1131D02*
X1864Y1131D01*
X2206Y1131D02*
X2342Y1131D01*
X2728Y1131D02*
X2864Y1131D01*
X3206Y1131D02*
X3342Y1131D01*
X728Y1130D02*
X864Y1130D01*
X1206Y1130D02*
X1342Y1130D01*
X1728Y1130D02*
X1864Y1130D01*
X2206Y1130D02*
X2342Y1130D01*
X2728Y1130D02*
X2864Y1130D01*
X3206Y1130D02*
X3342Y1130D01*
X728Y1129D02*
X864Y1129D01*
X1206Y1129D02*
X1342Y1129D01*
X1728Y1129D02*
X1863Y1129D01*
X2206Y1129D02*
X2342Y1129D01*
X2728Y1129D02*
X2863Y1129D01*
X3206Y1129D02*
X3342Y1129D01*
X728Y1128D02*
X863Y1128D01*
X1207Y1128D02*
X1342Y1128D01*
X1728Y1128D02*
X1863Y1128D01*
X2207Y1128D02*
X2342Y1128D01*
X2728Y1128D02*
X2863Y1128D01*
X3207Y1128D02*
X3342Y1128D01*
X729Y1127D02*
X863Y1127D01*
X1207Y1127D02*
X1341Y1127D01*
X1728Y1127D02*
X1863Y1127D01*
X2207Y1127D02*
X2341Y1127D01*
X2728Y1127D02*
X2863Y1127D01*
X3207Y1127D02*
X3341Y1127D01*
X729Y1126D02*
X863Y1126D01*
X1207Y1126D02*
X1341Y1126D01*
X1729Y1126D02*
X1863Y1126D01*
X2207Y1126D02*
X2341Y1126D01*
X2729Y1126D02*
X2863Y1126D01*
X3207Y1126D02*
X3341Y1126D01*
X729Y1125D02*
X863Y1125D01*
X1207Y1125D02*
X1341Y1125D01*
X1729Y1125D02*
X1862Y1125D01*
X2207Y1125D02*
X2341Y1125D01*
X2729Y1125D02*
X2862Y1125D01*
X3207Y1125D02*
X3341Y1125D01*
X729Y1124D02*
X862Y1124D01*
X1208Y1124D02*
X1341Y1124D01*
X1729Y1124D02*
X1862Y1124D01*
X2208Y1124D02*
X2341Y1124D01*
X2729Y1124D02*
X2862Y1124D01*
X3208Y1124D02*
X3340Y1124D01*
X730Y1123D02*
X862Y1123D01*
X1208Y1123D02*
X1340Y1123D01*
X1729Y1123D02*
X1862Y1123D01*
X2208Y1123D02*
X2340Y1123D01*
X2729Y1123D02*
X2862Y1123D01*
X3208Y1123D02*
X3340Y1123D01*
X730Y1122D02*
X862Y1122D01*
X1208Y1122D02*
X1340Y1122D01*
X1730Y1122D02*
X1862Y1122D01*
X2208Y1122D02*
X2340Y1122D01*
X2730Y1122D02*
X2862Y1122D01*
X3208Y1122D02*
X3340Y1122D01*
X730Y1121D02*
X861Y1121D01*
X1209Y1121D02*
X1340Y1121D01*
X1730Y1121D02*
X1861Y1121D01*
X2208Y1121D02*
X2340Y1121D01*
X2730Y1121D02*
X2861Y1121D01*
X3208Y1121D02*
X3340Y1121D01*
X731Y1120D02*
X861Y1120D01*
X1209Y1120D02*
X1339Y1120D01*
X1731Y1120D02*
X1861Y1120D01*
X2209Y1120D02*
X2339Y1120D01*
X2730Y1120D02*
X2861Y1120D01*
X3209Y1120D02*
X3339Y1120D01*
X731Y1119D02*
X861Y1119D01*
X1209Y1119D02*
X1339Y1119D01*
X1731Y1119D02*
X1861Y1119D01*
X2209Y1119D02*
X2339Y1119D01*
X2731Y1119D02*
X2861Y1119D01*
X3209Y1119D02*
X3339Y1119D01*
X731Y1118D02*
X860Y1118D01*
X1210Y1118D02*
X1339Y1118D01*
X1731Y1118D02*
X1860Y1118D01*
X2210Y1118D02*
X2339Y1118D01*
X2731Y1118D02*
X2860Y1118D01*
X3210Y1118D02*
X3338Y1118D01*
X732Y1117D02*
X860Y1117D01*
X1210Y1117D02*
X1338Y1117D01*
X1732Y1117D02*
X1860Y1117D01*
X2210Y1117D02*
X2338Y1117D01*
X2732Y1117D02*
X2860Y1117D01*
X3210Y1117D02*
X3338Y1117D01*
X732Y1116D02*
X859Y1116D01*
X1210Y1116D02*
X1338Y1116D01*
X1732Y1116D02*
X1859Y1116D01*
X2210Y1116D02*
X2338Y1116D01*
X2732Y1116D02*
X2859Y1116D01*
X3210Y1116D02*
X3338Y1116D01*
X733Y1115D02*
X859Y1115D01*
X1211Y1115D02*
X1337Y1115D01*
X1733Y1115D02*
X1859Y1115D01*
X2211Y1115D02*
X2337Y1115D01*
X2732Y1115D02*
X2859Y1115D01*
X3211Y1115D02*
X3337Y1115D01*
X733Y1114D02*
X858Y1114D01*
X1211Y1114D02*
X1337Y1114D01*
X1733Y1114D02*
X1858Y1114D01*
X2211Y1114D02*
X2337Y1114D01*
X2733Y1114D02*
X2858Y1114D01*
X3211Y1114D02*
X3337Y1114D01*
X734Y1113D02*
X858Y1113D01*
X1212Y1113D02*
X1336Y1113D01*
X1733Y1113D02*
X1858Y1113D01*
X2212Y1113D02*
X2336Y1113D01*
X2733Y1113D02*
X2858Y1113D01*
X3212Y1113D02*
X3336Y1113D01*
X734Y1112D02*
X858Y1112D01*
X1212Y1112D02*
X1336Y1112D01*
X1734Y1112D02*
X1857Y1112D01*
X2212Y1112D02*
X2336Y1112D01*
X2734Y1112D02*
X2857Y1112D01*
X3212Y1112D02*
X3336Y1112D01*
X735Y1111D02*
X857Y1111D01*
X1213Y1111D02*
X1335Y1111D01*
X1734Y1111D02*
X1857Y1111D01*
X2213Y1111D02*
X2335Y1111D01*
X2734Y1111D02*
X2857Y1111D01*
X3213Y1111D02*
X3335Y1111D01*
X735Y1110D02*
X856Y1110D01*
X1213Y1110D02*
X1335Y1110D01*
X1735Y1110D02*
X1856Y1110D01*
X2213Y1110D02*
X2335Y1110D01*
X2735Y1110D02*
X2856Y1110D01*
X3213Y1110D02*
X3335Y1110D01*
X736Y1109D02*
X856Y1109D01*
X1214Y1109D02*
X1334Y1109D01*
X1736Y1109D02*
X1856Y1109D01*
X2214Y1109D02*
X2334Y1109D01*
X2736Y1109D02*
X2856Y1109D01*
X3214Y1109D02*
X3334Y1109D01*
X736Y1108D02*
X855Y1108D01*
X1215Y1108D02*
X1334Y1108D01*
X1736Y1108D02*
X1855Y1108D01*
X2215Y1108D02*
X2334Y1108D01*
X2736Y1108D02*
X2855Y1108D01*
X3215Y1108D02*
X3333Y1108D01*
X737Y1107D02*
X855Y1107D01*
X1215Y1107D02*
X1333Y1107D01*
X1737Y1107D02*
X1855Y1107D01*
X2215Y1107D02*
X2333Y1107D01*
X2737Y1107D02*
X2855Y1107D01*
X3215Y1107D02*
X3333Y1107D01*
X738Y1106D02*
X854Y1106D01*
X1216Y1106D02*
X1332Y1106D01*
X1737Y1106D02*
X1854Y1106D01*
X2216Y1106D02*
X2332Y1106D01*
X2737Y1106D02*
X2854Y1106D01*
X3216Y1106D02*
X3332Y1106D01*
X738Y1105D02*
X853Y1105D01*
X1216Y1105D02*
X1332Y1105D01*
X1738Y1105D02*
X1853Y1105D01*
X2216Y1105D02*
X2332Y1105D01*
X2738Y1105D02*
X2853Y1105D01*
X3216Y1105D02*
X3332Y1105D01*
X739Y1104D02*
X853Y1104D01*
X1217Y1104D02*
X1331Y1104D01*
X1739Y1104D02*
X1853Y1104D01*
X2217Y1104D02*
X2331Y1104D01*
X2739Y1104D02*
X2853Y1104D01*
X3217Y1104D02*
X3331Y1104D01*
X740Y1103D02*
X852Y1103D01*
X1218Y1103D02*
X1330Y1103D01*
X1740Y1103D02*
X1852Y1103D01*
X2218Y1103D02*
X2330Y1103D01*
X2740Y1103D02*
X2852Y1103D01*
X3218Y1103D02*
X3330Y1103D01*
X740Y1102D02*
X851Y1102D01*
X1219Y1102D02*
X1330Y1102D01*
X1740Y1102D02*
X1851Y1102D01*
X2219Y1102D02*
X2329Y1102D01*
X2740Y1102D02*
X2851Y1102D01*
X3219Y1102D02*
X3329Y1102D01*
X741Y1101D02*
X850Y1101D01*
X1219Y1101D02*
X1329Y1101D01*
X1741Y1101D02*
X1850Y1101D01*
X2219Y1101D02*
X2329Y1101D01*
X2741Y1101D02*
X2850Y1101D01*
X3219Y1101D02*
X3329Y1101D01*
X742Y1100D02*
X850Y1100D01*
X1220Y1100D02*
X1328Y1100D01*
X1742Y1100D02*
X1850Y1100D01*
X2220Y1100D02*
X2328Y1100D01*
X2742Y1100D02*
X2850Y1100D01*
X3220Y1100D02*
X3328Y1100D01*
X743Y1099D02*
X849Y1099D01*
X1221Y1099D02*
X1327Y1099D01*
X1743Y1099D02*
X1849Y1099D01*
X2221Y1099D02*
X2327Y1099D01*
X2742Y1099D02*
X2849Y1099D01*
X3221Y1099D02*
X3327Y1099D01*
X743Y1098D02*
X848Y1098D01*
X1222Y1098D02*
X1326Y1098D01*
X1743Y1098D02*
X1848Y1098D01*
X2222Y1098D02*
X2326Y1098D01*
X2743Y1098D02*
X2848Y1098D01*
X3222Y1098D02*
X3326Y1098D01*
X744Y1097D02*
X847Y1097D01*
X1223Y1097D02*
X1326Y1097D01*
X1744Y1097D02*
X1847Y1097D01*
X2223Y1097D02*
X2325Y1097D01*
X2744Y1097D02*
X2847Y1097D01*
X3223Y1097D02*
X3325Y1097D01*
X745Y1096D02*
X846Y1096D01*
X1224Y1096D02*
X1325Y1096D01*
X1745Y1096D02*
X1846Y1096D01*
X2224Y1096D02*
X2325Y1096D01*
X2745Y1096D02*
X2846Y1096D01*
X3223Y1096D02*
X3325Y1096D01*
X746Y1095D02*
X845Y1095D01*
X1224Y1095D02*
X1324Y1095D01*
X1746Y1095D02*
X1845Y1095D01*
X2224Y1095D02*
X2324Y1095D01*
X2746Y1095D02*
X2845Y1095D01*
X3224Y1095D02*
X3324Y1095D01*
X747Y1094D02*
X844Y1094D01*
X1225Y1094D02*
X1323Y1094D01*
X1747Y1094D02*
X1844Y1094D01*
X2225Y1094D02*
X2323Y1094D01*
X2747Y1094D02*
X2844Y1094D01*
X3225Y1094D02*
X3323Y1094D01*
X748Y1093D02*
X843Y1093D01*
X1227Y1093D02*
X1322Y1093D01*
X1748Y1093D02*
X1843Y1093D01*
X2226Y1093D02*
X2322Y1093D01*
X2748Y1093D02*
X2843Y1093D01*
X3226Y1093D02*
X3322Y1093D01*
X749Y1092D02*
X842Y1092D01*
X1228Y1092D02*
X1321Y1092D01*
X1749Y1092D02*
X1842Y1092D01*
X2228Y1092D02*
X2321Y1092D01*
X2749Y1092D02*
X2842Y1092D01*
X3228Y1092D02*
X3320Y1092D01*
X750Y1091D02*
X841Y1091D01*
X1229Y1091D02*
X1319Y1091D01*
X1750Y1091D02*
X1841Y1091D01*
X2229Y1091D02*
X2319Y1091D01*
X2750Y1091D02*
X2841Y1091D01*
X3229Y1091D02*
X3319Y1091D01*
X752Y1090D02*
X840Y1090D01*
X1230Y1090D02*
X1318Y1090D01*
X1752Y1090D02*
X1840Y1090D01*
X2230Y1090D02*
X2318Y1090D01*
X2751Y1090D02*
X2840Y1090D01*
X3230Y1090D02*
X3318Y1090D01*
X753Y1089D02*
X839Y1089D01*
X1231Y1089D02*
X1317Y1089D01*
X1753Y1089D02*
X1839Y1089D01*
X2231Y1089D02*
X2317Y1089D01*
X2753Y1089D02*
X2839Y1089D01*
X3231Y1089D02*
X3317Y1089D01*
X754Y1088D02*
X837Y1088D01*
X1233Y1088D02*
X1316Y1088D01*
X1754Y1088D02*
X1837Y1088D01*
X2233Y1088D02*
X2316Y1088D01*
X2754Y1088D02*
X2837Y1088D01*
X3232Y1088D02*
X3316Y1088D01*
X756Y1087D02*
X836Y1087D01*
X1234Y1087D02*
X1314Y1087D01*
X1756Y1087D02*
X1836Y1087D01*
X2234Y1087D02*
X2314Y1087D01*
X2756Y1087D02*
X2836Y1087D01*
X3234Y1087D02*
X3314Y1087D01*
X757Y1086D02*
X835Y1086D01*
X1235Y1086D02*
X1313Y1086D01*
X1757Y1086D02*
X1835Y1086D01*
X2235Y1086D02*
X2313Y1086D01*
X2757Y1086D02*
X2834Y1086D01*
X3235Y1086D02*
X3313Y1086D01*
X759Y1085D02*
X833Y1085D01*
X1237Y1085D02*
X1311Y1085D01*
X1758Y1085D02*
X1833Y1085D01*
X2237Y1085D02*
X2311Y1085D01*
X2758Y1085D02*
X2833Y1085D01*
X3237Y1085D02*
X3311Y1085D01*
X760Y1084D02*
X831Y1084D01*
X1238Y1084D02*
X1310Y1084D01*
X1760Y1084D02*
X1831Y1084D01*
X2238Y1084D02*
X2310Y1084D01*
X2760Y1084D02*
X2831Y1084D01*
X3238Y1084D02*
X3310Y1084D01*
X762Y1083D02*
X830Y1083D01*
X1240Y1083D02*
X1308Y1083D01*
X1762Y1083D02*
X1830Y1083D01*
X2240Y1083D02*
X2308Y1083D01*
X2762Y1083D02*
X2830Y1083D01*
X3240Y1083D02*
X3308Y1083D01*
X763Y1082D02*
X828Y1082D01*
X1242Y1082D02*
X1306Y1082D01*
X1763Y1082D02*
X1828Y1082D01*
X2242Y1082D02*
X2306Y1082D01*
X2763Y1082D02*
X2828Y1082D01*
X3242Y1082D02*
X3306Y1082D01*
X765Y1081D02*
X826Y1081D01*
X1244Y1081D02*
X1304Y1081D01*
X1765Y1081D02*
X1826Y1081D01*
X2244Y1081D02*
X2304Y1081D01*
X2765Y1081D02*
X2826Y1081D01*
X3244Y1081D02*
X3304Y1081D01*
X768Y1080D02*
X824Y1080D01*
X1246Y1080D02*
X1302Y1080D01*
X1767Y1080D02*
X1824Y1080D01*
X2246Y1080D02*
X2302Y1080D01*
X2767Y1080D02*
X2824Y1080D01*
X3246Y1080D02*
X3302Y1080D01*
X770Y1079D02*
X822Y1079D01*
X1248Y1079D02*
X1300Y1079D01*
X1770Y1079D02*
X1822Y1079D01*
X2248Y1079D02*
X2300Y1079D01*
X2770Y1079D02*
X2822Y1079D01*
X3248Y1079D02*
X3300Y1079D01*
X773Y1078D02*
X819Y1078D01*
X1251Y1078D02*
X1297Y1078D01*
X1773Y1078D02*
X1819Y1078D01*
X2251Y1078D02*
X2297Y1078D01*
X2772Y1078D02*
X2819Y1078D01*
X3251Y1078D02*
X3297Y1078D01*
X775Y1077D02*
X816Y1077D01*
X1254Y1077D02*
X1294Y1077D01*
X1775Y1077D02*
X1816Y1077D01*
X2254Y1077D02*
X2294Y1077D01*
X2775Y1077D02*
X2816Y1077D01*
X3254Y1077D02*
X3294Y1077D01*
X779Y1076D02*
X812Y1076D01*
X1258Y1076D02*
X1290Y1076D01*
X1779Y1076D02*
X1812Y1076D01*
X2258Y1076D02*
X2290Y1076D01*
X2779Y1076D02*
X2812Y1076D01*
X3258Y1076D02*
X3290Y1076D01*
X784Y1075D02*
X807Y1075D01*
X1262Y1075D02*
X1286Y1075D01*
X1784Y1075D02*
X1807Y1075D01*
X2262Y1075D02*
X2286Y1075D01*
X2784Y1075D02*
X2807Y1075D01*
X3262Y1075D02*
X3286Y1075D01*
X792Y1074D02*
X799Y1074D01*
X1271Y1074D02*
X1278Y1074D01*
X1792Y1074D02*
X1799Y1074D01*
X2270Y1074D02*
X2278Y1074D01*
X2792Y1074D02*
X2799Y1074D01*
X3270Y1074D02*
X3278Y1074D01*
X1348Y977D02*
X1362Y977D01*
X2348Y977D02*
X2362Y977D01*
X3348Y977D02*
X3361Y977D01*
X1342Y976D02*
X1368Y976D01*
X2342Y976D02*
X2368Y976D01*
X3342Y976D02*
X3368Y976D01*
X1338Y975D02*
X1372Y975D01*
X2338Y975D02*
X2372Y975D01*
X3337Y975D02*
X3372Y975D01*
X1334Y974D02*
X1376Y974D01*
X2334Y974D02*
X2376Y974D01*
X3334Y974D02*
X3376Y974D01*
X1331Y973D02*
X1379Y973D01*
X2331Y973D02*
X2379Y973D01*
X3331Y973D02*
X3379Y973D01*
X1328Y972D02*
X1381Y972D01*
X2328Y972D02*
X2381Y972D01*
X3328Y972D02*
X3381Y972D01*
X1326Y971D02*
X1383Y971D01*
X2326Y971D02*
X2383Y971D01*
X3326Y971D02*
X3383Y971D01*
X1324Y970D02*
X1386Y970D01*
X2324Y970D02*
X2385Y970D01*
X3324Y970D02*
X3385Y970D01*
X1322Y969D02*
X1388Y969D01*
X2322Y969D02*
X2387Y969D01*
X3322Y969D02*
X3387Y969D01*
X1320Y968D02*
X1389Y968D01*
X2320Y968D02*
X2389Y968D01*
X3320Y968D02*
X3389Y968D01*
X1319Y967D02*
X1391Y967D01*
X2319Y967D02*
X2391Y967D01*
X3319Y967D02*
X3391Y967D01*
X1317Y966D02*
X1392Y966D01*
X2317Y966D02*
X2392Y966D01*
X3317Y966D02*
X3392Y966D01*
X1316Y965D02*
X1394Y965D01*
X2316Y965D02*
X2394Y965D01*
X3316Y965D02*
X3394Y965D01*
X1314Y964D02*
X1395Y964D01*
X2314Y964D02*
X2395Y964D01*
X3314Y964D02*
X3395Y964D01*
X1313Y963D02*
X1397Y963D01*
X2313Y963D02*
X2397Y963D01*
X3313Y963D02*
X3397Y963D01*
X1312Y962D02*
X1398Y962D01*
X2312Y962D02*
X2398Y962D01*
X3312Y962D02*
X3398Y962D01*
X1310Y961D02*
X1399Y961D01*
X2310Y961D02*
X2399Y961D01*
X3310Y961D02*
X3399Y961D01*
X1309Y960D02*
X1400Y960D01*
X2309Y960D02*
X2400Y960D01*
X3309Y960D02*
X3400Y960D01*
X1308Y959D02*
X1402Y959D01*
X2308Y959D02*
X2401Y959D01*
X3308Y959D02*
X3401Y959D01*
X1307Y958D02*
X1403Y958D01*
X2307Y958D02*
X2403Y958D01*
X3307Y958D02*
X3403Y958D01*
X1306Y957D02*
X1404Y957D01*
X2306Y957D02*
X2404Y957D01*
X3306Y957D02*
X3404Y957D01*
X1305Y956D02*
X1405Y956D01*
X2305Y956D02*
X2405Y956D01*
X3305Y956D02*
X3405Y956D01*
X1304Y955D02*
X1406Y955D01*
X2304Y955D02*
X2405Y955D01*
X3304Y955D02*
X3405Y955D01*
X1303Y954D02*
X1406Y954D01*
X2303Y954D02*
X2406Y954D01*
X3303Y954D02*
X3406Y954D01*
X1302Y953D02*
X1407Y953D01*
X2302Y953D02*
X2407Y953D01*
X3302Y953D02*
X3407Y953D01*
X1301Y952D02*
X1408Y952D01*
X2301Y952D02*
X2408Y952D01*
X3301Y952D02*
X3408Y952D01*
X1301Y951D02*
X1409Y951D01*
X2301Y951D02*
X2409Y951D01*
X3301Y951D02*
X3409Y951D01*
X1300Y950D02*
X1410Y950D01*
X2300Y950D02*
X2410Y950D01*
X3300Y950D02*
X3410Y950D01*
X1299Y949D02*
X1410Y949D01*
X2299Y949D02*
X2410Y949D01*
X3299Y949D02*
X3410Y949D01*
X1298Y948D02*
X1411Y948D01*
X2298Y948D02*
X2411Y948D01*
X3298Y948D02*
X3411Y948D01*
X1298Y947D02*
X1412Y947D01*
X2298Y947D02*
X2412Y947D01*
X3298Y947D02*
X3412Y947D01*
X1297Y946D02*
X1413Y946D01*
X2297Y946D02*
X2413Y946D01*
X3297Y946D02*
X3412Y946D01*
X1296Y945D02*
X1413Y945D01*
X2296Y945D02*
X2413Y945D01*
X3296Y945D02*
X3413Y945D01*
X1296Y944D02*
X1414Y944D01*
X2296Y944D02*
X2414Y944D01*
X3296Y944D02*
X3414Y944D01*
X1295Y943D02*
X1414Y943D01*
X2295Y943D02*
X2414Y943D01*
X3295Y943D02*
X3414Y943D01*
X1295Y942D02*
X1415Y942D01*
X2295Y942D02*
X2415Y942D01*
X3295Y942D02*
X3415Y942D01*
X1294Y941D02*
X1416Y941D01*
X2294Y941D02*
X2416Y941D01*
X3294Y941D02*
X3416Y941D01*
X1293Y940D02*
X1416Y940D01*
X2293Y940D02*
X2416Y940D01*
X3293Y940D02*
X3416Y940D01*
X1293Y939D02*
X1417Y939D01*
X2293Y939D02*
X2417Y939D01*
X3293Y939D02*
X3417Y939D01*
X1292Y938D02*
X1417Y938D01*
X2292Y938D02*
X2417Y938D01*
X3292Y938D02*
X3417Y938D01*
X1292Y937D02*
X1418Y937D01*
X2292Y937D02*
X2418Y937D01*
X3292Y937D02*
X3418Y937D01*
X1291Y936D02*
X1418Y936D01*
X2291Y936D02*
X2418Y936D01*
X3291Y936D02*
X3418Y936D01*
X1291Y935D02*
X1419Y935D01*
X2291Y935D02*
X2419Y935D01*
X3291Y935D02*
X3419Y935D01*
X1291Y934D02*
X1419Y934D01*
X2291Y934D02*
X2419Y934D01*
X3291Y934D02*
X3419Y934D01*
X1290Y933D02*
X1419Y933D01*
X2290Y933D02*
X2419Y933D01*
X3290Y933D02*
X3419Y933D01*
X1290Y932D02*
X1420Y932D01*
X2290Y932D02*
X2420Y932D01*
X3290Y932D02*
X3420Y932D01*
X1290Y931D02*
X1420Y931D01*
X2289Y931D02*
X2420Y931D01*
X3289Y931D02*
X3420Y931D01*
X1289Y930D02*
X1420Y930D01*
X2289Y930D02*
X2420Y930D01*
X3289Y930D02*
X3420Y930D01*
X1289Y929D02*
X1421Y929D01*
X2289Y929D02*
X2421Y929D01*
X3289Y929D02*
X3421Y929D01*
X1289Y928D02*
X1421Y928D01*
X2288Y928D02*
X2421Y928D01*
X3288Y928D02*
X3421Y928D01*
X1288Y927D02*
X1421Y927D01*
X2288Y927D02*
X2421Y927D01*
X3288Y927D02*
X3421Y927D01*
X1288Y926D02*
X1422Y926D01*
X2288Y926D02*
X2422Y926D01*
X3288Y926D02*
X3422Y926D01*
X1288Y925D02*
X1422Y925D01*
X2288Y925D02*
X2422Y925D01*
X3288Y925D02*
X3422Y925D01*
X1288Y924D02*
X1422Y924D01*
X2287Y924D02*
X2422Y924D01*
X3287Y924D02*
X3422Y924D01*
X1287Y923D02*
X1422Y923D01*
X2287Y923D02*
X2422Y923D01*
X3287Y923D02*
X3422Y923D01*
X1287Y922D02*
X1423Y922D01*
X2287Y922D02*
X2423Y922D01*
X3287Y922D02*
X3423Y922D01*
X1287Y921D02*
X1423Y921D01*
X2287Y921D02*
X2423Y921D01*
X3287Y921D02*
X3423Y921D01*
X1287Y920D02*
X1423Y920D01*
X2287Y920D02*
X2423Y920D01*
X3287Y920D02*
X3423Y920D01*
X1286Y919D02*
X1423Y919D01*
X2286Y919D02*
X2423Y919D01*
X3286Y919D02*
X3423Y919D01*
X1286Y918D02*
X1423Y918D01*
X2286Y918D02*
X2423Y918D01*
X3286Y918D02*
X3423Y918D01*
X1286Y917D02*
X1423Y917D01*
X2286Y917D02*
X2423Y917D01*
X3286Y917D02*
X3423Y917D01*
X1286Y916D02*
X1424Y916D01*
X2286Y916D02*
X2424Y916D01*
X3286Y916D02*
X3424Y916D01*
X1286Y915D02*
X1424Y915D01*
X2286Y915D02*
X2424Y915D01*
X3286Y915D02*
X3424Y915D01*
X1286Y914D02*
X1424Y914D01*
X2286Y914D02*
X2424Y914D01*
X3286Y914D02*
X3424Y914D01*
X1286Y913D02*
X1424Y913D01*
X2286Y913D02*
X2424Y913D01*
X3286Y913D02*
X3424Y913D01*
X1286Y912D02*
X1424Y912D01*
X2286Y912D02*
X2424Y912D01*
X3286Y912D02*
X3424Y912D01*
X1286Y911D02*
X1424Y911D01*
X2286Y911D02*
X2424Y911D01*
X3285Y911D02*
X3424Y911D01*
X1285Y910D02*
X1424Y910D01*
X2285Y910D02*
X2424Y910D01*
X3285Y910D02*
X3424Y910D01*
X1285Y909D02*
X1424Y909D01*
X2285Y909D02*
X2424Y909D01*
X3285Y909D02*
X3424Y909D01*
X1285Y908D02*
X1424Y908D01*
X2285Y908D02*
X2424Y908D01*
X3285Y908D02*
X3424Y908D01*
X1285Y907D02*
X1424Y907D01*
X2285Y907D02*
X2424Y907D01*
X3285Y907D02*
X3424Y907D01*
X1285Y906D02*
X1424Y906D01*
X2285Y906D02*
X2424Y906D01*
X3285Y906D02*
X3424Y906D01*
X1285Y905D02*
X1424Y905D01*
X2285Y905D02*
X2424Y905D01*
X3285Y905D02*
X3424Y905D01*
X1286Y904D02*
X1424Y904D01*
X2286Y904D02*
X2424Y904D01*
X3285Y904D02*
X3424Y904D01*
X1286Y903D02*
X1424Y903D01*
X2286Y903D02*
X2424Y903D01*
X3286Y903D02*
X3424Y903D01*
X1286Y902D02*
X1424Y902D01*
X2286Y902D02*
X2424Y902D01*
X3286Y902D02*
X3424Y902D01*
X1286Y901D02*
X1424Y901D01*
X2286Y901D02*
X2424Y901D01*
X3286Y901D02*
X3424Y901D01*
X1286Y900D02*
X1424Y900D01*
X2286Y900D02*
X2424Y900D01*
X3286Y900D02*
X3424Y900D01*
X1286Y899D02*
X1424Y899D01*
X2286Y899D02*
X2424Y899D01*
X3286Y899D02*
X3424Y899D01*
X1286Y898D02*
X1423Y898D01*
X2286Y898D02*
X2423Y898D01*
X3286Y898D02*
X3423Y898D01*
X1286Y897D02*
X1423Y897D01*
X2286Y897D02*
X2423Y897D01*
X3286Y897D02*
X3423Y897D01*
X1286Y896D02*
X1423Y896D01*
X2286Y896D02*
X2423Y896D01*
X3286Y896D02*
X3423Y896D01*
X1287Y895D02*
X1423Y895D01*
X2287Y895D02*
X2423Y895D01*
X3287Y895D02*
X3423Y895D01*
X1287Y894D02*
X1423Y894D01*
X2287Y894D02*
X2423Y894D01*
X3287Y894D02*
X3423Y894D01*
X1287Y893D02*
X1423Y893D01*
X2287Y893D02*
X2423Y893D01*
X3287Y893D02*
X3423Y893D01*
X1287Y892D02*
X1422Y892D01*
X2287Y892D02*
X2422Y892D01*
X3287Y892D02*
X3422Y892D01*
X1288Y891D02*
X1422Y891D01*
X2287Y891D02*
X2422Y891D01*
X3287Y891D02*
X3422Y891D01*
X1288Y890D02*
X1422Y890D01*
X2288Y890D02*
X2422Y890D01*
X3288Y890D02*
X3422Y890D01*
X1288Y889D02*
X1422Y889D01*
X2288Y889D02*
X2422Y889D01*
X3288Y889D02*
X3421Y889D01*
X1288Y888D02*
X1421Y888D01*
X2288Y888D02*
X2421Y888D01*
X3288Y888D02*
X3421Y888D01*
X1289Y887D02*
X1421Y887D01*
X2288Y887D02*
X2421Y887D01*
X3288Y887D02*
X3421Y887D01*
X1289Y886D02*
X1421Y886D01*
X2289Y886D02*
X2421Y886D01*
X3289Y886D02*
X3421Y886D01*
X1289Y885D02*
X1420Y885D01*
X2289Y885D02*
X2420Y885D01*
X3289Y885D02*
X3420Y885D01*
X1290Y884D02*
X1420Y884D01*
X2289Y884D02*
X2420Y884D01*
X3289Y884D02*
X3420Y884D01*
X1290Y883D02*
X1420Y883D01*
X2290Y883D02*
X2420Y883D01*
X3290Y883D02*
X3420Y883D01*
X1290Y882D02*
X1419Y882D01*
X2290Y882D02*
X2419Y882D01*
X3290Y882D02*
X3419Y882D01*
X1291Y881D02*
X1419Y881D01*
X2291Y881D02*
X2419Y881D01*
X3291Y881D02*
X3419Y881D01*
X1291Y880D02*
X1419Y880D01*
X2291Y880D02*
X2419Y880D01*
X3291Y880D02*
X3419Y880D01*
X1291Y879D02*
X1418Y879D01*
X2291Y879D02*
X2418Y879D01*
X3291Y879D02*
X3418Y879D01*
X1292Y878D02*
X1418Y878D01*
X2292Y878D02*
X2418Y878D01*
X3292Y878D02*
X3418Y878D01*
X1292Y877D02*
X1417Y877D01*
X2292Y877D02*
X2417Y877D01*
X3292Y877D02*
X3417Y877D01*
X1293Y876D02*
X1417Y876D01*
X2293Y876D02*
X2417Y876D01*
X3293Y876D02*
X3417Y876D01*
X1293Y875D02*
X1416Y875D01*
X2293Y875D02*
X2416Y875D01*
X3293Y875D02*
X3416Y875D01*
X1294Y874D02*
X1416Y874D01*
X2294Y874D02*
X2416Y874D01*
X3294Y874D02*
X3416Y874D01*
X1295Y873D02*
X1415Y873D01*
X2295Y873D02*
X2415Y873D01*
X3295Y873D02*
X3415Y873D01*
X1295Y872D02*
X1414Y872D01*
X2295Y872D02*
X2414Y872D01*
X3295Y872D02*
X3414Y872D01*
X1296Y871D02*
X1414Y871D01*
X2296Y871D02*
X2414Y871D01*
X3296Y871D02*
X3414Y871D01*
X1296Y870D02*
X1413Y870D01*
X2296Y870D02*
X2413Y870D01*
X3296Y870D02*
X3413Y870D01*
X1297Y869D02*
X1413Y869D01*
X2297Y869D02*
X2412Y869D01*
X3297Y869D02*
X3412Y869D01*
X1298Y868D02*
X1412Y868D01*
X2298Y868D02*
X2412Y868D01*
X3298Y868D02*
X3412Y868D01*
X1298Y867D02*
X1411Y867D01*
X2298Y867D02*
X2411Y867D01*
X3298Y867D02*
X3411Y867D01*
X1299Y866D02*
X1410Y866D01*
X2299Y866D02*
X2410Y866D01*
X3299Y866D02*
X3410Y866D01*
X1300Y865D02*
X1410Y865D01*
X2300Y865D02*
X2410Y865D01*
X3300Y865D02*
X3410Y865D01*
X1301Y864D02*
X1409Y864D01*
X2301Y864D02*
X2409Y864D01*
X3301Y864D02*
X3409Y864D01*
X1301Y863D02*
X1408Y863D01*
X2301Y863D02*
X2408Y863D01*
X3301Y863D02*
X3408Y863D01*
X1302Y862D02*
X1407Y862D01*
X2302Y862D02*
X2407Y862D01*
X3302Y862D02*
X3407Y862D01*
X1303Y861D02*
X1406Y861D01*
X2303Y861D02*
X2406Y861D01*
X3303Y861D02*
X3406Y861D01*
X1304Y860D02*
X1406Y860D01*
X2304Y860D02*
X2405Y860D01*
X3304Y860D02*
X3405Y860D01*
X1305Y859D02*
X1405Y859D01*
X2305Y859D02*
X2405Y859D01*
X3305Y859D02*
X3405Y859D01*
X1306Y858D02*
X1404Y858D01*
X2306Y858D02*
X2404Y858D01*
X3306Y858D02*
X3404Y858D01*
X1307Y857D02*
X1403Y857D01*
X2307Y857D02*
X2403Y857D01*
X3307Y857D02*
X3403Y857D01*
X1308Y856D02*
X1401Y856D01*
X2308Y856D02*
X2401Y856D01*
X3308Y856D02*
X3401Y856D01*
X1309Y855D02*
X1400Y855D01*
X2309Y855D02*
X2400Y855D01*
X3309Y855D02*
X3400Y855D01*
X1310Y854D02*
X1399Y854D01*
X2310Y854D02*
X2399Y854D01*
X3310Y854D02*
X3399Y854D01*
X1312Y853D02*
X1398Y853D01*
X2312Y853D02*
X2398Y853D01*
X3312Y853D02*
X3398Y853D01*
X1313Y852D02*
X1397Y852D01*
X2313Y852D02*
X2397Y852D01*
X3313Y852D02*
X3396Y852D01*
X1314Y851D02*
X1395Y851D01*
X2314Y851D02*
X2395Y851D01*
X3314Y851D02*
X3395Y851D01*
X1316Y850D02*
X1394Y850D01*
X2316Y850D02*
X2394Y850D01*
X3316Y850D02*
X3394Y850D01*
X1317Y849D02*
X1392Y849D01*
X2317Y849D02*
X2392Y849D01*
X3317Y849D02*
X3392Y849D01*
X1319Y848D02*
X1391Y848D01*
X2319Y848D02*
X2391Y848D01*
X3319Y848D02*
X3391Y848D01*
X1320Y847D02*
X1389Y847D01*
X2320Y847D02*
X2389Y847D01*
X3320Y847D02*
X3389Y847D01*
X1322Y846D02*
X1387Y846D01*
X2322Y846D02*
X2387Y846D01*
X3322Y846D02*
X3387Y846D01*
X1324Y845D02*
X1385Y845D01*
X2324Y845D02*
X2385Y845D01*
X3324Y845D02*
X3385Y845D01*
X1326Y844D02*
X1383Y844D01*
X2326Y844D02*
X2383Y844D01*
X3326Y844D02*
X3383Y844D01*
X1328Y843D02*
X1381Y843D01*
X2328Y843D02*
X2381Y843D01*
X3328Y843D02*
X3381Y843D01*
X1331Y842D02*
X1379Y842D01*
X2331Y842D02*
X2378Y842D01*
X3331Y842D02*
X3378Y842D01*
X1334Y841D02*
X1376Y841D01*
X2334Y841D02*
X2376Y841D01*
X3334Y841D02*
X3376Y841D01*
X1338Y840D02*
X1372Y840D01*
X2338Y840D02*
X2372Y840D01*
X3338Y840D02*
X3372Y840D01*
X1342Y839D02*
X1368Y839D01*
X2342Y839D02*
X2368Y839D01*
X3342Y839D02*
X3368Y839D01*
X1348Y838D02*
X1361Y838D01*
X2348Y838D02*
X2361Y838D01*
X3348Y838D02*
X3361Y838D01*
X792Y741D02*
X800Y741D01*
X1270Y741D02*
X1278Y741D01*
X1792Y741D02*
X1800Y741D01*
X2270Y741D02*
X2278Y741D01*
X2792Y741D02*
X2800Y741D01*
X3270Y741D02*
X3278Y741D01*
X784Y740D02*
X808Y740D01*
X1262Y740D02*
X1286Y740D01*
X1784Y740D02*
X1807Y740D01*
X2262Y740D02*
X2286Y740D01*
X2784Y740D02*
X2807Y740D01*
X3262Y740D02*
X3286Y740D01*
X779Y739D02*
X812Y739D01*
X1258Y739D02*
X1290Y739D01*
X1779Y739D02*
X1812Y739D01*
X2258Y739D02*
X2290Y739D01*
X2779Y739D02*
X2812Y739D01*
X3258Y739D02*
X3290Y739D01*
X775Y738D02*
X816Y738D01*
X1254Y738D02*
X1294Y738D01*
X1775Y738D02*
X1816Y738D01*
X2254Y738D02*
X2294Y738D01*
X2775Y738D02*
X2816Y738D01*
X3254Y738D02*
X3294Y738D01*
X773Y737D02*
X819Y737D01*
X1251Y737D02*
X1297Y737D01*
X1773Y737D02*
X1819Y737D01*
X2251Y737D02*
X2297Y737D01*
X2772Y737D02*
X2819Y737D01*
X3251Y737D02*
X3297Y737D01*
X770Y736D02*
X822Y736D01*
X1248Y736D02*
X1300Y736D01*
X1770Y736D02*
X1822Y736D01*
X2248Y736D02*
X2300Y736D01*
X2770Y736D02*
X2822Y736D01*
X3248Y736D02*
X3300Y736D01*
X768Y735D02*
X824Y735D01*
X1246Y735D02*
X1302Y735D01*
X1767Y735D02*
X1824Y735D01*
X2246Y735D02*
X2302Y735D01*
X2767Y735D02*
X2824Y735D01*
X3246Y735D02*
X3302Y735D01*
X765Y734D02*
X826Y734D01*
X1244Y734D02*
X1304Y734D01*
X1765Y734D02*
X1826Y734D01*
X2244Y734D02*
X2304Y734D01*
X2765Y734D02*
X2826Y734D01*
X3244Y734D02*
X3304Y734D01*
X763Y733D02*
X828Y733D01*
X1242Y733D02*
X1306Y733D01*
X1763Y733D02*
X1828Y733D01*
X2242Y733D02*
X2306Y733D01*
X2763Y733D02*
X2828Y733D01*
X3242Y733D02*
X3306Y733D01*
X762Y732D02*
X830Y732D01*
X1240Y732D02*
X1308Y732D01*
X1762Y732D02*
X1830Y732D01*
X2240Y732D02*
X2308Y732D01*
X2762Y732D02*
X2830Y732D01*
X3240Y732D02*
X3308Y732D01*
X760Y731D02*
X831Y731D01*
X1238Y731D02*
X1310Y731D01*
X1760Y731D02*
X1831Y731D01*
X2238Y731D02*
X2310Y731D01*
X2760Y731D02*
X2831Y731D01*
X3238Y731D02*
X3310Y731D01*
X759Y730D02*
X833Y730D01*
X1237Y730D02*
X1311Y730D01*
X1758Y730D02*
X1833Y730D01*
X2237Y730D02*
X2311Y730D01*
X2758Y730D02*
X2833Y730D01*
X3237Y730D02*
X3311Y730D01*
X757Y729D02*
X835Y729D01*
X1235Y729D02*
X1313Y729D01*
X1757Y729D02*
X1835Y729D01*
X2235Y729D02*
X2313Y729D01*
X2757Y729D02*
X2835Y729D01*
X3235Y729D02*
X3313Y729D01*
X756Y728D02*
X836Y728D01*
X1234Y728D02*
X1314Y728D01*
X1756Y728D02*
X1836Y728D01*
X2234Y728D02*
X2314Y728D01*
X2755Y728D02*
X2836Y728D01*
X3234Y728D02*
X3314Y728D01*
X754Y727D02*
X837Y727D01*
X1233Y727D02*
X1316Y727D01*
X1754Y727D02*
X1837Y727D01*
X2233Y727D02*
X2316Y727D01*
X2754Y727D02*
X2837Y727D01*
X3232Y727D02*
X3316Y727D01*
X753Y726D02*
X839Y726D01*
X1231Y726D02*
X1317Y726D01*
X1753Y726D02*
X1839Y726D01*
X2231Y726D02*
X2317Y726D01*
X2753Y726D02*
X2839Y726D01*
X3231Y726D02*
X3317Y726D01*
X752Y725D02*
X840Y725D01*
X1230Y725D02*
X1318Y725D01*
X1752Y725D02*
X1840Y725D01*
X2230Y725D02*
X2318Y725D01*
X2751Y725D02*
X2840Y725D01*
X3230Y725D02*
X3318Y725D01*
X750Y724D02*
X841Y724D01*
X1229Y724D02*
X1319Y724D01*
X1750Y724D02*
X1841Y724D01*
X2229Y724D02*
X2319Y724D01*
X2750Y724D02*
X2841Y724D01*
X3229Y724D02*
X3319Y724D01*
X749Y723D02*
X842Y723D01*
X1228Y723D02*
X1321Y723D01*
X1749Y723D02*
X1842Y723D01*
X2228Y723D02*
X2321Y723D01*
X2749Y723D02*
X2842Y723D01*
X3228Y723D02*
X3320Y723D01*
X748Y722D02*
X843Y722D01*
X1227Y722D02*
X1322Y722D01*
X1748Y722D02*
X1843Y722D01*
X2226Y722D02*
X2322Y722D01*
X2748Y722D02*
X2843Y722D01*
X3226Y722D02*
X3322Y722D01*
X747Y721D02*
X844Y721D01*
X1225Y721D02*
X1323Y721D01*
X1747Y721D02*
X1844Y721D01*
X2225Y721D02*
X2323Y721D01*
X2747Y721D02*
X2844Y721D01*
X3225Y721D02*
X3323Y721D01*
X746Y720D02*
X845Y720D01*
X1224Y720D02*
X1324Y720D01*
X1746Y720D02*
X1845Y720D01*
X2224Y720D02*
X2324Y720D01*
X2746Y720D02*
X2845Y720D01*
X3224Y720D02*
X3324Y720D01*
X745Y719D02*
X846Y719D01*
X1224Y719D02*
X1325Y719D01*
X1745Y719D02*
X1846Y719D01*
X2224Y719D02*
X2325Y719D01*
X2745Y719D02*
X2846Y719D01*
X3223Y719D02*
X3325Y719D01*
X744Y718D02*
X847Y718D01*
X1223Y718D02*
X1326Y718D01*
X1744Y718D02*
X1847Y718D01*
X2223Y718D02*
X2325Y718D01*
X2744Y718D02*
X2847Y718D01*
X3223Y718D02*
X3325Y718D01*
X743Y717D02*
X848Y717D01*
X1222Y717D02*
X1326Y717D01*
X1743Y717D02*
X1848Y717D01*
X2222Y717D02*
X2326Y717D01*
X2743Y717D02*
X2848Y717D01*
X3222Y717D02*
X3326Y717D01*
X743Y716D02*
X849Y716D01*
X1221Y716D02*
X1327Y716D01*
X1743Y716D02*
X1849Y716D01*
X2221Y716D02*
X2327Y716D01*
X2742Y716D02*
X2849Y716D01*
X3221Y716D02*
X3327Y716D01*
X742Y715D02*
X850Y715D01*
X1220Y715D02*
X1328Y715D01*
X1742Y715D02*
X1850Y715D01*
X2220Y715D02*
X2328Y715D01*
X2742Y715D02*
X2850Y715D01*
X3220Y715D02*
X3328Y715D01*
X741Y714D02*
X850Y714D01*
X1219Y714D02*
X1329Y714D01*
X1741Y714D02*
X1850Y714D01*
X2219Y714D02*
X2329Y714D01*
X2741Y714D02*
X2850Y714D01*
X3219Y714D02*
X3329Y714D01*
X740Y713D02*
X851Y713D01*
X1219Y713D02*
X1330Y713D01*
X1740Y713D02*
X1851Y713D01*
X2219Y713D02*
X2329Y713D01*
X2740Y713D02*
X2851Y713D01*
X3219Y713D02*
X3329Y713D01*
X740Y712D02*
X852Y712D01*
X1218Y712D02*
X1330Y712D01*
X1740Y712D02*
X1852Y712D01*
X2218Y712D02*
X2330Y712D01*
X2739Y712D02*
X2852Y712D01*
X3218Y712D02*
X3330Y712D01*
X739Y711D02*
X853Y711D01*
X1217Y711D02*
X1331Y711D01*
X1739Y711D02*
X1853Y711D01*
X2217Y711D02*
X2331Y711D01*
X2739Y711D02*
X2853Y711D01*
X3217Y711D02*
X3331Y711D01*
X738Y710D02*
X853Y710D01*
X1216Y710D02*
X1332Y710D01*
X1738Y710D02*
X1853Y710D01*
X2216Y710D02*
X2332Y710D01*
X2738Y710D02*
X2853Y710D01*
X3216Y710D02*
X3332Y710D01*
X738Y709D02*
X854Y709D01*
X1216Y709D02*
X1332Y709D01*
X1737Y709D02*
X1854Y709D01*
X2216Y709D02*
X2332Y709D01*
X2737Y709D02*
X2854Y709D01*
X3216Y709D02*
X3332Y709D01*
X737Y708D02*
X855Y708D01*
X1215Y708D02*
X1333Y708D01*
X1737Y708D02*
X1855Y708D01*
X2215Y708D02*
X2333Y708D01*
X2737Y708D02*
X2855Y708D01*
X3215Y708D02*
X3333Y708D01*
X736Y707D02*
X855Y707D01*
X1215Y707D02*
X1334Y707D01*
X1736Y707D02*
X1855Y707D01*
X2215Y707D02*
X2334Y707D01*
X2736Y707D02*
X2855Y707D01*
X3215Y707D02*
X3333Y707D01*
X736Y706D02*
X856Y706D01*
X1214Y706D02*
X1334Y706D01*
X1736Y706D02*
X1856Y706D01*
X2214Y706D02*
X2334Y706D01*
X2736Y706D02*
X2856Y706D01*
X3214Y706D02*
X3334Y706D01*
X735Y705D02*
X856Y705D01*
X1213Y705D02*
X1335Y705D01*
X1735Y705D02*
X1856Y705D01*
X2213Y705D02*
X2335Y705D01*
X2735Y705D02*
X2856Y705D01*
X3213Y705D02*
X3335Y705D01*
X735Y704D02*
X857Y704D01*
X1213Y704D02*
X1335Y704D01*
X1734Y704D02*
X1857Y704D01*
X2213Y704D02*
X2335Y704D01*
X2734Y704D02*
X2857Y704D01*
X3213Y704D02*
X3335Y704D01*
X734Y703D02*
X858Y703D01*
X1212Y703D02*
X1336Y703D01*
X1734Y703D02*
X1857Y703D01*
X2212Y703D02*
X2336Y703D01*
X2734Y703D02*
X2857Y703D01*
X3212Y703D02*
X3336Y703D01*
X734Y702D02*
X858Y702D01*
X1212Y702D02*
X1336Y702D01*
X1733Y702D02*
X1858Y702D01*
X2212Y702D02*
X2336Y702D01*
X2733Y702D02*
X2858Y702D01*
X3212Y702D02*
X3336Y702D01*
X733Y701D02*
X858Y701D01*
X1211Y701D02*
X1337Y701D01*
X1733Y701D02*
X1858Y701D01*
X2211Y701D02*
X2337Y701D01*
X2733Y701D02*
X2858Y701D01*
X3211Y701D02*
X3337Y701D01*
X733Y700D02*
X859Y700D01*
X1211Y700D02*
X1337Y700D01*
X1733Y700D02*
X1859Y700D01*
X2211Y700D02*
X2337Y700D01*
X2732Y700D02*
X2859Y700D01*
X3211Y700D02*
X3337Y700D01*
X732Y699D02*
X859Y699D01*
X1210Y699D02*
X1338Y699D01*
X1732Y699D02*
X1859Y699D01*
X2210Y699D02*
X2338Y699D01*
X2732Y699D02*
X2859Y699D01*
X3210Y699D02*
X3338Y699D01*
X732Y698D02*
X860Y698D01*
X1210Y698D02*
X1338Y698D01*
X1732Y698D02*
X1860Y698D01*
X2210Y698D02*
X2338Y698D01*
X2732Y698D02*
X2860Y698D01*
X3210Y698D02*
X3338Y698D01*
X731Y697D02*
X860Y697D01*
X1210Y697D02*
X1339Y697D01*
X1731Y697D02*
X1860Y697D01*
X2210Y697D02*
X2339Y697D01*
X2731Y697D02*
X2860Y697D01*
X3210Y697D02*
X3338Y697D01*
X731Y696D02*
X861Y696D01*
X1209Y696D02*
X1339Y696D01*
X1731Y696D02*
X1861Y696D01*
X2209Y696D02*
X2339Y696D01*
X2731Y696D02*
X2861Y696D01*
X3209Y696D02*
X3339Y696D01*
X731Y695D02*
X861Y695D01*
X1209Y695D02*
X1339Y695D01*
X1731Y695D02*
X1861Y695D01*
X2209Y695D02*
X2339Y695D01*
X2730Y695D02*
X2861Y695D01*
X3209Y695D02*
X3339Y695D01*
X730Y694D02*
X861Y694D01*
X1209Y694D02*
X1340Y694D01*
X1730Y694D02*
X1861Y694D01*
X2208Y694D02*
X2340Y694D01*
X2730Y694D02*
X2861Y694D01*
X3208Y694D02*
X3340Y694D01*
X730Y693D02*
X862Y693D01*
X1208Y693D02*
X1340Y693D01*
X1730Y693D02*
X1862Y693D01*
X2208Y693D02*
X2340Y693D01*
X2730Y693D02*
X2862Y693D01*
X3208Y693D02*
X3340Y693D01*
X730Y692D02*
X862Y692D01*
X1208Y692D02*
X1340Y692D01*
X1729Y692D02*
X1862Y692D01*
X2208Y692D02*
X2340Y692D01*
X2729Y692D02*
X2862Y692D01*
X3208Y692D02*
X3340Y692D01*
X729Y691D02*
X862Y691D01*
X1208Y691D02*
X1341Y691D01*
X1729Y691D02*
X1862Y691D01*
X2208Y691D02*
X2341Y691D01*
X2729Y691D02*
X2862Y691D01*
X3208Y691D02*
X3340Y691D01*
X729Y690D02*
X863Y690D01*
X1207Y690D02*
X1341Y690D01*
X1729Y690D02*
X1862Y690D01*
X2207Y690D02*
X2341Y690D01*
X2729Y690D02*
X2862Y690D01*
X3207Y690D02*
X3341Y690D01*
X729Y689D02*
X863Y689D01*
X1207Y689D02*
X1341Y689D01*
X1729Y689D02*
X1863Y689D01*
X2207Y689D02*
X2341Y689D01*
X2729Y689D02*
X2863Y689D01*
X3207Y689D02*
X3341Y689D01*
X729Y688D02*
X863Y688D01*
X1207Y688D02*
X1341Y688D01*
X1728Y688D02*
X1863Y688D01*
X2207Y688D02*
X2341Y688D01*
X2728Y688D02*
X2863Y688D01*
X3207Y688D02*
X3341Y688D01*
X728Y687D02*
X863Y687D01*
X1207Y687D02*
X1342Y687D01*
X1728Y687D02*
X1863Y687D01*
X2207Y687D02*
X2342Y687D01*
X2728Y687D02*
X2863Y687D01*
X3207Y687D02*
X3342Y687D01*
X728Y686D02*
X864Y686D01*
X1206Y686D02*
X1342Y686D01*
X1728Y686D02*
X1863Y686D01*
X2206Y686D02*
X2342Y686D01*
X2728Y686D02*
X2863Y686D01*
X3206Y686D02*
X3342Y686D01*
X728Y685D02*
X864Y685D01*
X1206Y685D02*
X1342Y685D01*
X1728Y685D02*
X1864Y685D01*
X2206Y685D02*
X2342Y685D01*
X2728Y685D02*
X2864Y685D01*
X3206Y685D02*
X3342Y685D01*
X728Y684D02*
X864Y684D01*
X1206Y684D02*
X1342Y684D01*
X1728Y684D02*
X1864Y684D01*
X2206Y684D02*
X2342Y684D01*
X2728Y684D02*
X2864Y684D01*
X3206Y684D02*
X3342Y684D01*
X727Y683D02*
X864Y683D01*
X1206Y683D02*
X1342Y683D01*
X1727Y683D02*
X1864Y683D01*
X2206Y683D02*
X2342Y683D01*
X2727Y683D02*
X2864Y683D01*
X3206Y683D02*
X3342Y683D01*
X727Y682D02*
X864Y682D01*
X1206Y682D02*
X1343Y682D01*
X1727Y682D02*
X1864Y682D01*
X2206Y682D02*
X2342Y682D01*
X2727Y682D02*
X2864Y682D01*
X3206Y682D02*
X3342Y682D01*
X727Y681D02*
X864Y681D01*
X1205Y681D02*
X1343Y681D01*
X1727Y681D02*
X1864Y681D01*
X2205Y681D02*
X2343Y681D01*
X2727Y681D02*
X2864Y681D01*
X3205Y681D02*
X3343Y681D01*
X727Y680D02*
X865Y680D01*
X1205Y680D02*
X1343Y680D01*
X1727Y680D02*
X1864Y680D01*
X2205Y680D02*
X2343Y680D01*
X2727Y680D02*
X2864Y680D01*
X3205Y680D02*
X3343Y680D01*
X727Y679D02*
X865Y679D01*
X1205Y679D02*
X1343Y679D01*
X1727Y679D02*
X1865Y679D01*
X2205Y679D02*
X2343Y679D01*
X2727Y679D02*
X2865Y679D01*
X3205Y679D02*
X3343Y679D01*
X727Y678D02*
X865Y678D01*
X1205Y678D02*
X1343Y678D01*
X1727Y678D02*
X1865Y678D01*
X2205Y678D02*
X2343Y678D01*
X2727Y678D02*
X2865Y678D01*
X3205Y678D02*
X3343Y678D01*
X727Y677D02*
X865Y677D01*
X1205Y677D02*
X1343Y677D01*
X1727Y677D02*
X1865Y677D01*
X2205Y677D02*
X2343Y677D01*
X2727Y677D02*
X2865Y677D01*
X3205Y677D02*
X3343Y677D01*
X727Y676D02*
X865Y676D01*
X1205Y676D02*
X1343Y676D01*
X1727Y676D02*
X1865Y676D01*
X2205Y676D02*
X2343Y676D01*
X2727Y676D02*
X2865Y676D01*
X3205Y676D02*
X3343Y676D01*
X727Y675D02*
X865Y675D01*
X1205Y675D02*
X1343Y675D01*
X1726Y675D02*
X1865Y675D01*
X2205Y675D02*
X2343Y675D01*
X2726Y675D02*
X2865Y675D01*
X3205Y675D02*
X3343Y675D01*
X726Y674D02*
X865Y674D01*
X1205Y674D02*
X1343Y674D01*
X1726Y674D02*
X1865Y674D01*
X2205Y674D02*
X2343Y674D01*
X2726Y674D02*
X2865Y674D01*
X3205Y674D02*
X3343Y674D01*
X726Y673D02*
X865Y673D01*
X1205Y673D02*
X1343Y673D01*
X1726Y673D02*
X1865Y673D01*
X2205Y673D02*
X2343Y673D01*
X2726Y673D02*
X2865Y673D01*
X3205Y673D02*
X3343Y673D01*
X726Y672D02*
X865Y672D01*
X1205Y672D02*
X1343Y672D01*
X1726Y672D02*
X1865Y672D01*
X2205Y672D02*
X2343Y672D01*
X2726Y672D02*
X2865Y672D01*
X3205Y672D02*
X3343Y672D01*
X726Y671D02*
X865Y671D01*
X1205Y671D02*
X1344Y671D01*
X1726Y671D02*
X1865Y671D01*
X2205Y671D02*
X2343Y671D01*
X2726Y671D02*
X2865Y671D01*
X3205Y671D02*
X3343Y671D01*
X726Y670D02*
X865Y670D01*
X1205Y670D02*
X1343Y670D01*
X1726Y670D02*
X1865Y670D01*
X2205Y670D02*
X2343Y670D01*
X2726Y670D02*
X2865Y670D01*
X3205Y670D02*
X3343Y670D01*
X726Y669D02*
X865Y669D01*
X1205Y669D02*
X1343Y669D01*
X1726Y669D02*
X1865Y669D01*
X2205Y669D02*
X2343Y669D01*
X2726Y669D02*
X2865Y669D01*
X3205Y669D02*
X3343Y669D01*
X727Y668D02*
X865Y668D01*
X1205Y668D02*
X1343Y668D01*
X1726Y668D02*
X1865Y668D01*
X2205Y668D02*
X2343Y668D01*
X2726Y668D02*
X2865Y668D01*
X3205Y668D02*
X3343Y668D01*
X727Y667D02*
X865Y667D01*
X1205Y667D02*
X1343Y667D01*
X1727Y667D02*
X1865Y667D01*
X2205Y667D02*
X2343Y667D01*
X2726Y667D02*
X2865Y667D01*
X3205Y667D02*
X3343Y667D01*
X727Y666D02*
X865Y666D01*
X1205Y666D02*
X1343Y666D01*
X1727Y666D02*
X1865Y666D01*
X2205Y666D02*
X2343Y666D01*
X2727Y666D02*
X2865Y666D01*
X3205Y666D02*
X3343Y666D01*
X727Y665D02*
X865Y665D01*
X1205Y665D02*
X1343Y665D01*
X1727Y665D02*
X1865Y665D01*
X2205Y665D02*
X2343Y665D01*
X2727Y665D02*
X2865Y665D01*
X3205Y665D02*
X3343Y665D01*
X727Y664D02*
X865Y664D01*
X1205Y664D02*
X1343Y664D01*
X1727Y664D02*
X1865Y664D01*
X2205Y664D02*
X2343Y664D01*
X2727Y664D02*
X2865Y664D01*
X3205Y664D02*
X3343Y664D01*
X727Y663D02*
X865Y663D01*
X1205Y663D02*
X1343Y663D01*
X1727Y663D02*
X1865Y663D01*
X2205Y663D02*
X2343Y663D01*
X2727Y663D02*
X2865Y663D01*
X3205Y663D02*
X3343Y663D01*
X727Y662D02*
X864Y662D01*
X1205Y662D02*
X1343Y662D01*
X1727Y662D02*
X1864Y662D01*
X2205Y662D02*
X2343Y662D01*
X2727Y662D02*
X2864Y662D01*
X3205Y662D02*
X3343Y662D01*
X727Y661D02*
X864Y661D01*
X1206Y661D02*
X1343Y661D01*
X1727Y661D02*
X1864Y661D01*
X2206Y661D02*
X2343Y661D01*
X2727Y661D02*
X2864Y661D01*
X3206Y661D02*
X3343Y661D01*
X727Y660D02*
X864Y660D01*
X1206Y660D02*
X1342Y660D01*
X1727Y660D02*
X1864Y660D01*
X2206Y660D02*
X2342Y660D01*
X2727Y660D02*
X2864Y660D01*
X3206Y660D02*
X3342Y660D01*
X728Y659D02*
X864Y659D01*
X1206Y659D02*
X1342Y659D01*
X1728Y659D02*
X1864Y659D01*
X2206Y659D02*
X2342Y659D01*
X2728Y659D02*
X2864Y659D01*
X3206Y659D02*
X3342Y659D01*
X728Y658D02*
X864Y658D01*
X1206Y658D02*
X1342Y658D01*
X1728Y658D02*
X1864Y658D01*
X2206Y658D02*
X2342Y658D01*
X2728Y658D02*
X2864Y658D01*
X3206Y658D02*
X3342Y658D01*
X728Y657D02*
X864Y657D01*
X1206Y657D02*
X1342Y657D01*
X1728Y657D02*
X1864Y657D01*
X2206Y657D02*
X2342Y657D01*
X2728Y657D02*
X2864Y657D01*
X3206Y657D02*
X3342Y657D01*
X728Y656D02*
X863Y656D01*
X1207Y656D02*
X1342Y656D01*
X1728Y656D02*
X1863Y656D01*
X2206Y656D02*
X2342Y656D01*
X2728Y656D02*
X2863Y656D01*
X3206Y656D02*
X3342Y656D01*
X728Y655D02*
X863Y655D01*
X1207Y655D02*
X1341Y655D01*
X1728Y655D02*
X1863Y655D01*
X2207Y655D02*
X2341Y655D01*
X2728Y655D02*
X2863Y655D01*
X3207Y655D02*
X3341Y655D01*
X729Y654D02*
X863Y654D01*
X1207Y654D02*
X1341Y654D01*
X1729Y654D02*
X1863Y654D01*
X2207Y654D02*
X2341Y654D01*
X2729Y654D02*
X2863Y654D01*
X3207Y654D02*
X3341Y654D01*
X729Y653D02*
X863Y653D01*
X1207Y653D02*
X1341Y653D01*
X1729Y653D02*
X1863Y653D01*
X2207Y653D02*
X2341Y653D01*
X2729Y653D02*
X2863Y653D01*
X3207Y653D02*
X3341Y653D01*
X729Y652D02*
X862Y652D01*
X1208Y652D02*
X1341Y652D01*
X1729Y652D02*
X1862Y652D01*
X2207Y652D02*
X2341Y652D01*
X2729Y652D02*
X2862Y652D01*
X3207Y652D02*
X3341Y652D01*
X729Y651D02*
X862Y651D01*
X1208Y651D02*
X1340Y651D01*
X1729Y651D02*
X1862Y651D01*
X2208Y651D02*
X2340Y651D01*
X2729Y651D02*
X2862Y651D01*
X3208Y651D02*
X3340Y651D01*
X730Y650D02*
X862Y650D01*
X1208Y650D02*
X1340Y650D01*
X1730Y650D02*
X1862Y650D01*
X2208Y650D02*
X2340Y650D01*
X2730Y650D02*
X2862Y650D01*
X3208Y650D02*
X3340Y650D01*
X730Y649D02*
X861Y649D01*
X1208Y649D02*
X1340Y649D01*
X1730Y649D02*
X1861Y649D01*
X2208Y649D02*
X2340Y649D01*
X2730Y649D02*
X2861Y649D01*
X3208Y649D02*
X3340Y649D01*
X730Y648D02*
X861Y648D01*
X1209Y648D02*
X1339Y648D01*
X1730Y648D02*
X1861Y648D01*
X2209Y648D02*
X2339Y648D01*
X2730Y648D02*
X2861Y648D01*
X3209Y648D02*
X3339Y648D01*
X731Y647D02*
X861Y647D01*
X1209Y647D02*
X1339Y647D01*
X1731Y647D02*
X1861Y647D01*
X2209Y647D02*
X2339Y647D01*
X2731Y647D02*
X2861Y647D01*
X3209Y647D02*
X3339Y647D01*
X731Y646D02*
X860Y646D01*
X1209Y646D02*
X1339Y646D01*
X1731Y646D02*
X1860Y646D01*
X2209Y646D02*
X2339Y646D01*
X2731Y646D02*
X2860Y646D01*
X3209Y646D02*
X3339Y646D01*
X731Y645D02*
X860Y645D01*
X1210Y645D02*
X1338Y645D01*
X1731Y645D02*
X1860Y645D01*
X2210Y645D02*
X2338Y645D01*
X2731Y645D02*
X2860Y645D01*
X3210Y645D02*
X3338Y645D01*
X732Y644D02*
X860Y644D01*
X1210Y644D02*
X1338Y644D01*
X1732Y644D02*
X1860Y644D01*
X2210Y644D02*
X2338Y644D01*
X2732Y644D02*
X2860Y644D01*
X3210Y644D02*
X3338Y644D01*
X732Y643D02*
X859Y643D01*
X1211Y643D02*
X1338Y643D01*
X1732Y643D02*
X1859Y643D01*
X2211Y643D02*
X2337Y643D01*
X2732Y643D02*
X2859Y643D01*
X3211Y643D02*
X3337Y643D01*
X733Y642D02*
X859Y642D01*
X1211Y642D02*
X1337Y642D01*
X1733Y642D02*
X1859Y642D01*
X2211Y642D02*
X2337Y642D01*
X2733Y642D02*
X2859Y642D01*
X3211Y642D02*
X3337Y642D01*
X733Y641D02*
X858Y641D01*
X1212Y641D02*
X1337Y641D01*
X1733Y641D02*
X1858Y641D01*
X2212Y641D02*
X2336Y641D01*
X2733Y641D02*
X2858Y641D01*
X3212Y641D02*
X3336Y641D01*
X734Y640D02*
X858Y640D01*
X1212Y640D02*
X1336Y640D01*
X1734Y640D02*
X1858Y640D01*
X2212Y640D02*
X2336Y640D01*
X2734Y640D02*
X2858Y640D01*
X3212Y640D02*
X3336Y640D01*
X734Y639D02*
X857Y639D01*
X1213Y639D02*
X1336Y639D01*
X1734Y639D02*
X1857Y639D01*
X2213Y639D02*
X2335Y639D01*
X2734Y639D02*
X2857Y639D01*
X3213Y639D02*
X3335Y639D01*
X735Y638D02*
X857Y638D01*
X1213Y638D02*
X1335Y638D01*
X1735Y638D02*
X1857Y638D01*
X2213Y638D02*
X2335Y638D01*
X2735Y638D02*
X2857Y638D01*
X3213Y638D02*
X3335Y638D01*
X735Y637D02*
X856Y637D01*
X1214Y637D02*
X1334Y637D01*
X1735Y637D02*
X1856Y637D01*
X2214Y637D02*
X2334Y637D01*
X2735Y637D02*
X2856Y637D01*
X3214Y637D02*
X3334Y637D01*
X736Y636D02*
X855Y636D01*
X1214Y636D02*
X1334Y636D01*
X1736Y636D02*
X1855Y636D01*
X2214Y636D02*
X2334Y636D01*
X2736Y636D02*
X2855Y636D01*
X3214Y636D02*
X3334Y636D01*
X737Y635D02*
X855Y635D01*
X1215Y635D02*
X1333Y635D01*
X1737Y635D02*
X1855Y635D01*
X2215Y635D02*
X2333Y635D01*
X2737Y635D02*
X2855Y635D01*
X3215Y635D02*
X3333Y635D01*
X737Y634D02*
X854Y634D01*
X1216Y634D02*
X1333Y634D01*
X1737Y634D02*
X1854Y634D01*
X2216Y634D02*
X2333Y634D01*
X2737Y634D02*
X2854Y634D01*
X3216Y634D02*
X3332Y634D01*
X738Y633D02*
X854Y633D01*
X1216Y633D02*
X1332Y633D01*
X1738Y633D02*
X1854Y633D01*
X2216Y633D02*
X2332Y633D01*
X2738Y633D02*
X2854Y633D01*
X3216Y633D02*
X3332Y633D01*
X739Y632D02*
X853Y632D01*
X1217Y632D02*
X1331Y632D01*
X1739Y632D02*
X1853Y632D01*
X2217Y632D02*
X2331Y632D01*
X2738Y632D02*
X2853Y632D01*
X3217Y632D02*
X3331Y632D01*
X739Y631D02*
X852Y631D01*
X1218Y631D02*
X1331Y631D01*
X1739Y631D02*
X1852Y631D01*
X2218Y631D02*
X2331Y631D01*
X2739Y631D02*
X2852Y631D01*
X3218Y631D02*
X3330Y631D01*
X740Y630D02*
X852Y630D01*
X1218Y630D02*
X1330Y630D01*
X1740Y630D02*
X1851Y630D01*
X2218Y630D02*
X2330Y630D01*
X2740Y630D02*
X2851Y630D01*
X3218Y630D02*
X3330Y630D01*
X741Y629D02*
X851Y629D01*
X1219Y629D02*
X1329Y629D01*
X1741Y629D02*
X1851Y629D01*
X2219Y629D02*
X2329Y629D01*
X2741Y629D02*
X2851Y629D01*
X3219Y629D02*
X3329Y629D01*
X742Y628D02*
X850Y628D01*
X1220Y628D02*
X1328Y628D01*
X1741Y628D02*
X1850Y628D01*
X2220Y628D02*
X2328Y628D01*
X2741Y628D02*
X2850Y628D01*
X3220Y628D02*
X3328Y628D01*
X742Y627D02*
X849Y627D01*
X1221Y627D02*
X1328Y627D01*
X1742Y627D02*
X1849Y627D01*
X2221Y627D02*
X2328Y627D01*
X2742Y627D02*
X2849Y627D01*
X3220Y627D02*
X3328Y627D01*
X743Y626D02*
X848Y626D01*
X1221Y626D02*
X1327Y626D01*
X1743Y626D02*
X1848Y626D01*
X2221Y626D02*
X2327Y626D01*
X2743Y626D02*
X2848Y626D01*
X3221Y626D02*
X3327Y626D01*
X744Y625D02*
X848Y625D01*
X1222Y625D02*
X1326Y625D01*
X1744Y625D02*
X1848Y625D01*
X2222Y625D02*
X2326Y625D01*
X2744Y625D02*
X2847Y625D01*
X3222Y625D02*
X3326Y625D01*
X745Y624D02*
X847Y624D01*
X1223Y624D02*
X1325Y624D01*
X1745Y624D02*
X1847Y624D01*
X2223Y624D02*
X2325Y624D01*
X2745Y624D02*
X2847Y624D01*
X3223Y624D02*
X3325Y624D01*
X746Y623D02*
X846Y623D01*
X1224Y623D02*
X1324Y623D01*
X1746Y623D02*
X1846Y623D01*
X2224Y623D02*
X2324Y623D01*
X2746Y623D02*
X2846Y623D01*
X3224Y623D02*
X3324Y623D01*
X747Y622D02*
X845Y622D01*
X1225Y622D02*
X1323Y622D01*
X1747Y622D02*
X1845Y622D01*
X2225Y622D02*
X2323Y622D01*
X2747Y622D02*
X2845Y622D01*
X3225Y622D02*
X3323Y622D01*
X748Y621D02*
X844Y621D01*
X1226Y621D02*
X1322Y621D01*
X1748Y621D02*
X1844Y621D01*
X2226Y621D02*
X2322Y621D01*
X2748Y621D02*
X2844Y621D01*
X3226Y621D02*
X3322Y621D01*
X749Y620D02*
X843Y620D01*
X1227Y620D02*
X1321Y620D01*
X1749Y620D02*
X1843Y620D01*
X2227Y620D02*
X2321Y620D01*
X2749Y620D02*
X2843Y620D01*
X3227Y620D02*
X3321Y620D01*
X750Y619D02*
X842Y619D01*
X1228Y619D02*
X1320Y619D01*
X1750Y619D02*
X1842Y619D01*
X2228Y619D02*
X2320Y619D01*
X2750Y619D02*
X2841Y619D01*
X3228Y619D02*
X3320Y619D01*
X751Y618D02*
X840Y618D01*
X1229Y618D02*
X1319Y618D01*
X1751Y618D02*
X1840Y618D01*
X2229Y618D02*
X2319Y618D01*
X2751Y618D02*
X2840Y618D01*
X3229Y618D02*
X3319Y618D01*
X752Y617D02*
X839Y617D01*
X1231Y617D02*
X1318Y617D01*
X1752Y617D02*
X1839Y617D01*
X2231Y617D02*
X2317Y617D01*
X2752Y617D02*
X2839Y617D01*
X3231Y617D02*
X3317Y617D01*
X754Y616D02*
X838Y616D01*
X1232Y616D02*
X1316Y616D01*
X1754Y616D02*
X1838Y616D01*
X2232Y616D02*
X2316Y616D01*
X2754Y616D02*
X2838Y616D01*
X3232Y616D02*
X3316Y616D01*
X755Y615D02*
X836Y615D01*
X1233Y615D02*
X1315Y615D01*
X1755Y615D02*
X1836Y615D01*
X2233Y615D02*
X2315Y615D01*
X2755Y615D02*
X2836Y615D01*
X3233Y615D02*
X3315Y615D01*
X756Y614D02*
X835Y614D01*
X1235Y614D02*
X1313Y614D01*
X1756Y614D02*
X1835Y614D01*
X2235Y614D02*
X2313Y614D01*
X2756Y614D02*
X2835Y614D01*
X3235Y614D02*
X3313Y614D01*
X758Y613D02*
X834Y613D01*
X1236Y613D02*
X1312Y613D01*
X1758Y613D02*
X1834Y613D01*
X2236Y613D02*
X2312Y613D01*
X2758Y613D02*
X2834Y613D01*
X3236Y613D02*
X3312Y613D01*
X759Y612D02*
X832Y612D01*
X1238Y612D02*
X1310Y612D01*
X1759Y612D02*
X1832Y612D01*
X2238Y612D02*
X2310Y612D01*
X2759Y612D02*
X2832Y612D01*
X3238Y612D02*
X3310Y612D01*
X761Y611D02*
X830Y611D01*
X1239Y611D02*
X1309Y611D01*
X1761Y611D02*
X1830Y611D01*
X2239Y611D02*
X2309Y611D01*
X2761Y611D02*
X2830Y611D01*
X3239Y611D02*
X3309Y611D01*
X763Y610D02*
X829Y610D01*
X1241Y610D02*
X1307Y610D01*
X1763Y610D02*
X1829Y610D01*
X2241Y610D02*
X2307Y610D01*
X2763Y610D02*
X2829Y610D01*
X3241Y610D02*
X3307Y610D01*
X765Y609D02*
X827Y609D01*
X1243Y609D02*
X1305Y609D01*
X1765Y609D02*
X1827Y609D01*
X2243Y609D02*
X2305Y609D01*
X2765Y609D02*
X2827Y609D01*
X3243Y609D02*
X3305Y609D01*
X767Y608D02*
X825Y608D01*
X1245Y608D02*
X1303Y608D01*
X1767Y608D02*
X1825Y608D01*
X2245Y608D02*
X2303Y608D01*
X2767Y608D02*
X2825Y608D01*
X3245Y608D02*
X3303Y608D01*
X769Y607D02*
X823Y607D01*
X1247Y607D02*
X1301Y607D01*
X1769Y607D02*
X1823Y607D01*
X2247Y607D02*
X2301Y607D01*
X2769Y607D02*
X2823Y607D01*
X3247Y607D02*
X3301Y607D01*
X771Y606D02*
X820Y606D01*
X1250Y606D02*
X1298Y606D01*
X1771Y606D02*
X1820Y606D01*
X2250Y606D02*
X2298Y606D01*
X2771Y606D02*
X2820Y606D01*
X3250Y606D02*
X3298Y606D01*
X774Y605D02*
X817Y605D01*
X1253Y605D02*
X1296Y605D01*
X1774Y605D02*
X1817Y605D01*
X2253Y605D02*
X2296Y605D01*
X2774Y605D02*
X2817Y605D01*
X3253Y605D02*
X3296Y605D01*
X778Y604D02*
X814Y604D01*
X1256Y604D02*
X1292Y604D01*
X1778Y604D02*
X1814Y604D01*
X2256Y604D02*
X2292Y604D01*
X2778Y604D02*
X2814Y604D01*
X3256Y604D02*
X3292Y604D01*
X782Y603D02*
X810Y603D01*
X1260Y603D02*
X1288Y603D01*
X1782Y603D02*
X1810Y603D01*
X2260Y603D02*
X2288Y603D01*
X2782Y603D02*
X2810Y603D01*
X3260Y603D02*
X3288Y603D01*
X788Y602D02*
X804Y602D01*
X1266Y602D02*
X1282Y602D01*
X1788Y602D02*
X1804Y602D01*
X2266Y602D02*
X2282Y602D01*
X2788Y602D02*
X2804Y602D01*
X3266Y602D02*
X3282Y602D01*
X413Y249D02*
X496Y249D01*
X413Y248D02*
X496Y248D01*
X413Y247D02*
X496Y247D01*
X413Y246D02*
X496Y246D01*
X413Y245D02*
X496Y245D01*
X413Y244D02*
X496Y244D01*
X413Y243D02*
X496Y243D01*
X413Y242D02*
X496Y242D01*
X413Y241D02*
X496Y241D01*
X413Y240D02*
X496Y240D01*
X413Y239D02*
X496Y239D01*
X413Y238D02*
X496Y238D01*
X413Y237D02*
X496Y237D01*
X413Y236D02*
X496Y236D01*
X413Y235D02*
X496Y235D01*
X413Y234D02*
X496Y234D01*
X413Y233D02*
X496Y233D01*
X413Y232D02*
X496Y232D01*
X413Y231D02*
X496Y231D01*
X413Y230D02*
X496Y230D01*
X413Y229D02*
X496Y229D01*
X413Y228D02*
X496Y228D01*
X413Y227D02*
X496Y227D01*
X413Y226D02*
X496Y226D01*
X413Y225D02*
X496Y225D01*
X413Y224D02*
X496Y224D01*
X413Y223D02*
X496Y223D01*
X413Y222D02*
X452Y222D01*
X458Y222D02*
X496Y222D01*
X413Y221D02*
X448Y221D01*
X461Y221D02*
X496Y221D01*
X413Y220D02*
X447Y220D01*
X463Y220D02*
X496Y220D01*
X413Y219D02*
X445Y219D01*
X464Y219D02*
X496Y219D01*
X413Y218D02*
X444Y218D01*
X466Y218D02*
X496Y218D01*
X413Y217D02*
X443Y217D01*
X466Y217D02*
X496Y217D01*
X413Y216D02*
X442Y216D01*
X467Y216D02*
X496Y216D01*
X413Y215D02*
X442Y215D01*
X468Y215D02*
X496Y215D01*
X413Y214D02*
X441Y214D01*
X469Y214D02*
X496Y214D01*
X413Y213D02*
X441Y213D01*
X469Y213D02*
X496Y213D01*
X413Y212D02*
X440Y212D01*
X469Y212D02*
X496Y212D01*
X413Y211D02*
X440Y211D01*
X470Y211D02*
X496Y211D01*
X413Y210D02*
X440Y210D01*
X470Y210D02*
X496Y210D01*
X413Y209D02*
X440Y209D01*
X470Y209D02*
X496Y209D01*
X413Y208D02*
X440Y208D01*
X470Y208D02*
X496Y208D01*
X413Y207D02*
X440Y207D01*
X470Y207D02*
X496Y207D01*
X413Y206D02*
X440Y206D01*
X470Y206D02*
X496Y206D01*
X413Y205D02*
X440Y205D01*
X470Y205D02*
X496Y205D01*
X413Y204D02*
X440Y204D01*
X470Y204D02*
X496Y204D01*
X413Y203D02*
X440Y203D01*
X469Y203D02*
X496Y203D01*
X413Y202D02*
X441Y202D01*
X469Y202D02*
X496Y202D01*
X413Y201D02*
X441Y201D01*
X469Y201D02*
X496Y201D01*
X413Y200D02*
X442Y200D01*
X468Y200D02*
X496Y200D01*
X413Y199D02*
X442Y199D01*
X467Y199D02*
X496Y199D01*
X413Y198D02*
X443Y198D01*
X466Y198D02*
X496Y198D01*
X413Y197D02*
X444Y197D01*
X466Y197D02*
X496Y197D01*
X413Y196D02*
X445Y196D01*
X464Y196D02*
X496Y196D01*
X413Y195D02*
X447Y195D01*
X463Y195D02*
X496Y195D01*
X413Y194D02*
X448Y194D01*
X461Y194D02*
X496Y194D01*
X413Y193D02*
X452Y193D01*
X457Y193D02*
X496Y193D01*
X413Y192D02*
X496Y192D01*
X413Y191D02*
X496Y191D01*
X413Y190D02*
X496Y190D01*
X413Y189D02*
X496Y189D01*
X413Y188D02*
X496Y188D01*
X413Y187D02*
X496Y187D01*
X413Y186D02*
X496Y186D01*
X413Y185D02*
X496Y185D01*
X413Y184D02*
X496Y184D01*
X413Y183D02*
X496Y183D01*
X413Y182D02*
X496Y182D01*
X413Y181D02*
X496Y181D01*
X413Y180D02*
X496Y180D01*
X413Y179D02*
X496Y179D01*
X413Y178D02*
X496Y178D01*
X413Y177D02*
X496Y177D01*
X413Y176D02*
X496Y176D01*
X413Y175D02*
X496Y175D01*
X413Y174D02*
X496Y174D01*
X413Y173D02*
X496Y173D01*
X413Y172D02*
X496Y172D01*
X413Y171D02*
X496Y171D01*
X413Y170D02*
X496Y170D01*
X413Y169D02*
X496Y169D01*
X413Y168D02*
X496Y168D01*
X413Y167D02*
X496Y167D01*
X413Y166D02*
X496Y166D01*
D02*
G04 End of Mask0*
M02*