G04 MADE WITH FRITZING*
G04 WWW.FRITZING.ORG*
G04 DOUBLE SIDED*
G04 HOLES PLATED*
G04 CONTOUR ON CENTER OF CONTOUR VECTOR*
%ASAXBY*%
%FSLAX23Y23*%
%MOIN*%
%OFA0B0*%
%SFA1.0B1.0*%
%ADD10C,0.074472*%
%ADD11C,0.075000*%
%ADD12C,0.129921*%
%ADD13C,0.099055*%
%ADD14C,0.080000*%
%ADD15C,0.074000*%
%ADD16C,0.082000*%
%ADD17C,0.078000*%
%ADD18C,0.039370*%
%ADD19R,0.074108X0.074472*%
%ADD20R,0.075000X0.075000*%
%ADD21R,0.099055X0.099055*%
%ADD22R,0.080000X0.080000*%
%ADD23R,0.082000X0.082000*%
%ADD24R,0.078000X0.078000*%
%ADD25C,0.024000*%
%ADD26C,0.048000*%
%ADD27C,0.012000*%
%ADD28C,0.016000*%
%ADD29R,0.001000X0.001000*%
%LNCOPPER0*%
G90*
G70*
G54D10*
X3455Y3506D03*
X3555Y3506D03*
X3455Y3606D03*
X3555Y3606D03*
X3455Y3707D03*
X3555Y3707D03*
X3455Y3808D03*
X3555Y3808D03*
X3455Y1506D03*
X3555Y1506D03*
X3455Y1606D03*
X3555Y1606D03*
X3455Y1707D03*
X3555Y1707D03*
X3455Y1808D03*
X3555Y1808D03*
G54D11*
X2955Y1707D03*
X2955Y1407D03*
X2855Y1707D03*
X2855Y1407D03*
X2755Y1707D03*
X2755Y1407D03*
X2655Y1707D03*
X2655Y1407D03*
X2555Y1707D03*
X2555Y1407D03*
X2455Y1707D03*
X2455Y1407D03*
X2355Y1707D03*
X2355Y1407D03*
X2255Y1707D03*
X2255Y1407D03*
X2955Y3707D03*
X2955Y3407D03*
X2855Y3707D03*
X2855Y3407D03*
X2755Y3707D03*
X2755Y3407D03*
X2655Y3707D03*
X2655Y3407D03*
X2555Y3707D03*
X2555Y3407D03*
X2455Y3707D03*
X2455Y3407D03*
X2355Y3707D03*
X2355Y3407D03*
X2255Y3707D03*
X2255Y3407D03*
X1855Y1707D03*
X1855Y1407D03*
X1755Y1707D03*
X1755Y1407D03*
X1655Y1707D03*
X1655Y1407D03*
X1555Y1707D03*
X1555Y1407D03*
X1455Y1707D03*
X1455Y1407D03*
X1355Y1707D03*
X1355Y1407D03*
X1255Y1707D03*
X1255Y1407D03*
X1155Y1707D03*
X1155Y1407D03*
X1855Y3707D03*
X1855Y3407D03*
X1755Y3707D03*
X1755Y3407D03*
X1655Y3707D03*
X1655Y3407D03*
X1555Y3707D03*
X1555Y3407D03*
X1455Y3707D03*
X1455Y3407D03*
X1355Y3707D03*
X1355Y3407D03*
X1255Y3707D03*
X1255Y3407D03*
X1155Y3707D03*
X1155Y3407D03*
G54D12*
X3355Y907D03*
X3275Y1143D03*
X2796Y1143D03*
X3275Y671D03*
X2796Y671D03*
X1355Y907D03*
X1275Y1143D03*
X796Y1143D03*
X1275Y671D03*
X796Y671D03*
X2355Y907D03*
X2275Y1143D03*
X1796Y1143D03*
X2275Y671D03*
X1796Y671D03*
X1355Y2907D03*
X1275Y3143D03*
X796Y3143D03*
X1275Y2671D03*
X796Y2671D03*
X2355Y2907D03*
X2275Y3143D03*
X1796Y3143D03*
X2275Y2671D03*
X1796Y2671D03*
X3355Y2907D03*
X3275Y3143D03*
X2796Y3143D03*
X3275Y2671D03*
X2796Y2671D03*
G54D13*
X2862Y207D03*
X3059Y207D03*
X3255Y207D03*
X1862Y207D03*
X2059Y207D03*
X2255Y207D03*
X862Y207D03*
X1059Y207D03*
X1255Y207D03*
X1862Y2207D03*
X2059Y2207D03*
X2255Y2207D03*
X862Y2207D03*
X1059Y2207D03*
X1255Y2207D03*
X2862Y2207D03*
X3059Y2207D03*
X3255Y2207D03*
G54D14*
X355Y1807D03*
X355Y1610D03*
X355Y3807D03*
X355Y3610D03*
G54D15*
X455Y2207D03*
X355Y2207D03*
X255Y2207D03*
X455Y207D03*
X355Y207D03*
X255Y207D03*
G54D11*
X355Y707D03*
X355Y407D03*
X455Y707D03*
X455Y407D03*
X455Y2707D03*
X455Y2407D03*
X355Y2707D03*
X355Y2407D03*
G54D16*
X155Y1007D03*
X453Y1007D03*
X155Y855D03*
X453Y855D03*
X155Y2855D03*
X453Y2855D03*
X155Y3007D03*
X453Y3007D03*
G54D17*
X355Y1422D03*
X355Y1322D03*
X355Y1222D03*
X355Y3422D03*
X355Y3322D03*
X355Y3222D03*
X155Y1307D03*
X155Y1207D03*
X155Y3307D03*
X155Y3207D03*
X3305Y3407D03*
X3205Y3407D03*
X3105Y3407D03*
X3305Y1407D03*
X3205Y1407D03*
X3105Y1407D03*
G54D18*
X3155Y1707D03*
X3155Y3707D03*
G54D19*
X3455Y3506D03*
X3455Y3808D03*
X3455Y1506D03*
X3455Y1808D03*
G54D20*
X2955Y1707D03*
X2955Y3707D03*
X1855Y1707D03*
X1855Y3707D03*
G54D21*
X2862Y207D03*
X1862Y207D03*
X862Y207D03*
X1862Y2207D03*
X862Y2207D03*
X2862Y2207D03*
G54D22*
X355Y1807D03*
X355Y3807D03*
G54D23*
X154Y1007D03*
X154Y855D03*
X154Y2855D03*
X154Y3007D03*
G54D24*
X355Y1422D03*
X355Y3422D03*
X3305Y3407D03*
X3305Y1407D03*
G54D25*
X1555Y3500D02*
X1555Y3436D01*
D02*
X1555Y1500D02*
X1555Y1436D01*
D02*
X1555Y1678D02*
X1555Y1500D01*
D02*
X1555Y3678D02*
X1555Y3500D01*
D02*
X1155Y1678D02*
X1155Y1436D01*
D02*
X1155Y3678D02*
X1155Y3436D01*
D02*
X1855Y3678D02*
X1855Y3436D01*
D02*
X1855Y1678D02*
X1855Y1436D01*
D02*
X2955Y1807D02*
X2255Y1807D01*
D02*
X2955Y3807D02*
X2255Y3807D01*
D02*
X2255Y3807D02*
X2255Y3736D01*
D02*
X2255Y1807D02*
X2255Y1736D01*
D02*
X2955Y1736D02*
X2955Y1807D01*
D02*
X2955Y3736D02*
X2955Y3807D01*
D02*
X2955Y1436D02*
X2955Y1678D01*
D02*
X2955Y3436D02*
X2955Y3678D01*
D02*
X2655Y3678D02*
X2655Y3436D01*
D02*
X2655Y1678D02*
X2655Y1436D01*
G54D26*
D02*
X3058Y259D02*
X3055Y907D01*
D02*
X3058Y2248D02*
X3055Y2907D01*
D02*
X3055Y907D02*
X3308Y907D01*
D02*
X3055Y2907D02*
X3319Y2907D01*
D02*
X2058Y259D02*
X2055Y907D01*
D02*
X2058Y2248D02*
X2055Y2907D01*
D02*
X2055Y907D02*
X2308Y907D01*
D02*
X2055Y2907D02*
X2319Y2907D01*
D02*
X1058Y2248D02*
X1055Y2907D01*
D02*
X1058Y259D02*
X1055Y907D01*
D02*
X1055Y907D02*
X1308Y907D01*
D02*
X1055Y2907D02*
X1319Y2907D01*
G54D27*
D02*
X1255Y3276D02*
X1255Y3307D01*
D02*
X1255Y1276D02*
X1255Y1307D01*
D02*
X1255Y1307D02*
X2055Y1307D01*
D02*
X1255Y3307D02*
X2055Y3307D01*
D02*
X1270Y1174D02*
X1255Y1276D01*
D02*
X1270Y3174D02*
X1255Y3276D01*
D02*
X2055Y3307D02*
X2055Y3807D01*
D02*
X2055Y1307D02*
X2055Y1807D01*
D02*
X2055Y1807D02*
X1655Y1807D01*
D02*
X2055Y3807D02*
X1655Y3807D01*
D02*
X1655Y1807D02*
X1655Y1730D01*
D02*
X1655Y3807D02*
X1655Y3730D01*
G54D28*
D02*
X2255Y1307D02*
X2435Y1397D01*
D02*
X2255Y3307D02*
X2435Y3397D01*
D02*
X2255Y1207D02*
X2255Y1307D01*
D02*
X2255Y3207D02*
X2255Y3307D01*
D02*
X2266Y3173D02*
X2255Y3207D01*
D02*
X2266Y1173D02*
X2255Y1207D01*
D02*
X2855Y3607D02*
X2755Y3707D01*
D02*
X2755Y3307D02*
X2855Y3507D01*
D02*
X2855Y3507D02*
X2855Y3607D01*
D02*
X3255Y3307D02*
X2755Y3307D01*
D02*
X3270Y3180D02*
X3255Y3307D01*
D02*
X3555Y707D02*
X3555Y1307D01*
D02*
X3555Y2707D02*
X3555Y3307D01*
D02*
X3555Y3307D02*
X3469Y3478D01*
D02*
X3555Y1307D02*
X3467Y1483D01*
D02*
X3306Y675D02*
X3555Y707D01*
D02*
X3311Y2675D02*
X3555Y2707D01*
D02*
X2555Y707D02*
X2555Y1384D01*
D02*
X2555Y2707D02*
X2555Y3378D01*
D02*
X2306Y675D02*
X2555Y707D01*
D02*
X2311Y2675D02*
X2555Y2707D01*
D02*
X3255Y1607D02*
X3211Y1431D01*
D02*
X3255Y3607D02*
X3213Y3436D01*
D02*
X3424Y3606D02*
X3255Y3607D01*
D02*
X3430Y1606D02*
X3255Y1607D01*
D02*
X3153Y1694D02*
X3109Y1431D01*
D02*
X3152Y3688D02*
X3110Y3437D01*
D02*
X3255Y1807D02*
X3155Y1807D01*
D02*
X3155Y1807D02*
X3155Y1720D01*
D02*
X3530Y1808D02*
X3255Y1807D01*
D02*
X3155Y3807D02*
X3155Y3726D01*
D02*
X3524Y3808D02*
X3255Y3807D01*
D02*
X3255Y3807D02*
X3155Y3807D01*
D02*
X3429Y3489D02*
X3331Y3424D01*
D02*
X3434Y1492D02*
X3326Y1421D01*
G54D29*
X788Y3208D02*
X804Y3208D01*
X1266Y3208D02*
X1282Y3208D01*
X1788Y3208D02*
X1804Y3208D01*
X2266Y3208D02*
X2282Y3208D01*
X2788Y3208D02*
X2803Y3208D01*
X3266Y3208D02*
X3282Y3208D01*
X782Y3207D02*
X809Y3207D01*
X1261Y3207D02*
X1288Y3207D01*
X1782Y3207D02*
X1809Y3207D01*
X2261Y3207D02*
X2288Y3207D01*
X2782Y3207D02*
X2809Y3207D01*
X3260Y3207D02*
X3288Y3207D01*
X778Y3206D02*
X813Y3206D01*
X1257Y3206D02*
X1292Y3206D01*
X1778Y3206D02*
X1813Y3206D01*
X2257Y3206D02*
X2292Y3206D01*
X2778Y3206D02*
X2813Y3206D01*
X3257Y3206D02*
X3291Y3206D01*
X775Y3205D02*
X816Y3205D01*
X1253Y3205D02*
X1295Y3205D01*
X1775Y3205D02*
X1816Y3205D01*
X2253Y3205D02*
X2295Y3205D01*
X2775Y3205D02*
X2816Y3205D01*
X3253Y3205D02*
X3295Y3205D01*
X772Y3204D02*
X819Y3204D01*
X1251Y3204D02*
X1298Y3204D01*
X1772Y3204D02*
X1819Y3204D01*
X2251Y3204D02*
X2298Y3204D01*
X2772Y3204D02*
X2819Y3204D01*
X3251Y3204D02*
X3298Y3204D01*
X770Y3203D02*
X822Y3203D01*
X1248Y3203D02*
X1300Y3203D01*
X1770Y3203D02*
X1822Y3203D01*
X2248Y3203D02*
X2300Y3203D01*
X2770Y3203D02*
X2822Y3203D01*
X3248Y3203D02*
X3300Y3203D01*
X768Y3202D02*
X824Y3202D01*
X1246Y3202D02*
X1302Y3202D01*
X1768Y3202D02*
X1824Y3202D01*
X2246Y3202D02*
X2302Y3202D01*
X2768Y3202D02*
X2824Y3202D01*
X3246Y3202D02*
X3302Y3202D01*
X766Y3201D02*
X826Y3201D01*
X1244Y3201D02*
X1304Y3201D01*
X1766Y3201D02*
X1826Y3201D01*
X2244Y3201D02*
X2304Y3201D01*
X2766Y3201D02*
X2826Y3201D01*
X3244Y3201D02*
X3304Y3201D01*
X764Y3200D02*
X827Y3200D01*
X1242Y3200D02*
X1306Y3200D01*
X1764Y3200D02*
X1827Y3200D01*
X2242Y3200D02*
X2306Y3200D01*
X2764Y3200D02*
X2827Y3200D01*
X3242Y3200D02*
X3306Y3200D01*
X762Y3199D02*
X829Y3199D01*
X1241Y3199D02*
X1307Y3199D01*
X1762Y3199D02*
X1829Y3199D01*
X2241Y3199D02*
X2307Y3199D01*
X2762Y3199D02*
X2829Y3199D01*
X3241Y3199D02*
X3307Y3199D01*
X761Y3198D02*
X831Y3198D01*
X1239Y3198D02*
X1309Y3198D01*
X1761Y3198D02*
X1831Y3198D01*
X2239Y3198D02*
X2309Y3198D01*
X2761Y3198D02*
X2831Y3198D01*
X3239Y3198D02*
X3309Y3198D01*
X759Y3197D02*
X832Y3197D01*
X1238Y3197D02*
X1311Y3197D01*
X1759Y3197D02*
X1832Y3197D01*
X2238Y3197D02*
X2310Y3197D01*
X2759Y3197D02*
X2832Y3197D01*
X3238Y3197D02*
X3310Y3197D01*
X758Y3196D02*
X834Y3196D01*
X1236Y3196D02*
X1312Y3196D01*
X1758Y3196D02*
X1834Y3196D01*
X2236Y3196D02*
X2312Y3196D01*
X2758Y3196D02*
X2833Y3196D01*
X3236Y3196D02*
X3312Y3196D01*
X757Y3195D02*
X835Y3195D01*
X1235Y3195D02*
X1313Y3195D01*
X1757Y3195D02*
X1835Y3195D01*
X2235Y3195D02*
X2313Y3195D01*
X2757Y3195D02*
X2835Y3195D01*
X3235Y3195D02*
X3313Y3195D01*
X755Y3194D02*
X836Y3194D01*
X1234Y3194D02*
X1315Y3194D01*
X1755Y3194D02*
X1836Y3194D01*
X2234Y3194D02*
X2315Y3194D01*
X2755Y3194D02*
X2836Y3194D01*
X3234Y3194D02*
X3314Y3194D01*
X754Y3193D02*
X837Y3193D01*
X1232Y3193D02*
X1316Y3193D01*
X1754Y3193D02*
X1837Y3193D01*
X2232Y3193D02*
X2316Y3193D01*
X2754Y3193D02*
X2837Y3193D01*
X3232Y3193D02*
X3316Y3193D01*
X753Y3192D02*
X839Y3192D01*
X1231Y3192D02*
X1317Y3192D01*
X1753Y3192D02*
X1839Y3192D01*
X2231Y3192D02*
X2317Y3192D01*
X2753Y3192D02*
X2838Y3192D01*
X3231Y3192D02*
X3317Y3192D01*
X752Y3191D02*
X840Y3191D01*
X1230Y3191D02*
X1318Y3191D01*
X1752Y3191D02*
X1840Y3191D01*
X2230Y3191D02*
X2318Y3191D01*
X2752Y3191D02*
X2840Y3191D01*
X3230Y3191D02*
X3318Y3191D01*
X751Y3190D02*
X841Y3190D01*
X1229Y3190D02*
X1319Y3190D01*
X1751Y3190D02*
X1841Y3190D01*
X2229Y3190D02*
X2319Y3190D01*
X2751Y3190D02*
X2841Y3190D01*
X3229Y3190D02*
X3319Y3190D01*
X750Y3189D02*
X842Y3189D01*
X1228Y3189D02*
X1320Y3189D01*
X1750Y3189D02*
X1842Y3189D01*
X2228Y3189D02*
X2320Y3189D01*
X2750Y3189D02*
X2842Y3189D01*
X3228Y3189D02*
X3320Y3189D01*
X749Y3188D02*
X843Y3188D01*
X1227Y3188D02*
X1321Y3188D01*
X1749Y3188D02*
X1843Y3188D01*
X2227Y3188D02*
X2321Y3188D01*
X2749Y3188D02*
X2843Y3188D01*
X3227Y3188D02*
X3321Y3188D01*
X748Y3187D02*
X844Y3187D01*
X1226Y3187D02*
X1322Y3187D01*
X1748Y3187D02*
X1844Y3187D01*
X2226Y3187D02*
X2322Y3187D01*
X2748Y3187D02*
X2843Y3187D01*
X3226Y3187D02*
X3322Y3187D01*
X747Y3186D02*
X844Y3186D01*
X1225Y3186D02*
X1323Y3186D01*
X1747Y3186D02*
X1844Y3186D01*
X2225Y3186D02*
X2323Y3186D01*
X2747Y3186D02*
X2844Y3186D01*
X3225Y3186D02*
X3323Y3186D01*
X746Y3185D02*
X845Y3185D01*
X1225Y3185D02*
X1324Y3185D01*
X1746Y3185D02*
X1845Y3185D01*
X2225Y3185D02*
X2324Y3185D01*
X2746Y3185D02*
X2845Y3185D01*
X3224Y3185D02*
X3324Y3185D01*
X745Y3184D02*
X846Y3184D01*
X1224Y3184D02*
X1324Y3184D01*
X1745Y3184D02*
X1846Y3184D01*
X2224Y3184D02*
X2324Y3184D01*
X2745Y3184D02*
X2846Y3184D01*
X3224Y3184D02*
X3324Y3184D01*
X745Y3183D02*
X847Y3183D01*
X1223Y3183D02*
X1325Y3183D01*
X1745Y3183D02*
X1847Y3183D01*
X2223Y3183D02*
X2325Y3183D01*
X2745Y3183D02*
X2847Y3183D01*
X3223Y3183D02*
X3325Y3183D01*
X744Y3182D02*
X848Y3182D01*
X1222Y3182D02*
X1326Y3182D01*
X1744Y3182D02*
X1847Y3182D01*
X2222Y3182D02*
X2326Y3182D01*
X2744Y3182D02*
X2847Y3182D01*
X3222Y3182D02*
X3326Y3182D01*
X743Y3181D02*
X848Y3181D01*
X1222Y3181D02*
X1327Y3181D01*
X1743Y3181D02*
X1848Y3181D01*
X2222Y3181D02*
X2327Y3181D01*
X2743Y3181D02*
X2848Y3181D01*
X3221Y3181D02*
X3327Y3181D01*
X743Y3180D02*
X849Y3180D01*
X1221Y3180D02*
X1327Y3180D01*
X1742Y3180D02*
X1849Y3180D01*
X2221Y3180D02*
X2327Y3180D01*
X2742Y3180D02*
X2849Y3180D01*
X3221Y3180D02*
X3327Y3180D01*
X742Y3179D02*
X850Y3179D01*
X1220Y3179D02*
X1328Y3179D01*
X1742Y3179D02*
X1850Y3179D01*
X2220Y3179D02*
X2328Y3179D01*
X2742Y3179D02*
X2850Y3179D01*
X3220Y3179D02*
X3328Y3179D01*
X741Y3178D02*
X850Y3178D01*
X1220Y3178D02*
X1329Y3178D01*
X1741Y3178D02*
X1850Y3178D01*
X2220Y3178D02*
X2329Y3178D01*
X2741Y3178D02*
X2850Y3178D01*
X3220Y3178D02*
X3328Y3178D01*
X741Y3177D02*
X851Y3177D01*
X1219Y3177D02*
X1329Y3177D01*
X1741Y3177D02*
X1851Y3177D01*
X2219Y3177D02*
X2329Y3177D01*
X2741Y3177D02*
X2851Y3177D01*
X3219Y3177D02*
X3329Y3177D01*
X740Y3176D02*
X851Y3176D01*
X1218Y3176D02*
X1330Y3176D01*
X1740Y3176D02*
X1851Y3176D01*
X2218Y3176D02*
X2330Y3176D01*
X2740Y3176D02*
X2851Y3176D01*
X3218Y3176D02*
X3330Y3176D01*
X739Y3175D02*
X852Y3175D01*
X1218Y3175D02*
X1330Y3175D01*
X1739Y3175D02*
X1852Y3175D01*
X2218Y3175D02*
X2330Y3175D01*
X2739Y3175D02*
X2852Y3175D01*
X3218Y3175D02*
X3330Y3175D01*
X739Y3174D02*
X853Y3174D01*
X1217Y3174D02*
X1331Y3174D01*
X1739Y3174D02*
X1853Y3174D01*
X2217Y3174D02*
X2331Y3174D01*
X2739Y3174D02*
X2853Y3174D01*
X3217Y3174D02*
X3331Y3174D01*
X738Y3173D02*
X853Y3173D01*
X1217Y3173D02*
X1331Y3173D01*
X1738Y3173D02*
X1853Y3173D01*
X2217Y3173D02*
X2331Y3173D01*
X2738Y3173D02*
X2853Y3173D01*
X3217Y3173D02*
X3331Y3173D01*
X738Y3172D02*
X854Y3172D01*
X1216Y3172D02*
X1332Y3172D01*
X1738Y3172D02*
X1854Y3172D01*
X2216Y3172D02*
X2332Y3172D01*
X2738Y3172D02*
X2854Y3172D01*
X3216Y3172D02*
X3332Y3172D01*
X737Y3171D02*
X854Y3171D01*
X1216Y3171D02*
X1332Y3171D01*
X1737Y3171D02*
X1854Y3171D01*
X2216Y3171D02*
X2332Y3171D01*
X2737Y3171D02*
X2854Y3171D01*
X3216Y3171D02*
X3332Y3171D01*
X737Y3170D02*
X855Y3170D01*
X1215Y3170D02*
X1333Y3170D01*
X1737Y3170D02*
X1855Y3170D01*
X2215Y3170D02*
X2333Y3170D01*
X2737Y3170D02*
X2855Y3170D01*
X3215Y3170D02*
X3333Y3170D01*
X736Y3169D02*
X791Y3169D01*
X801Y3169D02*
X855Y3169D01*
X1215Y3169D02*
X1269Y3169D01*
X1279Y3169D02*
X1333Y3169D01*
X1736Y3169D02*
X1791Y3169D01*
X1801Y3169D02*
X1855Y3169D01*
X2215Y3169D02*
X2269Y3169D01*
X2279Y3169D02*
X2333Y3169D01*
X2736Y3169D02*
X2791Y3169D01*
X2801Y3169D02*
X2855Y3169D01*
X3215Y3169D02*
X3269Y3169D01*
X3279Y3169D02*
X3333Y3169D01*
X736Y3168D02*
X787Y3168D01*
X804Y3168D02*
X855Y3168D01*
X1214Y3168D02*
X1265Y3168D01*
X1283Y3168D02*
X1334Y3168D01*
X1736Y3168D02*
X1787Y3168D01*
X1804Y3168D02*
X1855Y3168D01*
X2214Y3168D02*
X2265Y3168D01*
X2283Y3168D02*
X2334Y3168D01*
X2736Y3168D02*
X2787Y3168D01*
X2804Y3168D02*
X2855Y3168D01*
X3214Y3168D02*
X3265Y3168D01*
X3283Y3168D02*
X3334Y3168D01*
X736Y3167D02*
X785Y3167D01*
X807Y3167D02*
X856Y3167D01*
X1214Y3167D02*
X1263Y3167D01*
X1285Y3167D02*
X1334Y3167D01*
X1736Y3167D02*
X1785Y3167D01*
X1807Y3167D02*
X1856Y3167D01*
X2214Y3167D02*
X2263Y3167D01*
X2285Y3167D02*
X2334Y3167D01*
X2736Y3167D02*
X2785Y3167D01*
X2807Y3167D02*
X2856Y3167D01*
X3214Y3167D02*
X3263Y3167D01*
X3285Y3167D02*
X3334Y3167D01*
X735Y3166D02*
X783Y3166D01*
X809Y3166D02*
X856Y3166D01*
X1214Y3166D02*
X1261Y3166D01*
X1287Y3166D02*
X1335Y3166D01*
X1735Y3166D02*
X1783Y3166D01*
X1809Y3166D02*
X1856Y3166D01*
X2214Y3166D02*
X2261Y3166D01*
X2287Y3166D02*
X2334Y3166D01*
X2735Y3166D02*
X2783Y3166D01*
X2809Y3166D02*
X2856Y3166D01*
X3214Y3166D02*
X3261Y3166D01*
X3287Y3166D02*
X3334Y3166D01*
X735Y3165D02*
X781Y3165D01*
X811Y3165D02*
X857Y3165D01*
X1213Y3165D02*
X1259Y3165D01*
X1289Y3165D02*
X1335Y3165D01*
X1735Y3165D02*
X1781Y3165D01*
X1811Y3165D02*
X1856Y3165D01*
X2213Y3165D02*
X2259Y3165D01*
X2289Y3165D02*
X2335Y3165D01*
X2735Y3165D02*
X2781Y3165D01*
X2811Y3165D02*
X2856Y3165D01*
X3213Y3165D02*
X3259Y3165D01*
X3289Y3165D02*
X3335Y3165D01*
X735Y3164D02*
X780Y3164D01*
X812Y3164D02*
X857Y3164D01*
X1213Y3164D02*
X1258Y3164D01*
X1290Y3164D02*
X1335Y3164D01*
X1735Y3164D02*
X1780Y3164D01*
X1812Y3164D02*
X1857Y3164D01*
X2213Y3164D02*
X2258Y3164D01*
X2290Y3164D02*
X2335Y3164D01*
X2735Y3164D02*
X2780Y3164D01*
X2812Y3164D02*
X2857Y3164D01*
X3213Y3164D02*
X3258Y3164D01*
X3290Y3164D02*
X3335Y3164D01*
X734Y3163D02*
X779Y3163D01*
X813Y3163D02*
X857Y3163D01*
X1213Y3163D02*
X1257Y3163D01*
X1291Y3163D02*
X1336Y3163D01*
X1734Y3163D02*
X1779Y3163D01*
X1813Y3163D02*
X1857Y3163D01*
X2213Y3163D02*
X2257Y3163D01*
X2291Y3163D02*
X2336Y3163D01*
X2734Y3163D02*
X2778Y3163D01*
X2813Y3163D02*
X2857Y3163D01*
X3213Y3163D02*
X3257Y3163D01*
X3291Y3163D02*
X3335Y3163D01*
X734Y3162D02*
X777Y3162D01*
X814Y3162D02*
X857Y3162D01*
X1212Y3162D02*
X1256Y3162D01*
X1292Y3162D02*
X1336Y3162D01*
X1734Y3162D02*
X1777Y3162D01*
X1814Y3162D02*
X1857Y3162D01*
X2212Y3162D02*
X2256Y3162D01*
X2292Y3162D02*
X2336Y3162D01*
X2734Y3162D02*
X2777Y3162D01*
X2814Y3162D02*
X2857Y3162D01*
X3212Y3162D02*
X3256Y3162D01*
X3292Y3162D02*
X3336Y3162D01*
X734Y3161D02*
X776Y3161D01*
X815Y3161D02*
X858Y3161D01*
X1212Y3161D02*
X1255Y3161D01*
X1293Y3161D02*
X1336Y3161D01*
X1734Y3161D02*
X1776Y3161D01*
X1815Y3161D02*
X1858Y3161D01*
X2212Y3161D02*
X2255Y3161D01*
X2293Y3161D02*
X2336Y3161D01*
X2734Y3161D02*
X2776Y3161D01*
X2815Y3161D02*
X2858Y3161D01*
X3212Y3161D02*
X3255Y3161D01*
X3293Y3161D02*
X3336Y3161D01*
X734Y3160D02*
X776Y3160D01*
X816Y3160D02*
X858Y3160D01*
X1212Y3160D02*
X1254Y3160D01*
X1294Y3160D02*
X1336Y3160D01*
X1734Y3160D02*
X1776Y3160D01*
X1816Y3160D02*
X1858Y3160D01*
X2212Y3160D02*
X2254Y3160D01*
X2294Y3160D02*
X2336Y3160D01*
X2733Y3160D02*
X2776Y3160D01*
X2816Y3160D02*
X2858Y3160D01*
X3212Y3160D02*
X3254Y3160D01*
X3294Y3160D02*
X3336Y3160D01*
X733Y3159D02*
X775Y3159D01*
X817Y3159D02*
X858Y3159D01*
X1212Y3159D02*
X1253Y3159D01*
X1295Y3159D02*
X1337Y3159D01*
X1733Y3159D02*
X1775Y3159D01*
X1817Y3159D02*
X1858Y3159D01*
X2212Y3159D02*
X2253Y3159D01*
X2295Y3159D02*
X2337Y3159D01*
X2733Y3159D02*
X2775Y3159D01*
X2817Y3159D02*
X2858Y3159D01*
X3212Y3159D02*
X3253Y3159D01*
X3295Y3159D02*
X3336Y3159D01*
X733Y3158D02*
X774Y3158D01*
X818Y3158D02*
X858Y3158D01*
X1211Y3158D02*
X1252Y3158D01*
X1296Y3158D02*
X1337Y3158D01*
X1733Y3158D02*
X1774Y3158D01*
X1818Y3158D02*
X1858Y3158D01*
X2211Y3158D02*
X2252Y3158D01*
X2296Y3158D02*
X2337Y3158D01*
X2733Y3158D02*
X2774Y3158D01*
X2817Y3158D02*
X2858Y3158D01*
X3211Y3158D02*
X3252Y3158D01*
X3296Y3158D02*
X3337Y3158D01*
X733Y3157D02*
X773Y3157D01*
X818Y3157D02*
X859Y3157D01*
X1211Y3157D02*
X1252Y3157D01*
X1296Y3157D02*
X1337Y3157D01*
X1733Y3157D02*
X1773Y3157D01*
X1818Y3157D02*
X1859Y3157D01*
X2211Y3157D02*
X2252Y3157D01*
X2296Y3157D02*
X2337Y3157D01*
X2733Y3157D02*
X2773Y3157D01*
X2818Y3157D02*
X2859Y3157D01*
X3211Y3157D02*
X3252Y3157D01*
X3296Y3157D02*
X3337Y3157D01*
X733Y3156D02*
X773Y3156D01*
X819Y3156D02*
X859Y3156D01*
X1211Y3156D02*
X1251Y3156D01*
X1297Y3156D02*
X1337Y3156D01*
X1733Y3156D02*
X1773Y3156D01*
X1819Y3156D02*
X1859Y3156D01*
X2211Y3156D02*
X2251Y3156D01*
X2297Y3156D02*
X2337Y3156D01*
X2733Y3156D02*
X2773Y3156D01*
X2819Y3156D02*
X2859Y3156D01*
X3211Y3156D02*
X3251Y3156D01*
X3297Y3156D02*
X3337Y3156D01*
X732Y3155D02*
X772Y3155D01*
X819Y3155D02*
X859Y3155D01*
X1211Y3155D02*
X1251Y3155D01*
X1297Y3155D02*
X1337Y3155D01*
X1732Y3155D02*
X1772Y3155D01*
X1819Y3155D02*
X1859Y3155D01*
X2211Y3155D02*
X2251Y3155D01*
X2297Y3155D02*
X2337Y3155D01*
X2732Y3155D02*
X2772Y3155D01*
X2819Y3155D02*
X2859Y3155D01*
X3211Y3155D02*
X3251Y3155D01*
X3297Y3155D02*
X3337Y3155D01*
X732Y3154D02*
X772Y3154D01*
X820Y3154D02*
X859Y3154D01*
X1211Y3154D02*
X1250Y3154D01*
X1298Y3154D02*
X1338Y3154D01*
X1732Y3154D02*
X1772Y3154D01*
X1820Y3154D02*
X1859Y3154D01*
X2211Y3154D02*
X2250Y3154D01*
X2298Y3154D02*
X2338Y3154D01*
X2732Y3154D02*
X2772Y3154D01*
X2820Y3154D02*
X2859Y3154D01*
X3211Y3154D02*
X3250Y3154D01*
X3298Y3154D02*
X3337Y3154D01*
X732Y3153D02*
X771Y3153D01*
X820Y3153D02*
X859Y3153D01*
X1210Y3153D02*
X1250Y3153D01*
X1298Y3153D02*
X1338Y3153D01*
X1732Y3153D02*
X1771Y3153D01*
X1820Y3153D02*
X1859Y3153D01*
X2210Y3153D02*
X2250Y3153D01*
X2298Y3153D02*
X2338Y3153D01*
X2732Y3153D02*
X2771Y3153D01*
X2820Y3153D02*
X2859Y3153D01*
X3210Y3153D02*
X3250Y3153D01*
X3298Y3153D02*
X3338Y3153D01*
X732Y3152D02*
X771Y3152D01*
X821Y3152D02*
X860Y3152D01*
X1210Y3152D02*
X1249Y3152D01*
X1299Y3152D02*
X1338Y3152D01*
X1732Y3152D02*
X1771Y3152D01*
X1820Y3152D02*
X1860Y3152D01*
X2210Y3152D02*
X2249Y3152D01*
X2299Y3152D02*
X2338Y3152D01*
X2732Y3152D02*
X2771Y3152D01*
X2820Y3152D02*
X2859Y3152D01*
X3210Y3152D02*
X3249Y3152D01*
X3299Y3152D02*
X3338Y3152D01*
X732Y3151D02*
X771Y3151D01*
X821Y3151D02*
X860Y3151D01*
X1210Y3151D02*
X1249Y3151D01*
X1299Y3151D02*
X1338Y3151D01*
X1732Y3151D02*
X1771Y3151D01*
X1821Y3151D02*
X1860Y3151D01*
X2210Y3151D02*
X2249Y3151D01*
X2299Y3151D02*
X2338Y3151D01*
X2732Y3151D02*
X2771Y3151D01*
X2821Y3151D02*
X2860Y3151D01*
X3210Y3151D02*
X3249Y3151D01*
X3299Y3151D02*
X3338Y3151D01*
X732Y3150D02*
X770Y3150D01*
X821Y3150D02*
X860Y3150D01*
X1210Y3150D02*
X1249Y3150D01*
X1299Y3150D02*
X1338Y3150D01*
X1732Y3150D02*
X1770Y3150D01*
X1821Y3150D02*
X1860Y3150D01*
X2210Y3150D02*
X2249Y3150D01*
X2299Y3150D02*
X2338Y3150D01*
X2732Y3150D02*
X2770Y3150D01*
X2821Y3150D02*
X2860Y3150D01*
X3210Y3150D02*
X3249Y3150D01*
X3299Y3150D02*
X3338Y3150D01*
X732Y3149D02*
X770Y3149D01*
X821Y3149D02*
X860Y3149D01*
X1210Y3149D02*
X1248Y3149D01*
X1300Y3149D02*
X1338Y3149D01*
X1732Y3149D02*
X1770Y3149D01*
X1821Y3149D02*
X1860Y3149D01*
X2210Y3149D02*
X2248Y3149D01*
X2300Y3149D02*
X2338Y3149D01*
X2732Y3149D02*
X2770Y3149D01*
X2821Y3149D02*
X2860Y3149D01*
X3210Y3149D02*
X3248Y3149D01*
X3300Y3149D02*
X3338Y3149D01*
X732Y3148D02*
X770Y3148D01*
X822Y3148D02*
X860Y3148D01*
X1210Y3148D02*
X1248Y3148D01*
X1300Y3148D02*
X1338Y3148D01*
X1732Y3148D02*
X1770Y3148D01*
X1822Y3148D02*
X1860Y3148D01*
X2210Y3148D02*
X2248Y3148D01*
X2300Y3148D02*
X2338Y3148D01*
X2731Y3148D02*
X2770Y3148D01*
X2821Y3148D02*
X2860Y3148D01*
X3210Y3148D02*
X3248Y3148D01*
X3300Y3148D02*
X3338Y3148D01*
X732Y3147D02*
X770Y3147D01*
X822Y3147D02*
X860Y3147D01*
X1210Y3147D02*
X1248Y3147D01*
X1300Y3147D02*
X1338Y3147D01*
X1731Y3147D02*
X1770Y3147D01*
X1822Y3147D02*
X1860Y3147D01*
X2210Y3147D02*
X2248Y3147D01*
X2300Y3147D02*
X2338Y3147D01*
X2731Y3147D02*
X2770Y3147D01*
X2822Y3147D02*
X2860Y3147D01*
X3210Y3147D02*
X3248Y3147D01*
X3300Y3147D02*
X3338Y3147D01*
X731Y3146D02*
X770Y3146D01*
X822Y3146D02*
X860Y3146D01*
X1210Y3146D02*
X1248Y3146D01*
X1300Y3146D02*
X1338Y3146D01*
X1731Y3146D02*
X1770Y3146D01*
X1822Y3146D02*
X1860Y3146D01*
X2210Y3146D02*
X2248Y3146D01*
X2300Y3146D02*
X2338Y3146D01*
X2731Y3146D02*
X2770Y3146D01*
X2822Y3146D02*
X2860Y3146D01*
X3210Y3146D02*
X3248Y3146D01*
X3300Y3146D02*
X3338Y3146D01*
X731Y3145D02*
X770Y3145D01*
X822Y3145D02*
X860Y3145D01*
X1210Y3145D02*
X1248Y3145D01*
X1300Y3145D02*
X1338Y3145D01*
X1731Y3145D02*
X1770Y3145D01*
X1822Y3145D02*
X1860Y3145D01*
X2210Y3145D02*
X2248Y3145D01*
X2300Y3145D02*
X2338Y3145D01*
X2731Y3145D02*
X2770Y3145D01*
X2822Y3145D02*
X2860Y3145D01*
X3210Y3145D02*
X3248Y3145D01*
X3300Y3145D02*
X3338Y3145D01*
X731Y3144D02*
X770Y3144D01*
X822Y3144D02*
X860Y3144D01*
X1210Y3144D02*
X1248Y3144D01*
X1300Y3144D02*
X1339Y3144D01*
X1731Y3144D02*
X1770Y3144D01*
X1822Y3144D02*
X1860Y3144D01*
X2210Y3144D02*
X2248Y3144D01*
X2300Y3144D02*
X2338Y3144D01*
X2731Y3144D02*
X2770Y3144D01*
X2822Y3144D02*
X2860Y3144D01*
X3210Y3144D02*
X3248Y3144D01*
X3300Y3144D02*
X3338Y3144D01*
X731Y3143D02*
X770Y3143D01*
X822Y3143D02*
X860Y3143D01*
X1210Y3143D02*
X1248Y3143D01*
X1300Y3143D02*
X1338Y3143D01*
X1731Y3143D02*
X1770Y3143D01*
X1822Y3143D02*
X1860Y3143D01*
X2210Y3143D02*
X2248Y3143D01*
X2300Y3143D02*
X2338Y3143D01*
X2731Y3143D02*
X2770Y3143D01*
X2822Y3143D02*
X2860Y3143D01*
X3210Y3143D02*
X3248Y3143D01*
X3300Y3143D02*
X3338Y3143D01*
X731Y3142D02*
X770Y3142D01*
X822Y3142D02*
X860Y3142D01*
X1210Y3142D02*
X1248Y3142D01*
X1300Y3142D02*
X1338Y3142D01*
X1731Y3142D02*
X1770Y3142D01*
X1822Y3142D02*
X1860Y3142D01*
X2210Y3142D02*
X2248Y3142D01*
X2300Y3142D02*
X2338Y3142D01*
X2731Y3142D02*
X2770Y3142D01*
X2822Y3142D02*
X2860Y3142D01*
X3210Y3142D02*
X3248Y3142D01*
X3300Y3142D02*
X3338Y3142D01*
X731Y3141D02*
X770Y3141D01*
X822Y3141D02*
X860Y3141D01*
X1210Y3141D02*
X1248Y3141D01*
X1300Y3141D02*
X1338Y3141D01*
X1731Y3141D02*
X1770Y3141D01*
X1822Y3141D02*
X1860Y3141D01*
X2210Y3141D02*
X2248Y3141D01*
X2300Y3141D02*
X2338Y3141D01*
X2731Y3141D02*
X2770Y3141D01*
X2822Y3141D02*
X2860Y3141D01*
X3210Y3141D02*
X3248Y3141D01*
X3300Y3141D02*
X3338Y3141D01*
X732Y3140D02*
X770Y3140D01*
X822Y3140D02*
X860Y3140D01*
X1210Y3140D02*
X1248Y3140D01*
X1300Y3140D02*
X1338Y3140D01*
X1731Y3140D02*
X1770Y3140D01*
X1822Y3140D02*
X1860Y3140D01*
X2210Y3140D02*
X2248Y3140D01*
X2300Y3140D02*
X2338Y3140D01*
X2731Y3140D02*
X2770Y3140D01*
X2822Y3140D02*
X2860Y3140D01*
X3210Y3140D02*
X3248Y3140D01*
X3300Y3140D02*
X3338Y3140D01*
X732Y3139D02*
X770Y3139D01*
X822Y3139D02*
X860Y3139D01*
X1210Y3139D02*
X1248Y3139D01*
X1300Y3139D02*
X1338Y3139D01*
X1732Y3139D02*
X1770Y3139D01*
X1821Y3139D02*
X1860Y3139D01*
X2210Y3139D02*
X2248Y3139D01*
X2300Y3139D02*
X2338Y3139D01*
X2731Y3139D02*
X2770Y3139D01*
X2821Y3139D02*
X2860Y3139D01*
X3210Y3139D02*
X3248Y3139D01*
X3300Y3139D02*
X3338Y3139D01*
X732Y3138D02*
X770Y3138D01*
X821Y3138D02*
X860Y3138D01*
X1210Y3138D02*
X1249Y3138D01*
X1300Y3138D02*
X1338Y3138D01*
X1732Y3138D02*
X1770Y3138D01*
X1821Y3138D02*
X1860Y3138D01*
X2210Y3138D02*
X2249Y3138D01*
X2300Y3138D02*
X2338Y3138D01*
X2732Y3138D02*
X2770Y3138D01*
X2821Y3138D02*
X2860Y3138D01*
X3210Y3138D02*
X3248Y3138D01*
X3300Y3138D02*
X3338Y3138D01*
X732Y3137D02*
X770Y3137D01*
X821Y3137D02*
X860Y3137D01*
X1210Y3137D02*
X1249Y3137D01*
X1299Y3137D02*
X1338Y3137D01*
X1732Y3137D02*
X1770Y3137D01*
X1821Y3137D02*
X1860Y3137D01*
X2210Y3137D02*
X2249Y3137D01*
X2299Y3137D02*
X2338Y3137D01*
X2732Y3137D02*
X2770Y3137D01*
X2821Y3137D02*
X2860Y3137D01*
X3210Y3137D02*
X3249Y3137D01*
X3299Y3137D02*
X3338Y3137D01*
X732Y3136D02*
X771Y3136D01*
X821Y3136D02*
X860Y3136D01*
X1210Y3136D02*
X1249Y3136D01*
X1299Y3136D02*
X1338Y3136D01*
X1732Y3136D02*
X1771Y3136D01*
X1821Y3136D02*
X1860Y3136D01*
X2210Y3136D02*
X2249Y3136D01*
X2299Y3136D02*
X2338Y3136D01*
X2732Y3136D02*
X2771Y3136D01*
X2821Y3136D02*
X2860Y3136D01*
X3210Y3136D02*
X3249Y3136D01*
X3299Y3136D02*
X3338Y3136D01*
X732Y3135D02*
X771Y3135D01*
X820Y3135D02*
X859Y3135D01*
X1210Y3135D02*
X1250Y3135D01*
X1299Y3135D02*
X1338Y3135D01*
X1732Y3135D02*
X1771Y3135D01*
X1820Y3135D02*
X1859Y3135D01*
X2210Y3135D02*
X2249Y3135D01*
X2299Y3135D02*
X2338Y3135D01*
X2732Y3135D02*
X2771Y3135D01*
X2820Y3135D02*
X2859Y3135D01*
X3210Y3135D02*
X3249Y3135D01*
X3299Y3135D02*
X3338Y3135D01*
X732Y3134D02*
X772Y3134D01*
X820Y3134D02*
X859Y3134D01*
X1211Y3134D02*
X1250Y3134D01*
X1298Y3134D02*
X1338Y3134D01*
X1732Y3134D02*
X1772Y3134D01*
X1820Y3134D02*
X1859Y3134D01*
X2210Y3134D02*
X2250Y3134D01*
X2298Y3134D02*
X2338Y3134D01*
X2732Y3134D02*
X2771Y3134D01*
X2820Y3134D02*
X2859Y3134D01*
X3210Y3134D02*
X3250Y3134D01*
X3298Y3134D02*
X3338Y3134D01*
X732Y3133D02*
X772Y3133D01*
X819Y3133D02*
X859Y3133D01*
X1211Y3133D02*
X1250Y3133D01*
X1298Y3133D02*
X1337Y3133D01*
X1732Y3133D02*
X1772Y3133D01*
X1819Y3133D02*
X1859Y3133D01*
X2211Y3133D02*
X2250Y3133D01*
X2298Y3133D02*
X2337Y3133D01*
X2732Y3133D02*
X2772Y3133D01*
X2819Y3133D02*
X2859Y3133D01*
X3211Y3133D02*
X3250Y3133D01*
X3298Y3133D02*
X3337Y3133D01*
X733Y3132D02*
X773Y3132D01*
X819Y3132D02*
X859Y3132D01*
X1211Y3132D02*
X1251Y3132D01*
X1297Y3132D02*
X1337Y3132D01*
X1732Y3132D02*
X1773Y3132D01*
X1819Y3132D02*
X1859Y3132D01*
X2211Y3132D02*
X2251Y3132D01*
X2297Y3132D02*
X2337Y3132D01*
X2732Y3132D02*
X2772Y3132D01*
X2819Y3132D02*
X2859Y3132D01*
X3211Y3132D02*
X3251Y3132D01*
X3297Y3132D02*
X3337Y3132D01*
X733Y3131D02*
X773Y3131D01*
X818Y3131D02*
X859Y3131D01*
X1211Y3131D02*
X1251Y3131D01*
X1297Y3131D02*
X1337Y3131D01*
X1733Y3131D02*
X1773Y3131D01*
X1818Y3131D02*
X1859Y3131D01*
X2211Y3131D02*
X2251Y3131D01*
X2297Y3131D02*
X2337Y3131D01*
X2733Y3131D02*
X2773Y3131D01*
X2818Y3131D02*
X2859Y3131D01*
X3211Y3131D02*
X3251Y3131D01*
X3297Y3131D02*
X3337Y3131D01*
X733Y3130D02*
X774Y3130D01*
X818Y3130D02*
X859Y3130D01*
X1211Y3130D02*
X1252Y3130D01*
X1296Y3130D02*
X1337Y3130D01*
X1733Y3130D02*
X1774Y3130D01*
X1818Y3130D02*
X1859Y3130D01*
X2211Y3130D02*
X2252Y3130D01*
X2296Y3130D02*
X2337Y3130D01*
X2733Y3130D02*
X2774Y3130D01*
X2818Y3130D02*
X2859Y3130D01*
X3211Y3130D02*
X3252Y3130D01*
X3296Y3130D02*
X3337Y3130D01*
X733Y3129D02*
X774Y3129D01*
X817Y3129D02*
X858Y3129D01*
X1211Y3129D02*
X1253Y3129D01*
X1296Y3129D02*
X1337Y3129D01*
X1733Y3129D02*
X1774Y3129D01*
X1817Y3129D02*
X1858Y3129D01*
X2211Y3129D02*
X2253Y3129D01*
X2296Y3129D02*
X2337Y3129D01*
X2733Y3129D02*
X2774Y3129D01*
X2817Y3129D02*
X2858Y3129D01*
X3211Y3129D02*
X3253Y3129D01*
X3296Y3129D02*
X3337Y3129D01*
X733Y3128D02*
X775Y3128D01*
X816Y3128D02*
X858Y3128D01*
X1212Y3128D02*
X1253Y3128D01*
X1295Y3128D02*
X1336Y3128D01*
X1733Y3128D02*
X1775Y3128D01*
X1816Y3128D02*
X1858Y3128D01*
X2212Y3128D02*
X2253Y3128D01*
X2295Y3128D02*
X2336Y3128D01*
X2733Y3128D02*
X2775Y3128D01*
X2816Y3128D02*
X2858Y3128D01*
X3212Y3128D02*
X3253Y3128D01*
X3295Y3128D02*
X3336Y3128D01*
X734Y3127D02*
X776Y3127D01*
X816Y3127D02*
X858Y3127D01*
X1212Y3127D02*
X1254Y3127D01*
X1294Y3127D02*
X1336Y3127D01*
X1734Y3127D02*
X1776Y3127D01*
X1816Y3127D02*
X1858Y3127D01*
X2212Y3127D02*
X2254Y3127D01*
X2294Y3127D02*
X2336Y3127D01*
X2734Y3127D02*
X2776Y3127D01*
X2815Y3127D02*
X2858Y3127D01*
X3212Y3127D02*
X3254Y3127D01*
X3294Y3127D02*
X3336Y3127D01*
X734Y3126D02*
X777Y3126D01*
X815Y3126D02*
X858Y3126D01*
X1212Y3126D02*
X1255Y3126D01*
X1293Y3126D02*
X1336Y3126D01*
X1734Y3126D02*
X1777Y3126D01*
X1815Y3126D02*
X1858Y3126D01*
X2212Y3126D02*
X2255Y3126D01*
X2293Y3126D02*
X2336Y3126D01*
X2734Y3126D02*
X2777Y3126D01*
X2815Y3126D02*
X2858Y3126D01*
X3212Y3126D02*
X3255Y3126D01*
X3293Y3126D02*
X3336Y3126D01*
X734Y3125D02*
X778Y3125D01*
X814Y3125D02*
X857Y3125D01*
X1212Y3125D02*
X1256Y3125D01*
X1292Y3125D02*
X1336Y3125D01*
X1734Y3125D02*
X1778Y3125D01*
X1814Y3125D02*
X1857Y3125D01*
X2212Y3125D02*
X2256Y3125D01*
X2292Y3125D02*
X2336Y3125D01*
X2734Y3125D02*
X2778Y3125D01*
X2814Y3125D02*
X2857Y3125D01*
X3212Y3125D02*
X3256Y3125D01*
X3292Y3125D02*
X3336Y3125D01*
X734Y3124D02*
X779Y3124D01*
X812Y3124D02*
X857Y3124D01*
X1213Y3124D02*
X1257Y3124D01*
X1291Y3124D02*
X1335Y3124D01*
X1734Y3124D02*
X1779Y3124D01*
X1812Y3124D02*
X1857Y3124D01*
X2213Y3124D02*
X2257Y3124D01*
X2291Y3124D02*
X2335Y3124D01*
X2734Y3124D02*
X2779Y3124D01*
X2812Y3124D02*
X2857Y3124D01*
X3213Y3124D02*
X3257Y3124D01*
X3291Y3124D02*
X3335Y3124D01*
X735Y3123D02*
X780Y3123D01*
X811Y3123D02*
X857Y3123D01*
X1213Y3123D02*
X1259Y3123D01*
X1290Y3123D02*
X1335Y3123D01*
X1735Y3123D02*
X1780Y3123D01*
X1811Y3123D02*
X1857Y3123D01*
X2213Y3123D02*
X2258Y3123D01*
X2290Y3123D02*
X2335Y3123D01*
X2735Y3123D02*
X2780Y3123D01*
X2811Y3123D02*
X2857Y3123D01*
X3213Y3123D02*
X3258Y3123D01*
X3290Y3123D02*
X3335Y3123D01*
X735Y3122D02*
X782Y3122D01*
X810Y3122D02*
X856Y3122D01*
X1213Y3122D02*
X1260Y3122D01*
X1288Y3122D02*
X1335Y3122D01*
X1735Y3122D02*
X1782Y3122D01*
X1810Y3122D02*
X1856Y3122D01*
X2213Y3122D02*
X2260Y3122D01*
X2288Y3122D02*
X2335Y3122D01*
X2735Y3122D02*
X2782Y3122D01*
X2810Y3122D02*
X2856Y3122D01*
X3213Y3122D02*
X3260Y3122D01*
X3288Y3122D02*
X3335Y3122D01*
X736Y3121D02*
X784Y3121D01*
X808Y3121D02*
X856Y3121D01*
X1214Y3121D02*
X1262Y3121D01*
X1286Y3121D02*
X1334Y3121D01*
X1735Y3121D02*
X1784Y3121D01*
X1808Y3121D02*
X1856Y3121D01*
X2214Y3121D02*
X2262Y3121D01*
X2286Y3121D02*
X2334Y3121D01*
X2735Y3121D02*
X2784Y3121D01*
X2808Y3121D02*
X2856Y3121D01*
X3214Y3121D02*
X3262Y3121D01*
X3286Y3121D02*
X3334Y3121D01*
X736Y3120D02*
X786Y3120D01*
X806Y3120D02*
X856Y3120D01*
X1214Y3120D02*
X1264Y3120D01*
X1284Y3120D02*
X1334Y3120D01*
X1736Y3120D02*
X1786Y3120D01*
X1806Y3120D02*
X1856Y3120D01*
X2214Y3120D02*
X2264Y3120D01*
X2284Y3120D02*
X2334Y3120D01*
X2736Y3120D02*
X2786Y3120D01*
X2806Y3120D02*
X2856Y3120D01*
X3214Y3120D02*
X3264Y3120D01*
X3284Y3120D02*
X3334Y3120D01*
X736Y3119D02*
X788Y3119D01*
X803Y3119D02*
X855Y3119D01*
X1215Y3119D02*
X1267Y3119D01*
X1282Y3119D02*
X1334Y3119D01*
X1736Y3119D02*
X1788Y3119D01*
X1803Y3119D02*
X1855Y3119D01*
X2214Y3119D02*
X2267Y3119D01*
X2281Y3119D02*
X2334Y3119D01*
X2736Y3119D02*
X2788Y3119D01*
X2803Y3119D02*
X2855Y3119D01*
X3214Y3119D02*
X3267Y3119D01*
X3281Y3119D02*
X3334Y3119D01*
X737Y3118D02*
X855Y3118D01*
X1215Y3118D02*
X1333Y3118D01*
X1737Y3118D02*
X1855Y3118D01*
X2215Y3118D02*
X2333Y3118D01*
X2737Y3118D02*
X2855Y3118D01*
X3215Y3118D02*
X3333Y3118D01*
X737Y3117D02*
X854Y3117D01*
X1215Y3117D02*
X1333Y3117D01*
X1737Y3117D02*
X1854Y3117D01*
X2215Y3117D02*
X2333Y3117D01*
X2737Y3117D02*
X2854Y3117D01*
X3215Y3117D02*
X3333Y3117D01*
X738Y3116D02*
X854Y3116D01*
X1216Y3116D02*
X1332Y3116D01*
X1738Y3116D02*
X1854Y3116D01*
X2216Y3116D02*
X2332Y3116D01*
X2738Y3116D02*
X2854Y3116D01*
X3216Y3116D02*
X3332Y3116D01*
X738Y3115D02*
X853Y3115D01*
X1216Y3115D02*
X1332Y3115D01*
X1738Y3115D02*
X1853Y3115D01*
X2216Y3115D02*
X2332Y3115D01*
X2738Y3115D02*
X2853Y3115D01*
X3216Y3115D02*
X3332Y3115D01*
X739Y3114D02*
X853Y3114D01*
X1217Y3114D02*
X1331Y3114D01*
X1739Y3114D02*
X1853Y3114D01*
X2217Y3114D02*
X2331Y3114D01*
X2739Y3114D02*
X2853Y3114D01*
X3217Y3114D02*
X3331Y3114D01*
X739Y3113D02*
X852Y3113D01*
X1217Y3113D02*
X1331Y3113D01*
X1739Y3113D02*
X1852Y3113D01*
X2217Y3113D02*
X2331Y3113D01*
X2739Y3113D02*
X2852Y3113D01*
X3217Y3113D02*
X3331Y3113D01*
X740Y3112D02*
X852Y3112D01*
X1218Y3112D02*
X1330Y3112D01*
X1740Y3112D02*
X1852Y3112D01*
X2218Y3112D02*
X2330Y3112D01*
X2740Y3112D02*
X2852Y3112D01*
X3218Y3112D02*
X3330Y3112D01*
X740Y3111D02*
X851Y3111D01*
X1219Y3111D02*
X1330Y3111D01*
X1740Y3111D02*
X1851Y3111D01*
X2219Y3111D02*
X2330Y3111D01*
X2740Y3111D02*
X2851Y3111D01*
X3219Y3111D02*
X3329Y3111D01*
X741Y3110D02*
X851Y3110D01*
X1219Y3110D02*
X1329Y3110D01*
X1741Y3110D02*
X1851Y3110D01*
X2219Y3110D02*
X2329Y3110D01*
X2741Y3110D02*
X2851Y3110D01*
X3219Y3110D02*
X3329Y3110D01*
X742Y3109D02*
X850Y3109D01*
X1220Y3109D02*
X1328Y3109D01*
X1741Y3109D02*
X1850Y3109D01*
X2220Y3109D02*
X2328Y3109D01*
X2741Y3109D02*
X2850Y3109D01*
X3220Y3109D02*
X3328Y3109D01*
X742Y3108D02*
X849Y3108D01*
X1220Y3108D02*
X1328Y3108D01*
X1742Y3108D02*
X1849Y3108D01*
X2220Y3108D02*
X2328Y3108D01*
X2742Y3108D02*
X2849Y3108D01*
X3220Y3108D02*
X3328Y3108D01*
X743Y3107D02*
X849Y3107D01*
X1221Y3107D02*
X1327Y3107D01*
X1743Y3107D02*
X1849Y3107D01*
X2221Y3107D02*
X2327Y3107D01*
X2743Y3107D02*
X2849Y3107D01*
X3221Y3107D02*
X3327Y3107D01*
X744Y3106D02*
X848Y3106D01*
X1222Y3106D02*
X1326Y3106D01*
X1744Y3106D02*
X1848Y3106D01*
X2222Y3106D02*
X2326Y3106D01*
X2743Y3106D02*
X2848Y3106D01*
X3222Y3106D02*
X3326Y3106D01*
X744Y3105D02*
X847Y3105D01*
X1223Y3105D02*
X1326Y3105D01*
X1744Y3105D02*
X1847Y3105D01*
X2223Y3105D02*
X2326Y3105D01*
X2744Y3105D02*
X2847Y3105D01*
X3223Y3105D02*
X3325Y3105D01*
X745Y3104D02*
X847Y3104D01*
X1223Y3104D02*
X1325Y3104D01*
X1745Y3104D02*
X1846Y3104D01*
X2223Y3104D02*
X2325Y3104D01*
X2745Y3104D02*
X2846Y3104D01*
X3223Y3104D02*
X3325Y3104D01*
X746Y3103D02*
X846Y3103D01*
X1224Y3103D02*
X1324Y3103D01*
X1746Y3103D02*
X1846Y3103D01*
X2224Y3103D02*
X2324Y3103D01*
X2746Y3103D02*
X2846Y3103D01*
X3224Y3103D02*
X3324Y3103D01*
X747Y3102D02*
X845Y3102D01*
X1225Y3102D02*
X1323Y3102D01*
X1747Y3102D02*
X1845Y3102D01*
X2225Y3102D02*
X2323Y3102D01*
X2746Y3102D02*
X2845Y3102D01*
X3225Y3102D02*
X3323Y3102D01*
X747Y3101D02*
X844Y3101D01*
X1226Y3101D02*
X1322Y3101D01*
X1747Y3101D02*
X1844Y3101D01*
X2226Y3101D02*
X2322Y3101D01*
X2747Y3101D02*
X2844Y3101D01*
X3226Y3101D02*
X3322Y3101D01*
X748Y3100D02*
X843Y3100D01*
X1227Y3100D02*
X1322Y3100D01*
X1748Y3100D02*
X1843Y3100D01*
X2227Y3100D02*
X2321Y3100D01*
X2748Y3100D02*
X2843Y3100D01*
X3227Y3100D02*
X3321Y3100D01*
X749Y3099D02*
X842Y3099D01*
X1228Y3099D02*
X1321Y3099D01*
X1749Y3099D02*
X1842Y3099D01*
X2228Y3099D02*
X2321Y3099D01*
X2749Y3099D02*
X2842Y3099D01*
X3227Y3099D02*
X3321Y3099D01*
X750Y3098D02*
X841Y3098D01*
X1228Y3098D02*
X1320Y3098D01*
X1750Y3098D02*
X1841Y3098D01*
X2228Y3098D02*
X2320Y3098D01*
X2750Y3098D02*
X2841Y3098D01*
X3228Y3098D02*
X3320Y3098D01*
X751Y3097D02*
X840Y3097D01*
X1230Y3097D02*
X1319Y3097D01*
X1751Y3097D02*
X1840Y3097D01*
X2229Y3097D02*
X2319Y3097D01*
X2751Y3097D02*
X2840Y3097D01*
X3229Y3097D02*
X3319Y3097D01*
X752Y3096D02*
X839Y3096D01*
X1231Y3096D02*
X1318Y3096D01*
X1752Y3096D02*
X1839Y3096D01*
X2231Y3096D02*
X2317Y3096D01*
X2752Y3096D02*
X2839Y3096D01*
X3231Y3096D02*
X3317Y3096D01*
X753Y3095D02*
X838Y3095D01*
X1232Y3095D02*
X1316Y3095D01*
X1753Y3095D02*
X1838Y3095D01*
X2232Y3095D02*
X2316Y3095D01*
X2753Y3095D02*
X2838Y3095D01*
X3232Y3095D02*
X3316Y3095D01*
X755Y3094D02*
X837Y3094D01*
X1233Y3094D02*
X1315Y3094D01*
X1755Y3094D02*
X1837Y3094D01*
X2233Y3094D02*
X2315Y3094D01*
X2754Y3094D02*
X2837Y3094D01*
X3233Y3094D02*
X3315Y3094D01*
X756Y3093D02*
X836Y3093D01*
X1234Y3093D02*
X1314Y3093D01*
X1756Y3093D02*
X1836Y3093D01*
X2234Y3093D02*
X2314Y3093D01*
X2756Y3093D02*
X2836Y3093D01*
X3234Y3093D02*
X3314Y3093D01*
X757Y3092D02*
X834Y3092D01*
X1236Y3092D02*
X1313Y3092D01*
X1757Y3092D02*
X1834Y3092D01*
X2235Y3092D02*
X2313Y3092D01*
X2757Y3092D02*
X2834Y3092D01*
X3235Y3092D02*
X3313Y3092D01*
X759Y3091D02*
X833Y3091D01*
X1237Y3091D02*
X1311Y3091D01*
X1758Y3091D02*
X1833Y3091D01*
X2237Y3091D02*
X2311Y3091D01*
X2758Y3091D02*
X2833Y3091D01*
X3237Y3091D02*
X3311Y3091D01*
X760Y3090D02*
X832Y3090D01*
X1238Y3090D02*
X1310Y3090D01*
X1760Y3090D02*
X1832Y3090D01*
X2238Y3090D02*
X2310Y3090D01*
X2760Y3090D02*
X2832Y3090D01*
X3238Y3090D02*
X3310Y3090D01*
X762Y3089D02*
X830Y3089D01*
X1240Y3089D02*
X1308Y3089D01*
X1761Y3089D02*
X1830Y3089D01*
X2240Y3089D02*
X2308Y3089D01*
X2761Y3089D02*
X2830Y3089D01*
X3240Y3089D02*
X3308Y3089D01*
X763Y3088D02*
X828Y3088D01*
X1241Y3088D02*
X1307Y3088D01*
X1763Y3088D02*
X1828Y3088D01*
X2241Y3088D02*
X2307Y3088D01*
X2763Y3088D02*
X2828Y3088D01*
X3241Y3088D02*
X3307Y3088D01*
X765Y3087D02*
X827Y3087D01*
X1243Y3087D02*
X1305Y3087D01*
X1765Y3087D02*
X1827Y3087D01*
X2243Y3087D02*
X2305Y3087D01*
X2765Y3087D02*
X2827Y3087D01*
X3243Y3087D02*
X3305Y3087D01*
X767Y3086D02*
X825Y3086D01*
X1245Y3086D02*
X1303Y3086D01*
X1767Y3086D02*
X1825Y3086D01*
X2245Y3086D02*
X2303Y3086D01*
X2767Y3086D02*
X2825Y3086D01*
X3245Y3086D02*
X3303Y3086D01*
X769Y3085D02*
X823Y3085D01*
X1247Y3085D02*
X1301Y3085D01*
X1769Y3085D02*
X1823Y3085D01*
X2247Y3085D02*
X2301Y3085D01*
X2769Y3085D02*
X2823Y3085D01*
X3247Y3085D02*
X3301Y3085D01*
X771Y3084D02*
X821Y3084D01*
X1249Y3084D02*
X1299Y3084D01*
X1771Y3084D02*
X1821Y3084D01*
X2249Y3084D02*
X2299Y3084D01*
X2771Y3084D02*
X2821Y3084D01*
X3249Y3084D02*
X3299Y3084D01*
X773Y3083D02*
X818Y3083D01*
X1252Y3083D02*
X1296Y3083D01*
X1773Y3083D02*
X1818Y3083D01*
X2252Y3083D02*
X2296Y3083D01*
X2773Y3083D02*
X2818Y3083D01*
X3252Y3083D02*
X3296Y3083D01*
X776Y3082D02*
X815Y3082D01*
X1255Y3082D02*
X1294Y3082D01*
X1776Y3082D02*
X1815Y3082D01*
X2254Y3082D02*
X2294Y3082D01*
X2776Y3082D02*
X2815Y3082D01*
X3254Y3082D02*
X3294Y3082D01*
X780Y3081D02*
X812Y3081D01*
X1258Y3081D02*
X1290Y3081D01*
X1780Y3081D02*
X1812Y3081D01*
X2258Y3081D02*
X2290Y3081D01*
X2780Y3081D02*
X2812Y3081D01*
X3258Y3081D02*
X3290Y3081D01*
X784Y3080D02*
X807Y3080D01*
X1263Y3080D02*
X1286Y3080D01*
X1784Y3080D02*
X1807Y3080D01*
X2263Y3080D02*
X2285Y3080D01*
X2784Y3080D02*
X2807Y3080D01*
X3263Y3080D02*
X3285Y3080D01*
X792Y3079D02*
X799Y3079D01*
X1270Y3079D02*
X1278Y3079D01*
X1792Y3079D02*
X1799Y3079D01*
X2270Y3079D02*
X2278Y3079D01*
X2792Y3079D02*
X2799Y3079D01*
X3270Y3079D02*
X3278Y3079D01*
X1348Y2972D02*
X1361Y2972D01*
X2348Y2972D02*
X2361Y2972D01*
X3348Y2972D02*
X3361Y2972D01*
X1342Y2971D02*
X1368Y2971D01*
X2342Y2971D02*
X2367Y2971D01*
X3342Y2971D02*
X3367Y2971D01*
X1338Y2970D02*
X1371Y2970D01*
X2338Y2970D02*
X2371Y2970D01*
X3338Y2970D02*
X3371Y2970D01*
X1335Y2969D02*
X1375Y2969D01*
X2335Y2969D02*
X2375Y2969D01*
X3335Y2969D02*
X3375Y2969D01*
X1332Y2968D02*
X1378Y2968D01*
X2332Y2968D02*
X2378Y2968D01*
X3332Y2968D02*
X3378Y2968D01*
X1329Y2967D02*
X1380Y2967D01*
X2329Y2967D02*
X2380Y2967D01*
X3329Y2967D02*
X3380Y2967D01*
X1327Y2966D02*
X1382Y2966D01*
X2327Y2966D02*
X2382Y2966D01*
X3327Y2966D02*
X3382Y2966D01*
X1325Y2965D02*
X1384Y2965D01*
X2325Y2965D02*
X2384Y2965D01*
X3325Y2965D02*
X3384Y2965D01*
X1323Y2964D02*
X1386Y2964D01*
X2323Y2964D02*
X2386Y2964D01*
X3323Y2964D02*
X3386Y2964D01*
X1322Y2963D02*
X1388Y2963D01*
X2322Y2963D02*
X2388Y2963D01*
X3322Y2963D02*
X3388Y2963D01*
X1320Y2962D02*
X1389Y2962D01*
X2320Y2962D02*
X2389Y2962D01*
X3320Y2962D02*
X3389Y2962D01*
X1319Y2961D02*
X1391Y2961D01*
X2319Y2961D02*
X2391Y2961D01*
X3319Y2961D02*
X3391Y2961D01*
X1317Y2960D02*
X1392Y2960D01*
X2317Y2960D02*
X2392Y2960D01*
X3317Y2960D02*
X3392Y2960D01*
X1316Y2959D02*
X1394Y2959D01*
X2316Y2959D02*
X2394Y2959D01*
X3316Y2959D02*
X3394Y2959D01*
X1315Y2958D02*
X1395Y2958D01*
X2315Y2958D02*
X2395Y2958D01*
X3315Y2958D02*
X3395Y2958D01*
X1313Y2957D02*
X1396Y2957D01*
X2313Y2957D02*
X2396Y2957D01*
X3313Y2957D02*
X3396Y2957D01*
X1312Y2956D02*
X1397Y2956D01*
X2312Y2956D02*
X2397Y2956D01*
X3312Y2956D02*
X3397Y2956D01*
X1311Y2955D02*
X1398Y2955D01*
X2311Y2955D02*
X2398Y2955D01*
X3311Y2955D02*
X3398Y2955D01*
X1310Y2954D02*
X1400Y2954D01*
X2310Y2954D02*
X2400Y2954D01*
X3310Y2954D02*
X3400Y2954D01*
X1309Y2953D02*
X1401Y2953D01*
X2309Y2953D02*
X2401Y2953D01*
X3309Y2953D02*
X3401Y2953D01*
X1308Y2952D02*
X1402Y2952D01*
X2308Y2952D02*
X2401Y2952D01*
X3308Y2952D02*
X3401Y2952D01*
X1307Y2951D02*
X1402Y2951D01*
X2307Y2951D02*
X2402Y2951D01*
X3307Y2951D02*
X3402Y2951D01*
X1306Y2950D02*
X1403Y2950D01*
X2306Y2950D02*
X2403Y2950D01*
X3306Y2950D02*
X3403Y2950D01*
X1305Y2949D02*
X1404Y2949D01*
X2305Y2949D02*
X2404Y2949D01*
X3305Y2949D02*
X3404Y2949D01*
X1305Y2948D02*
X1405Y2948D01*
X2305Y2948D02*
X2405Y2948D01*
X3305Y2948D02*
X3405Y2948D01*
X1304Y2947D02*
X1406Y2947D01*
X2304Y2947D02*
X2406Y2947D01*
X3304Y2947D02*
X3406Y2947D01*
X1303Y2946D02*
X1406Y2946D01*
X2303Y2946D02*
X2406Y2946D01*
X3303Y2946D02*
X3406Y2946D01*
X1302Y2945D02*
X1407Y2945D01*
X2302Y2945D02*
X2407Y2945D01*
X3302Y2945D02*
X3407Y2945D01*
X1302Y2944D02*
X1408Y2944D01*
X2302Y2944D02*
X2408Y2944D01*
X3302Y2944D02*
X3408Y2944D01*
X1301Y2943D02*
X1409Y2943D01*
X2301Y2943D02*
X2409Y2943D01*
X3301Y2943D02*
X3408Y2943D01*
X1300Y2942D02*
X1409Y2942D01*
X2300Y2942D02*
X2409Y2942D01*
X3300Y2942D02*
X3409Y2942D01*
X1300Y2941D02*
X1410Y2941D01*
X2300Y2941D02*
X2410Y2941D01*
X3300Y2941D02*
X3410Y2941D01*
X1299Y2940D02*
X1410Y2940D01*
X2299Y2940D02*
X2410Y2940D01*
X3299Y2940D02*
X3410Y2940D01*
X1299Y2939D02*
X1411Y2939D01*
X2299Y2939D02*
X2411Y2939D01*
X3299Y2939D02*
X3411Y2939D01*
X1298Y2938D02*
X1412Y2938D01*
X2298Y2938D02*
X2412Y2938D01*
X3298Y2938D02*
X3411Y2938D01*
X1298Y2937D02*
X1412Y2937D01*
X2297Y2937D02*
X2412Y2937D01*
X3297Y2937D02*
X3412Y2937D01*
X1297Y2936D02*
X1413Y2936D01*
X2297Y2936D02*
X2413Y2936D01*
X3297Y2936D02*
X3412Y2936D01*
X1297Y2935D02*
X1413Y2935D01*
X2296Y2935D02*
X2413Y2935D01*
X3296Y2935D02*
X3413Y2935D01*
X1296Y2934D02*
X1414Y2934D01*
X2296Y2934D02*
X2413Y2934D01*
X3296Y2934D02*
X3413Y2934D01*
X1296Y2933D02*
X1352Y2933D01*
X1358Y2933D02*
X1414Y2933D01*
X2296Y2933D02*
X2352Y2933D01*
X2358Y2933D02*
X2414Y2933D01*
X3295Y2933D02*
X3351Y2933D01*
X3358Y2933D02*
X3414Y2933D01*
X1295Y2932D02*
X1347Y2932D01*
X1363Y2932D02*
X1414Y2932D01*
X2295Y2932D02*
X2347Y2932D01*
X2363Y2932D02*
X2414Y2932D01*
X3295Y2932D02*
X3347Y2932D01*
X3363Y2932D02*
X3414Y2932D01*
X1295Y2931D02*
X1344Y2931D01*
X1365Y2931D02*
X1415Y2931D01*
X2295Y2931D02*
X2344Y2931D01*
X2365Y2931D02*
X2415Y2931D01*
X3295Y2931D02*
X3344Y2931D01*
X3365Y2931D02*
X3415Y2931D01*
X1294Y2930D02*
X1342Y2930D01*
X1367Y2930D02*
X1415Y2930D01*
X2294Y2930D02*
X2342Y2930D01*
X2367Y2930D02*
X2415Y2930D01*
X3294Y2930D02*
X3342Y2930D01*
X3367Y2930D02*
X3415Y2930D01*
X1294Y2929D02*
X1340Y2929D01*
X1369Y2929D02*
X1415Y2929D01*
X2294Y2929D02*
X2340Y2929D01*
X2369Y2929D02*
X2415Y2929D01*
X3294Y2929D02*
X3340Y2929D01*
X3369Y2929D02*
X3415Y2929D01*
X1294Y2928D02*
X1339Y2928D01*
X1371Y2928D02*
X1416Y2928D01*
X2294Y2928D02*
X2339Y2928D01*
X2371Y2928D02*
X2416Y2928D01*
X3294Y2928D02*
X3339Y2928D01*
X3371Y2928D02*
X3416Y2928D01*
X1293Y2927D02*
X1338Y2927D01*
X1372Y2927D02*
X1416Y2927D01*
X2293Y2927D02*
X2338Y2927D01*
X2372Y2927D02*
X2416Y2927D01*
X3293Y2927D02*
X3338Y2927D01*
X3372Y2927D02*
X3416Y2927D01*
X1293Y2926D02*
X1337Y2926D01*
X1373Y2926D02*
X1416Y2926D01*
X2293Y2926D02*
X2337Y2926D01*
X2373Y2926D02*
X2416Y2926D01*
X3293Y2926D02*
X3337Y2926D01*
X3373Y2926D02*
X3416Y2926D01*
X1293Y2925D02*
X1336Y2925D01*
X1374Y2925D02*
X1417Y2925D01*
X2293Y2925D02*
X2336Y2925D01*
X2374Y2925D02*
X2417Y2925D01*
X3293Y2925D02*
X3336Y2925D01*
X3374Y2925D02*
X3417Y2925D01*
X1293Y2924D02*
X1335Y2924D01*
X1375Y2924D02*
X1417Y2924D01*
X2293Y2924D02*
X2335Y2924D01*
X2375Y2924D02*
X2417Y2924D01*
X3293Y2924D02*
X3335Y2924D01*
X3375Y2924D02*
X3417Y2924D01*
X1292Y2923D02*
X1334Y2923D01*
X1376Y2923D02*
X1417Y2923D01*
X2292Y2923D02*
X2334Y2923D01*
X2376Y2923D02*
X2417Y2923D01*
X3292Y2923D02*
X3334Y2923D01*
X3376Y2923D02*
X3417Y2923D01*
X1292Y2922D02*
X1333Y2922D01*
X1376Y2922D02*
X1417Y2922D01*
X2292Y2922D02*
X2333Y2922D01*
X2376Y2922D02*
X2417Y2922D01*
X3292Y2922D02*
X3333Y2922D01*
X3376Y2922D02*
X3417Y2922D01*
X1292Y2921D02*
X1333Y2921D01*
X1377Y2921D02*
X1418Y2921D01*
X2292Y2921D02*
X2333Y2921D01*
X2377Y2921D02*
X2418Y2921D01*
X3292Y2921D02*
X3332Y2921D01*
X3377Y2921D02*
X3418Y2921D01*
X1292Y2920D02*
X1332Y2920D01*
X1378Y2920D02*
X1418Y2920D01*
X2292Y2920D02*
X2332Y2920D01*
X2378Y2920D02*
X2418Y2920D01*
X3292Y2920D02*
X3332Y2920D01*
X3377Y2920D02*
X3418Y2920D01*
X1292Y2919D02*
X1332Y2919D01*
X1378Y2919D02*
X1418Y2919D01*
X2291Y2919D02*
X2331Y2919D01*
X2378Y2919D02*
X2418Y2919D01*
X3291Y2919D02*
X3331Y2919D01*
X3378Y2919D02*
X3418Y2919D01*
X1291Y2918D02*
X1331Y2918D01*
X1379Y2918D02*
X1418Y2918D01*
X2291Y2918D02*
X2331Y2918D01*
X2379Y2918D02*
X2418Y2918D01*
X3291Y2918D02*
X3331Y2918D01*
X3379Y2918D02*
X3418Y2918D01*
X1291Y2917D02*
X1331Y2917D01*
X1379Y2917D02*
X1418Y2917D01*
X2291Y2917D02*
X2330Y2917D01*
X2379Y2917D02*
X2418Y2917D01*
X3291Y2917D02*
X3330Y2917D01*
X3379Y2917D02*
X3418Y2917D01*
X1291Y2916D02*
X1330Y2916D01*
X1379Y2916D02*
X1419Y2916D01*
X2291Y2916D02*
X2330Y2916D01*
X2379Y2916D02*
X2419Y2916D01*
X3291Y2916D02*
X3330Y2916D01*
X3379Y2916D02*
X3418Y2916D01*
X1291Y2915D02*
X1330Y2915D01*
X1380Y2915D02*
X1419Y2915D01*
X2291Y2915D02*
X2330Y2915D01*
X2380Y2915D02*
X2419Y2915D01*
X3291Y2915D02*
X3330Y2915D01*
X3380Y2915D02*
X3419Y2915D01*
X1291Y2914D02*
X1329Y2914D01*
X1380Y2914D02*
X1419Y2914D01*
X2291Y2914D02*
X2329Y2914D01*
X2380Y2914D02*
X2419Y2914D01*
X3291Y2914D02*
X3329Y2914D01*
X3380Y2914D02*
X3419Y2914D01*
X1291Y2913D02*
X1329Y2913D01*
X1380Y2913D02*
X1419Y2913D01*
X2291Y2913D02*
X2329Y2913D01*
X2380Y2913D02*
X2419Y2913D01*
X3291Y2913D02*
X3329Y2913D01*
X3380Y2913D02*
X3419Y2913D01*
X1291Y2912D02*
X1329Y2912D01*
X1381Y2912D02*
X1419Y2912D01*
X2291Y2912D02*
X2329Y2912D01*
X2381Y2912D02*
X2419Y2912D01*
X3291Y2912D02*
X3329Y2912D01*
X3380Y2912D02*
X3419Y2912D01*
X1291Y2911D02*
X1329Y2911D01*
X1381Y2911D02*
X1419Y2911D01*
X2291Y2911D02*
X2329Y2911D01*
X2381Y2911D02*
X2419Y2911D01*
X3290Y2911D02*
X3329Y2911D01*
X3381Y2911D02*
X3419Y2911D01*
X1290Y2910D02*
X1329Y2910D01*
X1381Y2910D02*
X1419Y2910D01*
X2290Y2910D02*
X2329Y2910D01*
X2381Y2910D02*
X2419Y2910D01*
X3290Y2910D02*
X3329Y2910D01*
X3381Y2910D02*
X3419Y2910D01*
X1290Y2909D02*
X1329Y2909D01*
X1381Y2909D02*
X1419Y2909D01*
X2290Y2909D02*
X2329Y2909D01*
X2381Y2909D02*
X2419Y2909D01*
X3290Y2909D02*
X3329Y2909D01*
X3381Y2909D02*
X3419Y2909D01*
X1290Y2908D02*
X1329Y2908D01*
X1381Y2908D02*
X1419Y2908D01*
X2290Y2908D02*
X2329Y2908D01*
X2381Y2908D02*
X2419Y2908D01*
X3290Y2908D02*
X3329Y2908D01*
X3381Y2908D02*
X3419Y2908D01*
X1290Y2907D02*
X1329Y2907D01*
X1381Y2907D02*
X1419Y2907D01*
X2290Y2907D02*
X2329Y2907D01*
X2381Y2907D02*
X2419Y2907D01*
X3290Y2907D02*
X3329Y2907D01*
X3381Y2907D02*
X3419Y2907D01*
X1290Y2906D02*
X1329Y2906D01*
X1381Y2906D02*
X1419Y2906D01*
X2290Y2906D02*
X2329Y2906D01*
X2381Y2906D02*
X2419Y2906D01*
X3290Y2906D02*
X3329Y2906D01*
X3381Y2906D02*
X3419Y2906D01*
X1290Y2905D02*
X1329Y2905D01*
X1381Y2905D02*
X1419Y2905D01*
X2290Y2905D02*
X2329Y2905D01*
X2381Y2905D02*
X2419Y2905D01*
X3290Y2905D02*
X3329Y2905D01*
X3381Y2905D02*
X3419Y2905D01*
X1291Y2904D02*
X1329Y2904D01*
X1381Y2904D02*
X1419Y2904D01*
X2291Y2904D02*
X2329Y2904D01*
X2381Y2904D02*
X2419Y2904D01*
X3290Y2904D02*
X3329Y2904D01*
X3381Y2904D02*
X3419Y2904D01*
X1291Y2903D02*
X1329Y2903D01*
X1381Y2903D02*
X1419Y2903D01*
X2291Y2903D02*
X2329Y2903D01*
X2381Y2903D02*
X2419Y2903D01*
X3291Y2903D02*
X3329Y2903D01*
X3380Y2903D02*
X3419Y2903D01*
X1291Y2902D02*
X1329Y2902D01*
X1380Y2902D02*
X1419Y2902D01*
X2291Y2902D02*
X2329Y2902D01*
X2380Y2902D02*
X2419Y2902D01*
X3291Y2902D02*
X3329Y2902D01*
X3380Y2902D02*
X3419Y2902D01*
X1291Y2901D02*
X1329Y2901D01*
X1380Y2901D02*
X1419Y2901D01*
X2291Y2901D02*
X2329Y2901D01*
X2380Y2901D02*
X2419Y2901D01*
X3291Y2901D02*
X3329Y2901D01*
X3380Y2901D02*
X3419Y2901D01*
X1291Y2900D02*
X1330Y2900D01*
X1380Y2900D02*
X1419Y2900D01*
X2291Y2900D02*
X2330Y2900D01*
X2380Y2900D02*
X2419Y2900D01*
X3291Y2900D02*
X3330Y2900D01*
X3380Y2900D02*
X3419Y2900D01*
X1291Y2899D02*
X1330Y2899D01*
X1379Y2899D02*
X1419Y2899D01*
X2291Y2899D02*
X2330Y2899D01*
X2379Y2899D02*
X2419Y2899D01*
X3291Y2899D02*
X3330Y2899D01*
X3379Y2899D02*
X3418Y2899D01*
X1291Y2898D02*
X1331Y2898D01*
X1379Y2898D02*
X1418Y2898D01*
X2291Y2898D02*
X2330Y2898D01*
X2379Y2898D02*
X2418Y2898D01*
X3291Y2898D02*
X3330Y2898D01*
X3379Y2898D02*
X3418Y2898D01*
X1291Y2897D02*
X1331Y2897D01*
X1379Y2897D02*
X1418Y2897D01*
X2291Y2897D02*
X2331Y2897D01*
X2379Y2897D02*
X2418Y2897D01*
X3291Y2897D02*
X3331Y2897D01*
X3379Y2897D02*
X3418Y2897D01*
X1292Y2896D02*
X1332Y2896D01*
X1378Y2896D02*
X1418Y2896D01*
X2291Y2896D02*
X2331Y2896D01*
X2378Y2896D02*
X2418Y2896D01*
X3291Y2896D02*
X3331Y2896D01*
X3378Y2896D02*
X3418Y2896D01*
X1292Y2895D02*
X1332Y2895D01*
X1378Y2895D02*
X1418Y2895D01*
X2292Y2895D02*
X2332Y2895D01*
X2378Y2895D02*
X2418Y2895D01*
X3292Y2895D02*
X3332Y2895D01*
X3377Y2895D02*
X3418Y2895D01*
X1292Y2894D02*
X1333Y2894D01*
X1377Y2894D02*
X1418Y2894D01*
X2292Y2894D02*
X2333Y2894D01*
X2377Y2894D02*
X2418Y2894D01*
X3292Y2894D02*
X3332Y2894D01*
X3377Y2894D02*
X3418Y2894D01*
X1292Y2893D02*
X1333Y2893D01*
X1376Y2893D02*
X1417Y2893D01*
X2292Y2893D02*
X2333Y2893D01*
X2376Y2893D02*
X2417Y2893D01*
X3292Y2893D02*
X3333Y2893D01*
X3376Y2893D02*
X3417Y2893D01*
X1292Y2892D02*
X1334Y2892D01*
X1376Y2892D02*
X1417Y2892D01*
X2292Y2892D02*
X2334Y2892D01*
X2376Y2892D02*
X2417Y2892D01*
X3292Y2892D02*
X3334Y2892D01*
X3376Y2892D02*
X3417Y2892D01*
X1293Y2891D02*
X1335Y2891D01*
X1375Y2891D02*
X1417Y2891D01*
X2293Y2891D02*
X2335Y2891D01*
X2375Y2891D02*
X2417Y2891D01*
X3293Y2891D02*
X3335Y2891D01*
X3375Y2891D02*
X3417Y2891D01*
X1293Y2890D02*
X1336Y2890D01*
X1374Y2890D02*
X1417Y2890D01*
X2293Y2890D02*
X2336Y2890D01*
X2374Y2890D02*
X2417Y2890D01*
X3293Y2890D02*
X3336Y2890D01*
X3374Y2890D02*
X3417Y2890D01*
X1293Y2889D02*
X1337Y2889D01*
X1373Y2889D02*
X1416Y2889D01*
X2293Y2889D02*
X2337Y2889D01*
X2373Y2889D02*
X2416Y2889D01*
X3293Y2889D02*
X3337Y2889D01*
X3373Y2889D02*
X3416Y2889D01*
X1293Y2888D02*
X1338Y2888D01*
X1372Y2888D02*
X1416Y2888D01*
X2293Y2888D02*
X2338Y2888D01*
X2372Y2888D02*
X2416Y2888D01*
X3293Y2888D02*
X3338Y2888D01*
X3372Y2888D02*
X3416Y2888D01*
X1294Y2887D02*
X1339Y2887D01*
X1371Y2887D02*
X1416Y2887D01*
X2294Y2887D02*
X2339Y2887D01*
X2371Y2887D02*
X2416Y2887D01*
X3294Y2887D02*
X3339Y2887D01*
X3371Y2887D02*
X3416Y2887D01*
X1294Y2886D02*
X1340Y2886D01*
X1369Y2886D02*
X1415Y2886D01*
X2294Y2886D02*
X2340Y2886D01*
X2369Y2886D02*
X2415Y2886D01*
X3294Y2886D02*
X3340Y2886D01*
X3369Y2886D02*
X3415Y2886D01*
X1294Y2885D02*
X1342Y2885D01*
X1367Y2885D02*
X1415Y2885D01*
X2294Y2885D02*
X2342Y2885D01*
X2367Y2885D02*
X2415Y2885D01*
X3294Y2885D02*
X3342Y2885D01*
X3367Y2885D02*
X3415Y2885D01*
X1295Y2884D02*
X1344Y2884D01*
X1365Y2884D02*
X1415Y2884D01*
X2295Y2884D02*
X2344Y2884D01*
X2365Y2884D02*
X2415Y2884D01*
X3295Y2884D02*
X3344Y2884D01*
X3365Y2884D02*
X3415Y2884D01*
X1295Y2883D02*
X1347Y2883D01*
X1363Y2883D02*
X1414Y2883D01*
X2295Y2883D02*
X2347Y2883D01*
X2363Y2883D02*
X2414Y2883D01*
X3295Y2883D02*
X3347Y2883D01*
X3363Y2883D02*
X3414Y2883D01*
X1296Y2882D02*
X1352Y2882D01*
X1358Y2882D02*
X1414Y2882D01*
X2296Y2882D02*
X2352Y2882D01*
X2358Y2882D02*
X2414Y2882D01*
X3295Y2882D02*
X3352Y2882D01*
X3358Y2882D02*
X3414Y2882D01*
X1296Y2881D02*
X1414Y2881D01*
X2296Y2881D02*
X2413Y2881D01*
X3296Y2881D02*
X3413Y2881D01*
X1297Y2880D02*
X1413Y2880D01*
X2297Y2880D02*
X2413Y2880D01*
X3296Y2880D02*
X3413Y2880D01*
X1297Y2879D02*
X1413Y2879D01*
X2297Y2879D02*
X2413Y2879D01*
X3297Y2879D02*
X3412Y2879D01*
X1298Y2878D02*
X1412Y2878D01*
X2297Y2878D02*
X2412Y2878D01*
X3297Y2878D02*
X3412Y2878D01*
X1298Y2877D02*
X1412Y2877D01*
X2298Y2877D02*
X2412Y2877D01*
X3298Y2877D02*
X3411Y2877D01*
X1299Y2876D02*
X1411Y2876D01*
X2299Y2876D02*
X2411Y2876D01*
X3299Y2876D02*
X3411Y2876D01*
X1299Y2875D02*
X1410Y2875D01*
X2299Y2875D02*
X2410Y2875D01*
X3299Y2875D02*
X3410Y2875D01*
X1300Y2874D02*
X1410Y2874D01*
X2300Y2874D02*
X2410Y2874D01*
X3300Y2874D02*
X3410Y2874D01*
X1300Y2873D02*
X1409Y2873D01*
X2300Y2873D02*
X2409Y2873D01*
X3300Y2873D02*
X3409Y2873D01*
X1301Y2872D02*
X1409Y2872D01*
X2301Y2872D02*
X2409Y2872D01*
X3301Y2872D02*
X3408Y2872D01*
X1302Y2871D02*
X1408Y2871D01*
X2302Y2871D02*
X2408Y2871D01*
X3302Y2871D02*
X3408Y2871D01*
X1302Y2870D02*
X1407Y2870D01*
X2302Y2870D02*
X2407Y2870D01*
X3302Y2870D02*
X3407Y2870D01*
X1303Y2869D02*
X1406Y2869D01*
X2303Y2869D02*
X2406Y2869D01*
X3303Y2869D02*
X3406Y2869D01*
X1304Y2868D02*
X1406Y2868D01*
X2304Y2868D02*
X2406Y2868D01*
X3304Y2868D02*
X3406Y2868D01*
X1305Y2867D02*
X1405Y2867D01*
X2305Y2867D02*
X2405Y2867D01*
X3305Y2867D02*
X3405Y2867D01*
X1305Y2866D02*
X1404Y2866D01*
X2305Y2866D02*
X2404Y2866D01*
X3305Y2866D02*
X3404Y2866D01*
X1306Y2865D02*
X1403Y2865D01*
X2306Y2865D02*
X2403Y2865D01*
X3306Y2865D02*
X3403Y2865D01*
X1307Y2864D02*
X1402Y2864D01*
X2307Y2864D02*
X2402Y2864D01*
X3307Y2864D02*
X3402Y2864D01*
X1308Y2863D02*
X1402Y2863D01*
X2308Y2863D02*
X2401Y2863D01*
X3308Y2863D02*
X3401Y2863D01*
X1309Y2862D02*
X1401Y2862D01*
X2309Y2862D02*
X2401Y2862D01*
X3309Y2862D02*
X3401Y2862D01*
X1310Y2861D02*
X1400Y2861D01*
X2310Y2861D02*
X2400Y2861D01*
X3310Y2861D02*
X3399Y2861D01*
X1311Y2860D02*
X1398Y2860D01*
X2311Y2860D02*
X2398Y2860D01*
X3311Y2860D02*
X3398Y2860D01*
X1312Y2859D02*
X1397Y2859D01*
X2312Y2859D02*
X2397Y2859D01*
X3312Y2859D02*
X3397Y2859D01*
X1313Y2858D02*
X1396Y2858D01*
X2313Y2858D02*
X2396Y2858D01*
X3313Y2858D02*
X3396Y2858D01*
X1315Y2857D02*
X1395Y2857D01*
X2315Y2857D02*
X2395Y2857D01*
X3315Y2857D02*
X3395Y2857D01*
X1316Y2856D02*
X1394Y2856D01*
X2316Y2856D02*
X2394Y2856D01*
X3316Y2856D02*
X3394Y2856D01*
X1317Y2855D02*
X1392Y2855D01*
X2317Y2855D02*
X2392Y2855D01*
X3317Y2855D02*
X3392Y2855D01*
X1319Y2854D02*
X1391Y2854D01*
X2319Y2854D02*
X2391Y2854D01*
X3319Y2854D02*
X3391Y2854D01*
X1320Y2853D02*
X1389Y2853D01*
X2320Y2853D02*
X2389Y2853D01*
X3320Y2853D02*
X3389Y2853D01*
X1322Y2852D02*
X1388Y2852D01*
X2322Y2852D02*
X2388Y2852D01*
X3322Y2852D02*
X3388Y2852D01*
X1323Y2851D02*
X1386Y2851D01*
X2323Y2851D02*
X2386Y2851D01*
X3323Y2851D02*
X3386Y2851D01*
X1325Y2850D02*
X1384Y2850D01*
X2325Y2850D02*
X2384Y2850D01*
X3325Y2850D02*
X3384Y2850D01*
X1327Y2849D02*
X1382Y2849D01*
X2327Y2849D02*
X2382Y2849D01*
X3327Y2849D02*
X3382Y2849D01*
X1329Y2848D02*
X1380Y2848D01*
X2329Y2848D02*
X2380Y2848D01*
X3329Y2848D02*
X3380Y2848D01*
X1332Y2847D02*
X1378Y2847D01*
X2332Y2847D02*
X2378Y2847D01*
X3332Y2847D02*
X3378Y2847D01*
X1335Y2846D02*
X1375Y2846D01*
X2335Y2846D02*
X2375Y2846D01*
X3335Y2846D02*
X3375Y2846D01*
X1338Y2845D02*
X1371Y2845D01*
X2338Y2845D02*
X2371Y2845D01*
X3338Y2845D02*
X3371Y2845D01*
X1342Y2844D02*
X1367Y2844D01*
X2342Y2844D02*
X2367Y2844D01*
X3342Y2844D02*
X3367Y2844D01*
X1348Y2843D02*
X1361Y2843D01*
X2348Y2843D02*
X2361Y2843D01*
X3348Y2843D02*
X3361Y2843D01*
X792Y2736D02*
X800Y2736D01*
X1270Y2736D02*
X1278Y2736D01*
X1792Y2736D02*
X1800Y2736D01*
X2270Y2736D02*
X2278Y2736D01*
X2792Y2736D02*
X2800Y2736D01*
X3270Y2736D02*
X3278Y2736D01*
X784Y2735D02*
X807Y2735D01*
X1263Y2735D02*
X1286Y2735D01*
X1784Y2735D02*
X1807Y2735D01*
X2263Y2735D02*
X2286Y2735D01*
X2784Y2735D02*
X2807Y2735D01*
X3262Y2735D02*
X3286Y2735D01*
X780Y2734D02*
X812Y2734D01*
X1258Y2734D02*
X1290Y2734D01*
X1780Y2734D02*
X1812Y2734D01*
X2258Y2734D02*
X2290Y2734D01*
X2780Y2734D02*
X2812Y2734D01*
X3258Y2734D02*
X3290Y2734D01*
X776Y2733D02*
X815Y2733D01*
X1255Y2733D02*
X1294Y2733D01*
X1776Y2733D02*
X1815Y2733D01*
X2254Y2733D02*
X2294Y2733D01*
X2776Y2733D02*
X2815Y2733D01*
X3254Y2733D02*
X3294Y2733D01*
X773Y2732D02*
X818Y2732D01*
X1252Y2732D02*
X1296Y2732D01*
X1773Y2732D02*
X1818Y2732D01*
X2252Y2732D02*
X2296Y2732D01*
X2773Y2732D02*
X2818Y2732D01*
X3252Y2732D02*
X3296Y2732D01*
X771Y2731D02*
X821Y2731D01*
X1249Y2731D02*
X1299Y2731D01*
X1771Y2731D02*
X1821Y2731D01*
X2249Y2731D02*
X2299Y2731D01*
X2771Y2731D02*
X2821Y2731D01*
X3249Y2731D02*
X3299Y2731D01*
X769Y2730D02*
X823Y2730D01*
X1247Y2730D02*
X1301Y2730D01*
X1769Y2730D02*
X1823Y2730D01*
X2247Y2730D02*
X2301Y2730D01*
X2769Y2730D02*
X2823Y2730D01*
X3247Y2730D02*
X3301Y2730D01*
X767Y2729D02*
X825Y2729D01*
X1245Y2729D02*
X1303Y2729D01*
X1767Y2729D02*
X1825Y2729D01*
X2245Y2729D02*
X2303Y2729D01*
X2767Y2729D02*
X2825Y2729D01*
X3245Y2729D02*
X3303Y2729D01*
X765Y2728D02*
X827Y2728D01*
X1243Y2728D02*
X1305Y2728D01*
X1765Y2728D02*
X1827Y2728D01*
X2243Y2728D02*
X2305Y2728D01*
X2765Y2728D02*
X2827Y2728D01*
X3243Y2728D02*
X3305Y2728D01*
X763Y2727D02*
X828Y2727D01*
X1241Y2727D02*
X1307Y2727D01*
X1763Y2727D02*
X1828Y2727D01*
X2241Y2727D02*
X2307Y2727D01*
X2763Y2727D02*
X2828Y2727D01*
X3241Y2727D02*
X3307Y2727D01*
X761Y2726D02*
X830Y2726D01*
X1240Y2726D02*
X1308Y2726D01*
X1761Y2726D02*
X1830Y2726D01*
X2240Y2726D02*
X2308Y2726D01*
X2761Y2726D02*
X2830Y2726D01*
X3240Y2726D02*
X3308Y2726D01*
X760Y2725D02*
X832Y2725D01*
X1238Y2725D02*
X1310Y2725D01*
X1760Y2725D02*
X1832Y2725D01*
X2238Y2725D02*
X2310Y2725D01*
X2760Y2725D02*
X2832Y2725D01*
X3238Y2725D02*
X3310Y2725D01*
X759Y2724D02*
X833Y2724D01*
X1237Y2724D02*
X1311Y2724D01*
X1758Y2724D02*
X1833Y2724D01*
X2237Y2724D02*
X2311Y2724D01*
X2758Y2724D02*
X2833Y2724D01*
X3237Y2724D02*
X3311Y2724D01*
X757Y2723D02*
X834Y2723D01*
X1236Y2723D02*
X1313Y2723D01*
X1757Y2723D02*
X1834Y2723D01*
X2235Y2723D02*
X2313Y2723D01*
X2757Y2723D02*
X2834Y2723D01*
X3235Y2723D02*
X3313Y2723D01*
X756Y2722D02*
X836Y2722D01*
X1234Y2722D02*
X1314Y2722D01*
X1756Y2722D02*
X1836Y2722D01*
X2234Y2722D02*
X2314Y2722D01*
X2756Y2722D02*
X2836Y2722D01*
X3234Y2722D02*
X3314Y2722D01*
X755Y2721D02*
X837Y2721D01*
X1233Y2721D02*
X1315Y2721D01*
X1754Y2721D02*
X1837Y2721D01*
X2233Y2721D02*
X2315Y2721D01*
X2754Y2721D02*
X2837Y2721D01*
X3233Y2721D02*
X3315Y2721D01*
X753Y2720D02*
X838Y2720D01*
X1232Y2720D02*
X1316Y2720D01*
X1753Y2720D02*
X1838Y2720D01*
X2232Y2720D02*
X2316Y2720D01*
X2753Y2720D02*
X2838Y2720D01*
X3232Y2720D02*
X3316Y2720D01*
X752Y2719D02*
X839Y2719D01*
X1231Y2719D02*
X1318Y2719D01*
X1752Y2719D02*
X1839Y2719D01*
X2231Y2719D02*
X2318Y2719D01*
X2752Y2719D02*
X2839Y2719D01*
X3231Y2719D02*
X3317Y2719D01*
X751Y2718D02*
X840Y2718D01*
X1230Y2718D02*
X1319Y2718D01*
X1751Y2718D02*
X1840Y2718D01*
X2229Y2718D02*
X2319Y2718D01*
X2751Y2718D02*
X2840Y2718D01*
X3229Y2718D02*
X3319Y2718D01*
X750Y2717D02*
X841Y2717D01*
X1228Y2717D02*
X1320Y2717D01*
X1750Y2717D02*
X1841Y2717D01*
X2228Y2717D02*
X2320Y2717D01*
X2750Y2717D02*
X2841Y2717D01*
X3228Y2717D02*
X3320Y2717D01*
X749Y2716D02*
X842Y2716D01*
X1228Y2716D02*
X1321Y2716D01*
X1749Y2716D02*
X1842Y2716D01*
X2228Y2716D02*
X2321Y2716D01*
X2749Y2716D02*
X2842Y2716D01*
X3227Y2716D02*
X3321Y2716D01*
X748Y2715D02*
X843Y2715D01*
X1227Y2715D02*
X1322Y2715D01*
X1748Y2715D02*
X1843Y2715D01*
X2227Y2715D02*
X2321Y2715D01*
X2748Y2715D02*
X2843Y2715D01*
X3227Y2715D02*
X3321Y2715D01*
X747Y2714D02*
X844Y2714D01*
X1226Y2714D02*
X1322Y2714D01*
X1747Y2714D02*
X1844Y2714D01*
X2226Y2714D02*
X2322Y2714D01*
X2747Y2714D02*
X2844Y2714D01*
X3226Y2714D02*
X3322Y2714D01*
X747Y2713D02*
X845Y2713D01*
X1225Y2713D02*
X1323Y2713D01*
X1747Y2713D02*
X1845Y2713D01*
X2225Y2713D02*
X2323Y2713D01*
X2746Y2713D02*
X2845Y2713D01*
X3225Y2713D02*
X3323Y2713D01*
X746Y2712D02*
X846Y2712D01*
X1224Y2712D02*
X1324Y2712D01*
X1746Y2712D02*
X1846Y2712D01*
X2224Y2712D02*
X2324Y2712D01*
X2746Y2712D02*
X2846Y2712D01*
X3224Y2712D02*
X3324Y2712D01*
X745Y2711D02*
X847Y2711D01*
X1223Y2711D02*
X1325Y2711D01*
X1745Y2711D02*
X1846Y2711D01*
X2223Y2711D02*
X2325Y2711D01*
X2745Y2711D02*
X2846Y2711D01*
X3223Y2711D02*
X3325Y2711D01*
X744Y2710D02*
X847Y2710D01*
X1223Y2710D02*
X1326Y2710D01*
X1744Y2710D02*
X1847Y2710D01*
X2223Y2710D02*
X2326Y2710D01*
X2744Y2710D02*
X2847Y2710D01*
X3223Y2710D02*
X3325Y2710D01*
X744Y2709D02*
X848Y2709D01*
X1222Y2709D02*
X1326Y2709D01*
X1744Y2709D02*
X1848Y2709D01*
X2222Y2709D02*
X2326Y2709D01*
X2743Y2709D02*
X2848Y2709D01*
X3222Y2709D02*
X3326Y2709D01*
X743Y2708D02*
X849Y2708D01*
X1221Y2708D02*
X1327Y2708D01*
X1743Y2708D02*
X1849Y2708D01*
X2221Y2708D02*
X2327Y2708D01*
X2743Y2708D02*
X2849Y2708D01*
X3221Y2708D02*
X3327Y2708D01*
X742Y2707D02*
X849Y2707D01*
X1220Y2707D02*
X1328Y2707D01*
X1742Y2707D02*
X1849Y2707D01*
X2220Y2707D02*
X2328Y2707D01*
X2742Y2707D02*
X2849Y2707D01*
X3220Y2707D02*
X3328Y2707D01*
X742Y2706D02*
X850Y2706D01*
X1220Y2706D02*
X1328Y2706D01*
X1741Y2706D02*
X1850Y2706D01*
X2220Y2706D02*
X2328Y2706D01*
X2741Y2706D02*
X2850Y2706D01*
X3220Y2706D02*
X3328Y2706D01*
X741Y2705D02*
X851Y2705D01*
X1219Y2705D02*
X1329Y2705D01*
X1741Y2705D02*
X1851Y2705D01*
X2219Y2705D02*
X2329Y2705D01*
X2741Y2705D02*
X2851Y2705D01*
X3219Y2705D02*
X3329Y2705D01*
X740Y2704D02*
X851Y2704D01*
X1219Y2704D02*
X1330Y2704D01*
X1740Y2704D02*
X1851Y2704D01*
X2219Y2704D02*
X2330Y2704D01*
X2740Y2704D02*
X2851Y2704D01*
X3219Y2704D02*
X3329Y2704D01*
X740Y2703D02*
X852Y2703D01*
X1218Y2703D02*
X1330Y2703D01*
X1740Y2703D02*
X1852Y2703D01*
X2218Y2703D02*
X2330Y2703D01*
X2740Y2703D02*
X2852Y2703D01*
X3218Y2703D02*
X3330Y2703D01*
X739Y2702D02*
X852Y2702D01*
X1217Y2702D02*
X1331Y2702D01*
X1739Y2702D02*
X1852Y2702D01*
X2217Y2702D02*
X2331Y2702D01*
X2739Y2702D02*
X2852Y2702D01*
X3217Y2702D02*
X3331Y2702D01*
X739Y2701D02*
X853Y2701D01*
X1217Y2701D02*
X1331Y2701D01*
X1739Y2701D02*
X1853Y2701D01*
X2217Y2701D02*
X2331Y2701D01*
X2739Y2701D02*
X2853Y2701D01*
X3217Y2701D02*
X3331Y2701D01*
X738Y2700D02*
X853Y2700D01*
X1216Y2700D02*
X1332Y2700D01*
X1738Y2700D02*
X1853Y2700D01*
X2216Y2700D02*
X2332Y2700D01*
X2738Y2700D02*
X2853Y2700D01*
X3216Y2700D02*
X3332Y2700D01*
X738Y2699D02*
X854Y2699D01*
X1216Y2699D02*
X1332Y2699D01*
X1738Y2699D02*
X1854Y2699D01*
X2216Y2699D02*
X2332Y2699D01*
X2738Y2699D02*
X2854Y2699D01*
X3216Y2699D02*
X3332Y2699D01*
X737Y2698D02*
X854Y2698D01*
X1215Y2698D02*
X1333Y2698D01*
X1737Y2698D02*
X1854Y2698D01*
X2215Y2698D02*
X2333Y2698D01*
X2737Y2698D02*
X2854Y2698D01*
X3215Y2698D02*
X3333Y2698D01*
X737Y2697D02*
X855Y2697D01*
X1215Y2697D02*
X1333Y2697D01*
X1737Y2697D02*
X1855Y2697D01*
X2215Y2697D02*
X2333Y2697D01*
X2737Y2697D02*
X2855Y2697D01*
X3215Y2697D02*
X3333Y2697D01*
X736Y2696D02*
X788Y2696D01*
X803Y2696D02*
X855Y2696D01*
X1215Y2696D02*
X1267Y2696D01*
X1282Y2696D02*
X1334Y2696D01*
X1736Y2696D02*
X1788Y2696D01*
X1803Y2696D02*
X1855Y2696D01*
X2214Y2696D02*
X2267Y2696D01*
X2282Y2696D02*
X2334Y2696D01*
X2736Y2696D02*
X2788Y2696D01*
X2803Y2696D02*
X2855Y2696D01*
X3214Y2696D02*
X3267Y2696D01*
X3281Y2696D02*
X3334Y2696D01*
X736Y2695D02*
X786Y2695D01*
X806Y2695D02*
X856Y2695D01*
X1214Y2695D02*
X1264Y2695D01*
X1284Y2695D02*
X1334Y2695D01*
X1736Y2695D02*
X1786Y2695D01*
X1806Y2695D02*
X1856Y2695D01*
X2214Y2695D02*
X2264Y2695D01*
X2284Y2695D02*
X2334Y2695D01*
X2736Y2695D02*
X2785Y2695D01*
X2806Y2695D02*
X2856Y2695D01*
X3214Y2695D02*
X3264Y2695D01*
X3284Y2695D02*
X3334Y2695D01*
X736Y2694D02*
X784Y2694D01*
X808Y2694D02*
X856Y2694D01*
X1214Y2694D02*
X1262Y2694D01*
X1286Y2694D02*
X1334Y2694D01*
X1735Y2694D02*
X1784Y2694D01*
X1808Y2694D02*
X1856Y2694D01*
X2214Y2694D02*
X2262Y2694D01*
X2286Y2694D02*
X2334Y2694D01*
X2735Y2694D02*
X2783Y2694D01*
X2808Y2694D02*
X2856Y2694D01*
X3214Y2694D02*
X3262Y2694D01*
X3286Y2694D02*
X3334Y2694D01*
X735Y2693D02*
X782Y2693D01*
X810Y2693D02*
X856Y2693D01*
X1213Y2693D02*
X1260Y2693D01*
X1288Y2693D02*
X1335Y2693D01*
X1735Y2693D02*
X1782Y2693D01*
X1810Y2693D02*
X1856Y2693D01*
X2213Y2693D02*
X2260Y2693D01*
X2288Y2693D02*
X2335Y2693D01*
X2735Y2693D02*
X2782Y2693D01*
X2810Y2693D02*
X2856Y2693D01*
X3213Y2693D02*
X3260Y2693D01*
X3288Y2693D02*
X3335Y2693D01*
X735Y2692D02*
X780Y2692D01*
X811Y2692D02*
X857Y2692D01*
X1213Y2692D02*
X1259Y2692D01*
X1290Y2692D02*
X1335Y2692D01*
X1735Y2692D02*
X1780Y2692D01*
X1811Y2692D02*
X1857Y2692D01*
X2213Y2692D02*
X2258Y2692D01*
X2290Y2692D02*
X2335Y2692D01*
X2735Y2692D02*
X2780Y2692D01*
X2811Y2692D02*
X2857Y2692D01*
X3213Y2692D02*
X3258Y2692D01*
X3290Y2692D02*
X3335Y2692D01*
X734Y2691D02*
X779Y2691D01*
X812Y2691D02*
X857Y2691D01*
X1213Y2691D02*
X1257Y2691D01*
X1291Y2691D02*
X1335Y2691D01*
X1734Y2691D02*
X1779Y2691D01*
X1812Y2691D02*
X1857Y2691D01*
X2213Y2691D02*
X2257Y2691D01*
X2291Y2691D02*
X2335Y2691D01*
X2734Y2691D02*
X2779Y2691D01*
X2812Y2691D02*
X2857Y2691D01*
X3213Y2691D02*
X3257Y2691D01*
X3291Y2691D02*
X3335Y2691D01*
X734Y2690D02*
X778Y2690D01*
X814Y2690D02*
X857Y2690D01*
X1212Y2690D02*
X1256Y2690D01*
X1292Y2690D02*
X1336Y2690D01*
X1734Y2690D02*
X1778Y2690D01*
X1814Y2690D02*
X1857Y2690D01*
X2212Y2690D02*
X2256Y2690D01*
X2292Y2690D02*
X2336Y2690D01*
X2734Y2690D02*
X2778Y2690D01*
X2814Y2690D02*
X2857Y2690D01*
X3212Y2690D02*
X3256Y2690D01*
X3292Y2690D02*
X3336Y2690D01*
X734Y2689D02*
X777Y2689D01*
X815Y2689D02*
X858Y2689D01*
X1212Y2689D02*
X1255Y2689D01*
X1293Y2689D02*
X1336Y2689D01*
X1734Y2689D02*
X1777Y2689D01*
X1815Y2689D02*
X1858Y2689D01*
X2212Y2689D02*
X2255Y2689D01*
X2293Y2689D02*
X2336Y2689D01*
X2734Y2689D02*
X2777Y2689D01*
X2815Y2689D02*
X2858Y2689D01*
X3212Y2689D02*
X3255Y2689D01*
X3293Y2689D02*
X3336Y2689D01*
X734Y2688D02*
X776Y2688D01*
X816Y2688D02*
X858Y2688D01*
X1212Y2688D02*
X1254Y2688D01*
X1294Y2688D02*
X1336Y2688D01*
X1734Y2688D02*
X1776Y2688D01*
X1816Y2688D02*
X1858Y2688D01*
X2212Y2688D02*
X2254Y2688D01*
X2294Y2688D02*
X2336Y2688D01*
X2734Y2688D02*
X2776Y2688D01*
X2815Y2688D02*
X2858Y2688D01*
X3212Y2688D02*
X3254Y2688D01*
X3294Y2688D02*
X3336Y2688D01*
X733Y2687D02*
X775Y2687D01*
X816Y2687D02*
X858Y2687D01*
X1212Y2687D02*
X1253Y2687D01*
X1295Y2687D02*
X1336Y2687D01*
X1733Y2687D02*
X1775Y2687D01*
X1816Y2687D02*
X1858Y2687D01*
X2212Y2687D02*
X2253Y2687D01*
X2295Y2687D02*
X2336Y2687D01*
X2733Y2687D02*
X2775Y2687D01*
X2816Y2687D02*
X2858Y2687D01*
X3212Y2687D02*
X3253Y2687D01*
X3295Y2687D02*
X3336Y2687D01*
X733Y2686D02*
X774Y2686D01*
X817Y2686D02*
X858Y2686D01*
X1211Y2686D02*
X1253Y2686D01*
X1296Y2686D02*
X1337Y2686D01*
X1733Y2686D02*
X1774Y2686D01*
X1817Y2686D02*
X1858Y2686D01*
X2211Y2686D02*
X2253Y2686D01*
X2296Y2686D02*
X2337Y2686D01*
X2733Y2686D02*
X2774Y2686D01*
X2817Y2686D02*
X2858Y2686D01*
X3211Y2686D02*
X3253Y2686D01*
X3296Y2686D02*
X3337Y2686D01*
X733Y2685D02*
X774Y2685D01*
X818Y2685D02*
X859Y2685D01*
X1211Y2685D02*
X1252Y2685D01*
X1296Y2685D02*
X1337Y2685D01*
X1733Y2685D02*
X1774Y2685D01*
X1818Y2685D02*
X1859Y2685D01*
X2211Y2685D02*
X2252Y2685D01*
X2296Y2685D02*
X2337Y2685D01*
X2733Y2685D02*
X2774Y2685D01*
X2818Y2685D02*
X2859Y2685D01*
X3211Y2685D02*
X3252Y2685D01*
X3296Y2685D02*
X3337Y2685D01*
X733Y2684D02*
X773Y2684D01*
X818Y2684D02*
X859Y2684D01*
X1211Y2684D02*
X1251Y2684D01*
X1297Y2684D02*
X1337Y2684D01*
X1733Y2684D02*
X1773Y2684D01*
X1818Y2684D02*
X1859Y2684D01*
X2211Y2684D02*
X2251Y2684D01*
X2297Y2684D02*
X2337Y2684D01*
X2733Y2684D02*
X2773Y2684D01*
X2818Y2684D02*
X2859Y2684D01*
X3211Y2684D02*
X3251Y2684D01*
X3297Y2684D02*
X3337Y2684D01*
X733Y2683D02*
X773Y2683D01*
X819Y2683D02*
X859Y2683D01*
X1211Y2683D02*
X1251Y2683D01*
X1297Y2683D02*
X1337Y2683D01*
X1732Y2683D02*
X1773Y2683D01*
X1819Y2683D02*
X1859Y2683D01*
X2211Y2683D02*
X2251Y2683D01*
X2297Y2683D02*
X2337Y2683D01*
X2732Y2683D02*
X2772Y2683D01*
X2819Y2683D02*
X2859Y2683D01*
X3211Y2683D02*
X3251Y2683D01*
X3297Y2683D02*
X3337Y2683D01*
X732Y2682D02*
X772Y2682D01*
X819Y2682D02*
X859Y2682D01*
X1211Y2682D02*
X1250Y2682D01*
X1298Y2682D02*
X1337Y2682D01*
X1732Y2682D02*
X1772Y2682D01*
X1819Y2682D02*
X1859Y2682D01*
X2211Y2682D02*
X2250Y2682D01*
X2298Y2682D02*
X2337Y2682D01*
X2732Y2682D02*
X2772Y2682D01*
X2819Y2682D02*
X2859Y2682D01*
X3211Y2682D02*
X3250Y2682D01*
X3298Y2682D02*
X3337Y2682D01*
X732Y2681D02*
X772Y2681D01*
X820Y2681D02*
X859Y2681D01*
X1211Y2681D02*
X1250Y2681D01*
X1298Y2681D02*
X1338Y2681D01*
X1732Y2681D02*
X1772Y2681D01*
X1820Y2681D02*
X1859Y2681D01*
X2210Y2681D02*
X2250Y2681D01*
X2298Y2681D02*
X2338Y2681D01*
X2732Y2681D02*
X2771Y2681D01*
X2820Y2681D02*
X2859Y2681D01*
X3210Y2681D02*
X3250Y2681D01*
X3298Y2681D02*
X3338Y2681D01*
X732Y2680D02*
X771Y2680D01*
X820Y2680D02*
X859Y2680D01*
X1210Y2680D02*
X1250Y2680D01*
X1299Y2680D02*
X1338Y2680D01*
X1732Y2680D02*
X1771Y2680D01*
X1820Y2680D02*
X1859Y2680D01*
X2210Y2680D02*
X2249Y2680D01*
X2299Y2680D02*
X2338Y2680D01*
X2732Y2680D02*
X2771Y2680D01*
X2820Y2680D02*
X2859Y2680D01*
X3210Y2680D02*
X3249Y2680D01*
X3299Y2680D02*
X3338Y2680D01*
X732Y2679D02*
X771Y2679D01*
X821Y2679D02*
X860Y2679D01*
X1210Y2679D02*
X1249Y2679D01*
X1299Y2679D02*
X1338Y2679D01*
X1732Y2679D02*
X1771Y2679D01*
X1821Y2679D02*
X1860Y2679D01*
X2210Y2679D02*
X2249Y2679D01*
X2299Y2679D02*
X2338Y2679D01*
X2732Y2679D02*
X2771Y2679D01*
X2821Y2679D02*
X2860Y2679D01*
X3210Y2679D02*
X3249Y2679D01*
X3299Y2679D02*
X3338Y2679D01*
X732Y2678D02*
X770Y2678D01*
X821Y2678D02*
X860Y2678D01*
X1210Y2678D02*
X1249Y2678D01*
X1299Y2678D02*
X1338Y2678D01*
X1732Y2678D02*
X1770Y2678D01*
X1821Y2678D02*
X1860Y2678D01*
X2210Y2678D02*
X2249Y2678D01*
X2299Y2678D02*
X2338Y2678D01*
X2732Y2678D02*
X2770Y2678D01*
X2821Y2678D02*
X2860Y2678D01*
X3210Y2678D02*
X3249Y2678D01*
X3299Y2678D02*
X3338Y2678D01*
X732Y2677D02*
X770Y2677D01*
X821Y2677D02*
X860Y2677D01*
X1210Y2677D02*
X1249Y2677D01*
X1300Y2677D02*
X1338Y2677D01*
X1732Y2677D02*
X1770Y2677D01*
X1821Y2677D02*
X1860Y2677D01*
X2210Y2677D02*
X2249Y2677D01*
X2300Y2677D02*
X2338Y2677D01*
X2732Y2677D02*
X2770Y2677D01*
X2821Y2677D02*
X2860Y2677D01*
X3210Y2677D02*
X3248Y2677D01*
X3300Y2677D02*
X3338Y2677D01*
X732Y2676D02*
X770Y2676D01*
X822Y2676D02*
X860Y2676D01*
X1210Y2676D02*
X1248Y2676D01*
X1300Y2676D02*
X1338Y2676D01*
X1732Y2676D02*
X1770Y2676D01*
X1821Y2676D02*
X1860Y2676D01*
X2210Y2676D02*
X2248Y2676D01*
X2300Y2676D02*
X2338Y2676D01*
X2732Y2676D02*
X2770Y2676D01*
X2821Y2676D02*
X2860Y2676D01*
X3210Y2676D02*
X3248Y2676D01*
X3300Y2676D02*
X3338Y2676D01*
X732Y2675D02*
X770Y2675D01*
X822Y2675D02*
X860Y2675D01*
X1210Y2675D02*
X1248Y2675D01*
X1300Y2675D02*
X1338Y2675D01*
X1731Y2675D02*
X1770Y2675D01*
X1822Y2675D02*
X1860Y2675D01*
X2210Y2675D02*
X2248Y2675D01*
X2300Y2675D02*
X2338Y2675D01*
X2731Y2675D02*
X2770Y2675D01*
X2822Y2675D02*
X2860Y2675D01*
X3210Y2675D02*
X3248Y2675D01*
X3300Y2675D02*
X3338Y2675D01*
X731Y2674D02*
X770Y2674D01*
X822Y2674D02*
X860Y2674D01*
X1210Y2674D02*
X1248Y2674D01*
X1300Y2674D02*
X1338Y2674D01*
X1731Y2674D02*
X1770Y2674D01*
X1822Y2674D02*
X1860Y2674D01*
X2210Y2674D02*
X2248Y2674D01*
X2300Y2674D02*
X2338Y2674D01*
X2731Y2674D02*
X2770Y2674D01*
X2822Y2674D02*
X2860Y2674D01*
X3210Y2674D02*
X3248Y2674D01*
X3300Y2674D02*
X3338Y2674D01*
X731Y2673D02*
X770Y2673D01*
X822Y2673D02*
X860Y2673D01*
X1210Y2673D02*
X1248Y2673D01*
X1300Y2673D02*
X1338Y2673D01*
X1731Y2673D02*
X1770Y2673D01*
X1822Y2673D02*
X1860Y2673D01*
X2210Y2673D02*
X2248Y2673D01*
X2300Y2673D02*
X2338Y2673D01*
X2731Y2673D02*
X2770Y2673D01*
X2822Y2673D02*
X2860Y2673D01*
X3210Y2673D02*
X3248Y2673D01*
X3300Y2673D02*
X3338Y2673D01*
X731Y2672D02*
X770Y2672D01*
X822Y2672D02*
X860Y2672D01*
X1210Y2672D02*
X1248Y2672D01*
X1300Y2672D02*
X1338Y2672D01*
X1731Y2672D02*
X1770Y2672D01*
X1822Y2672D02*
X1860Y2672D01*
X2210Y2672D02*
X2248Y2672D01*
X2300Y2672D02*
X2338Y2672D01*
X2731Y2672D02*
X2770Y2672D01*
X2822Y2672D02*
X2860Y2672D01*
X3210Y2672D02*
X3248Y2672D01*
X3300Y2672D02*
X3338Y2672D01*
X731Y2671D02*
X770Y2671D01*
X822Y2671D02*
X860Y2671D01*
X1210Y2671D02*
X1248Y2671D01*
X1300Y2671D02*
X1339Y2671D01*
X1731Y2671D02*
X1770Y2671D01*
X1822Y2671D02*
X1860Y2671D01*
X2210Y2671D02*
X2248Y2671D01*
X2300Y2671D02*
X2338Y2671D01*
X2731Y2671D02*
X2770Y2671D01*
X2822Y2671D02*
X2860Y2671D01*
X3210Y2671D02*
X3248Y2671D01*
X3300Y2671D02*
X3338Y2671D01*
X731Y2670D02*
X770Y2670D01*
X822Y2670D02*
X860Y2670D01*
X1210Y2670D02*
X1248Y2670D01*
X1300Y2670D02*
X1338Y2670D01*
X1731Y2670D02*
X1770Y2670D01*
X1822Y2670D02*
X1860Y2670D01*
X2210Y2670D02*
X2248Y2670D01*
X2300Y2670D02*
X2338Y2670D01*
X2731Y2670D02*
X2770Y2670D01*
X2822Y2670D02*
X2860Y2670D01*
X3210Y2670D02*
X3248Y2670D01*
X3300Y2670D02*
X3338Y2670D01*
X731Y2669D02*
X770Y2669D01*
X822Y2669D02*
X860Y2669D01*
X1210Y2669D02*
X1248Y2669D01*
X1300Y2669D02*
X1338Y2669D01*
X1731Y2669D02*
X1770Y2669D01*
X1822Y2669D02*
X1860Y2669D01*
X2210Y2669D02*
X2248Y2669D01*
X2300Y2669D02*
X2338Y2669D01*
X2731Y2669D02*
X2770Y2669D01*
X2822Y2669D02*
X2860Y2669D01*
X3210Y2669D02*
X3248Y2669D01*
X3300Y2669D02*
X3338Y2669D01*
X732Y2668D02*
X770Y2668D01*
X822Y2668D02*
X860Y2668D01*
X1210Y2668D02*
X1248Y2668D01*
X1300Y2668D02*
X1338Y2668D01*
X1731Y2668D02*
X1770Y2668D01*
X1822Y2668D02*
X1860Y2668D01*
X2210Y2668D02*
X2248Y2668D01*
X2300Y2668D02*
X2338Y2668D01*
X2731Y2668D02*
X2770Y2668D01*
X2822Y2668D02*
X2860Y2668D01*
X3210Y2668D02*
X3248Y2668D01*
X3300Y2668D02*
X3338Y2668D01*
X732Y2667D02*
X770Y2667D01*
X822Y2667D02*
X860Y2667D01*
X1210Y2667D02*
X1248Y2667D01*
X1300Y2667D02*
X1338Y2667D01*
X1732Y2667D02*
X1770Y2667D01*
X1822Y2667D02*
X1860Y2667D01*
X2210Y2667D02*
X2248Y2667D01*
X2300Y2667D02*
X2338Y2667D01*
X2731Y2667D02*
X2770Y2667D01*
X2821Y2667D02*
X2860Y2667D01*
X3210Y2667D02*
X3248Y2667D01*
X3300Y2667D02*
X3338Y2667D01*
X732Y2666D02*
X770Y2666D01*
X821Y2666D02*
X860Y2666D01*
X1210Y2666D02*
X1248Y2666D01*
X1300Y2666D02*
X1338Y2666D01*
X1732Y2666D02*
X1770Y2666D01*
X1821Y2666D02*
X1860Y2666D01*
X2210Y2666D02*
X2248Y2666D01*
X2300Y2666D02*
X2338Y2666D01*
X2732Y2666D02*
X2770Y2666D01*
X2821Y2666D02*
X2860Y2666D01*
X3210Y2666D02*
X3248Y2666D01*
X3300Y2666D02*
X3338Y2666D01*
X732Y2665D02*
X770Y2665D01*
X821Y2665D02*
X860Y2665D01*
X1210Y2665D02*
X1249Y2665D01*
X1299Y2665D02*
X1338Y2665D01*
X1732Y2665D02*
X1770Y2665D01*
X1821Y2665D02*
X1860Y2665D01*
X2210Y2665D02*
X2249Y2665D01*
X2299Y2665D02*
X2338Y2665D01*
X2732Y2665D02*
X2770Y2665D01*
X2821Y2665D02*
X2860Y2665D01*
X3210Y2665D02*
X3249Y2665D01*
X3299Y2665D02*
X3338Y2665D01*
X732Y2664D02*
X771Y2664D01*
X821Y2664D02*
X860Y2664D01*
X1210Y2664D02*
X1249Y2664D01*
X1299Y2664D02*
X1338Y2664D01*
X1732Y2664D02*
X1771Y2664D01*
X1821Y2664D02*
X1860Y2664D01*
X2210Y2664D02*
X2249Y2664D01*
X2299Y2664D02*
X2338Y2664D01*
X2732Y2664D02*
X2771Y2664D01*
X2821Y2664D02*
X2860Y2664D01*
X3210Y2664D02*
X3249Y2664D01*
X3299Y2664D02*
X3338Y2664D01*
X732Y2663D02*
X771Y2663D01*
X821Y2663D02*
X860Y2663D01*
X1210Y2663D02*
X1249Y2663D01*
X1299Y2663D02*
X1338Y2663D01*
X1732Y2663D02*
X1771Y2663D01*
X1820Y2663D02*
X1860Y2663D01*
X2210Y2663D02*
X2249Y2663D01*
X2299Y2663D02*
X2338Y2663D01*
X2732Y2663D02*
X2771Y2663D01*
X2820Y2663D02*
X2859Y2663D01*
X3210Y2663D02*
X3249Y2663D01*
X3299Y2663D02*
X3338Y2663D01*
X732Y2662D02*
X771Y2662D01*
X820Y2662D02*
X859Y2662D01*
X1210Y2662D02*
X1250Y2662D01*
X1298Y2662D02*
X1338Y2662D01*
X1732Y2662D02*
X1771Y2662D01*
X1820Y2662D02*
X1859Y2662D01*
X2210Y2662D02*
X2250Y2662D01*
X2298Y2662D02*
X2338Y2662D01*
X2732Y2662D02*
X2771Y2662D01*
X2820Y2662D02*
X2859Y2662D01*
X3210Y2662D02*
X3250Y2662D01*
X3298Y2662D02*
X3338Y2662D01*
X732Y2661D02*
X772Y2661D01*
X820Y2661D02*
X859Y2661D01*
X1211Y2661D02*
X1250Y2661D01*
X1298Y2661D02*
X1338Y2661D01*
X1732Y2661D02*
X1772Y2661D01*
X1820Y2661D02*
X1859Y2661D01*
X2211Y2661D02*
X2250Y2661D01*
X2298Y2661D02*
X2338Y2661D01*
X2732Y2661D02*
X2772Y2661D01*
X2820Y2661D02*
X2859Y2661D01*
X3211Y2661D02*
X3250Y2661D01*
X3298Y2661D02*
X3337Y2661D01*
X732Y2660D02*
X772Y2660D01*
X819Y2660D02*
X859Y2660D01*
X1211Y2660D02*
X1251Y2660D01*
X1297Y2660D02*
X1337Y2660D01*
X1732Y2660D02*
X1772Y2660D01*
X1819Y2660D02*
X1859Y2660D01*
X2211Y2660D02*
X2251Y2660D01*
X2297Y2660D02*
X2337Y2660D01*
X2732Y2660D02*
X2772Y2660D01*
X2819Y2660D02*
X2859Y2660D01*
X3211Y2660D02*
X3251Y2660D01*
X3297Y2660D02*
X3337Y2660D01*
X733Y2659D02*
X773Y2659D01*
X819Y2659D02*
X859Y2659D01*
X1211Y2659D02*
X1251Y2659D01*
X1297Y2659D02*
X1337Y2659D01*
X1733Y2659D02*
X1773Y2659D01*
X1819Y2659D02*
X1859Y2659D01*
X2211Y2659D02*
X2251Y2659D01*
X2297Y2659D02*
X2337Y2659D01*
X2733Y2659D02*
X2773Y2659D01*
X2819Y2659D02*
X2859Y2659D01*
X3211Y2659D02*
X3251Y2659D01*
X3297Y2659D02*
X3337Y2659D01*
X733Y2658D02*
X773Y2658D01*
X818Y2658D02*
X859Y2658D01*
X1211Y2658D02*
X1252Y2658D01*
X1296Y2658D02*
X1337Y2658D01*
X1733Y2658D02*
X1773Y2658D01*
X1818Y2658D02*
X1859Y2658D01*
X2211Y2658D02*
X2252Y2658D01*
X2296Y2658D02*
X2337Y2658D01*
X2733Y2658D02*
X2773Y2658D01*
X2818Y2658D02*
X2859Y2658D01*
X3211Y2658D02*
X3252Y2658D01*
X3296Y2658D02*
X3337Y2658D01*
X733Y2657D02*
X774Y2657D01*
X818Y2657D02*
X858Y2657D01*
X1211Y2657D02*
X1252Y2657D01*
X1296Y2657D02*
X1337Y2657D01*
X1733Y2657D02*
X1774Y2657D01*
X1818Y2657D02*
X1858Y2657D01*
X2211Y2657D02*
X2252Y2657D01*
X2296Y2657D02*
X2337Y2657D01*
X2733Y2657D02*
X2774Y2657D01*
X2817Y2657D02*
X2858Y2657D01*
X3211Y2657D02*
X3252Y2657D01*
X3296Y2657D02*
X3337Y2657D01*
X733Y2656D02*
X775Y2656D01*
X817Y2656D02*
X858Y2656D01*
X1212Y2656D02*
X1253Y2656D01*
X1295Y2656D02*
X1337Y2656D01*
X1733Y2656D02*
X1775Y2656D01*
X1817Y2656D02*
X1858Y2656D01*
X2212Y2656D02*
X2253Y2656D01*
X2295Y2656D02*
X2337Y2656D01*
X2733Y2656D02*
X2775Y2656D01*
X2817Y2656D02*
X2858Y2656D01*
X3212Y2656D02*
X3253Y2656D01*
X3295Y2656D02*
X3336Y2656D01*
X734Y2655D02*
X776Y2655D01*
X816Y2655D02*
X858Y2655D01*
X1212Y2655D02*
X1254Y2655D01*
X1294Y2655D02*
X1336Y2655D01*
X1734Y2655D02*
X1776Y2655D01*
X1816Y2655D02*
X1858Y2655D01*
X2212Y2655D02*
X2254Y2655D01*
X2294Y2655D02*
X2336Y2655D01*
X2733Y2655D02*
X2776Y2655D01*
X2816Y2655D02*
X2858Y2655D01*
X3212Y2655D02*
X3254Y2655D01*
X3294Y2655D02*
X3336Y2655D01*
X734Y2654D02*
X776Y2654D01*
X815Y2654D02*
X858Y2654D01*
X1212Y2654D02*
X1255Y2654D01*
X1293Y2654D02*
X1336Y2654D01*
X1734Y2654D02*
X1776Y2654D01*
X1815Y2654D02*
X1858Y2654D01*
X2212Y2654D02*
X2255Y2654D01*
X2293Y2654D02*
X2336Y2654D01*
X2734Y2654D02*
X2776Y2654D01*
X2815Y2654D02*
X2858Y2654D01*
X3212Y2654D02*
X3255Y2654D01*
X3293Y2654D02*
X3336Y2654D01*
X734Y2653D02*
X777Y2653D01*
X814Y2653D02*
X857Y2653D01*
X1212Y2653D02*
X1256Y2653D01*
X1292Y2653D02*
X1336Y2653D01*
X1734Y2653D02*
X1777Y2653D01*
X1814Y2653D02*
X1857Y2653D01*
X2212Y2653D02*
X2256Y2653D01*
X2292Y2653D02*
X2336Y2653D01*
X2734Y2653D02*
X2777Y2653D01*
X2814Y2653D02*
X2857Y2653D01*
X3212Y2653D02*
X3256Y2653D01*
X3292Y2653D02*
X3336Y2653D01*
X734Y2652D02*
X779Y2652D01*
X813Y2652D02*
X857Y2652D01*
X1213Y2652D02*
X1257Y2652D01*
X1291Y2652D02*
X1336Y2652D01*
X1734Y2652D02*
X1779Y2652D01*
X1813Y2652D02*
X1857Y2652D01*
X2213Y2652D02*
X2257Y2652D01*
X2291Y2652D02*
X2335Y2652D01*
X2734Y2652D02*
X2778Y2652D01*
X2813Y2652D02*
X2857Y2652D01*
X3213Y2652D02*
X3257Y2652D01*
X3291Y2652D02*
X3335Y2652D01*
X735Y2651D02*
X780Y2651D01*
X812Y2651D02*
X857Y2651D01*
X1213Y2651D02*
X1258Y2651D01*
X1290Y2651D02*
X1335Y2651D01*
X1735Y2651D02*
X1780Y2651D01*
X1812Y2651D02*
X1857Y2651D01*
X2213Y2651D02*
X2258Y2651D01*
X2290Y2651D02*
X2335Y2651D01*
X2735Y2651D02*
X2780Y2651D01*
X2812Y2651D02*
X2857Y2651D01*
X3213Y2651D02*
X3258Y2651D01*
X3290Y2651D02*
X3335Y2651D01*
X735Y2650D02*
X781Y2650D01*
X811Y2650D02*
X857Y2650D01*
X1213Y2650D02*
X1259Y2650D01*
X1289Y2650D02*
X1335Y2650D01*
X1735Y2650D02*
X1781Y2650D01*
X1811Y2650D02*
X1856Y2650D01*
X2213Y2650D02*
X2259Y2650D01*
X2289Y2650D02*
X2335Y2650D01*
X2735Y2650D02*
X2781Y2650D01*
X2811Y2650D02*
X2856Y2650D01*
X3213Y2650D02*
X3259Y2650D01*
X3289Y2650D02*
X3335Y2650D01*
X735Y2649D02*
X783Y2649D01*
X809Y2649D02*
X856Y2649D01*
X1214Y2649D02*
X1261Y2649D01*
X1287Y2649D02*
X1334Y2649D01*
X1735Y2649D02*
X1783Y2649D01*
X1809Y2649D02*
X1856Y2649D01*
X2214Y2649D02*
X2261Y2649D01*
X2287Y2649D02*
X2334Y2649D01*
X2735Y2649D02*
X2783Y2649D01*
X2809Y2649D02*
X2856Y2649D01*
X3214Y2649D02*
X3261Y2649D01*
X3287Y2649D02*
X3334Y2649D01*
X736Y2648D02*
X785Y2648D01*
X807Y2648D02*
X856Y2648D01*
X1214Y2648D02*
X1263Y2648D01*
X1285Y2648D02*
X1334Y2648D01*
X1736Y2648D02*
X1785Y2648D01*
X1807Y2648D02*
X1856Y2648D01*
X2214Y2648D02*
X2263Y2648D01*
X2285Y2648D02*
X2334Y2648D01*
X2736Y2648D02*
X2785Y2648D01*
X2807Y2648D02*
X2856Y2648D01*
X3214Y2648D02*
X3263Y2648D01*
X3285Y2648D02*
X3334Y2648D01*
X736Y2647D02*
X787Y2647D01*
X804Y2647D02*
X855Y2647D01*
X1214Y2647D02*
X1265Y2647D01*
X1283Y2647D02*
X1334Y2647D01*
X1736Y2647D02*
X1787Y2647D01*
X1804Y2647D02*
X1855Y2647D01*
X2214Y2647D02*
X2265Y2647D01*
X2283Y2647D02*
X2334Y2647D01*
X2736Y2647D02*
X2787Y2647D01*
X2804Y2647D02*
X2855Y2647D01*
X3214Y2647D02*
X3265Y2647D01*
X3283Y2647D02*
X3334Y2647D01*
X736Y2646D02*
X791Y2646D01*
X801Y2646D02*
X855Y2646D01*
X1215Y2646D02*
X1269Y2646D01*
X1279Y2646D02*
X1333Y2646D01*
X1736Y2646D02*
X1791Y2646D01*
X1801Y2646D02*
X1855Y2646D01*
X2215Y2646D02*
X2269Y2646D01*
X2279Y2646D02*
X2333Y2646D01*
X2736Y2646D02*
X2791Y2646D01*
X2801Y2646D02*
X2855Y2646D01*
X3215Y2646D02*
X3269Y2646D01*
X3279Y2646D02*
X3333Y2646D01*
X737Y2645D02*
X855Y2645D01*
X1215Y2645D02*
X1333Y2645D01*
X1737Y2645D02*
X1855Y2645D01*
X2215Y2645D02*
X2333Y2645D01*
X2737Y2645D02*
X2855Y2645D01*
X3215Y2645D02*
X3333Y2645D01*
X737Y2644D02*
X854Y2644D01*
X1216Y2644D02*
X1332Y2644D01*
X1737Y2644D02*
X1854Y2644D01*
X2216Y2644D02*
X2332Y2644D01*
X2737Y2644D02*
X2854Y2644D01*
X3216Y2644D02*
X3332Y2644D01*
X738Y2643D02*
X854Y2643D01*
X1216Y2643D02*
X1332Y2643D01*
X1738Y2643D02*
X1854Y2643D01*
X2216Y2643D02*
X2332Y2643D01*
X2738Y2643D02*
X2854Y2643D01*
X3216Y2643D02*
X3332Y2643D01*
X738Y2642D02*
X853Y2642D01*
X1217Y2642D02*
X1331Y2642D01*
X1738Y2642D02*
X1853Y2642D01*
X2217Y2642D02*
X2331Y2642D01*
X2738Y2642D02*
X2853Y2642D01*
X3217Y2642D02*
X3331Y2642D01*
X739Y2641D02*
X853Y2641D01*
X1217Y2641D02*
X1331Y2641D01*
X1739Y2641D02*
X1853Y2641D01*
X2217Y2641D02*
X2331Y2641D01*
X2739Y2641D02*
X2853Y2641D01*
X3217Y2641D02*
X3331Y2641D01*
X739Y2640D02*
X852Y2640D01*
X1218Y2640D02*
X1330Y2640D01*
X1739Y2640D02*
X1852Y2640D01*
X2218Y2640D02*
X2330Y2640D01*
X2739Y2640D02*
X2852Y2640D01*
X3218Y2640D02*
X3330Y2640D01*
X740Y2639D02*
X851Y2639D01*
X1218Y2639D02*
X1330Y2639D01*
X1740Y2639D02*
X1851Y2639D01*
X2218Y2639D02*
X2330Y2639D01*
X2740Y2639D02*
X2851Y2639D01*
X3218Y2639D02*
X3330Y2639D01*
X741Y2638D02*
X851Y2638D01*
X1219Y2638D02*
X1329Y2638D01*
X1741Y2638D02*
X1851Y2638D01*
X2219Y2638D02*
X2329Y2638D01*
X2741Y2638D02*
X2851Y2638D01*
X3219Y2638D02*
X3329Y2638D01*
X741Y2637D02*
X850Y2637D01*
X1220Y2637D02*
X1329Y2637D01*
X1741Y2637D02*
X1850Y2637D01*
X2220Y2637D02*
X2329Y2637D01*
X2741Y2637D02*
X2850Y2637D01*
X3220Y2637D02*
X3328Y2637D01*
X742Y2636D02*
X850Y2636D01*
X1220Y2636D02*
X1328Y2636D01*
X1742Y2636D02*
X1850Y2636D01*
X2220Y2636D02*
X2328Y2636D01*
X2742Y2636D02*
X2850Y2636D01*
X3220Y2636D02*
X3328Y2636D01*
X743Y2635D02*
X849Y2635D01*
X1221Y2635D02*
X1327Y2635D01*
X1742Y2635D02*
X1849Y2635D01*
X2221Y2635D02*
X2327Y2635D01*
X2742Y2635D02*
X2849Y2635D01*
X3221Y2635D02*
X3327Y2635D01*
X743Y2634D02*
X848Y2634D01*
X1222Y2634D02*
X1327Y2634D01*
X1743Y2634D02*
X1848Y2634D01*
X2222Y2634D02*
X2327Y2634D01*
X2743Y2634D02*
X2848Y2634D01*
X3221Y2634D02*
X3327Y2634D01*
X744Y2633D02*
X848Y2633D01*
X1222Y2633D02*
X1326Y2633D01*
X1744Y2633D02*
X1847Y2633D01*
X2222Y2633D02*
X2326Y2633D01*
X2744Y2633D02*
X2847Y2633D01*
X3222Y2633D02*
X3326Y2633D01*
X745Y2632D02*
X847Y2632D01*
X1223Y2632D02*
X1325Y2632D01*
X1745Y2632D02*
X1847Y2632D01*
X2223Y2632D02*
X2325Y2632D01*
X2745Y2632D02*
X2847Y2632D01*
X3223Y2632D02*
X3325Y2632D01*
X745Y2631D02*
X846Y2631D01*
X1224Y2631D02*
X1324Y2631D01*
X1745Y2631D02*
X1846Y2631D01*
X2224Y2631D02*
X2324Y2631D01*
X2745Y2631D02*
X2846Y2631D01*
X3224Y2631D02*
X3324Y2631D01*
X746Y2630D02*
X845Y2630D01*
X1225Y2630D02*
X1324Y2630D01*
X1746Y2630D02*
X1845Y2630D01*
X2225Y2630D02*
X2324Y2630D01*
X2746Y2630D02*
X2845Y2630D01*
X3224Y2630D02*
X3324Y2630D01*
X747Y2629D02*
X844Y2629D01*
X1225Y2629D02*
X1323Y2629D01*
X1747Y2629D02*
X1844Y2629D01*
X2225Y2629D02*
X2323Y2629D01*
X2747Y2629D02*
X2844Y2629D01*
X3225Y2629D02*
X3323Y2629D01*
X748Y2628D02*
X844Y2628D01*
X1226Y2628D02*
X1322Y2628D01*
X1748Y2628D02*
X1844Y2628D01*
X2226Y2628D02*
X2322Y2628D01*
X2748Y2628D02*
X2843Y2628D01*
X3226Y2628D02*
X3322Y2628D01*
X749Y2627D02*
X843Y2627D01*
X1227Y2627D02*
X1321Y2627D01*
X1749Y2627D02*
X1843Y2627D01*
X2227Y2627D02*
X2321Y2627D01*
X2749Y2627D02*
X2843Y2627D01*
X3227Y2627D02*
X3321Y2627D01*
X750Y2626D02*
X842Y2626D01*
X1228Y2626D02*
X1320Y2626D01*
X1750Y2626D02*
X1842Y2626D01*
X2228Y2626D02*
X2320Y2626D01*
X2750Y2626D02*
X2842Y2626D01*
X3228Y2626D02*
X3320Y2626D01*
X751Y2625D02*
X841Y2625D01*
X1229Y2625D02*
X1319Y2625D01*
X1751Y2625D02*
X1841Y2625D01*
X2229Y2625D02*
X2319Y2625D01*
X2751Y2625D02*
X2841Y2625D01*
X3229Y2625D02*
X3319Y2625D01*
X752Y2624D02*
X840Y2624D01*
X1230Y2624D02*
X1318Y2624D01*
X1752Y2624D02*
X1840Y2624D01*
X2230Y2624D02*
X2318Y2624D01*
X2752Y2624D02*
X2840Y2624D01*
X3230Y2624D02*
X3318Y2624D01*
X753Y2623D02*
X839Y2623D01*
X1231Y2623D02*
X1317Y2623D01*
X1753Y2623D02*
X1838Y2623D01*
X2231Y2623D02*
X2317Y2623D01*
X2753Y2623D02*
X2838Y2623D01*
X3231Y2623D02*
X3317Y2623D01*
X754Y2622D02*
X837Y2622D01*
X1232Y2622D02*
X1316Y2622D01*
X1754Y2622D02*
X1837Y2622D01*
X2232Y2622D02*
X2316Y2622D01*
X2754Y2622D02*
X2837Y2622D01*
X3232Y2622D02*
X3316Y2622D01*
X755Y2621D02*
X836Y2621D01*
X1234Y2621D02*
X1315Y2621D01*
X1755Y2621D02*
X1836Y2621D01*
X2234Y2621D02*
X2315Y2621D01*
X2755Y2621D02*
X2836Y2621D01*
X3234Y2621D02*
X3314Y2621D01*
X757Y2620D02*
X835Y2620D01*
X1235Y2620D02*
X1313Y2620D01*
X1757Y2620D02*
X1835Y2620D01*
X2235Y2620D02*
X2313Y2620D01*
X2757Y2620D02*
X2835Y2620D01*
X3235Y2620D02*
X3313Y2620D01*
X758Y2619D02*
X834Y2619D01*
X1236Y2619D02*
X1312Y2619D01*
X1758Y2619D02*
X1833Y2619D01*
X2236Y2619D02*
X2312Y2619D01*
X2758Y2619D02*
X2833Y2619D01*
X3236Y2619D02*
X3312Y2619D01*
X759Y2618D02*
X832Y2618D01*
X1238Y2618D02*
X1311Y2618D01*
X1759Y2618D02*
X1832Y2618D01*
X2238Y2618D02*
X2310Y2618D01*
X2759Y2618D02*
X2832Y2618D01*
X3238Y2618D02*
X3310Y2618D01*
X761Y2617D02*
X831Y2617D01*
X1239Y2617D02*
X1309Y2617D01*
X1761Y2617D02*
X1831Y2617D01*
X2239Y2617D02*
X2309Y2617D01*
X2761Y2617D02*
X2831Y2617D01*
X3239Y2617D02*
X3309Y2617D01*
X762Y2616D02*
X829Y2616D01*
X1241Y2616D02*
X1307Y2616D01*
X1762Y2616D02*
X1829Y2616D01*
X2241Y2616D02*
X2307Y2616D01*
X2762Y2616D02*
X2829Y2616D01*
X3241Y2616D02*
X3307Y2616D01*
X764Y2615D02*
X827Y2615D01*
X1242Y2615D02*
X1306Y2615D01*
X1764Y2615D02*
X1827Y2615D01*
X2242Y2615D02*
X2306Y2615D01*
X2764Y2615D02*
X2827Y2615D01*
X3242Y2615D02*
X3306Y2615D01*
X766Y2614D02*
X826Y2614D01*
X1244Y2614D02*
X1304Y2614D01*
X1766Y2614D02*
X1826Y2614D01*
X2244Y2614D02*
X2304Y2614D01*
X2766Y2614D02*
X2826Y2614D01*
X3244Y2614D02*
X3304Y2614D01*
X768Y2613D02*
X824Y2613D01*
X1246Y2613D02*
X1302Y2613D01*
X1768Y2613D02*
X1824Y2613D01*
X2246Y2613D02*
X2302Y2613D01*
X2768Y2613D02*
X2824Y2613D01*
X3246Y2613D02*
X3302Y2613D01*
X770Y2612D02*
X822Y2612D01*
X1248Y2612D02*
X1300Y2612D01*
X1770Y2612D02*
X1822Y2612D01*
X2248Y2612D02*
X2300Y2612D01*
X2770Y2612D02*
X2822Y2612D01*
X3248Y2612D02*
X3300Y2612D01*
X772Y2611D02*
X819Y2611D01*
X1251Y2611D02*
X1298Y2611D01*
X1772Y2611D02*
X1819Y2611D01*
X2251Y2611D02*
X2298Y2611D01*
X2772Y2611D02*
X2819Y2611D01*
X3251Y2611D02*
X3297Y2611D01*
X775Y2610D02*
X816Y2610D01*
X1253Y2610D02*
X1295Y2610D01*
X1775Y2610D02*
X1816Y2610D01*
X2253Y2610D02*
X2295Y2610D01*
X2775Y2610D02*
X2816Y2610D01*
X3253Y2610D02*
X3295Y2610D01*
X778Y2609D02*
X813Y2609D01*
X1257Y2609D02*
X1292Y2609D01*
X1778Y2609D02*
X1813Y2609D01*
X2257Y2609D02*
X2292Y2609D01*
X2778Y2609D02*
X2813Y2609D01*
X3257Y2609D02*
X3291Y2609D01*
X782Y2608D02*
X809Y2608D01*
X1261Y2608D02*
X1288Y2608D01*
X1782Y2608D02*
X1809Y2608D01*
X2261Y2608D02*
X2288Y2608D01*
X2782Y2608D02*
X2809Y2608D01*
X3261Y2608D02*
X3287Y2608D01*
X788Y2607D02*
X803Y2607D01*
X1266Y2607D02*
X1282Y2607D01*
X1788Y2607D02*
X1803Y2607D01*
X2266Y2607D02*
X2282Y2607D01*
X2788Y2607D02*
X2803Y2607D01*
X3266Y2607D02*
X3282Y2607D01*
X418Y2244D02*
X491Y2244D01*
X418Y2243D02*
X491Y2243D01*
X418Y2242D02*
X491Y2242D01*
X418Y2241D02*
X491Y2241D01*
X418Y2240D02*
X491Y2240D01*
X418Y2239D02*
X491Y2239D01*
X418Y2238D02*
X491Y2238D01*
X418Y2237D02*
X491Y2237D01*
X418Y2236D02*
X491Y2236D01*
X418Y2235D02*
X491Y2235D01*
X418Y2234D02*
X491Y2234D01*
X418Y2233D02*
X491Y2233D01*
X418Y2232D02*
X491Y2232D01*
X418Y2231D02*
X491Y2231D01*
X418Y2230D02*
X491Y2230D01*
X418Y2229D02*
X491Y2229D01*
X418Y2228D02*
X491Y2228D01*
X418Y2227D02*
X452Y2227D01*
X457Y2227D02*
X491Y2227D01*
X418Y2226D02*
X448Y2226D01*
X462Y2226D02*
X491Y2226D01*
X418Y2225D02*
X445Y2225D01*
X464Y2225D02*
X491Y2225D01*
X418Y2224D02*
X444Y2224D01*
X466Y2224D02*
X491Y2224D01*
X418Y2223D02*
X442Y2223D01*
X467Y2223D02*
X491Y2223D01*
X418Y2222D02*
X441Y2222D01*
X469Y2222D02*
X491Y2222D01*
X418Y2221D02*
X440Y2221D01*
X470Y2221D02*
X491Y2221D01*
X418Y2220D02*
X439Y2220D01*
X470Y2220D02*
X491Y2220D01*
X418Y2219D02*
X438Y2219D01*
X471Y2219D02*
X491Y2219D01*
X418Y2218D02*
X438Y2218D01*
X472Y2218D02*
X491Y2218D01*
X418Y2217D02*
X437Y2217D01*
X472Y2217D02*
X491Y2217D01*
X418Y2216D02*
X437Y2216D01*
X473Y2216D02*
X491Y2216D01*
X418Y2215D02*
X436Y2215D01*
X474Y2215D02*
X491Y2215D01*
X418Y2214D02*
X436Y2214D01*
X474Y2214D02*
X491Y2214D01*
X418Y2213D02*
X436Y2213D01*
X474Y2213D02*
X491Y2213D01*
X418Y2212D02*
X435Y2212D01*
X474Y2212D02*
X491Y2212D01*
X418Y2211D02*
X435Y2211D01*
X475Y2211D02*
X491Y2211D01*
X418Y2210D02*
X435Y2210D01*
X475Y2210D02*
X491Y2210D01*
X418Y2209D02*
X435Y2209D01*
X475Y2209D02*
X491Y2209D01*
X418Y2208D02*
X435Y2208D01*
X475Y2208D02*
X491Y2208D01*
X418Y2207D02*
X435Y2207D01*
X475Y2207D02*
X491Y2207D01*
X418Y2206D02*
X435Y2206D01*
X475Y2206D02*
X491Y2206D01*
X418Y2205D02*
X435Y2205D01*
X475Y2205D02*
X491Y2205D01*
X418Y2204D02*
X435Y2204D01*
X475Y2204D02*
X491Y2204D01*
X418Y2203D02*
X435Y2203D01*
X474Y2203D02*
X491Y2203D01*
X418Y2202D02*
X436Y2202D01*
X474Y2202D02*
X491Y2202D01*
X418Y2201D02*
X436Y2201D01*
X474Y2201D02*
X491Y2201D01*
X418Y2200D02*
X436Y2200D01*
X473Y2200D02*
X491Y2200D01*
X418Y2199D02*
X437Y2199D01*
X473Y2199D02*
X491Y2199D01*
X418Y2198D02*
X437Y2198D01*
X472Y2198D02*
X491Y2198D01*
X418Y2197D02*
X438Y2197D01*
X472Y2197D02*
X491Y2197D01*
X418Y2196D02*
X438Y2196D01*
X471Y2196D02*
X491Y2196D01*
X418Y2195D02*
X439Y2195D01*
X470Y2195D02*
X491Y2195D01*
X418Y2194D02*
X440Y2194D01*
X470Y2194D02*
X491Y2194D01*
X418Y2193D02*
X441Y2193D01*
X469Y2193D02*
X491Y2193D01*
X418Y2192D02*
X442Y2192D01*
X467Y2192D02*
X491Y2192D01*
X418Y2191D02*
X444Y2191D01*
X466Y2191D02*
X491Y2191D01*
X418Y2190D02*
X446Y2190D01*
X464Y2190D02*
X491Y2190D01*
X418Y2189D02*
X448Y2189D01*
X462Y2189D02*
X491Y2189D01*
X418Y2188D02*
X453Y2188D01*
X457Y2188D02*
X491Y2188D01*
X418Y2187D02*
X491Y2187D01*
X418Y2186D02*
X491Y2186D01*
X418Y2185D02*
X491Y2185D01*
X418Y2184D02*
X491Y2184D01*
X418Y2183D02*
X491Y2183D01*
X418Y2182D02*
X491Y2182D01*
X418Y2181D02*
X491Y2181D01*
X418Y2180D02*
X491Y2180D01*
X418Y2179D02*
X491Y2179D01*
X418Y2178D02*
X491Y2178D01*
X418Y2177D02*
X491Y2177D01*
X418Y2176D02*
X491Y2176D01*
X418Y2175D02*
X491Y2175D01*
X418Y2174D02*
X491Y2174D01*
X418Y2173D02*
X491Y2173D01*
X418Y2172D02*
X491Y2172D01*
X418Y2171D02*
X491Y2171D01*
X788Y1208D02*
X804Y1208D01*
X1266Y1208D02*
X1282Y1208D01*
X1788Y1208D02*
X1804Y1208D01*
X2266Y1208D02*
X2282Y1208D01*
X2788Y1208D02*
X2803Y1208D01*
X3266Y1208D02*
X3282Y1208D01*
X782Y1207D02*
X809Y1207D01*
X1261Y1207D02*
X1288Y1207D01*
X1782Y1207D02*
X1809Y1207D01*
X2261Y1207D02*
X2288Y1207D01*
X2782Y1207D02*
X2809Y1207D01*
X3260Y1207D02*
X3288Y1207D01*
X778Y1206D02*
X813Y1206D01*
X1257Y1206D02*
X1292Y1206D01*
X1778Y1206D02*
X1813Y1206D01*
X2257Y1206D02*
X2292Y1206D01*
X2778Y1206D02*
X2813Y1206D01*
X3257Y1206D02*
X3291Y1206D01*
X775Y1205D02*
X817Y1205D01*
X1253Y1205D02*
X1295Y1205D01*
X1775Y1205D02*
X1816Y1205D01*
X2253Y1205D02*
X2295Y1205D01*
X2775Y1205D02*
X2816Y1205D01*
X3253Y1205D02*
X3295Y1205D01*
X772Y1204D02*
X819Y1204D01*
X1251Y1204D02*
X1298Y1204D01*
X1772Y1204D02*
X1819Y1204D01*
X2251Y1204D02*
X2298Y1204D01*
X2772Y1204D02*
X2819Y1204D01*
X3250Y1204D02*
X3298Y1204D01*
X770Y1203D02*
X822Y1203D01*
X1248Y1203D02*
X1300Y1203D01*
X1770Y1203D02*
X1822Y1203D01*
X2248Y1203D02*
X2300Y1203D01*
X2770Y1203D02*
X2822Y1203D01*
X3248Y1203D02*
X3300Y1203D01*
X768Y1202D02*
X824Y1202D01*
X1246Y1202D02*
X1302Y1202D01*
X1768Y1202D02*
X1824Y1202D01*
X2246Y1202D02*
X2302Y1202D01*
X2768Y1202D02*
X2824Y1202D01*
X3246Y1202D02*
X3302Y1202D01*
X766Y1201D02*
X826Y1201D01*
X1244Y1201D02*
X1304Y1201D01*
X1766Y1201D02*
X1826Y1201D01*
X2244Y1201D02*
X2304Y1201D01*
X2766Y1201D02*
X2826Y1201D01*
X3244Y1201D02*
X3304Y1201D01*
X764Y1200D02*
X827Y1200D01*
X1242Y1200D02*
X1306Y1200D01*
X1764Y1200D02*
X1827Y1200D01*
X2242Y1200D02*
X2306Y1200D01*
X2764Y1200D02*
X2827Y1200D01*
X3242Y1200D02*
X3306Y1200D01*
X762Y1199D02*
X829Y1199D01*
X1241Y1199D02*
X1307Y1199D01*
X1762Y1199D02*
X1829Y1199D01*
X2241Y1199D02*
X2307Y1199D01*
X2762Y1199D02*
X2829Y1199D01*
X3241Y1199D02*
X3307Y1199D01*
X761Y1198D02*
X831Y1198D01*
X1239Y1198D02*
X1309Y1198D01*
X1761Y1198D02*
X1831Y1198D01*
X2239Y1198D02*
X2309Y1198D01*
X2761Y1198D02*
X2831Y1198D01*
X3239Y1198D02*
X3309Y1198D01*
X759Y1197D02*
X832Y1197D01*
X1238Y1197D02*
X1311Y1197D01*
X1759Y1197D02*
X1832Y1197D01*
X2238Y1197D02*
X2310Y1197D01*
X2759Y1197D02*
X2832Y1197D01*
X3238Y1197D02*
X3310Y1197D01*
X758Y1196D02*
X834Y1196D01*
X1236Y1196D02*
X1312Y1196D01*
X1758Y1196D02*
X1834Y1196D01*
X2236Y1196D02*
X2312Y1196D01*
X2758Y1196D02*
X2833Y1196D01*
X3236Y1196D02*
X3312Y1196D01*
X757Y1195D02*
X835Y1195D01*
X1235Y1195D02*
X1313Y1195D01*
X1757Y1195D02*
X1835Y1195D01*
X2235Y1195D02*
X2313Y1195D01*
X2757Y1195D02*
X2835Y1195D01*
X3235Y1195D02*
X3313Y1195D01*
X755Y1194D02*
X836Y1194D01*
X1234Y1194D02*
X1315Y1194D01*
X1755Y1194D02*
X1836Y1194D01*
X2234Y1194D02*
X2315Y1194D01*
X2755Y1194D02*
X2836Y1194D01*
X3234Y1194D02*
X3314Y1194D01*
X754Y1193D02*
X837Y1193D01*
X1232Y1193D02*
X1316Y1193D01*
X1754Y1193D02*
X1837Y1193D01*
X2232Y1193D02*
X2316Y1193D01*
X2754Y1193D02*
X2837Y1193D01*
X3232Y1193D02*
X3316Y1193D01*
X753Y1192D02*
X839Y1192D01*
X1231Y1192D02*
X1317Y1192D01*
X1753Y1192D02*
X1839Y1192D01*
X2231Y1192D02*
X2317Y1192D01*
X2753Y1192D02*
X2838Y1192D01*
X3231Y1192D02*
X3317Y1192D01*
X752Y1191D02*
X840Y1191D01*
X1230Y1191D02*
X1318Y1191D01*
X1752Y1191D02*
X1840Y1191D01*
X2230Y1191D02*
X2318Y1191D01*
X2752Y1191D02*
X2840Y1191D01*
X3230Y1191D02*
X3318Y1191D01*
X751Y1190D02*
X841Y1190D01*
X1229Y1190D02*
X1319Y1190D01*
X1751Y1190D02*
X1841Y1190D01*
X2229Y1190D02*
X2319Y1190D01*
X2751Y1190D02*
X2841Y1190D01*
X3229Y1190D02*
X3319Y1190D01*
X750Y1189D02*
X842Y1189D01*
X1228Y1189D02*
X1320Y1189D01*
X1750Y1189D02*
X1842Y1189D01*
X2228Y1189D02*
X2320Y1189D01*
X2750Y1189D02*
X2842Y1189D01*
X3228Y1189D02*
X3320Y1189D01*
X749Y1188D02*
X843Y1188D01*
X1227Y1188D02*
X1321Y1188D01*
X1749Y1188D02*
X1843Y1188D01*
X2227Y1188D02*
X2321Y1188D01*
X2749Y1188D02*
X2843Y1188D01*
X3227Y1188D02*
X3321Y1188D01*
X748Y1187D02*
X844Y1187D01*
X1226Y1187D02*
X1322Y1187D01*
X1748Y1187D02*
X1844Y1187D01*
X2226Y1187D02*
X2322Y1187D01*
X2748Y1187D02*
X2843Y1187D01*
X3226Y1187D02*
X3322Y1187D01*
X747Y1186D02*
X844Y1186D01*
X1225Y1186D02*
X1323Y1186D01*
X1747Y1186D02*
X1844Y1186D01*
X2225Y1186D02*
X2323Y1186D01*
X2747Y1186D02*
X2844Y1186D01*
X3225Y1186D02*
X3323Y1186D01*
X746Y1185D02*
X845Y1185D01*
X1225Y1185D02*
X1324Y1185D01*
X1746Y1185D02*
X1845Y1185D01*
X2224Y1185D02*
X2324Y1185D01*
X2746Y1185D02*
X2845Y1185D01*
X3224Y1185D02*
X3324Y1185D01*
X745Y1184D02*
X846Y1184D01*
X1224Y1184D02*
X1324Y1184D01*
X1745Y1184D02*
X1846Y1184D01*
X2224Y1184D02*
X2324Y1184D01*
X2745Y1184D02*
X2846Y1184D01*
X3224Y1184D02*
X3324Y1184D01*
X745Y1183D02*
X847Y1183D01*
X1223Y1183D02*
X1325Y1183D01*
X1745Y1183D02*
X1847Y1183D01*
X2223Y1183D02*
X2325Y1183D01*
X2745Y1183D02*
X2847Y1183D01*
X3223Y1183D02*
X3325Y1183D01*
X744Y1182D02*
X848Y1182D01*
X1222Y1182D02*
X1326Y1182D01*
X1744Y1182D02*
X1848Y1182D01*
X2222Y1182D02*
X2326Y1182D01*
X2744Y1182D02*
X2847Y1182D01*
X3222Y1182D02*
X3326Y1182D01*
X743Y1181D02*
X848Y1181D01*
X1222Y1181D02*
X1327Y1181D01*
X1743Y1181D02*
X1848Y1181D01*
X2222Y1181D02*
X2327Y1181D01*
X2743Y1181D02*
X2848Y1181D01*
X3221Y1181D02*
X3327Y1181D01*
X743Y1180D02*
X849Y1180D01*
X1221Y1180D02*
X1327Y1180D01*
X1742Y1180D02*
X1849Y1180D01*
X2221Y1180D02*
X2327Y1180D01*
X2742Y1180D02*
X2849Y1180D01*
X3221Y1180D02*
X3327Y1180D01*
X742Y1179D02*
X850Y1179D01*
X1220Y1179D02*
X1328Y1179D01*
X1742Y1179D02*
X1850Y1179D01*
X2220Y1179D02*
X2328Y1179D01*
X2742Y1179D02*
X2850Y1179D01*
X3220Y1179D02*
X3328Y1179D01*
X741Y1178D02*
X850Y1178D01*
X1220Y1178D02*
X1329Y1178D01*
X1741Y1178D02*
X1850Y1178D01*
X2220Y1178D02*
X2329Y1178D01*
X2741Y1178D02*
X2850Y1178D01*
X3220Y1178D02*
X3328Y1178D01*
X741Y1177D02*
X851Y1177D01*
X1219Y1177D02*
X1329Y1177D01*
X1741Y1177D02*
X1851Y1177D01*
X2219Y1177D02*
X2329Y1177D01*
X2741Y1177D02*
X2851Y1177D01*
X3219Y1177D02*
X3329Y1177D01*
X740Y1176D02*
X851Y1176D01*
X1218Y1176D02*
X1330Y1176D01*
X1740Y1176D02*
X1851Y1176D01*
X2218Y1176D02*
X2330Y1176D01*
X2740Y1176D02*
X2851Y1176D01*
X3218Y1176D02*
X3330Y1176D01*
X739Y1175D02*
X852Y1175D01*
X1218Y1175D02*
X1330Y1175D01*
X1739Y1175D02*
X1852Y1175D01*
X2218Y1175D02*
X2330Y1175D01*
X2739Y1175D02*
X2852Y1175D01*
X3218Y1175D02*
X3330Y1175D01*
X739Y1174D02*
X853Y1174D01*
X1217Y1174D02*
X1331Y1174D01*
X1739Y1174D02*
X1853Y1174D01*
X2217Y1174D02*
X2331Y1174D01*
X2739Y1174D02*
X2853Y1174D01*
X3217Y1174D02*
X3331Y1174D01*
X738Y1173D02*
X853Y1173D01*
X1217Y1173D02*
X1331Y1173D01*
X1738Y1173D02*
X1853Y1173D01*
X2217Y1173D02*
X2331Y1173D01*
X2738Y1173D02*
X2853Y1173D01*
X3217Y1173D02*
X3331Y1173D01*
X738Y1172D02*
X854Y1172D01*
X1216Y1172D02*
X1332Y1172D01*
X1738Y1172D02*
X1854Y1172D01*
X2216Y1172D02*
X2332Y1172D01*
X2738Y1172D02*
X2854Y1172D01*
X3216Y1172D02*
X3332Y1172D01*
X737Y1171D02*
X854Y1171D01*
X1216Y1171D02*
X1332Y1171D01*
X1737Y1171D02*
X1854Y1171D01*
X2216Y1171D02*
X2332Y1171D01*
X2737Y1171D02*
X2854Y1171D01*
X3216Y1171D02*
X3332Y1171D01*
X737Y1170D02*
X855Y1170D01*
X1215Y1170D02*
X1333Y1170D01*
X1737Y1170D02*
X1855Y1170D01*
X2215Y1170D02*
X2333Y1170D01*
X2737Y1170D02*
X2855Y1170D01*
X3215Y1170D02*
X3333Y1170D01*
X736Y1169D02*
X791Y1169D01*
X801Y1169D02*
X855Y1169D01*
X1215Y1169D02*
X1269Y1169D01*
X1279Y1169D02*
X1333Y1169D01*
X1736Y1169D02*
X1791Y1169D01*
X1801Y1169D02*
X1855Y1169D01*
X2215Y1169D02*
X2269Y1169D01*
X2279Y1169D02*
X2333Y1169D01*
X2736Y1169D02*
X2791Y1169D01*
X2801Y1169D02*
X2855Y1169D01*
X3215Y1169D02*
X3269Y1169D01*
X3279Y1169D02*
X3333Y1169D01*
X736Y1168D02*
X787Y1168D01*
X804Y1168D02*
X855Y1168D01*
X1214Y1168D02*
X1265Y1168D01*
X1283Y1168D02*
X1334Y1168D01*
X1736Y1168D02*
X1787Y1168D01*
X1804Y1168D02*
X1855Y1168D01*
X2214Y1168D02*
X2265Y1168D01*
X2283Y1168D02*
X2334Y1168D01*
X2736Y1168D02*
X2787Y1168D01*
X2804Y1168D02*
X2855Y1168D01*
X3214Y1168D02*
X3265Y1168D01*
X3283Y1168D02*
X3334Y1168D01*
X736Y1167D02*
X785Y1167D01*
X807Y1167D02*
X856Y1167D01*
X1214Y1167D02*
X1263Y1167D01*
X1285Y1167D02*
X1334Y1167D01*
X1736Y1167D02*
X1785Y1167D01*
X1807Y1167D02*
X1856Y1167D01*
X2214Y1167D02*
X2263Y1167D01*
X2285Y1167D02*
X2334Y1167D01*
X2736Y1167D02*
X2785Y1167D01*
X2807Y1167D02*
X2856Y1167D01*
X3214Y1167D02*
X3263Y1167D01*
X3285Y1167D02*
X3334Y1167D01*
X735Y1166D02*
X783Y1166D01*
X809Y1166D02*
X856Y1166D01*
X1214Y1166D02*
X1261Y1166D01*
X1287Y1166D02*
X1335Y1166D01*
X1735Y1166D02*
X1783Y1166D01*
X1809Y1166D02*
X1856Y1166D01*
X2214Y1166D02*
X2261Y1166D01*
X2287Y1166D02*
X2334Y1166D01*
X2735Y1166D02*
X2783Y1166D01*
X2809Y1166D02*
X2856Y1166D01*
X3214Y1166D02*
X3261Y1166D01*
X3287Y1166D02*
X3334Y1166D01*
X735Y1165D02*
X781Y1165D01*
X811Y1165D02*
X857Y1165D01*
X1213Y1165D02*
X1259Y1165D01*
X1289Y1165D02*
X1335Y1165D01*
X1735Y1165D02*
X1781Y1165D01*
X1811Y1165D02*
X1856Y1165D01*
X2213Y1165D02*
X2259Y1165D01*
X2289Y1165D02*
X2335Y1165D01*
X2735Y1165D02*
X2781Y1165D01*
X2811Y1165D02*
X2856Y1165D01*
X3213Y1165D02*
X3259Y1165D01*
X3289Y1165D02*
X3335Y1165D01*
X735Y1164D02*
X780Y1164D01*
X812Y1164D02*
X857Y1164D01*
X1213Y1164D02*
X1258Y1164D01*
X1290Y1164D02*
X1335Y1164D01*
X1735Y1164D02*
X1780Y1164D01*
X1812Y1164D02*
X1857Y1164D01*
X2213Y1164D02*
X2258Y1164D01*
X2290Y1164D02*
X2335Y1164D01*
X2735Y1164D02*
X2780Y1164D01*
X2812Y1164D02*
X2857Y1164D01*
X3213Y1164D02*
X3258Y1164D01*
X3290Y1164D02*
X3335Y1164D01*
X734Y1163D02*
X779Y1163D01*
X813Y1163D02*
X857Y1163D01*
X1213Y1163D02*
X1257Y1163D01*
X1291Y1163D02*
X1336Y1163D01*
X1734Y1163D02*
X1779Y1163D01*
X1813Y1163D02*
X1857Y1163D01*
X2213Y1163D02*
X2257Y1163D01*
X2291Y1163D02*
X2336Y1163D01*
X2734Y1163D02*
X2778Y1163D01*
X2813Y1163D02*
X2857Y1163D01*
X3213Y1163D02*
X3257Y1163D01*
X3291Y1163D02*
X3335Y1163D01*
X734Y1162D02*
X777Y1162D01*
X814Y1162D02*
X857Y1162D01*
X1212Y1162D02*
X1256Y1162D01*
X1292Y1162D02*
X1336Y1162D01*
X1734Y1162D02*
X1777Y1162D01*
X1814Y1162D02*
X1857Y1162D01*
X2212Y1162D02*
X2256Y1162D01*
X2292Y1162D02*
X2336Y1162D01*
X2734Y1162D02*
X2777Y1162D01*
X2814Y1162D02*
X2857Y1162D01*
X3212Y1162D02*
X3256Y1162D01*
X3292Y1162D02*
X3336Y1162D01*
X734Y1161D02*
X776Y1161D01*
X815Y1161D02*
X858Y1161D01*
X1212Y1161D02*
X1255Y1161D01*
X1293Y1161D02*
X1336Y1161D01*
X1734Y1161D02*
X1776Y1161D01*
X1815Y1161D02*
X1858Y1161D01*
X2212Y1161D02*
X2255Y1161D01*
X2293Y1161D02*
X2336Y1161D01*
X2734Y1161D02*
X2776Y1161D01*
X2815Y1161D02*
X2858Y1161D01*
X3212Y1161D02*
X3255Y1161D01*
X3293Y1161D02*
X3336Y1161D01*
X734Y1160D02*
X776Y1160D01*
X816Y1160D02*
X858Y1160D01*
X1212Y1160D02*
X1254Y1160D01*
X1294Y1160D02*
X1336Y1160D01*
X1734Y1160D02*
X1776Y1160D01*
X1816Y1160D02*
X1858Y1160D01*
X2212Y1160D02*
X2254Y1160D01*
X2294Y1160D02*
X2336Y1160D01*
X2733Y1160D02*
X2776Y1160D01*
X2816Y1160D02*
X2858Y1160D01*
X3212Y1160D02*
X3254Y1160D01*
X3294Y1160D02*
X3336Y1160D01*
X733Y1159D02*
X775Y1159D01*
X817Y1159D02*
X858Y1159D01*
X1212Y1159D02*
X1253Y1159D01*
X1295Y1159D02*
X1337Y1159D01*
X1733Y1159D02*
X1775Y1159D01*
X1817Y1159D02*
X1858Y1159D01*
X2212Y1159D02*
X2253Y1159D01*
X2295Y1159D02*
X2337Y1159D01*
X2733Y1159D02*
X2775Y1159D01*
X2817Y1159D02*
X2858Y1159D01*
X3212Y1159D02*
X3253Y1159D01*
X3295Y1159D02*
X3336Y1159D01*
X733Y1158D02*
X774Y1158D01*
X818Y1158D02*
X858Y1158D01*
X1211Y1158D02*
X1252Y1158D01*
X1296Y1158D02*
X1337Y1158D01*
X1733Y1158D02*
X1774Y1158D01*
X1818Y1158D02*
X1858Y1158D01*
X2211Y1158D02*
X2252Y1158D01*
X2296Y1158D02*
X2337Y1158D01*
X2733Y1158D02*
X2774Y1158D01*
X2817Y1158D02*
X2858Y1158D01*
X3211Y1158D02*
X3252Y1158D01*
X3296Y1158D02*
X3337Y1158D01*
X733Y1157D02*
X773Y1157D01*
X818Y1157D02*
X859Y1157D01*
X1211Y1157D02*
X1252Y1157D01*
X1296Y1157D02*
X1337Y1157D01*
X1733Y1157D02*
X1773Y1157D01*
X1818Y1157D02*
X1859Y1157D01*
X2211Y1157D02*
X2252Y1157D01*
X2296Y1157D02*
X2337Y1157D01*
X2733Y1157D02*
X2773Y1157D01*
X2818Y1157D02*
X2859Y1157D01*
X3211Y1157D02*
X3252Y1157D01*
X3296Y1157D02*
X3337Y1157D01*
X733Y1156D02*
X773Y1156D01*
X819Y1156D02*
X859Y1156D01*
X1211Y1156D02*
X1251Y1156D01*
X1297Y1156D02*
X1337Y1156D01*
X1733Y1156D02*
X1773Y1156D01*
X1819Y1156D02*
X1859Y1156D01*
X2211Y1156D02*
X2251Y1156D01*
X2297Y1156D02*
X2337Y1156D01*
X2733Y1156D02*
X2773Y1156D01*
X2819Y1156D02*
X2859Y1156D01*
X3211Y1156D02*
X3251Y1156D01*
X3297Y1156D02*
X3337Y1156D01*
X732Y1155D02*
X772Y1155D01*
X819Y1155D02*
X859Y1155D01*
X1211Y1155D02*
X1251Y1155D01*
X1298Y1155D02*
X1337Y1155D01*
X1732Y1155D02*
X1772Y1155D01*
X1819Y1155D02*
X1859Y1155D01*
X2211Y1155D02*
X2251Y1155D01*
X2297Y1155D02*
X2337Y1155D01*
X2732Y1155D02*
X2772Y1155D01*
X2819Y1155D02*
X2859Y1155D01*
X3211Y1155D02*
X3251Y1155D01*
X3297Y1155D02*
X3337Y1155D01*
X732Y1154D02*
X772Y1154D01*
X820Y1154D02*
X859Y1154D01*
X1211Y1154D02*
X1250Y1154D01*
X1298Y1154D02*
X1338Y1154D01*
X1732Y1154D02*
X1772Y1154D01*
X1820Y1154D02*
X1859Y1154D01*
X2211Y1154D02*
X2250Y1154D01*
X2298Y1154D02*
X2338Y1154D01*
X2732Y1154D02*
X2772Y1154D01*
X2820Y1154D02*
X2859Y1154D01*
X3211Y1154D02*
X3250Y1154D01*
X3298Y1154D02*
X3337Y1154D01*
X732Y1153D02*
X771Y1153D01*
X820Y1153D02*
X859Y1153D01*
X1210Y1153D02*
X1250Y1153D01*
X1298Y1153D02*
X1338Y1153D01*
X1732Y1153D02*
X1771Y1153D01*
X1820Y1153D02*
X1859Y1153D01*
X2210Y1153D02*
X2250Y1153D01*
X2298Y1153D02*
X2338Y1153D01*
X2732Y1153D02*
X2771Y1153D01*
X2820Y1153D02*
X2859Y1153D01*
X3210Y1153D02*
X3250Y1153D01*
X3298Y1153D02*
X3338Y1153D01*
X732Y1152D02*
X771Y1152D01*
X821Y1152D02*
X860Y1152D01*
X1210Y1152D02*
X1249Y1152D01*
X1299Y1152D02*
X1338Y1152D01*
X1732Y1152D02*
X1771Y1152D01*
X1820Y1152D02*
X1860Y1152D01*
X2210Y1152D02*
X2249Y1152D01*
X2299Y1152D02*
X2338Y1152D01*
X2732Y1152D02*
X2771Y1152D01*
X2820Y1152D02*
X2859Y1152D01*
X3210Y1152D02*
X3249Y1152D01*
X3299Y1152D02*
X3338Y1152D01*
X732Y1151D02*
X771Y1151D01*
X821Y1151D02*
X860Y1151D01*
X1210Y1151D02*
X1249Y1151D01*
X1299Y1151D02*
X1338Y1151D01*
X1732Y1151D02*
X1771Y1151D01*
X1821Y1151D02*
X1860Y1151D01*
X2210Y1151D02*
X2249Y1151D01*
X2299Y1151D02*
X2338Y1151D01*
X2732Y1151D02*
X2771Y1151D01*
X2821Y1151D02*
X2860Y1151D01*
X3210Y1151D02*
X3249Y1151D01*
X3299Y1151D02*
X3338Y1151D01*
X732Y1150D02*
X770Y1150D01*
X821Y1150D02*
X860Y1150D01*
X1210Y1150D02*
X1249Y1150D01*
X1299Y1150D02*
X1338Y1150D01*
X1732Y1150D02*
X1770Y1150D01*
X1821Y1150D02*
X1860Y1150D01*
X2210Y1150D02*
X2249Y1150D01*
X2299Y1150D02*
X2338Y1150D01*
X2732Y1150D02*
X2770Y1150D01*
X2821Y1150D02*
X2860Y1150D01*
X3210Y1150D02*
X3249Y1150D01*
X3299Y1150D02*
X3338Y1150D01*
X732Y1149D02*
X770Y1149D01*
X821Y1149D02*
X860Y1149D01*
X1210Y1149D02*
X1248Y1149D01*
X1300Y1149D02*
X1338Y1149D01*
X1732Y1149D02*
X1770Y1149D01*
X1821Y1149D02*
X1860Y1149D01*
X2210Y1149D02*
X2248Y1149D01*
X2300Y1149D02*
X2338Y1149D01*
X2732Y1149D02*
X2770Y1149D01*
X2821Y1149D02*
X2860Y1149D01*
X3210Y1149D02*
X3248Y1149D01*
X3300Y1149D02*
X3338Y1149D01*
X732Y1148D02*
X770Y1148D01*
X822Y1148D02*
X860Y1148D01*
X1210Y1148D02*
X1248Y1148D01*
X1300Y1148D02*
X1338Y1148D01*
X1732Y1148D02*
X1770Y1148D01*
X1822Y1148D02*
X1860Y1148D01*
X2210Y1148D02*
X2248Y1148D01*
X2300Y1148D02*
X2338Y1148D01*
X2731Y1148D02*
X2770Y1148D01*
X2821Y1148D02*
X2860Y1148D01*
X3210Y1148D02*
X3248Y1148D01*
X3300Y1148D02*
X3338Y1148D01*
X732Y1147D02*
X770Y1147D01*
X822Y1147D02*
X860Y1147D01*
X1210Y1147D02*
X1248Y1147D01*
X1300Y1147D02*
X1338Y1147D01*
X1731Y1147D02*
X1770Y1147D01*
X1822Y1147D02*
X1860Y1147D01*
X2210Y1147D02*
X2248Y1147D01*
X2300Y1147D02*
X2338Y1147D01*
X2731Y1147D02*
X2770Y1147D01*
X2822Y1147D02*
X2860Y1147D01*
X3210Y1147D02*
X3248Y1147D01*
X3300Y1147D02*
X3338Y1147D01*
X731Y1146D02*
X770Y1146D01*
X822Y1146D02*
X860Y1146D01*
X1210Y1146D02*
X1248Y1146D01*
X1300Y1146D02*
X1338Y1146D01*
X1731Y1146D02*
X1770Y1146D01*
X1822Y1146D02*
X1860Y1146D01*
X2210Y1146D02*
X2248Y1146D01*
X2300Y1146D02*
X2338Y1146D01*
X2731Y1146D02*
X2770Y1146D01*
X2822Y1146D02*
X2860Y1146D01*
X3210Y1146D02*
X3248Y1146D01*
X3300Y1146D02*
X3338Y1146D01*
X731Y1145D02*
X770Y1145D01*
X822Y1145D02*
X860Y1145D01*
X1210Y1145D02*
X1248Y1145D01*
X1300Y1145D02*
X1338Y1145D01*
X1731Y1145D02*
X1770Y1145D01*
X1822Y1145D02*
X1860Y1145D01*
X2210Y1145D02*
X2248Y1145D01*
X2300Y1145D02*
X2338Y1145D01*
X2731Y1145D02*
X2770Y1145D01*
X2822Y1145D02*
X2860Y1145D01*
X3210Y1145D02*
X3248Y1145D01*
X3300Y1145D02*
X3338Y1145D01*
X731Y1144D02*
X770Y1144D01*
X822Y1144D02*
X860Y1144D01*
X1210Y1144D02*
X1248Y1144D01*
X1300Y1144D02*
X1339Y1144D01*
X1731Y1144D02*
X1770Y1144D01*
X1822Y1144D02*
X1860Y1144D01*
X2210Y1144D02*
X2248Y1144D01*
X2300Y1144D02*
X2338Y1144D01*
X2731Y1144D02*
X2770Y1144D01*
X2822Y1144D02*
X2860Y1144D01*
X3210Y1144D02*
X3248Y1144D01*
X3300Y1144D02*
X3338Y1144D01*
X731Y1143D02*
X770Y1143D01*
X822Y1143D02*
X860Y1143D01*
X1210Y1143D02*
X1248Y1143D01*
X1300Y1143D02*
X1338Y1143D01*
X1731Y1143D02*
X1770Y1143D01*
X1822Y1143D02*
X1860Y1143D01*
X2210Y1143D02*
X2248Y1143D01*
X2300Y1143D02*
X2338Y1143D01*
X2731Y1143D02*
X2770Y1143D01*
X2822Y1143D02*
X2860Y1143D01*
X3210Y1143D02*
X3248Y1143D01*
X3300Y1143D02*
X3338Y1143D01*
X731Y1142D02*
X770Y1142D01*
X822Y1142D02*
X860Y1142D01*
X1210Y1142D02*
X1248Y1142D01*
X1300Y1142D02*
X1338Y1142D01*
X1731Y1142D02*
X1770Y1142D01*
X1822Y1142D02*
X1860Y1142D01*
X2210Y1142D02*
X2248Y1142D01*
X2300Y1142D02*
X2338Y1142D01*
X2731Y1142D02*
X2770Y1142D01*
X2822Y1142D02*
X2860Y1142D01*
X3210Y1142D02*
X3248Y1142D01*
X3300Y1142D02*
X3338Y1142D01*
X731Y1141D02*
X770Y1141D01*
X822Y1141D02*
X860Y1141D01*
X1210Y1141D02*
X1248Y1141D01*
X1300Y1141D02*
X1338Y1141D01*
X1731Y1141D02*
X1770Y1141D01*
X1822Y1141D02*
X1860Y1141D01*
X2210Y1141D02*
X2248Y1141D01*
X2300Y1141D02*
X2338Y1141D01*
X2731Y1141D02*
X2770Y1141D01*
X2822Y1141D02*
X2860Y1141D01*
X3210Y1141D02*
X3248Y1141D01*
X3300Y1141D02*
X3338Y1141D01*
X732Y1140D02*
X770Y1140D01*
X822Y1140D02*
X860Y1140D01*
X1210Y1140D02*
X1248Y1140D01*
X1300Y1140D02*
X1338Y1140D01*
X1731Y1140D02*
X1770Y1140D01*
X1822Y1140D02*
X1860Y1140D01*
X2210Y1140D02*
X2248Y1140D01*
X2300Y1140D02*
X2338Y1140D01*
X2731Y1140D02*
X2770Y1140D01*
X2822Y1140D02*
X2860Y1140D01*
X3210Y1140D02*
X3248Y1140D01*
X3300Y1140D02*
X3338Y1140D01*
X732Y1139D02*
X770Y1139D01*
X822Y1139D02*
X860Y1139D01*
X1210Y1139D02*
X1248Y1139D01*
X1300Y1139D02*
X1338Y1139D01*
X1732Y1139D02*
X1770Y1139D01*
X1821Y1139D02*
X1860Y1139D01*
X2210Y1139D02*
X2248Y1139D01*
X2300Y1139D02*
X2338Y1139D01*
X2731Y1139D02*
X2770Y1139D01*
X2821Y1139D02*
X2860Y1139D01*
X3210Y1139D02*
X3248Y1139D01*
X3300Y1139D02*
X3338Y1139D01*
X732Y1138D02*
X770Y1138D01*
X821Y1138D02*
X860Y1138D01*
X1210Y1138D02*
X1249Y1138D01*
X1300Y1138D02*
X1338Y1138D01*
X1732Y1138D02*
X1770Y1138D01*
X1821Y1138D02*
X1860Y1138D01*
X2210Y1138D02*
X2249Y1138D01*
X2300Y1138D02*
X2338Y1138D01*
X2732Y1138D02*
X2770Y1138D01*
X2821Y1138D02*
X2860Y1138D01*
X3210Y1138D02*
X3248Y1138D01*
X3300Y1138D02*
X3338Y1138D01*
X732Y1137D02*
X770Y1137D01*
X821Y1137D02*
X860Y1137D01*
X1210Y1137D02*
X1249Y1137D01*
X1299Y1137D02*
X1338Y1137D01*
X1732Y1137D02*
X1770Y1137D01*
X1821Y1137D02*
X1860Y1137D01*
X2210Y1137D02*
X2249Y1137D01*
X2299Y1137D02*
X2338Y1137D01*
X2732Y1137D02*
X2770Y1137D01*
X2821Y1137D02*
X2860Y1137D01*
X3210Y1137D02*
X3249Y1137D01*
X3299Y1137D02*
X3338Y1137D01*
X732Y1136D02*
X771Y1136D01*
X821Y1136D02*
X860Y1136D01*
X1210Y1136D02*
X1249Y1136D01*
X1299Y1136D02*
X1338Y1136D01*
X1732Y1136D02*
X1771Y1136D01*
X1821Y1136D02*
X1860Y1136D01*
X2210Y1136D02*
X2249Y1136D01*
X2299Y1136D02*
X2338Y1136D01*
X2732Y1136D02*
X2771Y1136D01*
X2821Y1136D02*
X2860Y1136D01*
X3210Y1136D02*
X3249Y1136D01*
X3299Y1136D02*
X3338Y1136D01*
X732Y1135D02*
X771Y1135D01*
X820Y1135D02*
X859Y1135D01*
X1210Y1135D02*
X1250Y1135D01*
X1299Y1135D02*
X1338Y1135D01*
X1732Y1135D02*
X1771Y1135D01*
X1820Y1135D02*
X1859Y1135D01*
X2210Y1135D02*
X2249Y1135D01*
X2299Y1135D02*
X2338Y1135D01*
X2732Y1135D02*
X2771Y1135D01*
X2820Y1135D02*
X2859Y1135D01*
X3210Y1135D02*
X3249Y1135D01*
X3299Y1135D02*
X3338Y1135D01*
X732Y1134D02*
X772Y1134D01*
X820Y1134D02*
X859Y1134D01*
X1211Y1134D02*
X1250Y1134D01*
X1298Y1134D02*
X1338Y1134D01*
X1732Y1134D02*
X1772Y1134D01*
X1820Y1134D02*
X1859Y1134D01*
X2210Y1134D02*
X2250Y1134D01*
X2298Y1134D02*
X2338Y1134D01*
X2732Y1134D02*
X2771Y1134D01*
X2820Y1134D02*
X2859Y1134D01*
X3210Y1134D02*
X3250Y1134D01*
X3298Y1134D02*
X3338Y1134D01*
X732Y1133D02*
X772Y1133D01*
X819Y1133D02*
X859Y1133D01*
X1211Y1133D02*
X1250Y1133D01*
X1298Y1133D02*
X1337Y1133D01*
X1732Y1133D02*
X1772Y1133D01*
X1819Y1133D02*
X1859Y1133D01*
X2211Y1133D02*
X2250Y1133D01*
X2298Y1133D02*
X2337Y1133D01*
X2732Y1133D02*
X2772Y1133D01*
X2819Y1133D02*
X2859Y1133D01*
X3211Y1133D02*
X3250Y1133D01*
X3298Y1133D02*
X3337Y1133D01*
X733Y1132D02*
X773Y1132D01*
X819Y1132D02*
X859Y1132D01*
X1211Y1132D02*
X1251Y1132D01*
X1297Y1132D02*
X1337Y1132D01*
X1732Y1132D02*
X1773Y1132D01*
X1819Y1132D02*
X1859Y1132D01*
X2211Y1132D02*
X2251Y1132D01*
X2297Y1132D02*
X2337Y1132D01*
X2732Y1132D02*
X2772Y1132D01*
X2819Y1132D02*
X2859Y1132D01*
X3211Y1132D02*
X3251Y1132D01*
X3297Y1132D02*
X3337Y1132D01*
X733Y1131D02*
X773Y1131D01*
X818Y1131D02*
X859Y1131D01*
X1211Y1131D02*
X1251Y1131D01*
X1297Y1131D02*
X1337Y1131D01*
X1733Y1131D02*
X1773Y1131D01*
X1818Y1131D02*
X1859Y1131D01*
X2211Y1131D02*
X2251Y1131D01*
X2297Y1131D02*
X2337Y1131D01*
X2733Y1131D02*
X2773Y1131D01*
X2818Y1131D02*
X2859Y1131D01*
X3211Y1131D02*
X3251Y1131D01*
X3297Y1131D02*
X3337Y1131D01*
X733Y1130D02*
X774Y1130D01*
X818Y1130D02*
X859Y1130D01*
X1211Y1130D02*
X1252Y1130D01*
X1296Y1130D02*
X1337Y1130D01*
X1733Y1130D02*
X1774Y1130D01*
X1818Y1130D02*
X1859Y1130D01*
X2211Y1130D02*
X2252Y1130D01*
X2296Y1130D02*
X2337Y1130D01*
X2733Y1130D02*
X2774Y1130D01*
X2818Y1130D02*
X2859Y1130D01*
X3211Y1130D02*
X3252Y1130D01*
X3296Y1130D02*
X3337Y1130D01*
X733Y1129D02*
X774Y1129D01*
X817Y1129D02*
X858Y1129D01*
X1211Y1129D02*
X1253Y1129D01*
X1296Y1129D02*
X1337Y1129D01*
X1733Y1129D02*
X1774Y1129D01*
X1817Y1129D02*
X1858Y1129D01*
X2211Y1129D02*
X2253Y1129D01*
X2296Y1129D02*
X2337Y1129D01*
X2733Y1129D02*
X2774Y1129D01*
X2817Y1129D02*
X2858Y1129D01*
X3211Y1129D02*
X3253Y1129D01*
X3295Y1129D02*
X3337Y1129D01*
X733Y1128D02*
X775Y1128D01*
X816Y1128D02*
X858Y1128D01*
X1212Y1128D02*
X1253Y1128D01*
X1295Y1128D02*
X1336Y1128D01*
X1733Y1128D02*
X1775Y1128D01*
X1816Y1128D02*
X1858Y1128D01*
X2212Y1128D02*
X2253Y1128D01*
X2295Y1128D02*
X2336Y1128D01*
X2733Y1128D02*
X2775Y1128D01*
X2816Y1128D02*
X2858Y1128D01*
X3212Y1128D02*
X3253Y1128D01*
X3295Y1128D02*
X3336Y1128D01*
X734Y1127D02*
X776Y1127D01*
X816Y1127D02*
X858Y1127D01*
X1212Y1127D02*
X1254Y1127D01*
X1294Y1127D02*
X1336Y1127D01*
X1734Y1127D02*
X1776Y1127D01*
X1816Y1127D02*
X1858Y1127D01*
X2212Y1127D02*
X2254Y1127D01*
X2294Y1127D02*
X2336Y1127D01*
X2734Y1127D02*
X2776Y1127D01*
X2815Y1127D02*
X2858Y1127D01*
X3212Y1127D02*
X3254Y1127D01*
X3294Y1127D02*
X3336Y1127D01*
X734Y1126D02*
X777Y1126D01*
X815Y1126D02*
X858Y1126D01*
X1212Y1126D02*
X1255Y1126D01*
X1293Y1126D02*
X1336Y1126D01*
X1734Y1126D02*
X1777Y1126D01*
X1815Y1126D02*
X1858Y1126D01*
X2212Y1126D02*
X2255Y1126D01*
X2293Y1126D02*
X2336Y1126D01*
X2734Y1126D02*
X2777Y1126D01*
X2815Y1126D02*
X2858Y1126D01*
X3212Y1126D02*
X3255Y1126D01*
X3293Y1126D02*
X3336Y1126D01*
X734Y1125D02*
X778Y1125D01*
X814Y1125D02*
X857Y1125D01*
X1212Y1125D02*
X1256Y1125D01*
X1292Y1125D02*
X1336Y1125D01*
X1734Y1125D02*
X1778Y1125D01*
X1814Y1125D02*
X1857Y1125D01*
X2212Y1125D02*
X2256Y1125D01*
X2292Y1125D02*
X2336Y1125D01*
X2734Y1125D02*
X2778Y1125D01*
X2814Y1125D02*
X2857Y1125D01*
X3212Y1125D02*
X3256Y1125D01*
X3292Y1125D02*
X3336Y1125D01*
X734Y1124D02*
X779Y1124D01*
X812Y1124D02*
X857Y1124D01*
X1213Y1124D02*
X1257Y1124D01*
X1291Y1124D02*
X1335Y1124D01*
X1734Y1124D02*
X1779Y1124D01*
X1812Y1124D02*
X1857Y1124D01*
X2213Y1124D02*
X2257Y1124D01*
X2291Y1124D02*
X2335Y1124D01*
X2734Y1124D02*
X2779Y1124D01*
X2812Y1124D02*
X2857Y1124D01*
X3213Y1124D02*
X3257Y1124D01*
X3291Y1124D02*
X3335Y1124D01*
X735Y1123D02*
X780Y1123D01*
X811Y1123D02*
X857Y1123D01*
X1213Y1123D02*
X1259Y1123D01*
X1290Y1123D02*
X1335Y1123D01*
X1735Y1123D02*
X1780Y1123D01*
X1811Y1123D02*
X1857Y1123D01*
X2213Y1123D02*
X2258Y1123D01*
X2290Y1123D02*
X2335Y1123D01*
X2735Y1123D02*
X2780Y1123D01*
X2811Y1123D02*
X2857Y1123D01*
X3213Y1123D02*
X3258Y1123D01*
X3290Y1123D02*
X3335Y1123D01*
X735Y1122D02*
X782Y1122D01*
X810Y1122D02*
X856Y1122D01*
X1213Y1122D02*
X1260Y1122D01*
X1288Y1122D02*
X1335Y1122D01*
X1735Y1122D02*
X1782Y1122D01*
X1810Y1122D02*
X1856Y1122D01*
X2213Y1122D02*
X2260Y1122D01*
X2288Y1122D02*
X2335Y1122D01*
X2735Y1122D02*
X2782Y1122D01*
X2810Y1122D02*
X2856Y1122D01*
X3213Y1122D02*
X3260Y1122D01*
X3288Y1122D02*
X3335Y1122D01*
X736Y1121D02*
X784Y1121D01*
X808Y1121D02*
X856Y1121D01*
X1214Y1121D02*
X1262Y1121D01*
X1286Y1121D02*
X1334Y1121D01*
X1735Y1121D02*
X1784Y1121D01*
X1808Y1121D02*
X1856Y1121D01*
X2214Y1121D02*
X2262Y1121D01*
X2286Y1121D02*
X2334Y1121D01*
X2735Y1121D02*
X2784Y1121D01*
X2808Y1121D02*
X2856Y1121D01*
X3214Y1121D02*
X3262Y1121D01*
X3286Y1121D02*
X3334Y1121D01*
X736Y1120D02*
X786Y1120D01*
X806Y1120D02*
X856Y1120D01*
X1214Y1120D02*
X1264Y1120D01*
X1284Y1120D02*
X1334Y1120D01*
X1736Y1120D02*
X1786Y1120D01*
X1806Y1120D02*
X1856Y1120D01*
X2214Y1120D02*
X2264Y1120D01*
X2284Y1120D02*
X2334Y1120D01*
X2736Y1120D02*
X2786Y1120D01*
X2806Y1120D02*
X2856Y1120D01*
X3214Y1120D02*
X3264Y1120D01*
X3284Y1120D02*
X3334Y1120D01*
X736Y1119D02*
X788Y1119D01*
X803Y1119D02*
X855Y1119D01*
X1215Y1119D02*
X1267Y1119D01*
X1281Y1119D02*
X1334Y1119D01*
X1736Y1119D02*
X1788Y1119D01*
X1803Y1119D02*
X1855Y1119D01*
X2215Y1119D02*
X2267Y1119D01*
X2281Y1119D02*
X2334Y1119D01*
X2736Y1119D02*
X2788Y1119D01*
X2803Y1119D02*
X2855Y1119D01*
X3214Y1119D02*
X3267Y1119D01*
X3281Y1119D02*
X3334Y1119D01*
X737Y1118D02*
X855Y1118D01*
X1215Y1118D02*
X1333Y1118D01*
X1737Y1118D02*
X1855Y1118D01*
X2215Y1118D02*
X2333Y1118D01*
X2737Y1118D02*
X2855Y1118D01*
X3215Y1118D02*
X3333Y1118D01*
X737Y1117D02*
X854Y1117D01*
X1215Y1117D02*
X1333Y1117D01*
X1737Y1117D02*
X1854Y1117D01*
X2215Y1117D02*
X2333Y1117D01*
X2737Y1117D02*
X2854Y1117D01*
X3215Y1117D02*
X3333Y1117D01*
X738Y1116D02*
X854Y1116D01*
X1216Y1116D02*
X1332Y1116D01*
X1738Y1116D02*
X1854Y1116D01*
X2216Y1116D02*
X2332Y1116D01*
X2738Y1116D02*
X2854Y1116D01*
X3216Y1116D02*
X3332Y1116D01*
X738Y1115D02*
X853Y1115D01*
X1216Y1115D02*
X1332Y1115D01*
X1738Y1115D02*
X1853Y1115D01*
X2216Y1115D02*
X2332Y1115D01*
X2738Y1115D02*
X2853Y1115D01*
X3216Y1115D02*
X3332Y1115D01*
X739Y1114D02*
X853Y1114D01*
X1217Y1114D02*
X1331Y1114D01*
X1739Y1114D02*
X1853Y1114D01*
X2217Y1114D02*
X2331Y1114D01*
X2739Y1114D02*
X2853Y1114D01*
X3217Y1114D02*
X3331Y1114D01*
X739Y1113D02*
X852Y1113D01*
X1217Y1113D02*
X1331Y1113D01*
X1739Y1113D02*
X1852Y1113D01*
X2217Y1113D02*
X2331Y1113D01*
X2739Y1113D02*
X2852Y1113D01*
X3217Y1113D02*
X3331Y1113D01*
X740Y1112D02*
X852Y1112D01*
X1218Y1112D02*
X1330Y1112D01*
X1740Y1112D02*
X1852Y1112D01*
X2218Y1112D02*
X2330Y1112D01*
X2740Y1112D02*
X2852Y1112D01*
X3218Y1112D02*
X3330Y1112D01*
X740Y1111D02*
X851Y1111D01*
X1219Y1111D02*
X1330Y1111D01*
X1740Y1111D02*
X1851Y1111D01*
X2219Y1111D02*
X2330Y1111D01*
X2740Y1111D02*
X2851Y1111D01*
X3219Y1111D02*
X3329Y1111D01*
X741Y1110D02*
X851Y1110D01*
X1219Y1110D02*
X1329Y1110D01*
X1741Y1110D02*
X1851Y1110D01*
X2219Y1110D02*
X2329Y1110D01*
X2741Y1110D02*
X2851Y1110D01*
X3219Y1110D02*
X3329Y1110D01*
X742Y1109D02*
X850Y1109D01*
X1220Y1109D02*
X1328Y1109D01*
X1741Y1109D02*
X1850Y1109D01*
X2220Y1109D02*
X2328Y1109D01*
X2741Y1109D02*
X2850Y1109D01*
X3220Y1109D02*
X3328Y1109D01*
X742Y1108D02*
X849Y1108D01*
X1220Y1108D02*
X1328Y1108D01*
X1742Y1108D02*
X1849Y1108D01*
X2220Y1108D02*
X2328Y1108D01*
X2742Y1108D02*
X2849Y1108D01*
X3220Y1108D02*
X3328Y1108D01*
X743Y1107D02*
X849Y1107D01*
X1221Y1107D02*
X1327Y1107D01*
X1743Y1107D02*
X1849Y1107D01*
X2221Y1107D02*
X2327Y1107D01*
X2743Y1107D02*
X2849Y1107D01*
X3221Y1107D02*
X3327Y1107D01*
X744Y1106D02*
X848Y1106D01*
X1222Y1106D02*
X1326Y1106D01*
X1744Y1106D02*
X1848Y1106D01*
X2222Y1106D02*
X2326Y1106D01*
X2743Y1106D02*
X2848Y1106D01*
X3222Y1106D02*
X3326Y1106D01*
X744Y1105D02*
X847Y1105D01*
X1223Y1105D02*
X1326Y1105D01*
X1744Y1105D02*
X1847Y1105D01*
X2223Y1105D02*
X2326Y1105D01*
X2744Y1105D02*
X2847Y1105D01*
X3223Y1105D02*
X3325Y1105D01*
X745Y1104D02*
X847Y1104D01*
X1223Y1104D02*
X1325Y1104D01*
X1745Y1104D02*
X1846Y1104D01*
X2223Y1104D02*
X2325Y1104D01*
X2745Y1104D02*
X2846Y1104D01*
X3223Y1104D02*
X3325Y1104D01*
X746Y1103D02*
X846Y1103D01*
X1224Y1103D02*
X1324Y1103D01*
X1746Y1103D02*
X1846Y1103D01*
X2224Y1103D02*
X2324Y1103D01*
X2746Y1103D02*
X2846Y1103D01*
X3224Y1103D02*
X3324Y1103D01*
X747Y1102D02*
X845Y1102D01*
X1225Y1102D02*
X1323Y1102D01*
X1747Y1102D02*
X1845Y1102D01*
X2225Y1102D02*
X2323Y1102D01*
X2746Y1102D02*
X2845Y1102D01*
X3225Y1102D02*
X3323Y1102D01*
X747Y1101D02*
X844Y1101D01*
X1226Y1101D02*
X1322Y1101D01*
X1747Y1101D02*
X1844Y1101D01*
X2226Y1101D02*
X2322Y1101D01*
X2747Y1101D02*
X2844Y1101D01*
X3226Y1101D02*
X3322Y1101D01*
X748Y1100D02*
X843Y1100D01*
X1227Y1100D02*
X1322Y1100D01*
X1748Y1100D02*
X1843Y1100D01*
X2227Y1100D02*
X2321Y1100D01*
X2748Y1100D02*
X2843Y1100D01*
X3227Y1100D02*
X3321Y1100D01*
X749Y1099D02*
X842Y1099D01*
X1228Y1099D02*
X1321Y1099D01*
X1749Y1099D02*
X1842Y1099D01*
X2228Y1099D02*
X2321Y1099D01*
X2749Y1099D02*
X2842Y1099D01*
X3227Y1099D02*
X3321Y1099D01*
X750Y1098D02*
X841Y1098D01*
X1228Y1098D02*
X1320Y1098D01*
X1750Y1098D02*
X1841Y1098D01*
X2228Y1098D02*
X2320Y1098D01*
X2750Y1098D02*
X2841Y1098D01*
X3228Y1098D02*
X3320Y1098D01*
X751Y1097D02*
X840Y1097D01*
X1230Y1097D02*
X1319Y1097D01*
X1751Y1097D02*
X1840Y1097D01*
X2230Y1097D02*
X2319Y1097D01*
X2751Y1097D02*
X2840Y1097D01*
X3229Y1097D02*
X3319Y1097D01*
X752Y1096D02*
X839Y1096D01*
X1231Y1096D02*
X1318Y1096D01*
X1752Y1096D02*
X1839Y1096D01*
X2231Y1096D02*
X2317Y1096D01*
X2752Y1096D02*
X2839Y1096D01*
X3231Y1096D02*
X3317Y1096D01*
X753Y1095D02*
X838Y1095D01*
X1232Y1095D02*
X1316Y1095D01*
X1753Y1095D02*
X1838Y1095D01*
X2232Y1095D02*
X2316Y1095D01*
X2753Y1095D02*
X2838Y1095D01*
X3232Y1095D02*
X3316Y1095D01*
X755Y1094D02*
X837Y1094D01*
X1233Y1094D02*
X1315Y1094D01*
X1755Y1094D02*
X1837Y1094D01*
X2233Y1094D02*
X2315Y1094D01*
X2754Y1094D02*
X2837Y1094D01*
X3233Y1094D02*
X3315Y1094D01*
X756Y1093D02*
X836Y1093D01*
X1234Y1093D02*
X1314Y1093D01*
X1756Y1093D02*
X1836Y1093D01*
X2234Y1093D02*
X2314Y1093D01*
X2756Y1093D02*
X2836Y1093D01*
X3234Y1093D02*
X3314Y1093D01*
X757Y1092D02*
X834Y1092D01*
X1236Y1092D02*
X1313Y1092D01*
X1757Y1092D02*
X1834Y1092D01*
X2235Y1092D02*
X2313Y1092D01*
X2757Y1092D02*
X2834Y1092D01*
X3235Y1092D02*
X3313Y1092D01*
X759Y1091D02*
X833Y1091D01*
X1237Y1091D02*
X1311Y1091D01*
X1759Y1091D02*
X1833Y1091D01*
X2237Y1091D02*
X2311Y1091D01*
X2758Y1091D02*
X2833Y1091D01*
X3237Y1091D02*
X3311Y1091D01*
X760Y1090D02*
X832Y1090D01*
X1238Y1090D02*
X1310Y1090D01*
X1760Y1090D02*
X1832Y1090D01*
X2238Y1090D02*
X2310Y1090D01*
X2760Y1090D02*
X2832Y1090D01*
X3238Y1090D02*
X3310Y1090D01*
X762Y1089D02*
X830Y1089D01*
X1240Y1089D02*
X1308Y1089D01*
X1761Y1089D02*
X1830Y1089D01*
X2240Y1089D02*
X2308Y1089D01*
X2761Y1089D02*
X2830Y1089D01*
X3240Y1089D02*
X3308Y1089D01*
X763Y1088D02*
X828Y1088D01*
X1241Y1088D02*
X1307Y1088D01*
X1763Y1088D02*
X1828Y1088D01*
X2241Y1088D02*
X2307Y1088D01*
X2763Y1088D02*
X2828Y1088D01*
X3241Y1088D02*
X3307Y1088D01*
X765Y1087D02*
X827Y1087D01*
X1243Y1087D02*
X1305Y1087D01*
X1765Y1087D02*
X1827Y1087D01*
X2243Y1087D02*
X2305Y1087D01*
X2765Y1087D02*
X2827Y1087D01*
X3243Y1087D02*
X3305Y1087D01*
X767Y1086D02*
X825Y1086D01*
X1245Y1086D02*
X1303Y1086D01*
X1767Y1086D02*
X1825Y1086D01*
X2245Y1086D02*
X2303Y1086D01*
X2767Y1086D02*
X2825Y1086D01*
X3245Y1086D02*
X3303Y1086D01*
X769Y1085D02*
X823Y1085D01*
X1247Y1085D02*
X1301Y1085D01*
X1769Y1085D02*
X1823Y1085D01*
X2247Y1085D02*
X2301Y1085D01*
X2769Y1085D02*
X2823Y1085D01*
X3247Y1085D02*
X3301Y1085D01*
X771Y1084D02*
X821Y1084D01*
X1249Y1084D02*
X1299Y1084D01*
X1771Y1084D02*
X1821Y1084D01*
X2249Y1084D02*
X2299Y1084D01*
X2771Y1084D02*
X2821Y1084D01*
X3249Y1084D02*
X3299Y1084D01*
X773Y1083D02*
X818Y1083D01*
X1252Y1083D02*
X1296Y1083D01*
X1773Y1083D02*
X1818Y1083D01*
X2252Y1083D02*
X2296Y1083D01*
X2773Y1083D02*
X2818Y1083D01*
X3252Y1083D02*
X3296Y1083D01*
X776Y1082D02*
X815Y1082D01*
X1255Y1082D02*
X1294Y1082D01*
X1776Y1082D02*
X1815Y1082D01*
X2254Y1082D02*
X2294Y1082D01*
X2776Y1082D02*
X2815Y1082D01*
X3254Y1082D02*
X3294Y1082D01*
X780Y1081D02*
X812Y1081D01*
X1258Y1081D02*
X1290Y1081D01*
X1780Y1081D02*
X1812Y1081D01*
X2258Y1081D02*
X2290Y1081D01*
X2780Y1081D02*
X2812Y1081D01*
X3258Y1081D02*
X3290Y1081D01*
X784Y1080D02*
X807Y1080D01*
X1263Y1080D02*
X1286Y1080D01*
X1784Y1080D02*
X1807Y1080D01*
X2263Y1080D02*
X2285Y1080D01*
X2784Y1080D02*
X2807Y1080D01*
X3263Y1080D02*
X3285Y1080D01*
X792Y1079D02*
X799Y1079D01*
X1270Y1079D02*
X1278Y1079D01*
X1792Y1079D02*
X1799Y1079D01*
X2270Y1079D02*
X2278Y1079D01*
X2792Y1079D02*
X2799Y1079D01*
X3270Y1079D02*
X3278Y1079D01*
X1348Y972D02*
X1361Y972D01*
X2348Y972D02*
X2361Y972D01*
X3348Y972D02*
X3361Y972D01*
X1342Y971D02*
X1368Y971D01*
X2342Y971D02*
X2367Y971D01*
X3342Y971D02*
X3367Y971D01*
X1338Y970D02*
X1372Y970D01*
X2338Y970D02*
X2371Y970D01*
X3338Y970D02*
X3371Y970D01*
X1335Y969D02*
X1375Y969D01*
X2335Y969D02*
X2375Y969D01*
X3335Y969D02*
X3375Y969D01*
X1332Y968D02*
X1378Y968D01*
X2332Y968D02*
X2378Y968D01*
X3332Y968D02*
X3378Y968D01*
X1329Y967D02*
X1380Y967D01*
X2329Y967D02*
X2380Y967D01*
X3329Y967D02*
X3380Y967D01*
X1327Y966D02*
X1382Y966D01*
X2327Y966D02*
X2382Y966D01*
X3327Y966D02*
X3382Y966D01*
X1325Y965D02*
X1384Y965D01*
X2325Y965D02*
X2384Y965D01*
X3325Y965D02*
X3384Y965D01*
X1323Y964D02*
X1386Y964D01*
X2323Y964D02*
X2386Y964D01*
X3323Y964D02*
X3386Y964D01*
X1322Y963D02*
X1388Y963D01*
X2322Y963D02*
X2388Y963D01*
X3322Y963D02*
X3388Y963D01*
X1320Y962D02*
X1389Y962D01*
X2320Y962D02*
X2389Y962D01*
X3320Y962D02*
X3389Y962D01*
X1319Y961D02*
X1391Y961D01*
X2319Y961D02*
X2391Y961D01*
X3319Y961D02*
X3391Y961D01*
X1317Y960D02*
X1392Y960D01*
X2317Y960D02*
X2392Y960D01*
X3317Y960D02*
X3392Y960D01*
X1316Y959D02*
X1394Y959D01*
X2316Y959D02*
X2394Y959D01*
X3316Y959D02*
X3394Y959D01*
X1315Y958D02*
X1395Y958D01*
X2315Y958D02*
X2395Y958D01*
X3315Y958D02*
X3395Y958D01*
X1313Y957D02*
X1396Y957D01*
X2313Y957D02*
X2396Y957D01*
X3313Y957D02*
X3396Y957D01*
X1312Y956D02*
X1397Y956D01*
X2312Y956D02*
X2397Y956D01*
X3312Y956D02*
X3397Y956D01*
X1311Y955D02*
X1398Y955D01*
X2311Y955D02*
X2398Y955D01*
X3311Y955D02*
X3398Y955D01*
X1310Y954D02*
X1400Y954D01*
X2310Y954D02*
X2400Y954D01*
X3310Y954D02*
X3400Y954D01*
X1309Y953D02*
X1401Y953D01*
X2309Y953D02*
X2401Y953D01*
X3309Y953D02*
X3401Y953D01*
X1308Y952D02*
X1402Y952D01*
X2308Y952D02*
X2401Y952D01*
X3308Y952D02*
X3401Y952D01*
X1307Y951D02*
X1402Y951D01*
X2307Y951D02*
X2402Y951D01*
X3307Y951D02*
X3402Y951D01*
X1306Y950D02*
X1403Y950D01*
X2306Y950D02*
X2403Y950D01*
X3306Y950D02*
X3403Y950D01*
X1305Y949D02*
X1404Y949D01*
X2305Y949D02*
X2404Y949D01*
X3305Y949D02*
X3404Y949D01*
X1305Y948D02*
X1405Y948D01*
X2305Y948D02*
X2405Y948D01*
X3305Y948D02*
X3405Y948D01*
X1304Y947D02*
X1406Y947D01*
X2304Y947D02*
X2406Y947D01*
X3304Y947D02*
X3406Y947D01*
X1303Y946D02*
X1406Y946D01*
X2303Y946D02*
X2406Y946D01*
X3303Y946D02*
X3406Y946D01*
X1302Y945D02*
X1407Y945D01*
X2302Y945D02*
X2407Y945D01*
X3302Y945D02*
X3407Y945D01*
X1302Y944D02*
X1408Y944D01*
X2302Y944D02*
X2408Y944D01*
X3302Y944D02*
X3408Y944D01*
X1301Y943D02*
X1409Y943D01*
X2301Y943D02*
X2409Y943D01*
X3301Y943D02*
X3408Y943D01*
X1300Y942D02*
X1409Y942D01*
X2300Y942D02*
X2409Y942D01*
X3300Y942D02*
X3409Y942D01*
X1300Y941D02*
X1410Y941D01*
X2300Y941D02*
X2410Y941D01*
X3300Y941D02*
X3410Y941D01*
X1299Y940D02*
X1410Y940D01*
X2299Y940D02*
X2410Y940D01*
X3299Y940D02*
X3410Y940D01*
X1299Y939D02*
X1411Y939D01*
X2299Y939D02*
X2411Y939D01*
X3298Y939D02*
X3411Y939D01*
X1298Y938D02*
X1412Y938D01*
X2298Y938D02*
X2412Y938D01*
X3298Y938D02*
X3412Y938D01*
X1298Y937D02*
X1412Y937D01*
X2297Y937D02*
X2412Y937D01*
X3297Y937D02*
X3412Y937D01*
X1297Y936D02*
X1413Y936D01*
X2297Y936D02*
X2413Y936D01*
X3297Y936D02*
X3412Y936D01*
X1297Y935D02*
X1413Y935D01*
X2296Y935D02*
X2413Y935D01*
X3296Y935D02*
X3413Y935D01*
X1296Y934D02*
X1414Y934D01*
X2296Y934D02*
X2413Y934D01*
X3296Y934D02*
X3413Y934D01*
X1296Y933D02*
X1352Y933D01*
X1358Y933D02*
X1414Y933D01*
X2296Y933D02*
X2352Y933D01*
X2358Y933D02*
X2414Y933D01*
X3295Y933D02*
X3351Y933D01*
X3358Y933D02*
X3414Y933D01*
X1295Y932D02*
X1347Y932D01*
X1363Y932D02*
X1414Y932D01*
X2295Y932D02*
X2347Y932D01*
X2363Y932D02*
X2414Y932D01*
X3295Y932D02*
X3347Y932D01*
X3363Y932D02*
X3414Y932D01*
X1295Y931D02*
X1344Y931D01*
X1365Y931D02*
X1415Y931D01*
X2295Y931D02*
X2344Y931D01*
X2365Y931D02*
X2415Y931D01*
X3295Y931D02*
X3344Y931D01*
X3365Y931D02*
X3415Y931D01*
X1294Y930D02*
X1342Y930D01*
X1367Y930D02*
X1415Y930D01*
X2294Y930D02*
X2342Y930D01*
X2367Y930D02*
X2415Y930D01*
X3294Y930D02*
X3342Y930D01*
X3367Y930D02*
X3415Y930D01*
X1294Y929D02*
X1340Y929D01*
X1369Y929D02*
X1415Y929D01*
X2294Y929D02*
X2340Y929D01*
X2369Y929D02*
X2415Y929D01*
X3294Y929D02*
X3340Y929D01*
X3369Y929D02*
X3415Y929D01*
X1294Y928D02*
X1339Y928D01*
X1371Y928D02*
X1416Y928D01*
X2294Y928D02*
X2339Y928D01*
X2371Y928D02*
X2416Y928D01*
X3294Y928D02*
X3339Y928D01*
X3371Y928D02*
X3416Y928D01*
X1293Y927D02*
X1338Y927D01*
X1372Y927D02*
X1416Y927D01*
X2293Y927D02*
X2338Y927D01*
X2372Y927D02*
X2416Y927D01*
X3293Y927D02*
X3338Y927D01*
X3372Y927D02*
X3416Y927D01*
X1293Y926D02*
X1337Y926D01*
X1373Y926D02*
X1416Y926D01*
X2293Y926D02*
X2337Y926D01*
X2373Y926D02*
X2416Y926D01*
X3293Y926D02*
X3337Y926D01*
X3373Y926D02*
X3416Y926D01*
X1293Y925D02*
X1336Y925D01*
X1374Y925D02*
X1417Y925D01*
X2293Y925D02*
X2336Y925D01*
X2374Y925D02*
X2417Y925D01*
X3293Y925D02*
X3336Y925D01*
X3374Y925D02*
X3417Y925D01*
X1293Y924D02*
X1335Y924D01*
X1375Y924D02*
X1417Y924D01*
X2293Y924D02*
X2335Y924D01*
X2375Y924D02*
X2417Y924D01*
X3293Y924D02*
X3335Y924D01*
X3375Y924D02*
X3417Y924D01*
X1292Y923D02*
X1334Y923D01*
X1376Y923D02*
X1417Y923D01*
X2292Y923D02*
X2334Y923D01*
X2376Y923D02*
X2417Y923D01*
X3292Y923D02*
X3334Y923D01*
X3376Y923D02*
X3417Y923D01*
X1292Y922D02*
X1333Y922D01*
X1376Y922D02*
X1417Y922D01*
X2292Y922D02*
X2333Y922D01*
X2376Y922D02*
X2417Y922D01*
X3292Y922D02*
X3333Y922D01*
X3376Y922D02*
X3417Y922D01*
X1292Y921D02*
X1333Y921D01*
X1377Y921D02*
X1418Y921D01*
X2292Y921D02*
X2332Y921D01*
X2377Y921D02*
X2418Y921D01*
X3292Y921D02*
X3332Y921D01*
X3377Y921D02*
X3418Y921D01*
X1292Y920D02*
X1332Y920D01*
X1378Y920D02*
X1418Y920D01*
X2292Y920D02*
X2332Y920D01*
X2378Y920D02*
X2418Y920D01*
X3292Y920D02*
X3332Y920D01*
X3377Y920D02*
X3418Y920D01*
X1292Y919D02*
X1331Y919D01*
X1378Y919D02*
X1418Y919D01*
X2291Y919D02*
X2331Y919D01*
X2378Y919D02*
X2418Y919D01*
X3291Y919D02*
X3331Y919D01*
X3378Y919D02*
X3418Y919D01*
X1291Y918D02*
X1331Y918D01*
X1379Y918D02*
X1418Y918D01*
X2291Y918D02*
X2331Y918D01*
X2379Y918D02*
X2418Y918D01*
X3291Y918D02*
X3331Y918D01*
X3379Y918D02*
X3418Y918D01*
X1291Y917D02*
X1331Y917D01*
X1379Y917D02*
X1418Y917D01*
X2291Y917D02*
X2330Y917D01*
X2379Y917D02*
X2418Y917D01*
X3291Y917D02*
X3330Y917D01*
X3379Y917D02*
X3418Y917D01*
X1291Y916D02*
X1330Y916D01*
X1379Y916D02*
X1419Y916D01*
X2291Y916D02*
X2330Y916D01*
X2379Y916D02*
X2419Y916D01*
X3291Y916D02*
X3330Y916D01*
X3379Y916D02*
X3418Y916D01*
X1291Y915D02*
X1330Y915D01*
X1380Y915D02*
X1419Y915D01*
X2291Y915D02*
X2330Y915D01*
X2380Y915D02*
X2419Y915D01*
X3291Y915D02*
X3330Y915D01*
X3380Y915D02*
X3419Y915D01*
X1291Y914D02*
X1329Y914D01*
X1380Y914D02*
X1419Y914D01*
X2291Y914D02*
X2329Y914D01*
X2380Y914D02*
X2419Y914D01*
X3291Y914D02*
X3329Y914D01*
X3380Y914D02*
X3419Y914D01*
X1291Y913D02*
X1329Y913D01*
X1380Y913D02*
X1419Y913D01*
X2291Y913D02*
X2329Y913D01*
X2380Y913D02*
X2419Y913D01*
X3291Y913D02*
X3329Y913D01*
X3380Y913D02*
X3419Y913D01*
X1291Y912D02*
X1329Y912D01*
X1381Y912D02*
X1419Y912D01*
X2291Y912D02*
X2329Y912D01*
X2381Y912D02*
X2419Y912D01*
X3291Y912D02*
X3329Y912D01*
X3380Y912D02*
X3419Y912D01*
X1291Y911D02*
X1329Y911D01*
X1381Y911D02*
X1419Y911D01*
X2291Y911D02*
X2329Y911D01*
X2381Y911D02*
X2419Y911D01*
X3290Y911D02*
X3329Y911D01*
X3381Y911D02*
X3419Y911D01*
X1290Y910D02*
X1329Y910D01*
X1381Y910D02*
X1419Y910D01*
X2290Y910D02*
X2329Y910D01*
X2381Y910D02*
X2419Y910D01*
X3290Y910D02*
X3329Y910D01*
X3381Y910D02*
X3419Y910D01*
X1290Y909D02*
X1329Y909D01*
X1381Y909D02*
X1419Y909D01*
X2290Y909D02*
X2329Y909D01*
X2381Y909D02*
X2419Y909D01*
X3290Y909D02*
X3329Y909D01*
X3381Y909D02*
X3419Y909D01*
X1290Y908D02*
X1329Y908D01*
X1381Y908D02*
X1419Y908D01*
X2290Y908D02*
X2329Y908D01*
X2381Y908D02*
X2419Y908D01*
X3290Y908D02*
X3329Y908D01*
X3381Y908D02*
X3419Y908D01*
X1290Y907D02*
X1329Y907D01*
X1381Y907D02*
X1419Y907D01*
X2290Y907D02*
X2329Y907D01*
X2381Y907D02*
X2419Y907D01*
X3290Y907D02*
X3329Y907D01*
X3381Y907D02*
X3419Y907D01*
X1290Y906D02*
X1329Y906D01*
X1381Y906D02*
X1419Y906D01*
X2290Y906D02*
X2329Y906D01*
X2381Y906D02*
X2419Y906D01*
X3290Y906D02*
X3329Y906D01*
X3381Y906D02*
X3419Y906D01*
X1290Y905D02*
X1329Y905D01*
X1381Y905D02*
X1419Y905D01*
X2290Y905D02*
X2329Y905D01*
X2381Y905D02*
X2419Y905D01*
X3290Y905D02*
X3329Y905D01*
X3381Y905D02*
X3419Y905D01*
X1291Y904D02*
X1329Y904D01*
X1381Y904D02*
X1419Y904D01*
X2291Y904D02*
X2329Y904D01*
X2381Y904D02*
X2419Y904D01*
X3290Y904D02*
X3329Y904D01*
X3381Y904D02*
X3419Y904D01*
X1291Y903D02*
X1329Y903D01*
X1381Y903D02*
X1419Y903D01*
X2291Y903D02*
X2329Y903D01*
X2381Y903D02*
X2419Y903D01*
X3291Y903D02*
X3329Y903D01*
X3380Y903D02*
X3419Y903D01*
X1291Y902D02*
X1329Y902D01*
X1380Y902D02*
X1419Y902D01*
X2291Y902D02*
X2329Y902D01*
X2380Y902D02*
X2419Y902D01*
X3291Y902D02*
X3329Y902D01*
X3380Y902D02*
X3419Y902D01*
X1291Y901D02*
X1329Y901D01*
X1380Y901D02*
X1419Y901D01*
X2291Y901D02*
X2329Y901D01*
X2380Y901D02*
X2419Y901D01*
X3291Y901D02*
X3329Y901D01*
X3380Y901D02*
X3419Y901D01*
X1291Y900D02*
X1330Y900D01*
X1380Y900D02*
X1419Y900D01*
X2291Y900D02*
X2330Y900D01*
X2380Y900D02*
X2419Y900D01*
X3291Y900D02*
X3330Y900D01*
X3380Y900D02*
X3419Y900D01*
X1291Y899D02*
X1330Y899D01*
X1379Y899D02*
X1419Y899D01*
X2291Y899D02*
X2330Y899D01*
X2379Y899D02*
X2419Y899D01*
X3291Y899D02*
X3330Y899D01*
X3379Y899D02*
X3418Y899D01*
X1291Y898D02*
X1331Y898D01*
X1379Y898D02*
X1418Y898D01*
X2291Y898D02*
X2330Y898D01*
X2379Y898D02*
X2418Y898D01*
X3291Y898D02*
X3330Y898D01*
X3379Y898D02*
X3418Y898D01*
X1291Y897D02*
X1331Y897D01*
X1379Y897D02*
X1418Y897D01*
X2291Y897D02*
X2331Y897D01*
X2379Y897D02*
X2418Y897D01*
X3291Y897D02*
X3331Y897D01*
X3379Y897D02*
X3418Y897D01*
X1292Y896D02*
X1332Y896D01*
X1378Y896D02*
X1418Y896D01*
X2291Y896D02*
X2331Y896D01*
X2378Y896D02*
X2418Y896D01*
X3291Y896D02*
X3331Y896D01*
X3378Y896D02*
X3418Y896D01*
X1292Y895D02*
X1332Y895D01*
X1378Y895D02*
X1418Y895D01*
X2292Y895D02*
X2332Y895D01*
X2378Y895D02*
X2418Y895D01*
X3292Y895D02*
X3332Y895D01*
X3377Y895D02*
X3418Y895D01*
X1292Y894D02*
X1333Y894D01*
X1377Y894D02*
X1418Y894D01*
X2292Y894D02*
X2333Y894D01*
X2377Y894D02*
X2418Y894D01*
X3292Y894D02*
X3332Y894D01*
X3377Y894D02*
X3418Y894D01*
X1292Y893D02*
X1333Y893D01*
X1376Y893D02*
X1417Y893D01*
X2292Y893D02*
X2333Y893D01*
X2376Y893D02*
X2417Y893D01*
X3292Y893D02*
X3333Y893D01*
X3376Y893D02*
X3417Y893D01*
X1292Y892D02*
X1334Y892D01*
X1376Y892D02*
X1417Y892D01*
X2292Y892D02*
X2334Y892D01*
X2376Y892D02*
X2417Y892D01*
X3292Y892D02*
X3334Y892D01*
X3376Y892D02*
X3417Y892D01*
X1293Y891D02*
X1335Y891D01*
X1375Y891D02*
X1417Y891D01*
X2293Y891D02*
X2335Y891D01*
X2375Y891D02*
X2417Y891D01*
X3293Y891D02*
X3335Y891D01*
X3375Y891D02*
X3417Y891D01*
X1293Y890D02*
X1336Y890D01*
X1374Y890D02*
X1417Y890D01*
X2293Y890D02*
X2336Y890D01*
X2374Y890D02*
X2417Y890D01*
X3293Y890D02*
X3336Y890D01*
X3374Y890D02*
X3417Y890D01*
X1293Y889D02*
X1337Y889D01*
X1373Y889D02*
X1416Y889D01*
X2293Y889D02*
X2337Y889D01*
X2373Y889D02*
X2416Y889D01*
X3293Y889D02*
X3337Y889D01*
X3373Y889D02*
X3416Y889D01*
X1293Y888D02*
X1338Y888D01*
X1372Y888D02*
X1416Y888D01*
X2293Y888D02*
X2338Y888D01*
X2372Y888D02*
X2416Y888D01*
X3293Y888D02*
X3338Y888D01*
X3372Y888D02*
X3416Y888D01*
X1294Y887D02*
X1339Y887D01*
X1371Y887D02*
X1416Y887D01*
X2294Y887D02*
X2339Y887D01*
X2371Y887D02*
X2416Y887D01*
X3294Y887D02*
X3339Y887D01*
X3370Y887D02*
X3416Y887D01*
X1294Y886D02*
X1340Y886D01*
X1369Y886D02*
X1415Y886D01*
X2294Y886D02*
X2340Y886D01*
X2369Y886D02*
X2415Y886D01*
X3294Y886D02*
X3340Y886D01*
X3369Y886D02*
X3415Y886D01*
X1294Y885D02*
X1342Y885D01*
X1367Y885D02*
X1415Y885D01*
X2294Y885D02*
X2342Y885D01*
X2367Y885D02*
X2415Y885D01*
X3294Y885D02*
X3342Y885D01*
X3367Y885D02*
X3415Y885D01*
X1295Y884D02*
X1344Y884D01*
X1365Y884D02*
X1415Y884D01*
X2295Y884D02*
X2344Y884D01*
X2365Y884D02*
X2415Y884D01*
X3295Y884D02*
X3344Y884D01*
X3365Y884D02*
X3415Y884D01*
X1295Y883D02*
X1347Y883D01*
X1363Y883D02*
X1414Y883D01*
X2295Y883D02*
X2347Y883D01*
X2363Y883D02*
X2414Y883D01*
X3295Y883D02*
X3347Y883D01*
X3363Y883D02*
X3414Y883D01*
X1296Y882D02*
X1352Y882D01*
X1358Y882D02*
X1414Y882D01*
X2296Y882D02*
X2352Y882D01*
X2358Y882D02*
X2414Y882D01*
X3295Y882D02*
X3352Y882D01*
X3358Y882D02*
X3414Y882D01*
X1296Y881D02*
X1414Y881D01*
X2296Y881D02*
X2413Y881D01*
X3296Y881D02*
X3413Y881D01*
X1297Y880D02*
X1413Y880D01*
X2297Y880D02*
X2413Y880D01*
X3296Y880D02*
X3413Y880D01*
X1297Y879D02*
X1413Y879D01*
X2297Y879D02*
X2413Y879D01*
X3297Y879D02*
X3412Y879D01*
X1298Y878D02*
X1412Y878D01*
X2297Y878D02*
X2412Y878D01*
X3297Y878D02*
X3412Y878D01*
X1298Y877D02*
X1412Y877D01*
X2298Y877D02*
X2412Y877D01*
X3298Y877D02*
X3411Y877D01*
X1299Y876D02*
X1411Y876D01*
X2299Y876D02*
X2411Y876D01*
X3299Y876D02*
X3411Y876D01*
X1299Y875D02*
X1410Y875D01*
X2299Y875D02*
X2410Y875D01*
X3299Y875D02*
X3410Y875D01*
X1300Y874D02*
X1410Y874D01*
X2300Y874D02*
X2410Y874D01*
X3300Y874D02*
X3410Y874D01*
X1300Y873D02*
X1409Y873D01*
X2300Y873D02*
X2409Y873D01*
X3300Y873D02*
X3409Y873D01*
X1301Y872D02*
X1409Y872D01*
X2301Y872D02*
X2409Y872D01*
X3301Y872D02*
X3408Y872D01*
X1302Y871D02*
X1408Y871D01*
X2302Y871D02*
X2408Y871D01*
X3302Y871D02*
X3408Y871D01*
X1302Y870D02*
X1407Y870D01*
X2302Y870D02*
X2407Y870D01*
X3302Y870D02*
X3407Y870D01*
X1303Y869D02*
X1406Y869D01*
X2303Y869D02*
X2406Y869D01*
X3303Y869D02*
X3406Y869D01*
X1304Y868D02*
X1406Y868D01*
X2304Y868D02*
X2406Y868D01*
X3304Y868D02*
X3406Y868D01*
X1305Y867D02*
X1405Y867D01*
X2305Y867D02*
X2405Y867D01*
X3305Y867D02*
X3405Y867D01*
X1305Y866D02*
X1404Y866D01*
X2305Y866D02*
X2404Y866D01*
X3305Y866D02*
X3404Y866D01*
X1306Y865D02*
X1403Y865D01*
X2306Y865D02*
X2403Y865D01*
X3306Y865D02*
X3403Y865D01*
X1307Y864D02*
X1402Y864D01*
X2307Y864D02*
X2402Y864D01*
X3307Y864D02*
X3402Y864D01*
X1308Y863D02*
X1401Y863D01*
X2308Y863D02*
X2401Y863D01*
X3308Y863D02*
X3401Y863D01*
X1309Y862D02*
X1401Y862D01*
X2309Y862D02*
X2401Y862D01*
X3309Y862D02*
X3401Y862D01*
X1310Y861D02*
X1400Y861D01*
X2310Y861D02*
X2400Y861D01*
X3310Y861D02*
X3399Y861D01*
X1311Y860D02*
X1398Y860D01*
X2311Y860D02*
X2398Y860D01*
X3311Y860D02*
X3398Y860D01*
X1312Y859D02*
X1397Y859D01*
X2312Y859D02*
X2397Y859D01*
X3312Y859D02*
X3397Y859D01*
X1313Y858D02*
X1396Y858D01*
X2313Y858D02*
X2396Y858D01*
X3313Y858D02*
X3396Y858D01*
X1315Y857D02*
X1395Y857D01*
X2315Y857D02*
X2395Y857D01*
X3315Y857D02*
X3395Y857D01*
X1316Y856D02*
X1394Y856D01*
X2316Y856D02*
X2394Y856D01*
X3316Y856D02*
X3394Y856D01*
X1317Y855D02*
X1392Y855D01*
X2317Y855D02*
X2392Y855D01*
X3317Y855D02*
X3392Y855D01*
X1319Y854D02*
X1391Y854D01*
X2319Y854D02*
X2391Y854D01*
X3319Y854D02*
X3391Y854D01*
X1320Y853D02*
X1389Y853D01*
X2320Y853D02*
X2389Y853D01*
X3320Y853D02*
X3389Y853D01*
X1322Y852D02*
X1388Y852D01*
X2322Y852D02*
X2388Y852D01*
X3322Y852D02*
X3388Y852D01*
X1323Y851D02*
X1386Y851D01*
X2323Y851D02*
X2386Y851D01*
X3323Y851D02*
X3386Y851D01*
X1325Y850D02*
X1384Y850D01*
X2325Y850D02*
X2384Y850D01*
X3325Y850D02*
X3384Y850D01*
X1327Y849D02*
X1382Y849D01*
X2327Y849D02*
X2382Y849D01*
X3327Y849D02*
X3382Y849D01*
X1329Y848D02*
X1380Y848D01*
X2329Y848D02*
X2380Y848D01*
X3329Y848D02*
X3380Y848D01*
X1332Y847D02*
X1378Y847D01*
X2332Y847D02*
X2378Y847D01*
X3332Y847D02*
X3378Y847D01*
X1335Y846D02*
X1375Y846D01*
X2335Y846D02*
X2375Y846D01*
X3335Y846D02*
X3375Y846D01*
X1338Y845D02*
X1371Y845D01*
X2338Y845D02*
X2371Y845D01*
X3338Y845D02*
X3371Y845D01*
X1342Y844D02*
X1367Y844D01*
X2342Y844D02*
X2367Y844D01*
X3342Y844D02*
X3367Y844D01*
X1348Y843D02*
X1361Y843D01*
X2348Y843D02*
X2361Y843D01*
X3348Y843D02*
X3361Y843D01*
X792Y736D02*
X800Y736D01*
X1270Y736D02*
X1278Y736D01*
X1792Y736D02*
X1800Y736D01*
X2270Y736D02*
X2278Y736D01*
X2792Y736D02*
X2800Y736D01*
X3270Y736D02*
X3278Y736D01*
X784Y735D02*
X807Y735D01*
X1263Y735D02*
X1286Y735D01*
X1784Y735D02*
X1807Y735D01*
X2263Y735D02*
X2286Y735D01*
X2784Y735D02*
X2807Y735D01*
X3262Y735D02*
X3286Y735D01*
X780Y734D02*
X812Y734D01*
X1258Y734D02*
X1290Y734D01*
X1780Y734D02*
X1812Y734D01*
X2258Y734D02*
X2290Y734D01*
X2780Y734D02*
X2812Y734D01*
X3258Y734D02*
X3290Y734D01*
X776Y733D02*
X815Y733D01*
X1254Y733D02*
X1294Y733D01*
X1776Y733D02*
X1815Y733D01*
X2254Y733D02*
X2294Y733D01*
X2776Y733D02*
X2815Y733D01*
X3254Y733D02*
X3294Y733D01*
X773Y732D02*
X818Y732D01*
X1252Y732D02*
X1297Y732D01*
X1773Y732D02*
X1818Y732D01*
X2252Y732D02*
X2296Y732D01*
X2773Y732D02*
X2818Y732D01*
X3252Y732D02*
X3296Y732D01*
X771Y731D02*
X821Y731D01*
X1249Y731D02*
X1299Y731D01*
X1771Y731D02*
X1821Y731D01*
X2249Y731D02*
X2299Y731D01*
X2771Y731D02*
X2821Y731D01*
X3249Y731D02*
X3299Y731D01*
X769Y730D02*
X823Y730D01*
X1247Y730D02*
X1301Y730D01*
X1769Y730D02*
X1823Y730D01*
X2247Y730D02*
X2301Y730D01*
X2769Y730D02*
X2823Y730D01*
X3247Y730D02*
X3301Y730D01*
X767Y729D02*
X825Y729D01*
X1245Y729D02*
X1303Y729D01*
X1767Y729D02*
X1825Y729D01*
X2245Y729D02*
X2303Y729D01*
X2767Y729D02*
X2825Y729D01*
X3245Y729D02*
X3303Y729D01*
X765Y728D02*
X827Y728D01*
X1243Y728D02*
X1305Y728D01*
X1765Y728D02*
X1827Y728D01*
X2243Y728D02*
X2305Y728D01*
X2765Y728D02*
X2827Y728D01*
X3243Y728D02*
X3305Y728D01*
X763Y727D02*
X828Y727D01*
X1241Y727D02*
X1307Y727D01*
X1763Y727D02*
X1828Y727D01*
X2241Y727D02*
X2307Y727D01*
X2763Y727D02*
X2828Y727D01*
X3241Y727D02*
X3307Y727D01*
X761Y726D02*
X830Y726D01*
X1240Y726D02*
X1308Y726D01*
X1761Y726D02*
X1830Y726D01*
X2240Y726D02*
X2308Y726D01*
X2761Y726D02*
X2830Y726D01*
X3240Y726D02*
X3308Y726D01*
X760Y725D02*
X832Y725D01*
X1238Y725D02*
X1310Y725D01*
X1760Y725D02*
X1832Y725D01*
X2238Y725D02*
X2310Y725D01*
X2760Y725D02*
X2832Y725D01*
X3238Y725D02*
X3310Y725D01*
X759Y724D02*
X833Y724D01*
X1237Y724D02*
X1311Y724D01*
X1758Y724D02*
X1833Y724D01*
X2237Y724D02*
X2311Y724D01*
X2758Y724D02*
X2833Y724D01*
X3237Y724D02*
X3311Y724D01*
X757Y723D02*
X834Y723D01*
X1236Y723D02*
X1313Y723D01*
X1757Y723D02*
X1834Y723D01*
X2235Y723D02*
X2313Y723D01*
X2757Y723D02*
X2834Y723D01*
X3235Y723D02*
X3313Y723D01*
X756Y722D02*
X836Y722D01*
X1234Y722D02*
X1314Y722D01*
X1756Y722D02*
X1836Y722D01*
X2234Y722D02*
X2314Y722D01*
X2756Y722D02*
X2836Y722D01*
X3234Y722D02*
X3314Y722D01*
X755Y721D02*
X837Y721D01*
X1233Y721D02*
X1315Y721D01*
X1754Y721D02*
X1837Y721D01*
X2233Y721D02*
X2315Y721D01*
X2754Y721D02*
X2837Y721D01*
X3233Y721D02*
X3315Y721D01*
X753Y720D02*
X838Y720D01*
X1232Y720D02*
X1316Y720D01*
X1753Y720D02*
X1838Y720D01*
X2232Y720D02*
X2316Y720D01*
X2753Y720D02*
X2838Y720D01*
X3232Y720D02*
X3316Y720D01*
X752Y719D02*
X839Y719D01*
X1231Y719D02*
X1318Y719D01*
X1752Y719D02*
X1839Y719D01*
X2231Y719D02*
X2318Y719D01*
X2752Y719D02*
X2839Y719D01*
X3231Y719D02*
X3317Y719D01*
X751Y718D02*
X840Y718D01*
X1230Y718D02*
X1319Y718D01*
X1751Y718D02*
X1840Y718D01*
X2229Y718D02*
X2319Y718D01*
X2751Y718D02*
X2840Y718D01*
X3229Y718D02*
X3319Y718D01*
X750Y717D02*
X841Y717D01*
X1228Y717D02*
X1320Y717D01*
X1750Y717D02*
X1841Y717D01*
X2228Y717D02*
X2320Y717D01*
X2750Y717D02*
X2841Y717D01*
X3228Y717D02*
X3320Y717D01*
X749Y716D02*
X842Y716D01*
X1228Y716D02*
X1321Y716D01*
X1749Y716D02*
X1842Y716D01*
X2228Y716D02*
X2321Y716D01*
X2749Y716D02*
X2842Y716D01*
X3227Y716D02*
X3321Y716D01*
X748Y715D02*
X843Y715D01*
X1227Y715D02*
X1322Y715D01*
X1748Y715D02*
X1843Y715D01*
X2227Y715D02*
X2321Y715D01*
X2748Y715D02*
X2843Y715D01*
X3227Y715D02*
X3321Y715D01*
X747Y714D02*
X844Y714D01*
X1226Y714D02*
X1322Y714D01*
X1747Y714D02*
X1844Y714D01*
X2226Y714D02*
X2322Y714D01*
X2747Y714D02*
X2844Y714D01*
X3226Y714D02*
X3322Y714D01*
X747Y713D02*
X845Y713D01*
X1225Y713D02*
X1323Y713D01*
X1747Y713D02*
X1845Y713D01*
X2225Y713D02*
X2323Y713D01*
X2746Y713D02*
X2845Y713D01*
X3225Y713D02*
X3323Y713D01*
X746Y712D02*
X846Y712D01*
X1224Y712D02*
X1324Y712D01*
X1746Y712D02*
X1846Y712D01*
X2224Y712D02*
X2324Y712D01*
X2746Y712D02*
X2846Y712D01*
X3224Y712D02*
X3324Y712D01*
X745Y711D02*
X847Y711D01*
X1223Y711D02*
X1325Y711D01*
X1745Y711D02*
X1846Y711D01*
X2223Y711D02*
X2325Y711D01*
X2745Y711D02*
X2846Y711D01*
X3223Y711D02*
X3325Y711D01*
X744Y710D02*
X847Y710D01*
X1223Y710D02*
X1326Y710D01*
X1744Y710D02*
X1847Y710D01*
X2223Y710D02*
X2326Y710D01*
X2744Y710D02*
X2847Y710D01*
X3223Y710D02*
X3325Y710D01*
X744Y709D02*
X848Y709D01*
X1222Y709D02*
X1326Y709D01*
X1744Y709D02*
X1848Y709D01*
X2222Y709D02*
X2326Y709D01*
X2743Y709D02*
X2848Y709D01*
X3222Y709D02*
X3326Y709D01*
X743Y708D02*
X849Y708D01*
X1221Y708D02*
X1327Y708D01*
X1743Y708D02*
X1849Y708D01*
X2221Y708D02*
X2327Y708D01*
X2743Y708D02*
X2849Y708D01*
X3221Y708D02*
X3327Y708D01*
X742Y707D02*
X849Y707D01*
X1220Y707D02*
X1328Y707D01*
X1742Y707D02*
X1849Y707D01*
X2220Y707D02*
X2328Y707D01*
X2742Y707D02*
X2849Y707D01*
X3220Y707D02*
X3328Y707D01*
X742Y706D02*
X850Y706D01*
X1220Y706D02*
X1328Y706D01*
X1741Y706D02*
X1850Y706D01*
X2220Y706D02*
X2328Y706D01*
X2741Y706D02*
X2850Y706D01*
X3220Y706D02*
X3328Y706D01*
X741Y705D02*
X851Y705D01*
X1219Y705D02*
X1329Y705D01*
X1741Y705D02*
X1851Y705D01*
X2219Y705D02*
X2329Y705D01*
X2741Y705D02*
X2851Y705D01*
X3219Y705D02*
X3329Y705D01*
X740Y704D02*
X851Y704D01*
X1219Y704D02*
X1330Y704D01*
X1740Y704D02*
X1851Y704D01*
X2219Y704D02*
X2330Y704D01*
X2740Y704D02*
X2851Y704D01*
X3219Y704D02*
X3329Y704D01*
X740Y703D02*
X852Y703D01*
X1218Y703D02*
X1330Y703D01*
X1740Y703D02*
X1852Y703D01*
X2218Y703D02*
X2330Y703D01*
X2740Y703D02*
X2852Y703D01*
X3218Y703D02*
X3330Y703D01*
X739Y702D02*
X852Y702D01*
X1217Y702D02*
X1331Y702D01*
X1739Y702D02*
X1852Y702D01*
X2217Y702D02*
X2331Y702D01*
X2739Y702D02*
X2852Y702D01*
X3217Y702D02*
X3331Y702D01*
X739Y701D02*
X853Y701D01*
X1217Y701D02*
X1331Y701D01*
X1739Y701D02*
X1853Y701D01*
X2217Y701D02*
X2331Y701D01*
X2739Y701D02*
X2853Y701D01*
X3217Y701D02*
X3331Y701D01*
X738Y700D02*
X853Y700D01*
X1216Y700D02*
X1332Y700D01*
X1738Y700D02*
X1853Y700D01*
X2216Y700D02*
X2332Y700D01*
X2738Y700D02*
X2853Y700D01*
X3216Y700D02*
X3332Y700D01*
X738Y699D02*
X854Y699D01*
X1216Y699D02*
X1332Y699D01*
X1738Y699D02*
X1854Y699D01*
X2216Y699D02*
X2332Y699D01*
X2738Y699D02*
X2854Y699D01*
X3216Y699D02*
X3332Y699D01*
X737Y698D02*
X854Y698D01*
X1215Y698D02*
X1333Y698D01*
X1737Y698D02*
X1854Y698D01*
X2215Y698D02*
X2333Y698D01*
X2737Y698D02*
X2854Y698D01*
X3215Y698D02*
X3333Y698D01*
X737Y697D02*
X855Y697D01*
X1215Y697D02*
X1333Y697D01*
X1737Y697D02*
X1855Y697D01*
X2215Y697D02*
X2333Y697D01*
X2737Y697D02*
X2855Y697D01*
X3215Y697D02*
X3333Y697D01*
X736Y696D02*
X788Y696D01*
X803Y696D02*
X855Y696D01*
X1215Y696D02*
X1267Y696D01*
X1282Y696D02*
X1334Y696D01*
X1736Y696D02*
X1788Y696D01*
X1803Y696D02*
X1855Y696D01*
X2214Y696D02*
X2267Y696D01*
X2282Y696D02*
X2334Y696D01*
X2736Y696D02*
X2788Y696D01*
X2803Y696D02*
X2855Y696D01*
X3214Y696D02*
X3267Y696D01*
X3281Y696D02*
X3334Y696D01*
X736Y695D02*
X786Y695D01*
X806Y695D02*
X856Y695D01*
X1214Y695D02*
X1264Y695D01*
X1284Y695D02*
X1334Y695D01*
X1736Y695D02*
X1786Y695D01*
X1806Y695D02*
X1856Y695D01*
X2214Y695D02*
X2264Y695D01*
X2284Y695D02*
X2334Y695D01*
X2736Y695D02*
X2785Y695D01*
X2806Y695D02*
X2856Y695D01*
X3214Y695D02*
X3264Y695D01*
X3284Y695D02*
X3334Y695D01*
X736Y694D02*
X784Y694D01*
X808Y694D02*
X856Y694D01*
X1214Y694D02*
X1262Y694D01*
X1286Y694D02*
X1334Y694D01*
X1735Y694D02*
X1784Y694D01*
X1808Y694D02*
X1856Y694D01*
X2214Y694D02*
X2262Y694D01*
X2286Y694D02*
X2334Y694D01*
X2735Y694D02*
X2783Y694D01*
X2808Y694D02*
X2856Y694D01*
X3214Y694D02*
X3262Y694D01*
X3286Y694D02*
X3334Y694D01*
X735Y693D02*
X782Y693D01*
X810Y693D02*
X856Y693D01*
X1213Y693D02*
X1260Y693D01*
X1288Y693D02*
X1335Y693D01*
X1735Y693D02*
X1782Y693D01*
X1810Y693D02*
X1856Y693D01*
X2213Y693D02*
X2260Y693D01*
X2288Y693D02*
X2335Y693D01*
X2735Y693D02*
X2782Y693D01*
X2810Y693D02*
X2856Y693D01*
X3213Y693D02*
X3260Y693D01*
X3288Y693D02*
X3335Y693D01*
X735Y692D02*
X780Y692D01*
X811Y692D02*
X857Y692D01*
X1213Y692D02*
X1259Y692D01*
X1290Y692D02*
X1335Y692D01*
X1735Y692D02*
X1780Y692D01*
X1811Y692D02*
X1857Y692D01*
X2213Y692D02*
X2258Y692D01*
X2290Y692D02*
X2335Y692D01*
X2735Y692D02*
X2780Y692D01*
X2811Y692D02*
X2857Y692D01*
X3213Y692D02*
X3258Y692D01*
X3290Y692D02*
X3335Y692D01*
X734Y691D02*
X779Y691D01*
X813Y691D02*
X857Y691D01*
X1213Y691D02*
X1257Y691D01*
X1291Y691D02*
X1335Y691D01*
X1734Y691D02*
X1779Y691D01*
X1812Y691D02*
X1857Y691D01*
X2213Y691D02*
X2257Y691D01*
X2291Y691D02*
X2335Y691D01*
X2734Y691D02*
X2779Y691D01*
X2812Y691D02*
X2857Y691D01*
X3213Y691D02*
X3257Y691D01*
X3291Y691D02*
X3335Y691D01*
X734Y690D02*
X778Y690D01*
X814Y690D02*
X857Y690D01*
X1212Y690D02*
X1256Y690D01*
X1292Y690D02*
X1336Y690D01*
X1734Y690D02*
X1778Y690D01*
X1814Y690D02*
X1857Y690D01*
X2212Y690D02*
X2256Y690D01*
X2292Y690D02*
X2336Y690D01*
X2734Y690D02*
X2778Y690D01*
X2814Y690D02*
X2857Y690D01*
X3212Y690D02*
X3256Y690D01*
X3292Y690D02*
X3336Y690D01*
X734Y689D02*
X777Y689D01*
X815Y689D02*
X858Y689D01*
X1212Y689D02*
X1255Y689D01*
X1293Y689D02*
X1336Y689D01*
X1734Y689D02*
X1777Y689D01*
X1815Y689D02*
X1858Y689D01*
X2212Y689D02*
X2255Y689D01*
X2293Y689D02*
X2336Y689D01*
X2734Y689D02*
X2777Y689D01*
X2815Y689D02*
X2858Y689D01*
X3212Y689D02*
X3255Y689D01*
X3293Y689D02*
X3336Y689D01*
X734Y688D02*
X776Y688D01*
X816Y688D02*
X858Y688D01*
X1212Y688D02*
X1254Y688D01*
X1294Y688D02*
X1336Y688D01*
X1734Y688D02*
X1776Y688D01*
X1816Y688D02*
X1858Y688D01*
X2212Y688D02*
X2254Y688D01*
X2294Y688D02*
X2336Y688D01*
X2734Y688D02*
X2776Y688D01*
X2815Y688D02*
X2858Y688D01*
X3212Y688D02*
X3254Y688D01*
X3294Y688D02*
X3336Y688D01*
X733Y687D02*
X775Y687D01*
X816Y687D02*
X858Y687D01*
X1212Y687D02*
X1253Y687D01*
X1295Y687D02*
X1336Y687D01*
X1733Y687D02*
X1775Y687D01*
X1816Y687D02*
X1858Y687D01*
X2212Y687D02*
X2253Y687D01*
X2295Y687D02*
X2336Y687D01*
X2733Y687D02*
X2775Y687D01*
X2816Y687D02*
X2858Y687D01*
X3212Y687D02*
X3253Y687D01*
X3295Y687D02*
X3336Y687D01*
X733Y686D02*
X774Y686D01*
X817Y686D02*
X858Y686D01*
X1211Y686D02*
X1253Y686D01*
X1296Y686D02*
X1337Y686D01*
X1733Y686D02*
X1774Y686D01*
X1817Y686D02*
X1858Y686D01*
X2211Y686D02*
X2253Y686D01*
X2296Y686D02*
X2337Y686D01*
X2733Y686D02*
X2774Y686D01*
X2817Y686D02*
X2858Y686D01*
X3211Y686D02*
X3253Y686D01*
X3296Y686D02*
X3337Y686D01*
X733Y685D02*
X774Y685D01*
X818Y685D02*
X859Y685D01*
X1211Y685D02*
X1252Y685D01*
X1296Y685D02*
X1337Y685D01*
X1733Y685D02*
X1774Y685D01*
X1818Y685D02*
X1859Y685D01*
X2211Y685D02*
X2252Y685D01*
X2296Y685D02*
X2337Y685D01*
X2733Y685D02*
X2774Y685D01*
X2818Y685D02*
X2859Y685D01*
X3211Y685D02*
X3252Y685D01*
X3296Y685D02*
X3337Y685D01*
X733Y684D02*
X773Y684D01*
X818Y684D02*
X859Y684D01*
X1211Y684D02*
X1251Y684D01*
X1297Y684D02*
X1337Y684D01*
X1733Y684D02*
X1773Y684D01*
X1818Y684D02*
X1859Y684D01*
X2211Y684D02*
X2251Y684D01*
X2297Y684D02*
X2337Y684D01*
X2733Y684D02*
X2773Y684D01*
X2818Y684D02*
X2859Y684D01*
X3211Y684D02*
X3251Y684D01*
X3297Y684D02*
X3337Y684D01*
X733Y683D02*
X773Y683D01*
X819Y683D02*
X859Y683D01*
X1211Y683D02*
X1251Y683D01*
X1297Y683D02*
X1337Y683D01*
X1732Y683D02*
X1773Y683D01*
X1819Y683D02*
X1859Y683D01*
X2211Y683D02*
X2251Y683D01*
X2297Y683D02*
X2337Y683D01*
X2732Y683D02*
X2772Y683D01*
X2819Y683D02*
X2859Y683D01*
X3211Y683D02*
X3251Y683D01*
X3297Y683D02*
X3337Y683D01*
X732Y682D02*
X772Y682D01*
X819Y682D02*
X859Y682D01*
X1211Y682D02*
X1250Y682D01*
X1298Y682D02*
X1337Y682D01*
X1732Y682D02*
X1772Y682D01*
X1819Y682D02*
X1859Y682D01*
X2211Y682D02*
X2250Y682D01*
X2298Y682D02*
X2337Y682D01*
X2732Y682D02*
X2772Y682D01*
X2819Y682D02*
X2859Y682D01*
X3211Y682D02*
X3250Y682D01*
X3298Y682D02*
X3337Y682D01*
X732Y681D02*
X772Y681D01*
X820Y681D02*
X859Y681D01*
X1211Y681D02*
X1250Y681D01*
X1298Y681D02*
X1338Y681D01*
X1732Y681D02*
X1772Y681D01*
X1820Y681D02*
X1859Y681D01*
X2210Y681D02*
X2250Y681D01*
X2298Y681D02*
X2338Y681D01*
X2732Y681D02*
X2771Y681D01*
X2820Y681D02*
X2859Y681D01*
X3210Y681D02*
X3250Y681D01*
X3298Y681D02*
X3338Y681D01*
X732Y680D02*
X771Y680D01*
X820Y680D02*
X859Y680D01*
X1210Y680D02*
X1250Y680D01*
X1299Y680D02*
X1338Y680D01*
X1732Y680D02*
X1771Y680D01*
X1820Y680D02*
X1859Y680D01*
X2210Y680D02*
X2249Y680D01*
X2299Y680D02*
X2338Y680D01*
X2732Y680D02*
X2771Y680D01*
X2820Y680D02*
X2859Y680D01*
X3210Y680D02*
X3249Y680D01*
X3299Y680D02*
X3338Y680D01*
X732Y679D02*
X771Y679D01*
X821Y679D02*
X860Y679D01*
X1210Y679D02*
X1249Y679D01*
X1299Y679D02*
X1338Y679D01*
X1732Y679D02*
X1771Y679D01*
X1821Y679D02*
X1860Y679D01*
X2210Y679D02*
X2249Y679D01*
X2299Y679D02*
X2338Y679D01*
X2732Y679D02*
X2771Y679D01*
X2821Y679D02*
X2860Y679D01*
X3210Y679D02*
X3249Y679D01*
X3299Y679D02*
X3338Y679D01*
X732Y678D02*
X770Y678D01*
X821Y678D02*
X860Y678D01*
X1210Y678D02*
X1249Y678D01*
X1299Y678D02*
X1338Y678D01*
X1732Y678D02*
X1770Y678D01*
X1821Y678D02*
X1860Y678D01*
X2210Y678D02*
X2249Y678D01*
X2299Y678D02*
X2338Y678D01*
X2732Y678D02*
X2770Y678D01*
X2821Y678D02*
X2860Y678D01*
X3210Y678D02*
X3249Y678D01*
X3299Y678D02*
X3338Y678D01*
X732Y677D02*
X770Y677D01*
X821Y677D02*
X860Y677D01*
X1210Y677D02*
X1249Y677D01*
X1300Y677D02*
X1338Y677D01*
X1732Y677D02*
X1770Y677D01*
X1821Y677D02*
X1860Y677D01*
X2210Y677D02*
X2249Y677D01*
X2300Y677D02*
X2338Y677D01*
X2732Y677D02*
X2770Y677D01*
X2821Y677D02*
X2860Y677D01*
X3210Y677D02*
X3248Y677D01*
X3300Y677D02*
X3338Y677D01*
X732Y676D02*
X770Y676D01*
X822Y676D02*
X860Y676D01*
X1210Y676D02*
X1248Y676D01*
X1300Y676D02*
X1338Y676D01*
X1732Y676D02*
X1770Y676D01*
X1821Y676D02*
X1860Y676D01*
X2210Y676D02*
X2248Y676D01*
X2300Y676D02*
X2338Y676D01*
X2732Y676D02*
X2770Y676D01*
X2821Y676D02*
X2860Y676D01*
X3210Y676D02*
X3248Y676D01*
X3300Y676D02*
X3338Y676D01*
X732Y675D02*
X770Y675D01*
X822Y675D02*
X860Y675D01*
X1210Y675D02*
X1248Y675D01*
X1300Y675D02*
X1338Y675D01*
X1731Y675D02*
X1770Y675D01*
X1822Y675D02*
X1860Y675D01*
X2210Y675D02*
X2248Y675D01*
X2300Y675D02*
X2338Y675D01*
X2731Y675D02*
X2770Y675D01*
X2822Y675D02*
X2860Y675D01*
X3210Y675D02*
X3248Y675D01*
X3300Y675D02*
X3338Y675D01*
X731Y674D02*
X770Y674D01*
X822Y674D02*
X860Y674D01*
X1210Y674D02*
X1248Y674D01*
X1300Y674D02*
X1338Y674D01*
X1731Y674D02*
X1770Y674D01*
X1822Y674D02*
X1860Y674D01*
X2210Y674D02*
X2248Y674D01*
X2300Y674D02*
X2338Y674D01*
X2731Y674D02*
X2770Y674D01*
X2822Y674D02*
X2860Y674D01*
X3210Y674D02*
X3248Y674D01*
X3300Y674D02*
X3338Y674D01*
X731Y673D02*
X770Y673D01*
X822Y673D02*
X860Y673D01*
X1210Y673D02*
X1248Y673D01*
X1300Y673D02*
X1338Y673D01*
X1731Y673D02*
X1770Y673D01*
X1822Y673D02*
X1860Y673D01*
X2210Y673D02*
X2248Y673D01*
X2300Y673D02*
X2338Y673D01*
X2731Y673D02*
X2770Y673D01*
X2822Y673D02*
X2860Y673D01*
X3210Y673D02*
X3248Y673D01*
X3300Y673D02*
X3338Y673D01*
X731Y672D02*
X770Y672D01*
X822Y672D02*
X860Y672D01*
X1210Y672D02*
X1248Y672D01*
X1300Y672D02*
X1338Y672D01*
X1731Y672D02*
X1770Y672D01*
X1822Y672D02*
X1860Y672D01*
X2210Y672D02*
X2248Y672D01*
X2300Y672D02*
X2338Y672D01*
X2731Y672D02*
X2770Y672D01*
X2822Y672D02*
X2860Y672D01*
X3210Y672D02*
X3248Y672D01*
X3300Y672D02*
X3338Y672D01*
X731Y671D02*
X770Y671D01*
X822Y671D02*
X860Y671D01*
X1210Y671D02*
X1248Y671D01*
X1300Y671D02*
X1339Y671D01*
X1731Y671D02*
X1770Y671D01*
X1822Y671D02*
X1860Y671D01*
X2210Y671D02*
X2248Y671D01*
X2300Y671D02*
X2338Y671D01*
X2731Y671D02*
X2770Y671D01*
X2822Y671D02*
X2860Y671D01*
X3210Y671D02*
X3248Y671D01*
X3300Y671D02*
X3338Y671D01*
X731Y670D02*
X770Y670D01*
X822Y670D02*
X860Y670D01*
X1210Y670D02*
X1248Y670D01*
X1300Y670D02*
X1338Y670D01*
X1731Y670D02*
X1770Y670D01*
X1822Y670D02*
X1860Y670D01*
X2210Y670D02*
X2248Y670D01*
X2300Y670D02*
X2338Y670D01*
X2731Y670D02*
X2770Y670D01*
X2822Y670D02*
X2860Y670D01*
X3210Y670D02*
X3248Y670D01*
X3300Y670D02*
X3338Y670D01*
X731Y669D02*
X770Y669D01*
X822Y669D02*
X860Y669D01*
X1210Y669D02*
X1248Y669D01*
X1300Y669D02*
X1338Y669D01*
X1731Y669D02*
X1770Y669D01*
X1822Y669D02*
X1860Y669D01*
X2210Y669D02*
X2248Y669D01*
X2300Y669D02*
X2338Y669D01*
X2731Y669D02*
X2770Y669D01*
X2822Y669D02*
X2860Y669D01*
X3210Y669D02*
X3248Y669D01*
X3300Y669D02*
X3338Y669D01*
X732Y668D02*
X770Y668D01*
X822Y668D02*
X860Y668D01*
X1210Y668D02*
X1248Y668D01*
X1300Y668D02*
X1338Y668D01*
X1731Y668D02*
X1770Y668D01*
X1822Y668D02*
X1860Y668D01*
X2210Y668D02*
X2248Y668D01*
X2300Y668D02*
X2338Y668D01*
X2731Y668D02*
X2770Y668D01*
X2822Y668D02*
X2860Y668D01*
X3210Y668D02*
X3248Y668D01*
X3300Y668D02*
X3338Y668D01*
X732Y667D02*
X770Y667D01*
X822Y667D02*
X860Y667D01*
X1210Y667D02*
X1248Y667D01*
X1300Y667D02*
X1338Y667D01*
X1732Y667D02*
X1770Y667D01*
X1822Y667D02*
X1860Y667D01*
X2210Y667D02*
X2248Y667D01*
X2300Y667D02*
X2338Y667D01*
X2731Y667D02*
X2770Y667D01*
X2821Y667D02*
X2860Y667D01*
X3210Y667D02*
X3248Y667D01*
X3300Y667D02*
X3338Y667D01*
X732Y666D02*
X770Y666D01*
X821Y666D02*
X860Y666D01*
X1210Y666D02*
X1248Y666D01*
X1300Y666D02*
X1338Y666D01*
X1732Y666D02*
X1770Y666D01*
X1821Y666D02*
X1860Y666D01*
X2210Y666D02*
X2248Y666D01*
X2300Y666D02*
X2338Y666D01*
X2732Y666D02*
X2770Y666D01*
X2821Y666D02*
X2860Y666D01*
X3210Y666D02*
X3248Y666D01*
X3300Y666D02*
X3338Y666D01*
X732Y665D02*
X770Y665D01*
X821Y665D02*
X860Y665D01*
X1210Y665D02*
X1249Y665D01*
X1299Y665D02*
X1338Y665D01*
X1732Y665D02*
X1770Y665D01*
X1821Y665D02*
X1860Y665D01*
X2210Y665D02*
X2249Y665D01*
X2299Y665D02*
X2338Y665D01*
X2732Y665D02*
X2770Y665D01*
X2821Y665D02*
X2860Y665D01*
X3210Y665D02*
X3249Y665D01*
X3299Y665D02*
X3338Y665D01*
X732Y664D02*
X771Y664D01*
X821Y664D02*
X860Y664D01*
X1210Y664D02*
X1249Y664D01*
X1299Y664D02*
X1338Y664D01*
X1732Y664D02*
X1771Y664D01*
X1821Y664D02*
X1860Y664D01*
X2210Y664D02*
X2249Y664D01*
X2299Y664D02*
X2338Y664D01*
X2732Y664D02*
X2771Y664D01*
X2821Y664D02*
X2860Y664D01*
X3210Y664D02*
X3249Y664D01*
X3299Y664D02*
X3338Y664D01*
X732Y663D02*
X771Y663D01*
X821Y663D02*
X860Y663D01*
X1210Y663D02*
X1249Y663D01*
X1299Y663D02*
X1338Y663D01*
X1732Y663D02*
X1771Y663D01*
X1820Y663D02*
X1860Y663D01*
X2210Y663D02*
X2249Y663D01*
X2299Y663D02*
X2338Y663D01*
X2732Y663D02*
X2771Y663D01*
X2820Y663D02*
X2859Y663D01*
X3210Y663D02*
X3249Y663D01*
X3299Y663D02*
X3338Y663D01*
X732Y662D02*
X771Y662D01*
X820Y662D02*
X859Y662D01*
X1210Y662D02*
X1250Y662D01*
X1298Y662D02*
X1338Y662D01*
X1732Y662D02*
X1771Y662D01*
X1820Y662D02*
X1859Y662D01*
X2210Y662D02*
X2250Y662D01*
X2298Y662D02*
X2338Y662D01*
X2732Y662D02*
X2771Y662D01*
X2820Y662D02*
X2859Y662D01*
X3210Y662D02*
X3250Y662D01*
X3298Y662D02*
X3338Y662D01*
X732Y661D02*
X772Y661D01*
X820Y661D02*
X859Y661D01*
X1211Y661D02*
X1250Y661D01*
X1298Y661D02*
X1338Y661D01*
X1732Y661D02*
X1772Y661D01*
X1820Y661D02*
X1859Y661D01*
X2211Y661D02*
X2250Y661D01*
X2298Y661D02*
X2338Y661D01*
X2732Y661D02*
X2772Y661D01*
X2820Y661D02*
X2859Y661D01*
X3211Y661D02*
X3250Y661D01*
X3298Y661D02*
X3337Y661D01*
X732Y660D02*
X772Y660D01*
X819Y660D02*
X859Y660D01*
X1211Y660D02*
X1251Y660D01*
X1297Y660D02*
X1337Y660D01*
X1732Y660D02*
X1772Y660D01*
X1819Y660D02*
X1859Y660D01*
X2211Y660D02*
X2251Y660D01*
X2297Y660D02*
X2337Y660D01*
X2732Y660D02*
X2772Y660D01*
X2819Y660D02*
X2859Y660D01*
X3211Y660D02*
X3251Y660D01*
X3297Y660D02*
X3337Y660D01*
X733Y659D02*
X773Y659D01*
X819Y659D02*
X859Y659D01*
X1211Y659D02*
X1251Y659D01*
X1297Y659D02*
X1337Y659D01*
X1733Y659D02*
X1773Y659D01*
X1819Y659D02*
X1859Y659D01*
X2211Y659D02*
X2251Y659D01*
X2297Y659D02*
X2337Y659D01*
X2733Y659D02*
X2773Y659D01*
X2819Y659D02*
X2859Y659D01*
X3211Y659D02*
X3251Y659D01*
X3297Y659D02*
X3337Y659D01*
X733Y658D02*
X773Y658D01*
X818Y658D02*
X859Y658D01*
X1211Y658D02*
X1252Y658D01*
X1296Y658D02*
X1337Y658D01*
X1733Y658D02*
X1773Y658D01*
X1818Y658D02*
X1859Y658D01*
X2211Y658D02*
X2252Y658D01*
X2296Y658D02*
X2337Y658D01*
X2733Y658D02*
X2773Y658D01*
X2818Y658D02*
X2859Y658D01*
X3211Y658D02*
X3252Y658D01*
X3296Y658D02*
X3337Y658D01*
X733Y657D02*
X774Y657D01*
X818Y657D02*
X858Y657D01*
X1211Y657D02*
X1252Y657D01*
X1296Y657D02*
X1337Y657D01*
X1733Y657D02*
X1774Y657D01*
X1818Y657D02*
X1858Y657D01*
X2211Y657D02*
X2252Y657D01*
X2296Y657D02*
X2337Y657D01*
X2733Y657D02*
X2774Y657D01*
X2817Y657D02*
X2858Y657D01*
X3211Y657D02*
X3252Y657D01*
X3296Y657D02*
X3337Y657D01*
X733Y656D02*
X775Y656D01*
X817Y656D02*
X858Y656D01*
X1212Y656D02*
X1253Y656D01*
X1295Y656D02*
X1337Y656D01*
X1733Y656D02*
X1775Y656D01*
X1817Y656D02*
X1858Y656D01*
X2212Y656D02*
X2253Y656D01*
X2295Y656D02*
X2337Y656D01*
X2733Y656D02*
X2775Y656D01*
X2817Y656D02*
X2858Y656D01*
X3212Y656D02*
X3253Y656D01*
X3295Y656D02*
X3336Y656D01*
X734Y655D02*
X776Y655D01*
X816Y655D02*
X858Y655D01*
X1212Y655D02*
X1254Y655D01*
X1294Y655D02*
X1336Y655D01*
X1734Y655D02*
X1776Y655D01*
X1816Y655D02*
X1858Y655D01*
X2212Y655D02*
X2254Y655D01*
X2294Y655D02*
X2336Y655D01*
X2733Y655D02*
X2776Y655D01*
X2816Y655D02*
X2858Y655D01*
X3212Y655D02*
X3254Y655D01*
X3294Y655D02*
X3336Y655D01*
X734Y654D02*
X776Y654D01*
X815Y654D02*
X858Y654D01*
X1212Y654D02*
X1255Y654D01*
X1293Y654D02*
X1336Y654D01*
X1734Y654D02*
X1776Y654D01*
X1815Y654D02*
X1858Y654D01*
X2212Y654D02*
X2255Y654D01*
X2293Y654D02*
X2336Y654D01*
X2734Y654D02*
X2776Y654D01*
X2815Y654D02*
X2858Y654D01*
X3212Y654D02*
X3255Y654D01*
X3293Y654D02*
X3336Y654D01*
X734Y653D02*
X777Y653D01*
X814Y653D02*
X857Y653D01*
X1212Y653D02*
X1256Y653D01*
X1292Y653D02*
X1336Y653D01*
X1734Y653D02*
X1777Y653D01*
X1814Y653D02*
X1857Y653D01*
X2212Y653D02*
X2256Y653D01*
X2292Y653D02*
X2336Y653D01*
X2734Y653D02*
X2777Y653D01*
X2814Y653D02*
X2857Y653D01*
X3212Y653D02*
X3256Y653D01*
X3292Y653D02*
X3336Y653D01*
X734Y652D02*
X779Y652D01*
X813Y652D02*
X857Y652D01*
X1213Y652D02*
X1257Y652D01*
X1291Y652D02*
X1336Y652D01*
X1734Y652D02*
X1779Y652D01*
X1813Y652D02*
X1857Y652D01*
X2213Y652D02*
X2257Y652D01*
X2291Y652D02*
X2335Y652D01*
X2734Y652D02*
X2778Y652D01*
X2813Y652D02*
X2857Y652D01*
X3213Y652D02*
X3257Y652D01*
X3291Y652D02*
X3335Y652D01*
X735Y651D02*
X780Y651D01*
X812Y651D02*
X857Y651D01*
X1213Y651D02*
X1258Y651D01*
X1290Y651D02*
X1335Y651D01*
X1735Y651D02*
X1780Y651D01*
X1812Y651D02*
X1857Y651D01*
X2213Y651D02*
X2258Y651D01*
X2290Y651D02*
X2335Y651D01*
X2735Y651D02*
X2780Y651D01*
X2812Y651D02*
X2857Y651D01*
X3213Y651D02*
X3258Y651D01*
X3290Y651D02*
X3335Y651D01*
X735Y650D02*
X781Y650D01*
X811Y650D02*
X857Y650D01*
X1213Y650D02*
X1259Y650D01*
X1289Y650D02*
X1335Y650D01*
X1735Y650D02*
X1781Y650D01*
X1811Y650D02*
X1856Y650D01*
X2213Y650D02*
X2259Y650D01*
X2289Y650D02*
X2335Y650D01*
X2735Y650D02*
X2781Y650D01*
X2810Y650D02*
X2856Y650D01*
X3213Y650D02*
X3259Y650D01*
X3289Y650D02*
X3335Y650D01*
X735Y649D02*
X783Y649D01*
X809Y649D02*
X856Y649D01*
X1214Y649D02*
X1261Y649D01*
X1287Y649D02*
X1334Y649D01*
X1735Y649D02*
X1783Y649D01*
X1809Y649D02*
X1856Y649D01*
X2214Y649D02*
X2261Y649D01*
X2287Y649D02*
X2334Y649D01*
X2735Y649D02*
X2783Y649D01*
X2809Y649D02*
X2856Y649D01*
X3214Y649D02*
X3261Y649D01*
X3287Y649D02*
X3334Y649D01*
X736Y648D02*
X785Y648D01*
X807Y648D02*
X856Y648D01*
X1214Y648D02*
X1263Y648D01*
X1285Y648D02*
X1334Y648D01*
X1736Y648D02*
X1785Y648D01*
X1807Y648D02*
X1856Y648D01*
X2214Y648D02*
X2263Y648D01*
X2285Y648D02*
X2334Y648D01*
X2736Y648D02*
X2785Y648D01*
X2807Y648D02*
X2856Y648D01*
X3214Y648D02*
X3263Y648D01*
X3285Y648D02*
X3334Y648D01*
X736Y647D02*
X787Y647D01*
X804Y647D02*
X855Y647D01*
X1214Y647D02*
X1265Y647D01*
X1283Y647D02*
X1334Y647D01*
X1736Y647D02*
X1787Y647D01*
X1804Y647D02*
X1855Y647D01*
X2214Y647D02*
X2265Y647D01*
X2283Y647D02*
X2334Y647D01*
X2736Y647D02*
X2787Y647D01*
X2804Y647D02*
X2855Y647D01*
X3214Y647D02*
X3265Y647D01*
X3283Y647D02*
X3334Y647D01*
X736Y646D02*
X791Y646D01*
X801Y646D02*
X855Y646D01*
X1215Y646D02*
X1269Y646D01*
X1279Y646D02*
X1333Y646D01*
X1736Y646D02*
X1791Y646D01*
X1801Y646D02*
X1855Y646D01*
X2215Y646D02*
X2269Y646D01*
X2279Y646D02*
X2333Y646D01*
X2736Y646D02*
X2791Y646D01*
X2800Y646D02*
X2855Y646D01*
X3215Y646D02*
X3269Y646D01*
X3279Y646D02*
X3333Y646D01*
X737Y645D02*
X855Y645D01*
X1215Y645D02*
X1333Y645D01*
X1737Y645D02*
X1855Y645D01*
X2215Y645D02*
X2333Y645D01*
X2737Y645D02*
X2855Y645D01*
X3215Y645D02*
X3333Y645D01*
X737Y644D02*
X854Y644D01*
X1216Y644D02*
X1332Y644D01*
X1737Y644D02*
X1854Y644D01*
X2216Y644D02*
X2332Y644D01*
X2737Y644D02*
X2854Y644D01*
X3216Y644D02*
X3332Y644D01*
X738Y643D02*
X854Y643D01*
X1216Y643D02*
X1332Y643D01*
X1738Y643D02*
X1854Y643D01*
X2216Y643D02*
X2332Y643D01*
X2738Y643D02*
X2854Y643D01*
X3216Y643D02*
X3332Y643D01*
X738Y642D02*
X853Y642D01*
X1217Y642D02*
X1331Y642D01*
X1738Y642D02*
X1853Y642D01*
X2217Y642D02*
X2331Y642D01*
X2738Y642D02*
X2853Y642D01*
X3217Y642D02*
X3331Y642D01*
X739Y641D02*
X853Y641D01*
X1217Y641D02*
X1331Y641D01*
X1739Y641D02*
X1853Y641D01*
X2217Y641D02*
X2331Y641D01*
X2739Y641D02*
X2853Y641D01*
X3217Y641D02*
X3331Y641D01*
X739Y640D02*
X852Y640D01*
X1218Y640D02*
X1330Y640D01*
X1739Y640D02*
X1852Y640D01*
X2218Y640D02*
X2330Y640D01*
X2739Y640D02*
X2852Y640D01*
X3218Y640D02*
X3330Y640D01*
X740Y639D02*
X851Y639D01*
X1218Y639D02*
X1330Y639D01*
X1740Y639D02*
X1851Y639D01*
X2218Y639D02*
X2330Y639D01*
X2740Y639D02*
X2851Y639D01*
X3218Y639D02*
X3330Y639D01*
X741Y638D02*
X851Y638D01*
X1219Y638D02*
X1329Y638D01*
X1741Y638D02*
X1851Y638D01*
X2219Y638D02*
X2329Y638D01*
X2741Y638D02*
X2851Y638D01*
X3219Y638D02*
X3329Y638D01*
X741Y637D02*
X850Y637D01*
X1220Y637D02*
X1329Y637D01*
X1741Y637D02*
X1850Y637D01*
X2220Y637D02*
X2329Y637D01*
X2741Y637D02*
X2850Y637D01*
X3220Y637D02*
X3328Y637D01*
X742Y636D02*
X850Y636D01*
X1220Y636D02*
X1328Y636D01*
X1742Y636D02*
X1850Y636D01*
X2220Y636D02*
X2328Y636D01*
X2742Y636D02*
X2850Y636D01*
X3220Y636D02*
X3328Y636D01*
X743Y635D02*
X849Y635D01*
X1221Y635D02*
X1327Y635D01*
X1742Y635D02*
X1849Y635D01*
X2221Y635D02*
X2327Y635D01*
X2742Y635D02*
X2849Y635D01*
X3221Y635D02*
X3327Y635D01*
X743Y634D02*
X848Y634D01*
X1222Y634D02*
X1327Y634D01*
X1743Y634D02*
X1848Y634D01*
X2222Y634D02*
X2327Y634D01*
X2743Y634D02*
X2848Y634D01*
X3221Y634D02*
X3327Y634D01*
X744Y633D02*
X848Y633D01*
X1222Y633D02*
X1326Y633D01*
X1744Y633D02*
X1847Y633D01*
X2222Y633D02*
X2326Y633D01*
X2744Y633D02*
X2847Y633D01*
X3222Y633D02*
X3326Y633D01*
X745Y632D02*
X847Y632D01*
X1223Y632D02*
X1325Y632D01*
X1745Y632D02*
X1847Y632D01*
X2223Y632D02*
X2325Y632D01*
X2745Y632D02*
X2847Y632D01*
X3223Y632D02*
X3325Y632D01*
X745Y631D02*
X846Y631D01*
X1224Y631D02*
X1324Y631D01*
X1745Y631D02*
X1846Y631D01*
X2224Y631D02*
X2324Y631D01*
X2745Y631D02*
X2846Y631D01*
X3224Y631D02*
X3324Y631D01*
X746Y630D02*
X845Y630D01*
X1225Y630D02*
X1324Y630D01*
X1746Y630D02*
X1845Y630D01*
X2225Y630D02*
X2324Y630D01*
X2746Y630D02*
X2845Y630D01*
X3224Y630D02*
X3324Y630D01*
X747Y629D02*
X844Y629D01*
X1225Y629D02*
X1323Y629D01*
X1747Y629D02*
X1844Y629D01*
X2225Y629D02*
X2323Y629D01*
X2747Y629D02*
X2844Y629D01*
X3225Y629D02*
X3323Y629D01*
X748Y628D02*
X844Y628D01*
X1226Y628D02*
X1322Y628D01*
X1748Y628D02*
X1844Y628D01*
X2226Y628D02*
X2322Y628D01*
X2748Y628D02*
X2843Y628D01*
X3226Y628D02*
X3322Y628D01*
X749Y627D02*
X843Y627D01*
X1227Y627D02*
X1321Y627D01*
X1749Y627D02*
X1843Y627D01*
X2227Y627D02*
X2321Y627D01*
X2749Y627D02*
X2843Y627D01*
X3227Y627D02*
X3321Y627D01*
X750Y626D02*
X842Y626D01*
X1228Y626D02*
X1320Y626D01*
X1750Y626D02*
X1842Y626D01*
X2228Y626D02*
X2320Y626D01*
X2750Y626D02*
X2842Y626D01*
X3228Y626D02*
X3320Y626D01*
X751Y625D02*
X841Y625D01*
X1229Y625D02*
X1319Y625D01*
X1751Y625D02*
X1841Y625D01*
X2229Y625D02*
X2319Y625D01*
X2751Y625D02*
X2841Y625D01*
X3229Y625D02*
X3319Y625D01*
X752Y624D02*
X840Y624D01*
X1230Y624D02*
X1318Y624D01*
X1752Y624D02*
X1840Y624D01*
X2230Y624D02*
X2318Y624D01*
X2752Y624D02*
X2840Y624D01*
X3230Y624D02*
X3318Y624D01*
X753Y623D02*
X839Y623D01*
X1231Y623D02*
X1317Y623D01*
X1753Y623D02*
X1838Y623D01*
X2231Y623D02*
X2317Y623D01*
X2753Y623D02*
X2838Y623D01*
X3231Y623D02*
X3317Y623D01*
X754Y622D02*
X837Y622D01*
X1232Y622D02*
X1316Y622D01*
X1754Y622D02*
X1837Y622D01*
X2232Y622D02*
X2316Y622D01*
X2754Y622D02*
X2837Y622D01*
X3232Y622D02*
X3316Y622D01*
X755Y621D02*
X836Y621D01*
X1234Y621D02*
X1315Y621D01*
X1755Y621D02*
X1836Y621D01*
X2234Y621D02*
X2315Y621D01*
X2755Y621D02*
X2836Y621D01*
X3234Y621D02*
X3314Y621D01*
X757Y620D02*
X835Y620D01*
X1235Y620D02*
X1313Y620D01*
X1757Y620D02*
X1835Y620D01*
X2235Y620D02*
X2313Y620D01*
X2757Y620D02*
X2835Y620D01*
X3235Y620D02*
X3313Y620D01*
X758Y619D02*
X834Y619D01*
X1236Y619D02*
X1312Y619D01*
X1758Y619D02*
X1833Y619D01*
X2236Y619D02*
X2312Y619D01*
X2758Y619D02*
X2833Y619D01*
X3236Y619D02*
X3312Y619D01*
X759Y618D02*
X832Y618D01*
X1238Y618D02*
X1310Y618D01*
X1759Y618D02*
X1832Y618D01*
X2238Y618D02*
X2310Y618D01*
X2759Y618D02*
X2832Y618D01*
X3238Y618D02*
X3310Y618D01*
X761Y617D02*
X831Y617D01*
X1239Y617D02*
X1309Y617D01*
X1761Y617D02*
X1831Y617D01*
X2239Y617D02*
X2309Y617D01*
X2761Y617D02*
X2831Y617D01*
X3239Y617D02*
X3309Y617D01*
X762Y616D02*
X829Y616D01*
X1241Y616D02*
X1307Y616D01*
X1762Y616D02*
X1829Y616D01*
X2241Y616D02*
X2307Y616D01*
X2762Y616D02*
X2829Y616D01*
X3241Y616D02*
X3307Y616D01*
X764Y615D02*
X827Y615D01*
X1242Y615D02*
X1306Y615D01*
X1764Y615D02*
X1827Y615D01*
X2242Y615D02*
X2306Y615D01*
X2764Y615D02*
X2827Y615D01*
X3242Y615D02*
X3306Y615D01*
X766Y614D02*
X826Y614D01*
X1244Y614D02*
X1304Y614D01*
X1766Y614D02*
X1826Y614D01*
X2244Y614D02*
X2304Y614D01*
X2766Y614D02*
X2826Y614D01*
X3244Y614D02*
X3304Y614D01*
X768Y613D02*
X824Y613D01*
X1246Y613D02*
X1302Y613D01*
X1768Y613D02*
X1824Y613D01*
X2246Y613D02*
X2302Y613D01*
X2768Y613D02*
X2824Y613D01*
X3246Y613D02*
X3302Y613D01*
X770Y612D02*
X822Y612D01*
X1248Y612D02*
X1300Y612D01*
X1770Y612D02*
X1822Y612D01*
X2248Y612D02*
X2300Y612D01*
X2770Y612D02*
X2822Y612D01*
X3248Y612D02*
X3300Y612D01*
X772Y611D02*
X819Y611D01*
X1251Y611D02*
X1298Y611D01*
X1772Y611D02*
X1819Y611D01*
X2251Y611D02*
X2298Y611D01*
X2772Y611D02*
X2819Y611D01*
X3251Y611D02*
X3297Y611D01*
X775Y610D02*
X816Y610D01*
X1253Y610D02*
X1295Y610D01*
X1775Y610D02*
X1816Y610D01*
X2253Y610D02*
X2295Y610D01*
X2775Y610D02*
X2816Y610D01*
X3253Y610D02*
X3295Y610D01*
X778Y609D02*
X813Y609D01*
X1257Y609D02*
X1291Y609D01*
X1778Y609D02*
X1813Y609D01*
X2257Y609D02*
X2291Y609D01*
X2778Y609D02*
X2813Y609D01*
X3257Y609D02*
X3291Y609D01*
X782Y608D02*
X809Y608D01*
X1261Y608D02*
X1288Y608D01*
X1782Y608D02*
X1809Y608D01*
X2261Y608D02*
X2288Y608D01*
X2782Y608D02*
X2809Y608D01*
X3261Y608D02*
X3287Y608D01*
X788Y607D02*
X803Y607D01*
X1266Y607D02*
X1282Y607D01*
X1788Y607D02*
X1803Y607D01*
X2266Y607D02*
X2282Y607D01*
X2788Y607D02*
X2803Y607D01*
X3266Y607D02*
X3282Y607D01*
X418Y244D02*
X491Y244D01*
X418Y243D02*
X491Y243D01*
X418Y242D02*
X491Y242D01*
X418Y241D02*
X491Y241D01*
X418Y240D02*
X491Y240D01*
X418Y239D02*
X491Y239D01*
X418Y238D02*
X491Y238D01*
X418Y237D02*
X491Y237D01*
X418Y236D02*
X491Y236D01*
X418Y235D02*
X491Y235D01*
X418Y234D02*
X491Y234D01*
X418Y233D02*
X491Y233D01*
X418Y232D02*
X491Y232D01*
X418Y231D02*
X491Y231D01*
X418Y230D02*
X491Y230D01*
X418Y229D02*
X491Y229D01*
X418Y228D02*
X491Y228D01*
X418Y227D02*
X452Y227D01*
X457Y227D02*
X491Y227D01*
X418Y226D02*
X448Y226D01*
X462Y226D02*
X491Y226D01*
X418Y225D02*
X445Y225D01*
X464Y225D02*
X491Y225D01*
X418Y224D02*
X444Y224D01*
X466Y224D02*
X491Y224D01*
X418Y223D02*
X442Y223D01*
X467Y223D02*
X491Y223D01*
X418Y222D02*
X441Y222D01*
X469Y222D02*
X491Y222D01*
X418Y221D02*
X440Y221D01*
X470Y221D02*
X491Y221D01*
X418Y220D02*
X439Y220D01*
X470Y220D02*
X491Y220D01*
X418Y219D02*
X438Y219D01*
X471Y219D02*
X491Y219D01*
X418Y218D02*
X438Y218D01*
X472Y218D02*
X491Y218D01*
X418Y217D02*
X437Y217D01*
X472Y217D02*
X491Y217D01*
X418Y216D02*
X437Y216D01*
X473Y216D02*
X491Y216D01*
X418Y215D02*
X436Y215D01*
X474Y215D02*
X491Y215D01*
X418Y214D02*
X436Y214D01*
X474Y214D02*
X491Y214D01*
X418Y213D02*
X436Y213D01*
X474Y213D02*
X491Y213D01*
X418Y212D02*
X435Y212D01*
X474Y212D02*
X491Y212D01*
X418Y211D02*
X435Y211D01*
X475Y211D02*
X491Y211D01*
X418Y210D02*
X435Y210D01*
X475Y210D02*
X491Y210D01*
X418Y209D02*
X435Y209D01*
X475Y209D02*
X491Y209D01*
X418Y208D02*
X435Y208D01*
X475Y208D02*
X491Y208D01*
X418Y207D02*
X435Y207D01*
X475Y207D02*
X491Y207D01*
X418Y206D02*
X435Y206D01*
X475Y206D02*
X491Y206D01*
X418Y205D02*
X435Y205D01*
X475Y205D02*
X491Y205D01*
X418Y204D02*
X435Y204D01*
X475Y204D02*
X491Y204D01*
X418Y203D02*
X435Y203D01*
X474Y203D02*
X491Y203D01*
X418Y202D02*
X436Y202D01*
X474Y202D02*
X491Y202D01*
X418Y201D02*
X436Y201D01*
X474Y201D02*
X491Y201D01*
X418Y200D02*
X436Y200D01*
X473Y200D02*
X491Y200D01*
X418Y199D02*
X437Y199D01*
X473Y199D02*
X491Y199D01*
X418Y198D02*
X437Y198D01*
X472Y198D02*
X491Y198D01*
X418Y197D02*
X438Y197D01*
X472Y197D02*
X491Y197D01*
X418Y196D02*
X438Y196D01*
X471Y196D02*
X491Y196D01*
X418Y195D02*
X439Y195D01*
X470Y195D02*
X491Y195D01*
X418Y194D02*
X440Y194D01*
X470Y194D02*
X491Y194D01*
X418Y193D02*
X441Y193D01*
X469Y193D02*
X491Y193D01*
X418Y192D02*
X442Y192D01*
X467Y192D02*
X491Y192D01*
X418Y191D02*
X444Y191D01*
X466Y191D02*
X491Y191D01*
X418Y190D02*
X446Y190D01*
X464Y190D02*
X491Y190D01*
X418Y189D02*
X448Y189D01*
X462Y189D02*
X491Y189D01*
X418Y188D02*
X453Y188D01*
X457Y188D02*
X491Y188D01*
X418Y187D02*
X491Y187D01*
X418Y186D02*
X491Y186D01*
X418Y185D02*
X491Y185D01*
X418Y184D02*
X491Y184D01*
X418Y183D02*
X491Y183D01*
X418Y182D02*
X491Y182D01*
X418Y181D02*
X491Y181D01*
X418Y180D02*
X491Y180D01*
X418Y179D02*
X491Y179D01*
X418Y178D02*
X491Y178D01*
X418Y177D02*
X491Y177D01*
X418Y176D02*
X491Y176D01*
X418Y175D02*
X491Y175D01*
X418Y174D02*
X491Y174D01*
X418Y173D02*
X491Y173D01*
X418Y172D02*
X491Y172D01*
X418Y171D02*
X491Y171D01*
D02*
G04 End of Copper0*
M02*