; NON-PLATED HOLES START AT T1
; THROUGH (PLATED) HOLES START AT T100
M48
INCH
T1C0.086614
T100C0.039370
T101C0.035000
T102C0.042000
T103C0.059055
T104C0.038000
T105C0.040000
T106C0.015748
T107C0.040255
T108C0.051181
%
T1
X006553Y019403
X036553Y019403
X005553Y019403
X002553Y019403
X017553Y019403
X033553Y019403
X015553Y019403
X011553Y019403
X020553Y019403
X004553Y019403
X030553Y019403
X032553Y019403
X026553Y019403
X021553Y019403
X028553Y019403
X007553Y019403
X016553Y019403
X009553Y019403
X003553Y019403
X008553Y019403
X014553Y019403
X031553Y019403
X029553Y019403
X001553Y019403
X013553Y019403
X023553Y019403
X022553Y019403
X027553Y019403
X018553Y019403
X000553Y019403
X019553Y019403
X034553Y019403
X012553Y019403
X035553Y019403
X010553Y019403
X024553Y019403
X025553Y019403
T100
X004553Y022070
X002553Y002070
X004553Y002070
X003553Y022070
X003553Y002070
X002553Y022070
T101
X027553Y014070
X017553Y014070
X015553Y037070
X004553Y027070
X016553Y034070
X015553Y034070
X024553Y017070
X026553Y017070
X014553Y017070
X013553Y034070
X028553Y017070
X024553Y034070
X003553Y024070
X018553Y037070
X003553Y007070
X014553Y034070
X022553Y014070
X011553Y034070
X016553Y014070
X022553Y037070
X028553Y014070
X026553Y037070
X018553Y017070
X025553Y017070
X004553Y024070
X023553Y037070
X011553Y017070
X029553Y037070
X023553Y017070
X025553Y037070
X029553Y034070
X003553Y027070
X029553Y014070
X014553Y014070
X014553Y037070
X029553Y017070
X027553Y034070
X011553Y037070
X003553Y004070
X004553Y004070
X013553Y014070
X027553Y017070
X015553Y014070
X011553Y014070
X016553Y017070
X024553Y014070
X018553Y014070
X012553Y017070
X012553Y034070
X024553Y037070
X004553Y007070
X013553Y017070
X023553Y034070
X015553Y017070
X017553Y017070
X017553Y034070
X026553Y014070
X012553Y014070
X025553Y034070
X026553Y034070
X028553Y034070
X022553Y017070
X017553Y037070
X023553Y014070
X018553Y034070
X012553Y037070
X028553Y037070
X025553Y014070
X016553Y037070
X027553Y037070
X022553Y034070
X013553Y037070
T102
X004533Y010070
X001553Y028551
X004533Y028551
X001553Y008551
X004533Y030070
X001553Y030070
X004533Y008551
X001553Y010070
T103
X008616Y002070
X028616Y022070
X020585Y002070
X028616Y002070
X018616Y002070
X010585Y002070
X030585Y002070
X010585Y022070
X030585Y022070
X012553Y002070
X022553Y002070
X032553Y022070
X022553Y022070
X018616Y022070
X032553Y002070
X012553Y022070
X020585Y022070
X008616Y022070
T104
X031053Y034070
X032053Y014070
X033053Y034070
X001553Y033070
X003553Y034218
X003553Y033218
X033053Y014070
X032053Y034070
X003553Y013218
X003553Y032218
X001553Y012070
X001553Y032070
X001553Y013070
X003553Y014218
X031053Y014070
X003553Y012218
T105
X003553Y038070
X003553Y018070
X003553Y036101
X003553Y016101
T106
X031553Y037070
X031553Y017070
T107
X035553Y018076
X035553Y015057
X035553Y036063
X035553Y037070
X034553Y035057
X034553Y017070
X034553Y015057
X035553Y035057
X034553Y036063
X034553Y018076
X035553Y017070
X035553Y016063
X035553Y038076
X034553Y038076
X034553Y037070
X034553Y016063
T108
X012746Y006708
X032746Y031432
X032746Y011432
X027963Y026708
X027963Y006708
X023553Y029070
X022746Y006708
X033553Y009070
X007963Y011432
X027963Y011432
X013553Y029070
X013553Y009070
X022746Y031432
X017963Y031432
X033553Y029070
X022746Y026708
X017963Y011432
X012746Y026708
X032746Y006708
X017963Y026708
X007963Y006708
X007963Y026708
X012746Y031432
X023553Y009070
X027963Y031432
X012746Y011432
X007963Y031432
X017963Y006708
X032746Y026708
X022746Y011432
T00
M30
